G75*
%MOIN*%
%OFA0B0*%
%FSLAX25Y25*%
%IPPOS*%
%LPD*%
%AMOC8*
5,1,8,0,0,1.08239X$1,22.5*
%
%ADD10C,0.00000*%
%ADD11C,0.00600*%
%ADD12R,0.07087X0.06299*%
%ADD13R,0.06299X0.07087*%
%ADD14R,0.03268X0.02480*%
%ADD15R,0.06000X0.01800*%
%ADD16R,0.07874X0.02953*%
%ADD17R,0.07400X0.07400*%
%ADD18OC8,0.07400*%
%ADD19R,0.06299X0.07098*%
%ADD20R,0.05512X0.07480*%
%ADD21R,0.06102X0.05118*%
%ADD22OC8,0.05200*%
%ADD23R,0.07087X0.03150*%
%ADD24R,0.04756X0.04756*%
%ADD25R,0.07874X0.03937*%
%ADD26R,0.03937X0.07087*%
%ADD27R,0.05800X0.02000*%
%ADD28R,0.02000X0.05800*%
%ADD29C,0.06000*%
%ADD30C,0.01000*%
%ADD31C,0.03962*%
D10*
X0017896Y0011346D02*
X0017896Y0221307D01*
X0291597Y0221307D01*
X0291597Y0011346D01*
X0017896Y0011346D01*
X0223743Y0030008D02*
X0223745Y0030089D01*
X0223751Y0030171D01*
X0223761Y0030252D01*
X0223775Y0030332D01*
X0223792Y0030411D01*
X0223814Y0030490D01*
X0223839Y0030567D01*
X0223868Y0030644D01*
X0223901Y0030718D01*
X0223938Y0030791D01*
X0223977Y0030862D01*
X0224021Y0030931D01*
X0224067Y0030998D01*
X0224117Y0031062D01*
X0224170Y0031124D01*
X0224226Y0031184D01*
X0224284Y0031240D01*
X0224346Y0031294D01*
X0224410Y0031345D01*
X0224476Y0031392D01*
X0224544Y0031436D01*
X0224615Y0031477D01*
X0224687Y0031514D01*
X0224762Y0031548D01*
X0224837Y0031578D01*
X0224915Y0031604D01*
X0224993Y0031627D01*
X0225072Y0031645D01*
X0225152Y0031660D01*
X0225233Y0031671D01*
X0225314Y0031678D01*
X0225396Y0031681D01*
X0225477Y0031680D01*
X0225558Y0031675D01*
X0225639Y0031666D01*
X0225720Y0031653D01*
X0225800Y0031636D01*
X0225878Y0031616D01*
X0225956Y0031591D01*
X0226033Y0031563D01*
X0226108Y0031531D01*
X0226181Y0031496D01*
X0226252Y0031457D01*
X0226322Y0031414D01*
X0226389Y0031369D01*
X0226455Y0031320D01*
X0226517Y0031268D01*
X0226577Y0031212D01*
X0226634Y0031154D01*
X0226689Y0031094D01*
X0226740Y0031030D01*
X0226788Y0030965D01*
X0226833Y0030897D01*
X0226875Y0030827D01*
X0226913Y0030755D01*
X0226948Y0030681D01*
X0226979Y0030606D01*
X0227006Y0030529D01*
X0227029Y0030451D01*
X0227049Y0030372D01*
X0227065Y0030292D01*
X0227077Y0030211D01*
X0227085Y0030130D01*
X0227089Y0030049D01*
X0227089Y0029967D01*
X0227085Y0029886D01*
X0227077Y0029805D01*
X0227065Y0029724D01*
X0227049Y0029644D01*
X0227029Y0029565D01*
X0227006Y0029487D01*
X0226979Y0029410D01*
X0226948Y0029335D01*
X0226913Y0029261D01*
X0226875Y0029189D01*
X0226833Y0029119D01*
X0226788Y0029051D01*
X0226740Y0028986D01*
X0226689Y0028922D01*
X0226634Y0028862D01*
X0226577Y0028804D01*
X0226517Y0028748D01*
X0226455Y0028696D01*
X0226389Y0028647D01*
X0226322Y0028602D01*
X0226253Y0028559D01*
X0226181Y0028520D01*
X0226108Y0028485D01*
X0226033Y0028453D01*
X0225956Y0028425D01*
X0225878Y0028400D01*
X0225800Y0028380D01*
X0225720Y0028363D01*
X0225639Y0028350D01*
X0225558Y0028341D01*
X0225477Y0028336D01*
X0225396Y0028335D01*
X0225314Y0028338D01*
X0225233Y0028345D01*
X0225152Y0028356D01*
X0225072Y0028371D01*
X0224993Y0028389D01*
X0224915Y0028412D01*
X0224837Y0028438D01*
X0224762Y0028468D01*
X0224687Y0028502D01*
X0224615Y0028539D01*
X0224544Y0028580D01*
X0224476Y0028624D01*
X0224410Y0028671D01*
X0224346Y0028722D01*
X0224284Y0028776D01*
X0224226Y0028832D01*
X0224170Y0028892D01*
X0224117Y0028954D01*
X0224067Y0029018D01*
X0224021Y0029085D01*
X0223977Y0029154D01*
X0223938Y0029225D01*
X0223901Y0029298D01*
X0223868Y0029372D01*
X0223839Y0029449D01*
X0223814Y0029526D01*
X0223792Y0029605D01*
X0223775Y0029684D01*
X0223761Y0029764D01*
X0223751Y0029845D01*
X0223745Y0029927D01*
X0223743Y0030008D01*
X0238703Y0030008D02*
X0238705Y0030089D01*
X0238711Y0030171D01*
X0238721Y0030252D01*
X0238735Y0030332D01*
X0238752Y0030411D01*
X0238774Y0030490D01*
X0238799Y0030567D01*
X0238828Y0030644D01*
X0238861Y0030718D01*
X0238898Y0030791D01*
X0238937Y0030862D01*
X0238981Y0030931D01*
X0239027Y0030998D01*
X0239077Y0031062D01*
X0239130Y0031124D01*
X0239186Y0031184D01*
X0239244Y0031240D01*
X0239306Y0031294D01*
X0239370Y0031345D01*
X0239436Y0031392D01*
X0239504Y0031436D01*
X0239575Y0031477D01*
X0239647Y0031514D01*
X0239722Y0031548D01*
X0239797Y0031578D01*
X0239875Y0031604D01*
X0239953Y0031627D01*
X0240032Y0031645D01*
X0240112Y0031660D01*
X0240193Y0031671D01*
X0240274Y0031678D01*
X0240356Y0031681D01*
X0240437Y0031680D01*
X0240518Y0031675D01*
X0240599Y0031666D01*
X0240680Y0031653D01*
X0240760Y0031636D01*
X0240838Y0031616D01*
X0240916Y0031591D01*
X0240993Y0031563D01*
X0241068Y0031531D01*
X0241141Y0031496D01*
X0241212Y0031457D01*
X0241282Y0031414D01*
X0241349Y0031369D01*
X0241415Y0031320D01*
X0241477Y0031268D01*
X0241537Y0031212D01*
X0241594Y0031154D01*
X0241649Y0031094D01*
X0241700Y0031030D01*
X0241748Y0030965D01*
X0241793Y0030897D01*
X0241835Y0030827D01*
X0241873Y0030755D01*
X0241908Y0030681D01*
X0241939Y0030606D01*
X0241966Y0030529D01*
X0241989Y0030451D01*
X0242009Y0030372D01*
X0242025Y0030292D01*
X0242037Y0030211D01*
X0242045Y0030130D01*
X0242049Y0030049D01*
X0242049Y0029967D01*
X0242045Y0029886D01*
X0242037Y0029805D01*
X0242025Y0029724D01*
X0242009Y0029644D01*
X0241989Y0029565D01*
X0241966Y0029487D01*
X0241939Y0029410D01*
X0241908Y0029335D01*
X0241873Y0029261D01*
X0241835Y0029189D01*
X0241793Y0029119D01*
X0241748Y0029051D01*
X0241700Y0028986D01*
X0241649Y0028922D01*
X0241594Y0028862D01*
X0241537Y0028804D01*
X0241477Y0028748D01*
X0241415Y0028696D01*
X0241349Y0028647D01*
X0241282Y0028602D01*
X0241213Y0028559D01*
X0241141Y0028520D01*
X0241068Y0028485D01*
X0240993Y0028453D01*
X0240916Y0028425D01*
X0240838Y0028400D01*
X0240760Y0028380D01*
X0240680Y0028363D01*
X0240599Y0028350D01*
X0240518Y0028341D01*
X0240437Y0028336D01*
X0240356Y0028335D01*
X0240274Y0028338D01*
X0240193Y0028345D01*
X0240112Y0028356D01*
X0240032Y0028371D01*
X0239953Y0028389D01*
X0239875Y0028412D01*
X0239797Y0028438D01*
X0239722Y0028468D01*
X0239647Y0028502D01*
X0239575Y0028539D01*
X0239504Y0028580D01*
X0239436Y0028624D01*
X0239370Y0028671D01*
X0239306Y0028722D01*
X0239244Y0028776D01*
X0239186Y0028832D01*
X0239130Y0028892D01*
X0239077Y0028954D01*
X0239027Y0029018D01*
X0238981Y0029085D01*
X0238937Y0029154D01*
X0238898Y0029225D01*
X0238861Y0029298D01*
X0238828Y0029372D01*
X0238799Y0029449D01*
X0238774Y0029526D01*
X0238752Y0029605D01*
X0238735Y0029684D01*
X0238721Y0029764D01*
X0238711Y0029845D01*
X0238705Y0029927D01*
X0238703Y0030008D01*
D11*
X0159415Y0206646D02*
X0161550Y0208782D01*
X0161550Y0213052D01*
X0157280Y0213052D02*
X0157280Y0208782D01*
X0159415Y0206646D01*
X0155105Y0207714D02*
X0154037Y0206646D01*
X0151902Y0206646D01*
X0150834Y0207714D01*
X0155105Y0211984D01*
X0155105Y0207714D01*
X0150834Y0207714D02*
X0150834Y0211984D01*
X0151902Y0213052D01*
X0154037Y0213052D01*
X0155105Y0211984D01*
X0148679Y0207714D02*
X0148679Y0206646D01*
X0147612Y0206646D01*
X0147612Y0207714D01*
X0148679Y0207714D01*
X0145436Y0206646D02*
X0141166Y0206646D01*
X0145436Y0210917D01*
X0145436Y0211984D01*
X0144369Y0213052D01*
X0142234Y0213052D01*
X0141166Y0211984D01*
X0132545Y0213052D02*
X0128275Y0213052D01*
X0128275Y0206646D01*
X0132545Y0206646D01*
X0130410Y0209849D02*
X0128275Y0209849D01*
X0126113Y0213052D02*
X0123978Y0213052D01*
X0125046Y0213052D02*
X0125046Y0206646D01*
X0126113Y0206646D02*
X0123978Y0206646D01*
X0119668Y0206646D02*
X0119668Y0213052D01*
X0117533Y0213052D02*
X0121803Y0213052D01*
X0115357Y0211984D02*
X0115357Y0207714D01*
X0114290Y0206646D01*
X0112155Y0206646D01*
X0111087Y0207714D01*
X0111087Y0211984D01*
X0112155Y0213052D01*
X0114290Y0213052D01*
X0115357Y0211984D01*
X0108912Y0211984D02*
X0108912Y0207714D01*
X0107844Y0206646D01*
X0105709Y0206646D01*
X0104642Y0207714D01*
X0104642Y0211984D01*
X0105709Y0213052D01*
X0107844Y0213052D01*
X0108912Y0211984D01*
X0102466Y0213052D02*
X0098196Y0213052D01*
X0098196Y0206646D01*
X0098196Y0209849D02*
X0100331Y0209849D01*
D12*
X0102896Y0176858D03*
X0102896Y0165835D03*
X0107896Y0136858D03*
X0107896Y0125835D03*
X0027896Y0120835D03*
X0027896Y0131858D03*
D13*
X0027384Y0156346D03*
X0038408Y0156346D03*
X0038408Y0196346D03*
X0027384Y0196346D03*
X0122384Y0151346D03*
X0122384Y0141346D03*
X0133408Y0141346D03*
X0133408Y0151346D03*
X0147384Y0151346D03*
X0158408Y0151346D03*
X0158408Y0141346D03*
X0147384Y0141346D03*
X0147384Y0131346D03*
X0158408Y0131346D03*
X0133408Y0131346D03*
X0122384Y0131346D03*
X0157384Y0101346D03*
X0168408Y0101346D03*
X0187384Y0096346D03*
X0198408Y0096346D03*
X0198408Y0081346D03*
X0187384Y0081346D03*
X0197384Y0051346D03*
X0208408Y0051346D03*
X0227384Y0081346D03*
X0238408Y0081346D03*
X0252384Y0051346D03*
X0263408Y0051346D03*
X0158408Y0171346D03*
X0147384Y0171346D03*
X0147384Y0181346D03*
X0158408Y0181346D03*
D14*
X0142896Y0100874D03*
X0142896Y0091819D03*
D15*
X0125896Y0092546D03*
X0125896Y0095046D03*
X0125896Y0097646D03*
X0125896Y0100146D03*
X0109896Y0100146D03*
X0109896Y0097646D03*
X0109896Y0095046D03*
X0109896Y0092546D03*
D16*
X0232896Y0187961D03*
X0232896Y0214732D03*
D17*
X0117896Y0191346D03*
D18*
X0127896Y0191346D03*
X0127896Y0181346D03*
X0117896Y0181346D03*
X0117896Y0171346D03*
X0127896Y0171346D03*
D19*
X0157298Y0091346D03*
X0168494Y0091346D03*
X0187298Y0071346D03*
X0198494Y0071346D03*
X0227298Y0071346D03*
X0238494Y0071346D03*
D20*
X0037620Y0167685D03*
X0028172Y0167685D03*
X0028172Y0185008D03*
X0037620Y0185008D03*
D21*
X0187246Y0040205D03*
X0187246Y0022488D03*
X0218546Y0022488D03*
X0218546Y0040205D03*
X0242246Y0040205D03*
X0242246Y0022488D03*
X0273546Y0022488D03*
X0273546Y0040205D03*
D22*
X0107896Y0051346D03*
X0100396Y0056346D03*
X0107896Y0061346D03*
D23*
X0125849Y0060008D03*
X0125849Y0064339D03*
X0125849Y0068669D03*
X0125849Y0073000D03*
X0125849Y0077331D03*
X0125849Y0048197D03*
X0125849Y0043866D03*
X0125849Y0039535D03*
X0125849Y0035205D03*
X0125849Y0030874D03*
X0125849Y0026543D03*
X0125849Y0022213D03*
X0173093Y0022213D03*
X0173093Y0026543D03*
X0173093Y0030874D03*
X0173093Y0035205D03*
X0173093Y0039535D03*
X0173093Y0043866D03*
X0173093Y0048197D03*
X0173093Y0060008D03*
X0173093Y0064339D03*
X0173093Y0068669D03*
X0173093Y0073000D03*
X0173093Y0077331D03*
D24*
X0152896Y0116346D03*
X0117896Y0116346D03*
D25*
X0089077Y0101346D03*
X0089077Y0095441D03*
X0089077Y0089535D03*
X0089077Y0083630D03*
X0089077Y0077724D03*
X0089077Y0071819D03*
X0089077Y0065913D03*
X0089077Y0060008D03*
X0089077Y0054102D03*
X0089077Y0048197D03*
X0089077Y0042291D03*
X0089077Y0036386D03*
X0089077Y0030480D03*
X0037896Y0030480D03*
X0037896Y0036386D03*
X0037896Y0042291D03*
X0037896Y0048197D03*
X0037896Y0054102D03*
X0037896Y0060008D03*
X0037896Y0065913D03*
X0037896Y0071819D03*
X0037896Y0077724D03*
X0037896Y0083630D03*
X0037896Y0089535D03*
X0037896Y0095441D03*
X0037896Y0101346D03*
D26*
X0042817Y0023591D03*
X0048723Y0023591D03*
X0054628Y0023591D03*
X0060534Y0023591D03*
X0066439Y0023591D03*
X0072345Y0023591D03*
X0078250Y0023591D03*
X0084156Y0023591D03*
D27*
X0084596Y0165346D03*
X0084596Y0168446D03*
X0084596Y0171646D03*
X0084596Y0174746D03*
X0084596Y0177946D03*
X0084596Y0181046D03*
X0084596Y0184246D03*
X0084596Y0187346D03*
X0051196Y0187346D03*
X0051196Y0184246D03*
X0051196Y0181046D03*
X0051196Y0177946D03*
X0051196Y0174746D03*
X0051196Y0171646D03*
X0051196Y0168446D03*
X0051196Y0165346D03*
D28*
X0056896Y0159646D03*
X0059996Y0159646D03*
X0063196Y0159646D03*
X0066296Y0159646D03*
X0069496Y0159646D03*
X0072596Y0159646D03*
X0075796Y0159646D03*
X0078896Y0159646D03*
X0078896Y0193046D03*
X0075796Y0193046D03*
X0072596Y0193046D03*
X0069496Y0193046D03*
X0066296Y0193046D03*
X0063196Y0193046D03*
X0059996Y0193046D03*
X0056896Y0193046D03*
D29*
X0247896Y0074346D02*
X0247896Y0068346D01*
X0257896Y0067346D02*
X0257896Y0073346D01*
X0267896Y0074346D02*
X0267896Y0068346D01*
X0277896Y0067346D02*
X0277896Y0073346D01*
D30*
X0282194Y0075251D02*
X0285696Y0075251D01*
X0285696Y0074253D02*
X0282596Y0074253D01*
X0282596Y0074281D02*
X0281881Y0076009D01*
X0280558Y0077331D01*
X0278831Y0078046D01*
X0276961Y0078046D01*
X0275234Y0077331D01*
X0275096Y0077193D01*
X0275096Y0078341D01*
X0276017Y0079261D01*
X0276577Y0080614D01*
X0276577Y0082079D01*
X0276017Y0083432D01*
X0274981Y0084467D01*
X0273628Y0085028D01*
X0272164Y0085028D01*
X0270811Y0084467D01*
X0269775Y0083432D01*
X0269215Y0082079D01*
X0269215Y0080614D01*
X0269775Y0079261D01*
X0270696Y0078341D01*
X0270696Y0078193D01*
X0270558Y0078331D01*
X0268831Y0079046D01*
X0266961Y0079046D01*
X0265234Y0078331D01*
X0263912Y0077009D01*
X0263196Y0075281D01*
X0263196Y0067412D01*
X0263912Y0065684D01*
X0265234Y0064362D01*
X0266961Y0063646D01*
X0268831Y0063646D01*
X0270558Y0064362D01*
X0270696Y0064500D01*
X0270696Y0060435D01*
X0275696Y0055435D01*
X0275696Y0052258D01*
X0271346Y0047907D01*
X0271346Y0044464D01*
X0269790Y0044464D01*
X0268794Y0043468D01*
X0268794Y0036941D01*
X0269790Y0035946D01*
X0277301Y0035946D01*
X0278297Y0036941D01*
X0278297Y0043468D01*
X0277301Y0044464D01*
X0275746Y0044464D01*
X0275746Y0046085D01*
X0280096Y0050435D01*
X0280096Y0057258D01*
X0275096Y0062258D01*
X0275096Y0063500D01*
X0275234Y0063362D01*
X0276961Y0062646D01*
X0278831Y0062646D01*
X0279578Y0062956D01*
X0279215Y0062079D01*
X0279215Y0060614D01*
X0279775Y0059261D01*
X0280811Y0058226D01*
X0282164Y0057665D01*
X0283628Y0057665D01*
X0284981Y0058226D01*
X0286017Y0059261D01*
X0286577Y0060614D01*
X0286577Y0061916D01*
X0287097Y0062436D01*
X0287097Y0015846D01*
X0265507Y0015846D01*
X0268840Y0019179D01*
X0269790Y0018229D01*
X0277301Y0018229D01*
X0278297Y0019225D01*
X0278297Y0025751D01*
X0277301Y0026747D01*
X0269790Y0026747D01*
X0268794Y0025751D01*
X0268794Y0024688D01*
X0268127Y0024688D01*
X0261985Y0018546D01*
X0246319Y0018546D01*
X0246998Y0019225D01*
X0246998Y0025751D01*
X0246002Y0026747D01*
X0245708Y0026747D01*
X0246550Y0028780D01*
X0246550Y0031236D01*
X0245610Y0033505D01*
X0243873Y0035241D01*
X0242173Y0035946D01*
X0246002Y0035946D01*
X0246998Y0036941D01*
X0246998Y0043468D01*
X0246002Y0044464D01*
X0238491Y0044464D01*
X0237495Y0043468D01*
X0237495Y0042740D01*
X0235096Y0042907D01*
X0235096Y0045435D01*
X0238807Y0049146D01*
X0247535Y0049146D01*
X0247535Y0047099D01*
X0248530Y0046103D01*
X0256238Y0046103D01*
X0257234Y0047099D01*
X0257234Y0055594D01*
X0256238Y0056590D01*
X0248530Y0056590D01*
X0247535Y0055594D01*
X0247535Y0053546D01*
X0236985Y0053546D01*
X0231985Y0048546D01*
X0230696Y0047258D01*
X0230696Y0040931D01*
X0230638Y0040098D01*
X0230696Y0040031D01*
X0230696Y0039943D01*
X0231286Y0039353D01*
X0231834Y0038723D01*
X0231922Y0038717D01*
X0231985Y0038654D01*
X0232820Y0038654D01*
X0237495Y0038330D01*
X0237495Y0036941D01*
X0238491Y0035946D01*
X0238580Y0035946D01*
X0236880Y0035241D01*
X0235143Y0033505D01*
X0234203Y0031236D01*
X0234203Y0028780D01*
X0235143Y0026511D01*
X0236880Y0024774D01*
X0237495Y0024519D01*
X0237495Y0019225D01*
X0238174Y0018546D01*
X0225599Y0018546D01*
X0223297Y0020848D01*
X0223297Y0024204D01*
X0224188Y0023835D01*
X0226644Y0023835D01*
X0228913Y0024774D01*
X0230649Y0026511D01*
X0231589Y0028780D01*
X0231589Y0031236D01*
X0230649Y0033505D01*
X0228913Y0035241D01*
X0226644Y0036181D01*
X0224188Y0036181D01*
X0221919Y0035241D01*
X0220182Y0033505D01*
X0219243Y0031236D01*
X0219243Y0028780D01*
X0220084Y0026747D01*
X0214790Y0026747D01*
X0213794Y0025751D01*
X0213794Y0024688D01*
X0209448Y0024688D01*
X0208628Y0025028D01*
X0207164Y0025028D01*
X0205811Y0024467D01*
X0204775Y0023432D01*
X0204215Y0022079D01*
X0204215Y0020777D01*
X0201985Y0018546D01*
X0191319Y0018546D01*
X0191998Y0019225D01*
X0191998Y0025751D01*
X0191002Y0026747D01*
X0183491Y0026747D01*
X0182495Y0025751D01*
X0182495Y0019225D01*
X0183174Y0018546D01*
X0175902Y0018546D01*
X0175511Y0018938D01*
X0177340Y0018938D01*
X0178336Y0019934D01*
X0178336Y0028675D01*
X0183807Y0034146D01*
X0185096Y0035435D01*
X0185096Y0035946D01*
X0189215Y0035946D01*
X0189215Y0035614D01*
X0189775Y0034261D01*
X0190811Y0033226D01*
X0192164Y0032665D01*
X0193628Y0032665D01*
X0194981Y0033226D01*
X0196017Y0034261D01*
X0196577Y0035614D01*
X0196577Y0037079D01*
X0196162Y0038080D01*
X0197164Y0037665D01*
X0198628Y0037665D01*
X0199981Y0038226D01*
X0200902Y0039146D01*
X0213794Y0039146D01*
X0213794Y0036941D01*
X0214790Y0035946D01*
X0222301Y0035946D01*
X0223297Y0036941D01*
X0223297Y0043468D01*
X0222301Y0044464D01*
X0214790Y0044464D01*
X0213873Y0043546D01*
X0200902Y0043546D01*
X0200302Y0044146D01*
X0203807Y0044146D01*
X0205096Y0045435D01*
X0205096Y0046303D01*
X0207908Y0046303D01*
X0207908Y0050846D01*
X0208908Y0050846D01*
X0208908Y0046303D01*
X0211755Y0046303D01*
X0212136Y0046405D01*
X0212478Y0046603D01*
X0212758Y0046882D01*
X0212955Y0047224D01*
X0213057Y0047606D01*
X0213057Y0050846D01*
X0208908Y0050846D01*
X0208908Y0051846D01*
X0213057Y0051846D01*
X0213057Y0055087D01*
X0212955Y0055469D01*
X0212758Y0055811D01*
X0212478Y0056090D01*
X0212136Y0056288D01*
X0211755Y0056390D01*
X0208908Y0056390D01*
X0208908Y0051846D01*
X0207908Y0051846D01*
X0205096Y0051846D01*
X0205096Y0050846D01*
X0207908Y0050846D01*
X0207908Y0051846D01*
X0207908Y0056390D01*
X0205096Y0056390D01*
X0205096Y0064146D01*
X0218807Y0064146D01*
X0220096Y0065435D01*
X0220096Y0084987D01*
X0228415Y0089146D01*
X0228807Y0089146D01*
X0229199Y0089538D01*
X0229695Y0089786D01*
X0229819Y0090158D01*
X0230096Y0090435D01*
X0230096Y0090989D01*
X0230271Y0091515D01*
X0230096Y0091866D01*
X0230096Y0093941D01*
X0230811Y0093226D01*
X0232164Y0092665D01*
X0233628Y0092665D01*
X0234981Y0093226D01*
X0236017Y0094261D01*
X0236577Y0095614D01*
X0236577Y0097079D01*
X0236017Y0098432D01*
X0235096Y0099352D01*
X0235096Y0103941D01*
X0235811Y0103226D01*
X0237164Y0102665D01*
X0238466Y0102665D01*
X0246985Y0094146D01*
X0275490Y0094146D01*
X0274890Y0093546D01*
X0253626Y0093546D01*
X0252946Y0093682D01*
X0252742Y0093546D01*
X0252497Y0093546D01*
X0252006Y0093056D01*
X0242280Y0086572D01*
X0242262Y0086590D01*
X0234554Y0086590D01*
X0233558Y0085594D01*
X0233558Y0077099D01*
X0234511Y0076146D01*
X0234424Y0076096D01*
X0234145Y0075817D01*
X0233947Y0075475D01*
X0233845Y0075093D01*
X0233845Y0071846D01*
X0237994Y0071846D01*
X0237994Y0070846D01*
X0237995Y0070846D02*
X0238994Y0070846D01*
X0238994Y0066297D01*
X0241842Y0066297D01*
X0242223Y0066399D01*
X0242565Y0066597D01*
X0242844Y0066876D01*
X0243042Y0067218D01*
X0243144Y0067600D01*
X0243144Y0070846D01*
X0238995Y0070846D01*
X0238995Y0071846D01*
X0243144Y0071846D01*
X0243144Y0075093D01*
X0243042Y0075475D01*
X0242844Y0075817D01*
X0242565Y0076096D01*
X0242368Y0076210D01*
X0243257Y0077099D01*
X0243257Y0081935D01*
X0254074Y0089146D01*
X0274890Y0089146D01*
X0275811Y0088226D01*
X0277164Y0087665D01*
X0278628Y0087665D01*
X0279981Y0088226D01*
X0281017Y0089261D01*
X0281577Y0090614D01*
X0281577Y0092079D01*
X0281017Y0093432D01*
X0280302Y0094146D01*
X0281985Y0094146D01*
X0285696Y0090435D01*
X0285696Y0067258D01*
X0283466Y0065028D01*
X0282164Y0065028D01*
X0281994Y0064957D01*
X0282596Y0066412D01*
X0282596Y0074281D01*
X0282596Y0073254D02*
X0285696Y0073254D01*
X0285696Y0072256D02*
X0282596Y0072256D01*
X0282596Y0071257D02*
X0285696Y0071257D01*
X0285696Y0070259D02*
X0282596Y0070259D01*
X0282596Y0069260D02*
X0285696Y0069260D01*
X0285696Y0068262D02*
X0282596Y0068262D01*
X0282596Y0067263D02*
X0285696Y0067263D01*
X0284703Y0066265D02*
X0282535Y0066265D01*
X0282122Y0065266D02*
X0283704Y0065266D01*
X0282896Y0061346D02*
X0287896Y0066346D01*
X0287896Y0091346D01*
X0282896Y0096346D01*
X0247896Y0096346D01*
X0237896Y0106346D01*
X0235850Y0103209D02*
X0235096Y0103209D01*
X0235096Y0102211D02*
X0238920Y0102211D01*
X0239919Y0101212D02*
X0235096Y0101212D01*
X0235096Y0100214D02*
X0240917Y0100214D01*
X0241916Y0099215D02*
X0235233Y0099215D01*
X0236106Y0098217D02*
X0242914Y0098217D01*
X0243913Y0097218D02*
X0236519Y0097218D01*
X0236577Y0096220D02*
X0244911Y0096220D01*
X0245910Y0095221D02*
X0236414Y0095221D01*
X0235978Y0094223D02*
X0246908Y0094223D01*
X0249263Y0091227D02*
X0230175Y0091227D01*
X0230096Y0092226D02*
X0250761Y0092226D01*
X0252175Y0093224D02*
X0234978Y0093224D01*
X0230814Y0093224D02*
X0230096Y0093224D01*
X0227896Y0091346D02*
X0217896Y0086346D01*
X0217896Y0066346D01*
X0202896Y0066346D01*
X0202896Y0046346D01*
X0197896Y0046346D01*
X0192896Y0041346D01*
X0192896Y0036346D01*
X0196577Y0036309D02*
X0214427Y0036309D01*
X0213794Y0037308D02*
X0196482Y0037308D01*
X0196451Y0035311D02*
X0222087Y0035311D01*
X0222665Y0036309D02*
X0238128Y0036309D01*
X0237495Y0037308D02*
X0223297Y0037308D01*
X0223297Y0038306D02*
X0237495Y0038306D01*
X0242246Y0040205D02*
X0232896Y0040854D01*
X0232896Y0046346D01*
X0237896Y0051346D01*
X0252384Y0051346D01*
X0247535Y0054282D02*
X0220166Y0054282D01*
X0219981Y0054467D02*
X0218628Y0055028D01*
X0217164Y0055028D01*
X0215811Y0054467D01*
X0214775Y0053432D01*
X0214215Y0052079D01*
X0214215Y0050614D01*
X0214775Y0049261D01*
X0215811Y0048226D01*
X0217164Y0047665D01*
X0218628Y0047665D01*
X0219981Y0048226D01*
X0221017Y0049261D01*
X0221577Y0050614D01*
X0221577Y0052079D01*
X0221017Y0053432D01*
X0219981Y0054467D01*
X0221078Y0053284D02*
X0236722Y0053284D01*
X0235724Y0052285D02*
X0221492Y0052285D01*
X0221577Y0051287D02*
X0234725Y0051287D01*
X0233727Y0050288D02*
X0221442Y0050288D01*
X0221029Y0049290D02*
X0232728Y0049290D01*
X0231730Y0048291D02*
X0220047Y0048291D01*
X0215745Y0048291D02*
X0213057Y0048291D01*
X0213057Y0049290D02*
X0214764Y0049290D01*
X0214350Y0050288D02*
X0213057Y0050288D01*
X0214215Y0051287D02*
X0208908Y0051287D01*
X0208408Y0051346D02*
X0207896Y0051346D01*
X0207896Y0061346D01*
X0205096Y0061272D02*
X0270696Y0061272D01*
X0270696Y0062271D02*
X0205096Y0062271D01*
X0205096Y0063269D02*
X0255986Y0063269D01*
X0256169Y0063176D02*
X0255538Y0063498D01*
X0254965Y0063914D01*
X0254464Y0064415D01*
X0254047Y0064988D01*
X0253726Y0065619D01*
X0253507Y0066293D01*
X0253396Y0066992D01*
X0253396Y0069846D01*
X0257396Y0069846D01*
X0258396Y0069846D01*
X0258396Y0062870D01*
X0258950Y0062957D01*
X0259623Y0063176D01*
X0260255Y0063498D01*
X0260828Y0063914D01*
X0261328Y0064415D01*
X0261745Y0064988D01*
X0262066Y0065619D01*
X0262285Y0066293D01*
X0262396Y0066992D01*
X0262396Y0069846D01*
X0258396Y0069846D01*
X0258396Y0070846D01*
X0262396Y0070846D01*
X0262396Y0073701D01*
X0262285Y0074400D01*
X0262066Y0075074D01*
X0261745Y0075705D01*
X0261328Y0076278D01*
X0260828Y0076779D01*
X0260255Y0077195D01*
X0259623Y0077517D01*
X0258950Y0077736D01*
X0258396Y0077823D01*
X0258396Y0070847D01*
X0257396Y0070847D01*
X0257396Y0077823D01*
X0256842Y0077736D01*
X0256169Y0077517D01*
X0255538Y0077195D01*
X0254965Y0076779D01*
X0254464Y0076278D01*
X0254047Y0075705D01*
X0253726Y0075074D01*
X0253507Y0074400D01*
X0253396Y0073701D01*
X0253396Y0070846D01*
X0257396Y0070846D01*
X0257396Y0069846D01*
X0257396Y0062870D01*
X0256842Y0062957D01*
X0256169Y0063176D01*
X0257396Y0063269D02*
X0258396Y0063269D01*
X0258396Y0064268D02*
X0257396Y0064268D01*
X0257396Y0065266D02*
X0258396Y0065266D01*
X0258396Y0066265D02*
X0257396Y0066265D01*
X0257396Y0067263D02*
X0258396Y0067263D01*
X0258396Y0068262D02*
X0257396Y0068262D01*
X0257396Y0069260D02*
X0258396Y0069260D01*
X0258396Y0070259D02*
X0263196Y0070259D01*
X0263196Y0071257D02*
X0262396Y0071257D01*
X0262396Y0072256D02*
X0263196Y0072256D01*
X0263196Y0073254D02*
X0262396Y0073254D01*
X0262309Y0074253D02*
X0263196Y0074253D01*
X0263196Y0075251D02*
X0261976Y0075251D01*
X0261349Y0076250D02*
X0263597Y0076250D01*
X0264151Y0077248D02*
X0260151Y0077248D01*
X0258396Y0077248D02*
X0257396Y0077248D01*
X0257396Y0076250D02*
X0258396Y0076250D01*
X0258396Y0075251D02*
X0257396Y0075251D01*
X0257396Y0074253D02*
X0258396Y0074253D01*
X0258396Y0073254D02*
X0257396Y0073254D01*
X0257396Y0072256D02*
X0258396Y0072256D01*
X0258396Y0071257D02*
X0257396Y0071257D01*
X0257396Y0070259D02*
X0252596Y0070259D01*
X0252596Y0071257D02*
X0253396Y0071257D01*
X0253396Y0072256D02*
X0252596Y0072256D01*
X0252596Y0073254D02*
X0253396Y0073254D01*
X0253484Y0074253D02*
X0252596Y0074253D01*
X0252596Y0075251D02*
X0253816Y0075251D01*
X0254443Y0076250D02*
X0252195Y0076250D01*
X0251881Y0077009D02*
X0250558Y0078331D01*
X0248831Y0079046D01*
X0246961Y0079046D01*
X0245234Y0078331D01*
X0243912Y0077009D01*
X0243196Y0075281D01*
X0243196Y0067412D01*
X0243912Y0065684D01*
X0245234Y0064362D01*
X0246961Y0063646D01*
X0248831Y0063646D01*
X0250558Y0064362D01*
X0251881Y0065684D01*
X0252596Y0067412D01*
X0252596Y0075281D01*
X0251881Y0077009D01*
X0251641Y0077248D02*
X0255642Y0077248D01*
X0250643Y0078247D02*
X0265150Y0078247D01*
X0269368Y0080244D02*
X0243257Y0080244D01*
X0243257Y0081242D02*
X0269215Y0081242D01*
X0269282Y0082241D02*
X0243715Y0082241D01*
X0245213Y0083239D02*
X0269696Y0083239D01*
X0270582Y0084238D02*
X0246711Y0084238D01*
X0248209Y0085236D02*
X0285696Y0085236D01*
X0285696Y0084238D02*
X0275211Y0084238D01*
X0276096Y0083239D02*
X0285696Y0083239D01*
X0285696Y0082241D02*
X0276510Y0082241D01*
X0276577Y0081242D02*
X0285696Y0081242D01*
X0285696Y0080244D02*
X0276424Y0080244D01*
X0276001Y0079245D02*
X0285696Y0079245D01*
X0285696Y0078247D02*
X0275096Y0078247D01*
X0275096Y0077248D02*
X0275151Y0077248D01*
X0270696Y0078247D02*
X0270643Y0078247D01*
X0269791Y0079245D02*
X0243257Y0079245D01*
X0243257Y0078247D02*
X0245150Y0078247D01*
X0244151Y0077248D02*
X0243257Y0077248D01*
X0243597Y0076250D02*
X0242408Y0076250D01*
X0243102Y0075251D02*
X0243196Y0075251D01*
X0243196Y0074253D02*
X0243144Y0074253D01*
X0243144Y0073254D02*
X0243196Y0073254D01*
X0243196Y0072256D02*
X0243144Y0072256D01*
X0243196Y0071257D02*
X0238995Y0071257D01*
X0238494Y0071346D02*
X0242896Y0066346D01*
X0242896Y0061346D01*
X0248896Y0061346D01*
X0257896Y0070346D01*
X0263408Y0064835D01*
X0263408Y0051346D01*
X0263908Y0051287D02*
X0274725Y0051287D01*
X0275696Y0052285D02*
X0268057Y0052285D01*
X0268057Y0051846D02*
X0268057Y0055087D01*
X0267955Y0055469D01*
X0267758Y0055811D01*
X0267478Y0056090D01*
X0267136Y0056288D01*
X0266755Y0056390D01*
X0263908Y0056390D01*
X0263908Y0051846D01*
X0268057Y0051846D01*
X0268057Y0050846D02*
X0263908Y0050846D01*
X0263908Y0046303D01*
X0266755Y0046303D01*
X0267136Y0046405D01*
X0267478Y0046603D01*
X0267758Y0046882D01*
X0267955Y0047224D01*
X0268057Y0047606D01*
X0268057Y0050846D01*
X0268057Y0050288D02*
X0273727Y0050288D01*
X0272728Y0049290D02*
X0268057Y0049290D01*
X0268057Y0048291D02*
X0271730Y0048291D01*
X0271346Y0047293D02*
X0267974Y0047293D01*
X0271346Y0046294D02*
X0256429Y0046294D01*
X0257234Y0047293D02*
X0258842Y0047293D01*
X0258860Y0047224D02*
X0259058Y0046882D01*
X0259337Y0046603D01*
X0259679Y0046405D01*
X0260061Y0046303D01*
X0262908Y0046303D01*
X0262908Y0050846D01*
X0263908Y0050846D01*
X0263908Y0051846D01*
X0262908Y0051846D01*
X0262908Y0050846D01*
X0258758Y0050846D01*
X0258758Y0047606D01*
X0258860Y0047224D01*
X0258758Y0048291D02*
X0257234Y0048291D01*
X0257234Y0049290D02*
X0258758Y0049290D01*
X0258758Y0050288D02*
X0257234Y0050288D01*
X0257234Y0051287D02*
X0262908Y0051287D01*
X0262908Y0051846D02*
X0258758Y0051846D01*
X0258758Y0055087D01*
X0258860Y0055469D01*
X0259058Y0055811D01*
X0259337Y0056090D01*
X0259679Y0056288D01*
X0260061Y0056390D01*
X0262908Y0056390D01*
X0262908Y0051846D01*
X0262908Y0052285D02*
X0263908Y0052285D01*
X0263908Y0053284D02*
X0262908Y0053284D01*
X0262908Y0054282D02*
X0263908Y0054282D01*
X0263908Y0055281D02*
X0262908Y0055281D01*
X0262908Y0056279D02*
X0263908Y0056279D01*
X0267150Y0056279D02*
X0274852Y0056279D01*
X0275696Y0055281D02*
X0268006Y0055281D01*
X0268057Y0054282D02*
X0275696Y0054282D01*
X0275696Y0053284D02*
X0268057Y0053284D01*
X0263908Y0050288D02*
X0262908Y0050288D01*
X0262908Y0049290D02*
X0263908Y0049290D01*
X0263908Y0048291D02*
X0262908Y0048291D01*
X0262908Y0047293D02*
X0263908Y0047293D01*
X0268794Y0043299D02*
X0246998Y0043299D01*
X0246998Y0042300D02*
X0268794Y0042300D01*
X0268794Y0041302D02*
X0246998Y0041302D01*
X0246998Y0040303D02*
X0268794Y0040303D01*
X0268794Y0039305D02*
X0246998Y0039305D01*
X0246998Y0038306D02*
X0268794Y0038306D01*
X0268794Y0037308D02*
X0246998Y0037308D01*
X0246365Y0036309D02*
X0269427Y0036309D01*
X0273546Y0040205D02*
X0273546Y0046996D01*
X0277896Y0051346D01*
X0277896Y0056346D01*
X0272896Y0061346D01*
X0272896Y0081346D01*
X0272896Y0086346D02*
X0257896Y0081346D01*
X0252702Y0088232D02*
X0275805Y0088232D01*
X0277896Y0091346D02*
X0253408Y0091346D01*
X0238408Y0081346D01*
X0233558Y0081242D02*
X0232234Y0081242D01*
X0232234Y0080244D02*
X0233558Y0080244D01*
X0233558Y0079245D02*
X0232234Y0079245D01*
X0232234Y0078247D02*
X0233558Y0078247D01*
X0233558Y0077248D02*
X0232234Y0077248D01*
X0232234Y0077099D02*
X0232234Y0085594D01*
X0231238Y0086590D01*
X0223530Y0086590D01*
X0222535Y0085594D01*
X0222535Y0077099D01*
X0223241Y0076393D01*
X0222448Y0075600D01*
X0222448Y0067093D01*
X0223444Y0066097D01*
X0231151Y0066097D01*
X0232147Y0067093D01*
X0232147Y0075600D01*
X0231441Y0076306D01*
X0232234Y0077099D01*
X0231497Y0076250D02*
X0234408Y0076250D01*
X0233887Y0075251D02*
X0232147Y0075251D01*
X0232147Y0074253D02*
X0233845Y0074253D01*
X0233845Y0073254D02*
X0232147Y0073254D01*
X0232147Y0072256D02*
X0233845Y0072256D01*
X0233845Y0070846D02*
X0233845Y0067600D01*
X0233947Y0067218D01*
X0234145Y0066876D01*
X0234424Y0066597D01*
X0234766Y0066399D01*
X0235147Y0066297D01*
X0237995Y0066297D01*
X0237995Y0070846D01*
X0237994Y0070846D02*
X0233845Y0070846D01*
X0233845Y0070259D02*
X0232147Y0070259D01*
X0232147Y0071257D02*
X0237994Y0071257D01*
X0238494Y0071346D02*
X0228494Y0061945D01*
X0227896Y0061346D01*
X0222896Y0056346D01*
X0213408Y0056346D01*
X0208408Y0051346D01*
X0207908Y0051287D02*
X0205096Y0051287D01*
X0207908Y0052285D02*
X0208908Y0052285D01*
X0208908Y0053284D02*
X0207908Y0053284D01*
X0207908Y0054282D02*
X0208908Y0054282D01*
X0208908Y0055281D02*
X0207908Y0055281D01*
X0207908Y0056279D02*
X0208908Y0056279D01*
X0205096Y0057278D02*
X0273853Y0057278D01*
X0272855Y0058276D02*
X0205096Y0058276D01*
X0205096Y0059275D02*
X0271856Y0059275D01*
X0270858Y0060274D02*
X0205096Y0060274D01*
X0200696Y0060274D02*
X0178336Y0060274D01*
X0178336Y0061272D02*
X0200696Y0061272D01*
X0200696Y0062271D02*
X0178336Y0062271D01*
X0178336Y0063269D02*
X0200696Y0063269D01*
X0200696Y0064268D02*
X0178336Y0064268D01*
X0178336Y0065266D02*
X0200696Y0065266D01*
X0200696Y0066097D02*
X0200696Y0056590D01*
X0193530Y0056590D01*
X0192535Y0055594D01*
X0192535Y0049608D01*
X0187390Y0044464D01*
X0185096Y0044464D01*
X0185096Y0045827D01*
X0188515Y0052665D01*
X0188628Y0052665D01*
X0189981Y0053226D01*
X0191017Y0054261D01*
X0191577Y0055614D01*
X0191577Y0057079D01*
X0191017Y0058432D01*
X0189981Y0059467D01*
X0188628Y0060028D01*
X0187164Y0060028D01*
X0185811Y0059467D01*
X0184775Y0058432D01*
X0184215Y0057079D01*
X0184215Y0055614D01*
X0184602Y0054679D01*
X0181088Y0047650D01*
X0180696Y0047258D01*
X0180696Y0046866D01*
X0180521Y0046515D01*
X0180696Y0045989D01*
X0180696Y0037258D01*
X0178336Y0034898D01*
X0178336Y0046145D01*
X0178119Y0046362D01*
X0178136Y0046425D01*
X0178136Y0047909D01*
X0173380Y0047909D01*
X0173380Y0048484D01*
X0172805Y0048484D01*
X0172805Y0047909D01*
X0168050Y0047909D01*
X0168050Y0046425D01*
X0168066Y0046362D01*
X0167850Y0046145D01*
X0167850Y0019934D01*
X0168845Y0018938D01*
X0170282Y0018938D01*
X0169890Y0018546D01*
X0158807Y0018546D01*
X0155096Y0022258D01*
X0155096Y0028941D01*
X0155811Y0028226D01*
X0157164Y0027665D01*
X0158628Y0027665D01*
X0159981Y0028226D01*
X0161017Y0029261D01*
X0161577Y0030614D01*
X0161577Y0031916D01*
X0165096Y0035435D01*
X0165096Y0038341D01*
X0166017Y0039261D01*
X0166577Y0040614D01*
X0166577Y0042079D01*
X0166017Y0043432D01*
X0164981Y0044467D01*
X0163628Y0045028D01*
X0162164Y0045028D01*
X0160811Y0044467D01*
X0159775Y0043432D01*
X0159215Y0042079D01*
X0159215Y0040614D01*
X0159775Y0039261D01*
X0160696Y0038341D01*
X0160696Y0037258D01*
X0158466Y0035028D01*
X0157164Y0035028D01*
X0155811Y0034467D01*
X0155096Y0033752D01*
X0155096Y0037258D01*
X0151577Y0040777D01*
X0151577Y0042079D01*
X0151017Y0043432D01*
X0150096Y0044352D01*
X0150096Y0070435D01*
X0158807Y0079146D01*
X0160490Y0079146D01*
X0159775Y0078432D01*
X0159215Y0077079D01*
X0159215Y0075614D01*
X0159775Y0074261D01*
X0160811Y0073226D01*
X0162164Y0072665D01*
X0162261Y0072665D01*
X0162350Y0072486D01*
X0162350Y0072089D01*
X0162738Y0071701D01*
X0162981Y0071208D01*
X0163357Y0071081D01*
X0163638Y0070800D01*
X0164187Y0070800D01*
X0164707Y0070624D01*
X0165063Y0070800D01*
X0167850Y0070800D01*
X0167850Y0070721D01*
X0168066Y0070504D01*
X0168050Y0070442D01*
X0168050Y0068957D01*
X0172805Y0068957D01*
X0172805Y0068382D01*
X0168050Y0068382D01*
X0168050Y0066897D01*
X0168066Y0066834D01*
X0167850Y0066618D01*
X0167850Y0057729D01*
X0168845Y0056733D01*
X0177340Y0056733D01*
X0178336Y0057729D01*
X0178336Y0066618D01*
X0178119Y0066834D01*
X0178136Y0066897D01*
X0178136Y0068382D01*
X0173380Y0068382D01*
X0173380Y0068957D01*
X0178136Y0068957D01*
X0178136Y0070442D01*
X0178119Y0070504D01*
X0178336Y0070721D01*
X0178336Y0075279D01*
X0178119Y0075496D01*
X0178136Y0075558D01*
X0178136Y0077043D01*
X0173380Y0077043D01*
X0173380Y0077618D01*
X0172805Y0077618D01*
X0172805Y0077043D01*
X0168050Y0077043D01*
X0168050Y0075558D01*
X0168066Y0075496D01*
X0167850Y0075279D01*
X0167850Y0075200D01*
X0166406Y0075200D01*
X0166577Y0075614D01*
X0166577Y0077079D01*
X0166017Y0078432D01*
X0164981Y0079467D01*
X0164378Y0079717D01*
X0168807Y0084146D01*
X0170096Y0085435D01*
X0170096Y0086097D01*
X0172348Y0086097D01*
X0173344Y0087093D01*
X0173344Y0095600D01*
X0172391Y0096553D01*
X0172478Y0096603D01*
X0172758Y0096882D01*
X0172955Y0097224D01*
X0173057Y0097606D01*
X0173057Y0100846D01*
X0168908Y0100846D01*
X0168908Y0101846D01*
X0173057Y0101846D01*
X0173057Y0105087D01*
X0172955Y0105469D01*
X0172758Y0105811D01*
X0172478Y0106090D01*
X0172136Y0106288D01*
X0171755Y0106390D01*
X0168908Y0106390D01*
X0168908Y0101846D01*
X0167908Y0101846D01*
X0167908Y0100846D01*
X0163758Y0100846D01*
X0163758Y0097606D01*
X0163860Y0097224D01*
X0164058Y0096882D01*
X0164337Y0096603D01*
X0164534Y0096489D01*
X0163645Y0095600D01*
X0163645Y0087093D01*
X0164588Y0086150D01*
X0161985Y0083546D01*
X0148807Y0083546D01*
X0145096Y0087258D01*
X0145096Y0088879D01*
X0145234Y0088879D01*
X0146230Y0089875D01*
X0146230Y0093763D01*
X0145234Y0094759D01*
X0142595Y0094759D01*
X0136607Y0100746D01*
X0140096Y0104235D01*
X0140096Y0113341D01*
X0140696Y0113941D01*
X0140696Y0103814D01*
X0140558Y0103814D01*
X0139562Y0102818D01*
X0139562Y0098930D01*
X0140558Y0097934D01*
X0145234Y0097934D01*
X0146230Y0098930D01*
X0146230Y0102818D01*
X0145234Y0103814D01*
X0145096Y0103814D01*
X0145096Y0122770D01*
X0138257Y0129608D01*
X0138257Y0135594D01*
X0137333Y0136519D01*
X0137478Y0136603D01*
X0137758Y0136882D01*
X0137955Y0137224D01*
X0138057Y0137606D01*
X0138057Y0140846D01*
X0133908Y0140846D01*
X0133908Y0141846D01*
X0138057Y0141846D01*
X0138057Y0145087D01*
X0137955Y0145469D01*
X0137758Y0145811D01*
X0137478Y0146090D01*
X0137136Y0146288D01*
X0136917Y0146346D01*
X0137136Y0146405D01*
X0137478Y0146603D01*
X0137758Y0146882D01*
X0137955Y0147224D01*
X0138057Y0147606D01*
X0138057Y0150846D01*
X0133908Y0150846D01*
X0133908Y0146303D01*
X0133908Y0141846D01*
X0132908Y0141846D01*
X0132908Y0140846D01*
X0128758Y0140846D01*
X0128758Y0137606D01*
X0128860Y0137224D01*
X0129058Y0136882D01*
X0129337Y0136603D01*
X0129483Y0136519D01*
X0128558Y0135594D01*
X0128558Y0127099D01*
X0129554Y0126103D01*
X0135540Y0126103D01*
X0140696Y0120947D01*
X0140696Y0118752D01*
X0139981Y0119467D01*
X0138628Y0120028D01*
X0137164Y0120028D01*
X0135811Y0119467D01*
X0134775Y0118432D01*
X0134215Y0117079D01*
X0134215Y0115614D01*
X0134775Y0114261D01*
X0135696Y0113341D01*
X0135696Y0106058D01*
X0131985Y0102346D01*
X0130000Y0102346D01*
X0129600Y0102746D01*
X0122192Y0102746D01*
X0121196Y0101751D01*
X0121196Y0098542D01*
X0121396Y0098342D01*
X0121396Y0097647D01*
X0122092Y0097647D01*
X0122092Y0097646D01*
X0121396Y0097646D01*
X0121396Y0096851D01*
X0121196Y0096651D01*
X0121196Y0090942D01*
X0122192Y0089946D01*
X0123696Y0089946D01*
X0123696Y0087435D01*
X0124985Y0086146D01*
X0125696Y0085435D01*
X0126985Y0084146D01*
X0130696Y0084146D01*
X0130696Y0079647D01*
X0130592Y0079827D01*
X0130313Y0080106D01*
X0129971Y0080303D01*
X0129590Y0080405D01*
X0126136Y0080405D01*
X0126136Y0077618D01*
X0125561Y0077618D01*
X0125561Y0077043D01*
X0120806Y0077043D01*
X0120806Y0075558D01*
X0120822Y0075496D01*
X0120606Y0075279D01*
X0120606Y0057729D01*
X0121601Y0056733D01*
X0130096Y0056733D01*
X0130696Y0057333D01*
X0130696Y0052258D01*
X0129910Y0051472D01*
X0121601Y0051472D01*
X0120606Y0050476D01*
X0120606Y0043843D01*
X0119981Y0044467D01*
X0118628Y0045028D01*
X0117164Y0045028D01*
X0115811Y0044467D01*
X0114775Y0043432D01*
X0114215Y0042079D01*
X0114215Y0040614D01*
X0114630Y0039613D01*
X0113628Y0040028D01*
X0112164Y0040028D01*
X0110811Y0039467D01*
X0109775Y0038432D01*
X0109215Y0037079D01*
X0109215Y0035614D01*
X0109775Y0034261D01*
X0110811Y0033226D01*
X0112164Y0032665D01*
X0113628Y0032665D01*
X0114981Y0033226D01*
X0115902Y0034146D01*
X0120606Y0034146D01*
X0120606Y0028546D01*
X0110902Y0028546D01*
X0109981Y0029467D01*
X0108628Y0030028D01*
X0107164Y0030028D01*
X0105811Y0029467D01*
X0104775Y0028432D01*
X0104215Y0027079D01*
X0104215Y0025614D01*
X0104775Y0024261D01*
X0105811Y0023226D01*
X0107164Y0022665D01*
X0108628Y0022665D01*
X0109981Y0023226D01*
X0110902Y0024146D01*
X0120723Y0024146D01*
X0120822Y0024048D01*
X0120806Y0023985D01*
X0120806Y0022500D01*
X0125561Y0022500D01*
X0125561Y0021925D01*
X0120806Y0021925D01*
X0120806Y0020440D01*
X0120908Y0020059D01*
X0121105Y0019717D01*
X0121384Y0019438D01*
X0121727Y0019240D01*
X0122108Y0019138D01*
X0125561Y0019138D01*
X0125561Y0021925D01*
X0126136Y0021925D01*
X0126136Y0019138D01*
X0129590Y0019138D01*
X0129971Y0019240D01*
X0130313Y0019438D01*
X0130592Y0019717D01*
X0130790Y0020059D01*
X0130892Y0020440D01*
X0130892Y0021925D01*
X0126136Y0021925D01*
X0126136Y0022500D01*
X0130892Y0022500D01*
X0130892Y0023985D01*
X0130875Y0024048D01*
X0131092Y0024264D01*
X0131092Y0024343D01*
X0134004Y0024343D01*
X0147326Y0037665D01*
X0148466Y0037665D01*
X0150696Y0035435D01*
X0150696Y0020435D01*
X0151985Y0019146D01*
X0155285Y0015846D01*
X0022396Y0015846D01*
X0022396Y0216807D01*
X0172896Y0216807D01*
X0172896Y0160229D01*
X0164415Y0167939D01*
X0163807Y0168546D01*
X0163747Y0168546D01*
X0163702Y0168587D01*
X0163257Y0168566D01*
X0163257Y0175594D01*
X0162505Y0176346D01*
X0163257Y0177099D01*
X0163257Y0185594D01*
X0162262Y0186590D01*
X0160096Y0186590D01*
X0160096Y0187258D01*
X0150096Y0197258D01*
X0148807Y0198546D01*
X0123807Y0198546D01*
X0120096Y0202258D01*
X0118807Y0203546D01*
X0101985Y0203546D01*
X0097896Y0199458D01*
X0083807Y0213546D01*
X0066985Y0213546D01*
X0066267Y0212828D01*
X0066017Y0213432D01*
X0064981Y0214467D01*
X0063628Y0215028D01*
X0062164Y0215028D01*
X0060811Y0214467D01*
X0059775Y0213432D01*
X0059215Y0212079D01*
X0059215Y0210614D01*
X0059630Y0209613D01*
X0058628Y0210028D01*
X0057164Y0210028D01*
X0055811Y0209467D01*
X0054775Y0208432D01*
X0054215Y0207079D01*
X0054215Y0205614D01*
X0054775Y0204261D01*
X0055811Y0203226D01*
X0057164Y0202665D01*
X0057796Y0202665D01*
X0057796Y0199558D01*
X0055096Y0202258D01*
X0053807Y0203546D01*
X0046985Y0203546D01*
X0045696Y0202258D01*
X0045696Y0194352D01*
X0044775Y0193432D01*
X0044215Y0192079D01*
X0044215Y0190614D01*
X0044775Y0189261D01*
X0045811Y0188226D01*
X0046596Y0187901D01*
X0046596Y0182542D01*
X0046817Y0182322D01*
X0046796Y0182244D01*
X0046796Y0181047D01*
X0051196Y0181047D01*
X0051196Y0181046D01*
X0046796Y0181046D01*
X0046796Y0179851D01*
X0046596Y0179651D01*
X0046596Y0176242D01*
X0046817Y0176022D01*
X0046796Y0175944D01*
X0046796Y0174747D01*
X0051196Y0174747D01*
X0051196Y0174746D01*
X0046796Y0174746D01*
X0046796Y0173551D01*
X0046596Y0173351D01*
X0046596Y0170758D01*
X0038807Y0178546D01*
X0033807Y0178546D01*
X0032209Y0180145D01*
X0032628Y0180564D01*
X0032628Y0189452D01*
X0031632Y0190448D01*
X0030096Y0190448D01*
X0030096Y0191103D01*
X0031238Y0191103D01*
X0032234Y0192099D01*
X0032234Y0200594D01*
X0031238Y0201590D01*
X0023530Y0201590D01*
X0022535Y0200594D01*
X0022535Y0192099D01*
X0023530Y0191103D01*
X0025696Y0191103D01*
X0025696Y0190448D01*
X0024712Y0190448D01*
X0023716Y0189452D01*
X0023716Y0180564D01*
X0024712Y0179568D01*
X0026564Y0179568D01*
X0030696Y0175435D01*
X0031985Y0174146D01*
X0036985Y0174146D01*
X0038006Y0173125D01*
X0034160Y0173125D01*
X0033165Y0172129D01*
X0033165Y0163241D01*
X0034160Y0162245D01*
X0035696Y0162245D01*
X0035696Y0161590D01*
X0034554Y0161590D01*
X0033558Y0160594D01*
X0033558Y0152099D01*
X0034554Y0151103D01*
X0042262Y0151103D01*
X0043257Y0152099D01*
X0043257Y0160594D01*
X0042262Y0161590D01*
X0040096Y0161590D01*
X0040096Y0162245D01*
X0041081Y0162245D01*
X0041982Y0163146D01*
X0047092Y0163146D01*
X0047592Y0162646D01*
X0054196Y0162646D01*
X0054196Y0160758D01*
X0053996Y0160558D01*
X0053996Y0160361D01*
X0041364Y0142981D01*
X0031447Y0136708D01*
X0023649Y0136708D01*
X0022653Y0135712D01*
X0022653Y0128004D01*
X0023649Y0127009D01*
X0032144Y0127009D01*
X0033139Y0128004D01*
X0033139Y0132572D01*
X0043688Y0139244D01*
X0044140Y0139316D01*
X0044428Y0139712D01*
X0044842Y0139974D01*
X0044943Y0140420D01*
X0049215Y0146299D01*
X0049215Y0145614D01*
X0049775Y0144261D01*
X0050811Y0143226D01*
X0052164Y0142665D01*
X0053628Y0142665D01*
X0054981Y0143226D01*
X0056017Y0144261D01*
X0056577Y0145614D01*
X0056577Y0146916D01*
X0060996Y0151335D01*
X0060996Y0147558D01*
X0053466Y0140028D01*
X0052164Y0140028D01*
X0050811Y0139467D01*
X0049775Y0138432D01*
X0049215Y0137079D01*
X0049215Y0135614D01*
X0049775Y0134261D01*
X0050811Y0133226D01*
X0052164Y0132665D01*
X0053628Y0132665D01*
X0054981Y0133226D01*
X0056017Y0134261D01*
X0056577Y0135614D01*
X0056577Y0136916D01*
X0064096Y0144435D01*
X0064096Y0143480D01*
X0061098Y0137659D01*
X0060696Y0137258D01*
X0060696Y0136880D01*
X0060523Y0136544D01*
X0060696Y0136003D01*
X0060696Y0134352D01*
X0059775Y0133432D01*
X0059215Y0132079D01*
X0059215Y0130614D01*
X0059775Y0129261D01*
X0060811Y0128226D01*
X0061414Y0127976D01*
X0056267Y0122828D01*
X0056017Y0123432D01*
X0054981Y0124467D01*
X0053628Y0125028D01*
X0052164Y0125028D01*
X0050811Y0124467D01*
X0049890Y0123546D01*
X0033139Y0123546D01*
X0033139Y0124688D01*
X0032144Y0125684D01*
X0023649Y0125684D01*
X0022653Y0124688D01*
X0022653Y0116981D01*
X0023649Y0115985D01*
X0032144Y0115985D01*
X0033139Y0116981D01*
X0033139Y0119146D01*
X0049890Y0119146D01*
X0050811Y0118226D01*
X0051414Y0117976D01*
X0038453Y0105015D01*
X0033255Y0105015D01*
X0032797Y0104557D01*
X0031577Y0105777D01*
X0031577Y0107079D01*
X0031017Y0108432D01*
X0029981Y0109467D01*
X0028628Y0110028D01*
X0027164Y0110028D01*
X0025811Y0109467D01*
X0024775Y0108432D01*
X0024215Y0107079D01*
X0024215Y0105614D01*
X0024775Y0104261D01*
X0025190Y0103846D01*
X0024775Y0103432D01*
X0024215Y0102079D01*
X0024215Y0100614D01*
X0024775Y0099261D01*
X0025696Y0098341D01*
X0025696Y0095435D01*
X0026985Y0094146D01*
X0027890Y0093241D01*
X0032259Y0093241D01*
X0032259Y0092768D01*
X0032539Y0092488D01*
X0032259Y0092208D01*
X0032259Y0086863D01*
X0032539Y0086583D01*
X0032259Y0086303D01*
X0032259Y0080957D01*
X0032539Y0080677D01*
X0032259Y0080397D01*
X0032259Y0075052D01*
X0032539Y0074772D01*
X0032259Y0074492D01*
X0032259Y0069146D01*
X0032539Y0068866D01*
X0032259Y0068586D01*
X0032259Y0063241D01*
X0032539Y0062961D01*
X0032259Y0062681D01*
X0032259Y0057335D01*
X0032539Y0057055D01*
X0032259Y0056775D01*
X0032259Y0051430D01*
X0032539Y0051150D01*
X0032259Y0050870D01*
X0032259Y0045524D01*
X0032539Y0045244D01*
X0032259Y0044964D01*
X0032259Y0039619D01*
X0032539Y0039339D01*
X0032259Y0039058D01*
X0032259Y0033713D01*
X0032539Y0033433D01*
X0032259Y0033153D01*
X0032259Y0027808D01*
X0033255Y0026812D01*
X0039149Y0026812D01*
X0039149Y0019343D01*
X0040145Y0018347D01*
X0045490Y0018347D01*
X0045770Y0018627D01*
X0046050Y0018347D01*
X0051395Y0018347D01*
X0051676Y0018627D01*
X0051956Y0018347D01*
X0057301Y0018347D01*
X0057581Y0018627D01*
X0057861Y0018347D01*
X0063207Y0018347D01*
X0063487Y0018627D01*
X0063767Y0018347D01*
X0069112Y0018347D01*
X0069392Y0018627D01*
X0069672Y0018347D01*
X0075018Y0018347D01*
X0075298Y0018627D01*
X0075578Y0018347D01*
X0080923Y0018347D01*
X0081366Y0018790D01*
X0081608Y0018649D01*
X0081990Y0018547D01*
X0083672Y0018547D01*
X0083672Y0023106D01*
X0084640Y0023106D01*
X0084640Y0018547D01*
X0086322Y0018547D01*
X0086703Y0018649D01*
X0087045Y0018847D01*
X0087325Y0019126D01*
X0087522Y0019468D01*
X0087624Y0019850D01*
X0087624Y0023106D01*
X0084640Y0023106D01*
X0084640Y0024075D01*
X0087624Y0024075D01*
X0087624Y0027012D01*
X0088593Y0027012D01*
X0088593Y0029996D01*
X0089561Y0029996D01*
X0089561Y0027012D01*
X0093212Y0027012D01*
X0093593Y0027114D01*
X0093935Y0027312D01*
X0094214Y0027591D01*
X0094412Y0027933D01*
X0094514Y0028314D01*
X0094514Y0029996D01*
X0089561Y0029996D01*
X0089561Y0030965D01*
X0094514Y0030965D01*
X0094514Y0032646D01*
X0094412Y0033028D01*
X0094272Y0033271D01*
X0094714Y0033713D01*
X0094714Y0039058D01*
X0094434Y0039339D01*
X0094714Y0039619D01*
X0094714Y0044964D01*
X0094434Y0045244D01*
X0094714Y0045524D01*
X0094714Y0050870D01*
X0094434Y0051150D01*
X0094714Y0051430D01*
X0094714Y0056775D01*
X0094434Y0057055D01*
X0094714Y0057335D01*
X0094714Y0062681D01*
X0094434Y0062961D01*
X0094714Y0063241D01*
X0094714Y0068586D01*
X0094434Y0068866D01*
X0094714Y0069146D01*
X0094714Y0074492D01*
X0094434Y0074772D01*
X0094714Y0075052D01*
X0094714Y0080397D01*
X0094434Y0080677D01*
X0094714Y0080957D01*
X0094714Y0086303D01*
X0094434Y0086583D01*
X0094714Y0086863D01*
X0094714Y0092208D01*
X0094434Y0092488D01*
X0094714Y0092768D01*
X0094714Y0098114D01*
X0094434Y0098394D01*
X0094714Y0098674D01*
X0094714Y0104019D01*
X0093718Y0105015D01*
X0084676Y0105015D01*
X0088807Y0109146D01*
X0093807Y0109146D01*
X0095096Y0110435D01*
X0095096Y0158341D01*
X0096017Y0159261D01*
X0096577Y0160614D01*
X0096577Y0162079D01*
X0096017Y0163432D01*
X0095602Y0163846D01*
X0096017Y0164261D01*
X0096577Y0165614D01*
X0096577Y0167079D01*
X0096017Y0168432D01*
X0094981Y0169467D01*
X0093628Y0170028D01*
X0092326Y0170028D01*
X0091707Y0170646D01*
X0089196Y0170646D01*
X0089196Y0172546D01*
X0098111Y0172546D01*
X0098649Y0172009D01*
X0107144Y0172009D01*
X0108139Y0173004D01*
X0108139Y0180712D01*
X0107144Y0181708D01*
X0098649Y0181708D01*
X0097653Y0180712D01*
X0097653Y0176946D01*
X0088996Y0176946D01*
X0088996Y0177946D01*
X0084596Y0177946D01*
X0080196Y0177946D01*
X0080196Y0176749D01*
X0080217Y0176671D01*
X0079996Y0176451D01*
X0079996Y0170646D01*
X0071707Y0170646D01*
X0063807Y0178546D01*
X0062207Y0180146D01*
X0055596Y0180146D01*
X0055596Y0181046D01*
X0051196Y0181046D01*
X0051196Y0181047D01*
X0055596Y0181047D01*
X0055596Y0182244D01*
X0055575Y0182322D01*
X0055796Y0182542D01*
X0055796Y0188446D01*
X0079996Y0188446D01*
X0079996Y0179342D01*
X0080196Y0179142D01*
X0080196Y0177947D01*
X0084596Y0177947D01*
X0084596Y0177946D01*
X0084596Y0177947D01*
X0088996Y0177947D01*
X0088996Y0179142D01*
X0089196Y0179342D01*
X0089196Y0189051D01*
X0088200Y0190046D01*
X0081596Y0190046D01*
X0081596Y0196651D01*
X0080600Y0197646D01*
X0068496Y0197646D01*
X0068496Y0208835D01*
X0068807Y0209146D01*
X0081985Y0209146D01*
X0095696Y0195435D01*
X0096985Y0194146D01*
X0110696Y0180435D01*
X0110696Y0179352D01*
X0109775Y0178432D01*
X0109215Y0177079D01*
X0109215Y0175614D01*
X0109775Y0174261D01*
X0110811Y0173226D01*
X0112164Y0172665D01*
X0112496Y0172665D01*
X0112496Y0169110D01*
X0115659Y0165946D01*
X0120133Y0165946D01*
X0123037Y0168851D01*
X0125742Y0166146D01*
X0127396Y0166146D01*
X0127396Y0170846D01*
X0128396Y0170846D01*
X0128396Y0166146D01*
X0130050Y0166146D01*
X0133096Y0169193D01*
X0133096Y0170846D01*
X0128396Y0170846D01*
X0128396Y0171846D01*
X0133096Y0171846D01*
X0133096Y0173500D01*
X0130391Y0176205D01*
X0133296Y0179110D01*
X0133296Y0183583D01*
X0130533Y0186346D01*
X0133296Y0189110D01*
X0133296Y0189146D01*
X0136473Y0189146D01*
X0142073Y0183546D01*
X0141985Y0183546D01*
X0140696Y0182258D01*
X0140696Y0182258D01*
X0138466Y0180028D01*
X0137164Y0180028D01*
X0135811Y0179467D01*
X0134775Y0178432D01*
X0134215Y0177079D01*
X0134215Y0175614D01*
X0134775Y0174261D01*
X0135190Y0173846D01*
X0134775Y0173432D01*
X0134215Y0172079D01*
X0134215Y0170614D01*
X0134775Y0169261D01*
X0135811Y0168226D01*
X0137164Y0167665D01*
X0138628Y0167665D01*
X0139981Y0168226D01*
X0141017Y0169261D01*
X0141577Y0170614D01*
X0141577Y0171916D01*
X0142535Y0172874D01*
X0142535Y0167099D01*
X0143530Y0166103D01*
X0150028Y0166103D01*
X0151985Y0164146D01*
X0160490Y0164146D01*
X0159890Y0163546D01*
X0145902Y0163546D01*
X0144981Y0164467D01*
X0143628Y0165028D01*
X0142164Y0165028D01*
X0140811Y0164467D01*
X0139775Y0163432D01*
X0139215Y0162079D01*
X0139215Y0160614D01*
X0139775Y0159261D01*
X0140811Y0158226D01*
X0142164Y0157665D01*
X0143628Y0157665D01*
X0144564Y0158053D01*
X0147890Y0156390D01*
X0147884Y0156390D01*
X0147884Y0151846D01*
X0146884Y0151846D01*
X0146884Y0150846D01*
X0147884Y0150846D01*
X0147884Y0141846D01*
X0152034Y0141846D01*
X0152034Y0145087D01*
X0151932Y0145469D01*
X0151734Y0145811D01*
X0151455Y0146090D01*
X0151113Y0146288D01*
X0150893Y0146346D01*
X0151113Y0146405D01*
X0151455Y0146603D01*
X0151734Y0146882D01*
X0151932Y0147224D01*
X0152034Y0147606D01*
X0152034Y0149146D01*
X0153558Y0149146D01*
X0153558Y0147099D01*
X0154311Y0146346D01*
X0153558Y0145594D01*
X0153558Y0137099D01*
X0154311Y0136346D01*
X0153558Y0135594D01*
X0153558Y0127099D01*
X0154554Y0126103D01*
X0162262Y0126103D01*
X0163257Y0127099D01*
X0163257Y0133597D01*
X0167326Y0137665D01*
X0168628Y0137665D01*
X0169981Y0138226D01*
X0171017Y0139261D01*
X0171568Y0140592D01*
X0172896Y0139529D01*
X0172896Y0126346D01*
X0189215Y0126346D01*
X0189215Y0125614D01*
X0189775Y0124261D01*
X0190811Y0123226D01*
X0192164Y0122665D01*
X0193628Y0122665D01*
X0193956Y0122801D01*
X0210696Y0110246D01*
X0210696Y0103752D01*
X0209981Y0104467D01*
X0208628Y0105028D01*
X0207164Y0105028D01*
X0205811Y0104467D01*
X0204890Y0103546D01*
X0202497Y0103546D01*
X0200540Y0101590D01*
X0194554Y0101590D01*
X0193558Y0100594D01*
X0193558Y0092099D01*
X0194554Y0091103D01*
X0202262Y0091103D01*
X0203257Y0092099D01*
X0203257Y0098085D01*
X0204319Y0099146D01*
X0204890Y0099146D01*
X0205811Y0098226D01*
X0207164Y0097665D01*
X0208628Y0097665D01*
X0209981Y0098226D01*
X0210696Y0098941D01*
X0210696Y0092524D01*
X0201795Y0086590D01*
X0194554Y0086590D01*
X0193558Y0085594D01*
X0193558Y0077099D01*
X0194351Y0076306D01*
X0193645Y0075600D01*
X0193645Y0067093D01*
X0194641Y0066097D01*
X0200696Y0066097D01*
X0194473Y0066265D02*
X0191319Y0066265D01*
X0191151Y0066097D02*
X0192147Y0067093D01*
X0192147Y0075600D01*
X0191441Y0076306D01*
X0192234Y0077099D01*
X0192234Y0085594D01*
X0191238Y0086590D01*
X0183530Y0086590D01*
X0182535Y0085594D01*
X0182535Y0077099D01*
X0183241Y0076393D01*
X0182448Y0075600D01*
X0182448Y0067093D01*
X0183444Y0066097D01*
X0191151Y0066097D01*
X0192147Y0067263D02*
X0193645Y0067263D01*
X0193645Y0068262D02*
X0192147Y0068262D01*
X0192147Y0069260D02*
X0193645Y0069260D01*
X0193645Y0070259D02*
X0192147Y0070259D01*
X0192147Y0071257D02*
X0193645Y0071257D01*
X0193645Y0072256D02*
X0192147Y0072256D01*
X0192147Y0073254D02*
X0193645Y0073254D01*
X0193645Y0074253D02*
X0192147Y0074253D01*
X0192147Y0075251D02*
X0193645Y0075251D01*
X0194295Y0076250D02*
X0191497Y0076250D01*
X0192234Y0077248D02*
X0193558Y0077248D01*
X0193558Y0078247D02*
X0192234Y0078247D01*
X0192234Y0079245D02*
X0193558Y0079245D01*
X0193558Y0080244D02*
X0192234Y0080244D01*
X0192234Y0081242D02*
X0193558Y0081242D01*
X0193558Y0082241D02*
X0192234Y0082241D01*
X0192234Y0083239D02*
X0193558Y0083239D01*
X0193558Y0084238D02*
X0192234Y0084238D01*
X0192234Y0085236D02*
X0193558Y0085236D01*
X0194199Y0086235D02*
X0191593Y0086235D01*
X0190731Y0091303D02*
X0187884Y0091303D01*
X0187884Y0095846D01*
X0186884Y0095846D01*
X0186884Y0091303D01*
X0184037Y0091303D01*
X0183656Y0091405D01*
X0183314Y0091603D01*
X0183034Y0091882D01*
X0182837Y0092224D01*
X0182735Y0092606D01*
X0182735Y0095846D01*
X0186884Y0095846D01*
X0186884Y0096846D01*
X0182735Y0096846D01*
X0182735Y0100087D01*
X0182837Y0100469D01*
X0183034Y0100811D01*
X0183314Y0101090D01*
X0183656Y0101288D01*
X0184037Y0101390D01*
X0186884Y0101390D01*
X0186884Y0096846D01*
X0187884Y0096846D01*
X0192034Y0096846D01*
X0192034Y0100087D01*
X0191932Y0100469D01*
X0191734Y0100811D01*
X0191455Y0101090D01*
X0191113Y0101288D01*
X0190731Y0101390D01*
X0187884Y0101390D01*
X0187884Y0096846D01*
X0187884Y0095846D01*
X0192034Y0095846D01*
X0192034Y0092606D01*
X0191932Y0092224D01*
X0191734Y0091882D01*
X0191455Y0091603D01*
X0191113Y0091405D01*
X0190731Y0091303D01*
X0191932Y0092226D02*
X0193558Y0092226D01*
X0193558Y0093224D02*
X0192034Y0093224D01*
X0192034Y0094223D02*
X0193558Y0094223D01*
X0193558Y0095221D02*
X0192034Y0095221D01*
X0193558Y0096220D02*
X0187884Y0096220D01*
X0187384Y0096346D02*
X0182896Y0096346D01*
X0192896Y0106346D01*
X0194177Y0101212D02*
X0191243Y0101212D01*
X0192000Y0100214D02*
X0193558Y0100214D01*
X0193558Y0099215D02*
X0192034Y0099215D01*
X0192034Y0098217D02*
X0193558Y0098217D01*
X0193558Y0097218D02*
X0192034Y0097218D01*
X0187884Y0097218D02*
X0186884Y0097218D01*
X0186884Y0096220D02*
X0172724Y0096220D01*
X0173408Y0096346D02*
X0168408Y0101346D01*
X0168408Y0105835D01*
X0167896Y0106346D01*
X0162896Y0106346D01*
X0152896Y0116346D01*
X0147896Y0121346D01*
X0147896Y0130835D01*
X0147384Y0131346D01*
X0147384Y0141346D01*
X0147384Y0151346D01*
X0133408Y0151346D01*
X0133408Y0141346D01*
X0133908Y0141153D02*
X0146884Y0141153D01*
X0146884Y0140846D02*
X0142735Y0140846D01*
X0142735Y0137606D01*
X0142837Y0137224D01*
X0143034Y0136882D01*
X0143314Y0136603D01*
X0143656Y0136405D01*
X0143876Y0136346D01*
X0143656Y0136288D01*
X0143314Y0136090D01*
X0143034Y0135811D01*
X0142837Y0135469D01*
X0142735Y0135087D01*
X0142735Y0131846D01*
X0146884Y0131846D01*
X0146884Y0130846D01*
X0147884Y0130846D01*
X0147884Y0126303D01*
X0150731Y0126303D01*
X0151113Y0126405D01*
X0151455Y0126603D01*
X0151734Y0126882D01*
X0151932Y0127224D01*
X0152034Y0127606D01*
X0152034Y0130846D01*
X0147884Y0130846D01*
X0147884Y0131846D01*
X0152034Y0131846D01*
X0152034Y0135087D01*
X0151932Y0135469D01*
X0151734Y0135811D01*
X0151455Y0136090D01*
X0151113Y0136288D01*
X0150893Y0136346D01*
X0151113Y0136405D01*
X0151455Y0136603D01*
X0151734Y0136882D01*
X0151932Y0137224D01*
X0152034Y0137606D01*
X0152034Y0140846D01*
X0147884Y0140846D01*
X0147884Y0131846D01*
X0146884Y0131846D01*
X0146884Y0136390D01*
X0146884Y0140846D01*
X0147884Y0140846D01*
X0147884Y0141846D01*
X0146884Y0141846D01*
X0146884Y0140846D01*
X0146884Y0140154D02*
X0147884Y0140154D01*
X0147884Y0139156D02*
X0146884Y0139156D01*
X0146884Y0138157D02*
X0147884Y0138157D01*
X0147884Y0137159D02*
X0146884Y0137159D01*
X0146884Y0136160D02*
X0147884Y0136160D01*
X0147884Y0135162D02*
X0146884Y0135162D01*
X0146884Y0134163D02*
X0147884Y0134163D01*
X0147884Y0133165D02*
X0146884Y0133165D01*
X0146884Y0132166D02*
X0147884Y0132166D01*
X0147884Y0131168D02*
X0153558Y0131168D01*
X0153558Y0132166D02*
X0152034Y0132166D01*
X0152034Y0133165D02*
X0153558Y0133165D01*
X0153558Y0134163D02*
X0152034Y0134163D01*
X0152014Y0135162D02*
X0153558Y0135162D01*
X0154125Y0136160D02*
X0151333Y0136160D01*
X0151894Y0137159D02*
X0153558Y0137159D01*
X0153558Y0138157D02*
X0152034Y0138157D01*
X0152034Y0139156D02*
X0153558Y0139156D01*
X0153558Y0140154D02*
X0152034Y0140154D01*
X0153558Y0141153D02*
X0147884Y0141153D01*
X0147884Y0142151D02*
X0146884Y0142151D01*
X0146884Y0141846D02*
X0146884Y0146390D01*
X0146884Y0150846D01*
X0142735Y0150846D01*
X0142735Y0147606D01*
X0142837Y0147224D01*
X0143034Y0146882D01*
X0143314Y0146603D01*
X0143656Y0146405D01*
X0143876Y0146346D01*
X0143656Y0146288D01*
X0143314Y0146090D01*
X0143034Y0145811D01*
X0142837Y0145469D01*
X0142735Y0145087D01*
X0142735Y0141846D01*
X0146884Y0141846D01*
X0146884Y0143150D02*
X0147884Y0143150D01*
X0147884Y0144148D02*
X0146884Y0144148D01*
X0146884Y0145147D02*
X0147884Y0145147D01*
X0147884Y0146145D02*
X0146884Y0146145D01*
X0146884Y0147144D02*
X0147884Y0147144D01*
X0147884Y0148143D02*
X0146884Y0148143D01*
X0146884Y0149141D02*
X0147884Y0149141D01*
X0147884Y0150140D02*
X0146884Y0150140D01*
X0146884Y0151138D02*
X0133908Y0151138D01*
X0133908Y0150846D02*
X0133908Y0151846D01*
X0138057Y0151846D01*
X0138057Y0155087D01*
X0137955Y0155469D01*
X0137758Y0155811D01*
X0137478Y0156090D01*
X0137136Y0156288D01*
X0136755Y0156390D01*
X0133908Y0156390D01*
X0133908Y0151846D01*
X0132908Y0151846D01*
X0132908Y0150846D01*
X0133908Y0150846D01*
X0133908Y0150140D02*
X0132908Y0150140D01*
X0132908Y0150846D02*
X0132908Y0141846D01*
X0128758Y0141846D01*
X0128758Y0145087D01*
X0128860Y0145469D01*
X0129058Y0145811D01*
X0129337Y0146090D01*
X0129679Y0146288D01*
X0129899Y0146346D01*
X0129679Y0146405D01*
X0129337Y0146603D01*
X0129058Y0146882D01*
X0128860Y0147224D01*
X0128758Y0147606D01*
X0128758Y0150846D01*
X0132908Y0150846D01*
X0132908Y0151138D02*
X0127234Y0151138D01*
X0127234Y0150140D02*
X0128758Y0150140D01*
X0128758Y0149141D02*
X0127234Y0149141D01*
X0127234Y0148143D02*
X0128758Y0148143D01*
X0128907Y0147144D02*
X0127234Y0147144D01*
X0127234Y0147099D02*
X0127234Y0155594D01*
X0126238Y0156590D01*
X0118530Y0156590D01*
X0117535Y0155594D01*
X0117535Y0153546D01*
X0115902Y0153546D01*
X0114981Y0154467D01*
X0113628Y0155028D01*
X0112164Y0155028D01*
X0110811Y0154467D01*
X0109775Y0153432D01*
X0109215Y0152079D01*
X0109215Y0150777D01*
X0108466Y0150028D01*
X0107164Y0150028D01*
X0105811Y0149467D01*
X0105096Y0148752D01*
X0105096Y0153341D01*
X0106017Y0154261D01*
X0106577Y0155614D01*
X0106577Y0157079D01*
X0106017Y0158432D01*
X0104981Y0159467D01*
X0103628Y0160028D01*
X0102164Y0160028D01*
X0100811Y0159467D01*
X0099775Y0158432D01*
X0099215Y0157079D01*
X0099215Y0155614D01*
X0099775Y0154261D01*
X0100696Y0153341D01*
X0100696Y0146679D01*
X0100525Y0146127D01*
X0100696Y0145802D01*
X0100696Y0145435D01*
X0101105Y0145026D01*
X0103128Y0141187D01*
X0102653Y0140712D01*
X0102653Y0133004D01*
X0103649Y0132009D01*
X0112144Y0132009D01*
X0113139Y0133004D01*
X0113139Y0140712D01*
X0112144Y0141708D01*
X0110096Y0141708D01*
X0110096Y0143341D01*
X0110396Y0143641D01*
X0110811Y0143226D01*
X0112164Y0142665D01*
X0113628Y0142665D01*
X0114981Y0143226D01*
X0115902Y0144146D01*
X0116985Y0144146D01*
X0117535Y0143597D01*
X0117535Y0137099D01*
X0118287Y0136346D01*
X0117535Y0135594D01*
X0117535Y0129608D01*
X0115696Y0127770D01*
X0115696Y0120424D01*
X0114814Y0120424D01*
X0113818Y0119429D01*
X0113818Y0113264D01*
X0114814Y0112269D01*
X0120978Y0112269D01*
X0121974Y0113264D01*
X0121974Y0119429D01*
X0120978Y0120424D01*
X0120096Y0120424D01*
X0120096Y0125947D01*
X0120252Y0126103D01*
X0126238Y0126103D01*
X0127234Y0127099D01*
X0127234Y0135594D01*
X0126481Y0136346D01*
X0127234Y0137099D01*
X0127234Y0145594D01*
X0126481Y0146346D01*
X0127234Y0147099D01*
X0126682Y0146145D02*
X0129433Y0146145D01*
X0128774Y0145147D02*
X0127234Y0145147D01*
X0127234Y0144148D02*
X0128758Y0144148D01*
X0128758Y0143150D02*
X0127234Y0143150D01*
X0127234Y0142151D02*
X0128758Y0142151D01*
X0127234Y0141153D02*
X0132908Y0141153D01*
X0132908Y0142151D02*
X0133908Y0142151D01*
X0133908Y0143150D02*
X0132908Y0143150D01*
X0132908Y0144148D02*
X0133908Y0144148D01*
X0133908Y0145147D02*
X0132908Y0145147D01*
X0132908Y0146145D02*
X0133908Y0146145D01*
X0133908Y0147144D02*
X0132908Y0147144D01*
X0132908Y0148143D02*
X0133908Y0148143D01*
X0133908Y0149141D02*
X0132908Y0149141D01*
X0133408Y0151346D02*
X0133408Y0155835D01*
X0132896Y0156346D01*
X0122896Y0156346D01*
X0117896Y0161346D01*
X0127896Y0171346D01*
X0128396Y0171108D02*
X0134215Y0171108D01*
X0134227Y0172107D02*
X0133096Y0172107D01*
X0133096Y0173105D02*
X0134640Y0173105D01*
X0134933Y0174104D02*
X0132493Y0174104D01*
X0131494Y0175102D02*
X0134427Y0175102D01*
X0134215Y0176101D02*
X0130496Y0176101D01*
X0131286Y0177099D02*
X0134224Y0177099D01*
X0134637Y0178098D02*
X0132284Y0178098D01*
X0133283Y0179096D02*
X0135440Y0179096D01*
X0133296Y0180095D02*
X0138533Y0180095D01*
X0139532Y0181093D02*
X0133296Y0181093D01*
X0133296Y0182092D02*
X0140530Y0182092D01*
X0141529Y0183090D02*
X0133296Y0183090D01*
X0132790Y0184089D02*
X0141531Y0184089D01*
X0140532Y0185087D02*
X0131792Y0185087D01*
X0130793Y0186086D02*
X0139533Y0186086D01*
X0138535Y0187084D02*
X0131271Y0187084D01*
X0132269Y0188083D02*
X0137536Y0188083D01*
X0136538Y0189081D02*
X0133268Y0189081D01*
X0137384Y0191346D02*
X0147384Y0181346D01*
X0142896Y0181346D01*
X0137896Y0176346D01*
X0141768Y0172107D02*
X0142535Y0172107D01*
X0142535Y0171108D02*
X0141577Y0171108D01*
X0141368Y0170110D02*
X0142535Y0170110D01*
X0142535Y0169111D02*
X0140867Y0169111D01*
X0139708Y0168113D02*
X0142535Y0168113D01*
X0142535Y0167114D02*
X0131018Y0167114D01*
X0132016Y0168113D02*
X0136084Y0168113D01*
X0134925Y0169111D02*
X0133015Y0169111D01*
X0133096Y0170110D02*
X0134424Y0170110D01*
X0137896Y0171346D02*
X0147896Y0181346D01*
X0147384Y0181346D01*
X0157896Y0181346D02*
X0158408Y0181346D01*
X0158408Y0171346D01*
X0163257Y0171108D02*
X0172896Y0171108D01*
X0172896Y0170110D02*
X0163257Y0170110D01*
X0163257Y0169111D02*
X0172896Y0169111D01*
X0172896Y0168113D02*
X0164241Y0168113D01*
X0165322Y0167114D02*
X0172896Y0167114D01*
X0172896Y0166116D02*
X0166420Y0166116D01*
X0167519Y0165117D02*
X0172896Y0165117D01*
X0172896Y0164119D02*
X0168617Y0164119D01*
X0169715Y0163120D02*
X0172896Y0163120D01*
X0172896Y0162122D02*
X0170814Y0162122D01*
X0171912Y0161123D02*
X0172896Y0161123D01*
X0162896Y0161346D02*
X0142896Y0161346D01*
X0152896Y0156346D01*
X0152896Y0151346D01*
X0157896Y0151346D01*
X0158408Y0151346D01*
X0153558Y0149141D02*
X0152034Y0149141D01*
X0152034Y0148143D02*
X0153558Y0148143D01*
X0153558Y0147144D02*
X0151885Y0147144D01*
X0151359Y0146145D02*
X0154110Y0146145D01*
X0153558Y0145147D02*
X0152018Y0145147D01*
X0152034Y0144148D02*
X0153558Y0144148D01*
X0153558Y0143150D02*
X0152034Y0143150D01*
X0152034Y0142151D02*
X0153558Y0142151D01*
X0157896Y0141346D02*
X0158408Y0141346D01*
X0157896Y0141346D02*
X0167896Y0146346D01*
X0192896Y0126346D01*
X0212896Y0111346D01*
X0212896Y0091346D01*
X0197896Y0081346D01*
X0198408Y0081346D01*
X0202760Y0087233D02*
X0173344Y0087233D01*
X0173344Y0088232D02*
X0204258Y0088232D01*
X0205756Y0089230D02*
X0173344Y0089230D01*
X0173344Y0090229D02*
X0207254Y0090229D01*
X0208751Y0091227D02*
X0202386Y0091227D01*
X0203257Y0092226D02*
X0210249Y0092226D01*
X0210696Y0093224D02*
X0203257Y0093224D01*
X0203257Y0094223D02*
X0210696Y0094223D01*
X0210696Y0095221D02*
X0203257Y0095221D01*
X0203257Y0096220D02*
X0210696Y0096220D01*
X0210696Y0097218D02*
X0203257Y0097218D01*
X0203390Y0098217D02*
X0205832Y0098217D01*
X0207896Y0101346D02*
X0203408Y0101346D01*
X0198408Y0096346D01*
X0201161Y0102211D02*
X0173057Y0102211D01*
X0173057Y0103209D02*
X0202160Y0103209D01*
X0205552Y0104208D02*
X0173057Y0104208D01*
X0173026Y0105207D02*
X0210696Y0105207D01*
X0210696Y0106205D02*
X0172279Y0106205D01*
X0168908Y0106205D02*
X0167908Y0106205D01*
X0167908Y0106390D02*
X0165061Y0106390D01*
X0164679Y0106288D01*
X0164337Y0106090D01*
X0164058Y0105811D01*
X0163860Y0105469D01*
X0163758Y0105087D01*
X0163758Y0101846D01*
X0167908Y0101846D01*
X0167908Y0106390D01*
X0167908Y0105207D02*
X0168908Y0105207D01*
X0168908Y0104208D02*
X0167908Y0104208D01*
X0167908Y0103209D02*
X0168908Y0103209D01*
X0168908Y0102211D02*
X0167908Y0102211D01*
X0167908Y0101212D02*
X0162234Y0101212D01*
X0162234Y0100214D02*
X0163758Y0100214D01*
X0163758Y0099215D02*
X0162234Y0099215D01*
X0162234Y0098217D02*
X0163758Y0098217D01*
X0163864Y0097218D02*
X0162234Y0097218D01*
X0162234Y0097099D02*
X0162234Y0105594D01*
X0161238Y0106590D01*
X0153530Y0106590D01*
X0152535Y0105594D01*
X0152535Y0097099D01*
X0153241Y0096393D01*
X0152448Y0095600D01*
X0152448Y0087093D01*
X0153444Y0086097D01*
X0161151Y0086097D01*
X0162147Y0087093D01*
X0162147Y0095600D01*
X0161441Y0096306D01*
X0162234Y0097099D01*
X0161527Y0096220D02*
X0164265Y0096220D01*
X0163645Y0095221D02*
X0162147Y0095221D01*
X0162147Y0094223D02*
X0163645Y0094223D01*
X0163645Y0093224D02*
X0162147Y0093224D01*
X0162147Y0092226D02*
X0163645Y0092226D01*
X0163645Y0091227D02*
X0162147Y0091227D01*
X0162147Y0090229D02*
X0163645Y0090229D01*
X0163645Y0089230D02*
X0162147Y0089230D01*
X0162147Y0088232D02*
X0163645Y0088232D01*
X0163645Y0087233D02*
X0162147Y0087233D01*
X0161289Y0086235D02*
X0164503Y0086235D01*
X0163675Y0085236D02*
X0147117Y0085236D01*
X0146119Y0086235D02*
X0153306Y0086235D01*
X0152448Y0087233D02*
X0145120Y0087233D01*
X0145096Y0088232D02*
X0152448Y0088232D01*
X0152448Y0089230D02*
X0145586Y0089230D01*
X0146230Y0090229D02*
X0152448Y0090229D01*
X0152448Y0091227D02*
X0146230Y0091227D01*
X0146230Y0092226D02*
X0152448Y0092226D01*
X0152448Y0093224D02*
X0146230Y0093224D01*
X0145770Y0094223D02*
X0152448Y0094223D01*
X0152448Y0095221D02*
X0142132Y0095221D01*
X0141134Y0096220D02*
X0153068Y0096220D01*
X0152535Y0097218D02*
X0140135Y0097218D01*
X0140275Y0098217D02*
X0139137Y0098217D01*
X0139562Y0099215D02*
X0138138Y0099215D01*
X0137140Y0100214D02*
X0139562Y0100214D01*
X0139562Y0101212D02*
X0137073Y0101212D01*
X0138072Y0102211D02*
X0139562Y0102211D01*
X0139953Y0103209D02*
X0139070Y0103209D01*
X0140069Y0104208D02*
X0140696Y0104208D01*
X0140696Y0105207D02*
X0140096Y0105207D01*
X0140096Y0106205D02*
X0140696Y0106205D01*
X0140696Y0107204D02*
X0140096Y0107204D01*
X0140096Y0108202D02*
X0140696Y0108202D01*
X0140696Y0109201D02*
X0140096Y0109201D01*
X0140096Y0110199D02*
X0140696Y0110199D01*
X0140696Y0111198D02*
X0140096Y0111198D01*
X0140096Y0112196D02*
X0140696Y0112196D01*
X0140696Y0113195D02*
X0140096Y0113195D01*
X0135696Y0113195D02*
X0121904Y0113195D01*
X0121974Y0114193D02*
X0134844Y0114193D01*
X0134390Y0115192D02*
X0121974Y0115192D01*
X0121974Y0116190D02*
X0134215Y0116190D01*
X0134261Y0117189D02*
X0121974Y0117189D01*
X0121974Y0118187D02*
X0134674Y0118187D01*
X0135529Y0119186D02*
X0121974Y0119186D01*
X0121218Y0120184D02*
X0140696Y0120184D01*
X0140696Y0119186D02*
X0140263Y0119186D01*
X0140460Y0121183D02*
X0120096Y0121183D01*
X0120096Y0122181D02*
X0139462Y0122181D01*
X0138463Y0123180D02*
X0120096Y0123180D01*
X0120096Y0124178D02*
X0137465Y0124178D01*
X0136466Y0125177D02*
X0120096Y0125177D01*
X0117896Y0126858D02*
X0122384Y0131346D01*
X0117535Y0131168D02*
X0095096Y0131168D01*
X0095096Y0132166D02*
X0103491Y0132166D01*
X0102653Y0133165D02*
X0095096Y0133165D01*
X0095096Y0134163D02*
X0102653Y0134163D01*
X0102653Y0135162D02*
X0095096Y0135162D01*
X0095096Y0136160D02*
X0102653Y0136160D01*
X0102653Y0137159D02*
X0095096Y0137159D01*
X0095096Y0138157D02*
X0102653Y0138157D01*
X0102653Y0139156D02*
X0095096Y0139156D01*
X0095096Y0140154D02*
X0102653Y0140154D01*
X0103094Y0141153D02*
X0095096Y0141153D01*
X0095096Y0142151D02*
X0102620Y0142151D01*
X0102094Y0143150D02*
X0095096Y0143150D01*
X0095096Y0144148D02*
X0101568Y0144148D01*
X0100984Y0145147D02*
X0095096Y0145147D01*
X0095096Y0146145D02*
X0100531Y0146145D01*
X0100696Y0147144D02*
X0095096Y0147144D01*
X0095096Y0148143D02*
X0100696Y0148143D01*
X0100696Y0149141D02*
X0095096Y0149141D01*
X0095096Y0150140D02*
X0100696Y0150140D01*
X0100696Y0151138D02*
X0095096Y0151138D01*
X0095096Y0152137D02*
X0100696Y0152137D01*
X0100696Y0153135D02*
X0095096Y0153135D01*
X0095096Y0154134D02*
X0099903Y0154134D01*
X0099415Y0155132D02*
X0095096Y0155132D01*
X0095096Y0156131D02*
X0099215Y0156131D01*
X0099236Y0157129D02*
X0095096Y0157129D01*
X0095096Y0158128D02*
X0099649Y0158128D01*
X0100470Y0159126D02*
X0095882Y0159126D01*
X0096374Y0160125D02*
X0139418Y0160125D01*
X0139215Y0161123D02*
X0096577Y0161123D01*
X0096559Y0162122D02*
X0097951Y0162122D01*
X0097955Y0162106D02*
X0098152Y0161764D01*
X0098432Y0161485D01*
X0098774Y0161287D01*
X0099155Y0161185D01*
X0102396Y0161185D01*
X0102396Y0165335D01*
X0097853Y0165335D01*
X0097853Y0162488D01*
X0097955Y0162106D01*
X0097853Y0163120D02*
X0096146Y0163120D01*
X0095874Y0164119D02*
X0097853Y0164119D01*
X0097853Y0165117D02*
X0096371Y0165117D01*
X0096577Y0166116D02*
X0102396Y0166116D01*
X0102396Y0166335D02*
X0102396Y0165335D01*
X0103396Y0165335D01*
X0103396Y0166335D01*
X0102396Y0166335D01*
X0102396Y0170484D01*
X0099155Y0170484D01*
X0098774Y0170382D01*
X0098432Y0170185D01*
X0098152Y0169905D01*
X0097955Y0169563D01*
X0097853Y0169182D01*
X0097853Y0166335D01*
X0102396Y0166335D01*
X0102896Y0165835D02*
X0102384Y0160835D01*
X0097896Y0156346D01*
X0097896Y0131346D01*
X0103408Y0125835D01*
X0107896Y0125835D01*
X0107896Y0102146D01*
X0109896Y0100146D01*
X0109896Y0100146D01*
X0109896Y0100046D01*
X0109896Y0097647D01*
X0109896Y0097647D01*
X0109896Y0100146D01*
X0105396Y0100146D01*
X0105396Y0099049D01*
X0105437Y0098896D01*
X0105396Y0098744D01*
X0105396Y0097647D01*
X0109896Y0097647D01*
X0109896Y0097646D01*
X0109896Y0097646D01*
X0109896Y0097446D01*
X0109896Y0095047D01*
X0109896Y0095047D01*
X0109896Y0097646D01*
X0105396Y0097646D01*
X0105396Y0096549D01*
X0105450Y0096346D01*
X0105396Y0096144D01*
X0105396Y0095047D01*
X0109896Y0095047D01*
X0109896Y0095046D01*
X0109896Y0095046D01*
X0109896Y0094946D01*
X0109896Y0092547D01*
X0109896Y0092547D01*
X0109896Y0095046D01*
X0105396Y0095046D01*
X0105396Y0093949D01*
X0105437Y0093796D01*
X0105396Y0093644D01*
X0105396Y0092547D01*
X0109896Y0092547D01*
X0109896Y0092546D01*
X0109896Y0092546D01*
X0109896Y0090146D01*
X0106699Y0090146D01*
X0106317Y0090249D01*
X0105975Y0090446D01*
X0105696Y0090725D01*
X0105498Y0091067D01*
X0105396Y0091449D01*
X0105396Y0092546D01*
X0109896Y0092546D01*
X0109896Y0090146D01*
X0113094Y0090146D01*
X0113475Y0090249D01*
X0113817Y0090446D01*
X0114096Y0090725D01*
X0114294Y0091067D01*
X0114396Y0091449D01*
X0114396Y0092546D01*
X0109896Y0092546D01*
X0109896Y0092547D01*
X0114396Y0092547D01*
X0114396Y0093644D01*
X0114355Y0093796D01*
X0114396Y0093949D01*
X0114396Y0095046D01*
X0109896Y0095046D01*
X0109896Y0095047D01*
X0114396Y0095047D01*
X0114396Y0096144D01*
X0114342Y0096346D01*
X0114396Y0096549D01*
X0114396Y0097646D01*
X0109896Y0097646D01*
X0109896Y0097647D01*
X0114396Y0097647D01*
X0114396Y0098744D01*
X0114355Y0098896D01*
X0114396Y0099049D01*
X0114396Y0100146D01*
X0109896Y0100146D01*
X0109896Y0100147D01*
X0109896Y0102546D01*
X0106699Y0102546D01*
X0106317Y0102444D01*
X0105975Y0102247D01*
X0105696Y0101967D01*
X0105498Y0101625D01*
X0105396Y0101244D01*
X0105396Y0100147D01*
X0109896Y0100147D01*
X0109896Y0100147D01*
X0109896Y0102546D01*
X0113094Y0102546D01*
X0113475Y0102444D01*
X0113817Y0102247D01*
X0114096Y0101967D01*
X0114294Y0101625D01*
X0114396Y0101244D01*
X0114396Y0100147D01*
X0109896Y0100147D01*
X0109896Y0100146D01*
X0112396Y0097646D01*
X0109896Y0097646D01*
X0109196Y0097646D01*
X0107896Y0096346D01*
X0108596Y0096346D01*
X0109896Y0095046D01*
X0109896Y0092546D01*
X0109896Y0092226D02*
X0109896Y0092226D01*
X0109896Y0093224D02*
X0109896Y0093224D01*
X0109896Y0094223D02*
X0109896Y0094223D01*
X0109896Y0095221D02*
X0109896Y0095221D01*
X0109896Y0096220D02*
X0109896Y0096220D01*
X0109896Y0097218D02*
X0109896Y0097218D01*
X0109896Y0098217D02*
X0109896Y0098217D01*
X0109896Y0099215D02*
X0109896Y0099215D01*
X0109896Y0100214D02*
X0109896Y0100214D01*
X0109896Y0101212D02*
X0109896Y0101212D01*
X0109896Y0102211D02*
X0109896Y0102211D01*
X0105939Y0102211D02*
X0094714Y0102211D01*
X0094714Y0103209D02*
X0132848Y0103209D01*
X0133846Y0104208D02*
X0094525Y0104208D01*
X0094714Y0101212D02*
X0105396Y0101212D01*
X0105396Y0100214D02*
X0094714Y0100214D01*
X0094714Y0099215D02*
X0105396Y0099215D01*
X0105396Y0098217D02*
X0094611Y0098217D01*
X0094714Y0097218D02*
X0105396Y0097218D01*
X0105416Y0096220D02*
X0094714Y0096220D01*
X0094714Y0095221D02*
X0105396Y0095221D01*
X0105396Y0094223D02*
X0094714Y0094223D01*
X0094714Y0093224D02*
X0105396Y0093224D01*
X0105396Y0092226D02*
X0094696Y0092226D01*
X0094714Y0091227D02*
X0105455Y0091227D01*
X0106391Y0090229D02*
X0094714Y0090229D01*
X0094714Y0089230D02*
X0123696Y0089230D01*
X0123696Y0088232D02*
X0094714Y0088232D01*
X0094714Y0087233D02*
X0123898Y0087233D01*
X0124896Y0086235D02*
X0094714Y0086235D01*
X0094714Y0085236D02*
X0125895Y0085236D01*
X0125696Y0085435D02*
X0125696Y0085435D01*
X0124985Y0086146D02*
X0124985Y0086146D01*
X0125896Y0088346D02*
X0127896Y0086346D01*
X0132896Y0086346D01*
X0132896Y0051346D01*
X0129746Y0048197D01*
X0125849Y0048197D01*
X0125849Y0043866D02*
X0135416Y0043866D01*
X0137896Y0046346D01*
X0137896Y0086346D01*
X0129196Y0095046D01*
X0125896Y0095046D01*
X0125896Y0092546D02*
X0125896Y0088346D01*
X0121909Y0090229D02*
X0113401Y0090229D01*
X0114337Y0091227D02*
X0121196Y0091227D01*
X0121196Y0092226D02*
X0114396Y0092226D01*
X0114396Y0093224D02*
X0121196Y0093224D01*
X0121196Y0094223D02*
X0114396Y0094223D01*
X0114396Y0095221D02*
X0121196Y0095221D01*
X0121196Y0096220D02*
X0114376Y0096220D01*
X0114396Y0097218D02*
X0121396Y0097218D01*
X0121396Y0098217D02*
X0114396Y0098217D01*
X0114396Y0099215D02*
X0121196Y0099215D01*
X0121196Y0100214D02*
X0114396Y0100214D01*
X0114396Y0101212D02*
X0121196Y0101212D01*
X0121656Y0102211D02*
X0113853Y0102211D01*
X0112396Y0097646D02*
X0125896Y0097646D01*
X0125896Y0100146D02*
X0132896Y0100146D01*
X0137896Y0105146D01*
X0137896Y0116346D01*
X0135696Y0112196D02*
X0095096Y0112196D01*
X0095096Y0111198D02*
X0135696Y0111198D01*
X0135696Y0110199D02*
X0094860Y0110199D01*
X0093861Y0109201D02*
X0135696Y0109201D01*
X0135696Y0108202D02*
X0087863Y0108202D01*
X0086864Y0107204D02*
X0135696Y0107204D01*
X0135696Y0106205D02*
X0085866Y0106205D01*
X0084867Y0105207D02*
X0134845Y0105207D01*
X0134096Y0100146D02*
X0132896Y0100146D01*
X0134096Y0100146D02*
X0142424Y0091819D01*
X0142896Y0091819D01*
X0142896Y0086346D01*
X0147896Y0081346D01*
X0157896Y0081346D01*
X0147896Y0071346D01*
X0147896Y0041346D01*
X0152896Y0036346D01*
X0152896Y0021346D01*
X0157896Y0016346D01*
X0172896Y0016346D01*
X0202896Y0016346D01*
X0207896Y0021346D01*
X0209038Y0022488D01*
X0218546Y0022488D01*
X0224687Y0016346D01*
X0262896Y0016346D01*
X0269038Y0022488D01*
X0273546Y0022488D01*
X0268794Y0025326D02*
X0246998Y0025326D01*
X0246998Y0024327D02*
X0267765Y0024327D01*
X0266767Y0023329D02*
X0246998Y0023329D01*
X0246998Y0022330D02*
X0265768Y0022330D01*
X0264770Y0021332D02*
X0246998Y0021332D01*
X0246998Y0020333D02*
X0263771Y0020333D01*
X0262773Y0019335D02*
X0246998Y0019335D01*
X0246425Y0026324D02*
X0269367Y0026324D01*
X0269683Y0018336D02*
X0267997Y0018336D01*
X0266998Y0017338D02*
X0287097Y0017338D01*
X0287097Y0018336D02*
X0277408Y0018336D01*
X0278297Y0019335D02*
X0287097Y0019335D01*
X0287097Y0020333D02*
X0278297Y0020333D01*
X0278297Y0021332D02*
X0287097Y0021332D01*
X0287097Y0022330D02*
X0278297Y0022330D01*
X0278297Y0023329D02*
X0287097Y0023329D01*
X0287097Y0024327D02*
X0278297Y0024327D01*
X0278297Y0025326D02*
X0287097Y0025326D01*
X0287097Y0026324D02*
X0277724Y0026324D01*
X0287097Y0027323D02*
X0245946Y0027323D01*
X0246360Y0028321D02*
X0287097Y0028321D01*
X0287097Y0029320D02*
X0246550Y0029320D01*
X0246550Y0030318D02*
X0287097Y0030318D01*
X0287097Y0031317D02*
X0246516Y0031317D01*
X0246103Y0032315D02*
X0287097Y0032315D01*
X0287097Y0033314D02*
X0245689Y0033314D01*
X0244802Y0034312D02*
X0287097Y0034312D01*
X0287097Y0035311D02*
X0243706Y0035311D01*
X0237047Y0035311D02*
X0228745Y0035311D01*
X0229842Y0034312D02*
X0235950Y0034312D01*
X0235064Y0033314D02*
X0230728Y0033314D01*
X0231142Y0032315D02*
X0234650Y0032315D01*
X0234237Y0031317D02*
X0231555Y0031317D01*
X0231589Y0030318D02*
X0234203Y0030318D01*
X0234203Y0029320D02*
X0231589Y0029320D01*
X0231399Y0028321D02*
X0234393Y0028321D01*
X0234807Y0027323D02*
X0230985Y0027323D01*
X0230462Y0026324D02*
X0235330Y0026324D01*
X0236328Y0025326D02*
X0229464Y0025326D01*
X0227833Y0024327D02*
X0237495Y0024327D01*
X0237495Y0023329D02*
X0223297Y0023329D01*
X0223297Y0022330D02*
X0237495Y0022330D01*
X0237495Y0021332D02*
X0223297Y0021332D01*
X0223812Y0020333D02*
X0237495Y0020333D01*
X0237495Y0019335D02*
X0224811Y0019335D01*
X0219846Y0027323D02*
X0178336Y0027323D01*
X0178336Y0028321D02*
X0219433Y0028321D01*
X0219243Y0029320D02*
X0178981Y0029320D01*
X0179979Y0030318D02*
X0219243Y0030318D01*
X0219276Y0031317D02*
X0180978Y0031317D01*
X0181976Y0032315D02*
X0219690Y0032315D01*
X0220103Y0033314D02*
X0195069Y0033314D01*
X0196038Y0034312D02*
X0220990Y0034312D01*
X0223297Y0039305D02*
X0231328Y0039305D01*
X0230652Y0040303D02*
X0223297Y0040303D01*
X0223297Y0041302D02*
X0230696Y0041302D01*
X0230696Y0042300D02*
X0223297Y0042300D01*
X0223297Y0043299D02*
X0230696Y0043299D01*
X0230696Y0044297D02*
X0222467Y0044297D01*
X0217896Y0041346D02*
X0218546Y0040205D01*
X0217896Y0041346D02*
X0197896Y0041346D01*
X0200062Y0038306D02*
X0213794Y0038306D01*
X0214624Y0044297D02*
X0203958Y0044297D01*
X0204957Y0045296D02*
X0230696Y0045296D01*
X0230696Y0046294D02*
X0205096Y0046294D01*
X0207908Y0047293D02*
X0208908Y0047293D01*
X0208908Y0048291D02*
X0207908Y0048291D01*
X0207908Y0049290D02*
X0208908Y0049290D01*
X0208908Y0050288D02*
X0207908Y0050288D01*
X0213057Y0052285D02*
X0214301Y0052285D01*
X0214714Y0053284D02*
X0213057Y0053284D01*
X0213057Y0054282D02*
X0215626Y0054282D01*
X0213006Y0055281D02*
X0247535Y0055281D01*
X0248220Y0056279D02*
X0212150Y0056279D01*
X0218928Y0064268D02*
X0245462Y0064268D01*
X0244330Y0065266D02*
X0219927Y0065266D01*
X0220096Y0066265D02*
X0223277Y0066265D01*
X0222448Y0067263D02*
X0220096Y0067263D01*
X0220096Y0068262D02*
X0222448Y0068262D01*
X0222448Y0069260D02*
X0220096Y0069260D01*
X0220096Y0070259D02*
X0222448Y0070259D01*
X0222448Y0071257D02*
X0220096Y0071257D01*
X0220096Y0072256D02*
X0222448Y0072256D01*
X0222448Y0073254D02*
X0220096Y0073254D01*
X0220096Y0074253D02*
X0222448Y0074253D01*
X0222448Y0075251D02*
X0220096Y0075251D01*
X0220096Y0076250D02*
X0223098Y0076250D01*
X0222535Y0077248D02*
X0220096Y0077248D01*
X0220096Y0078247D02*
X0222535Y0078247D01*
X0222535Y0079245D02*
X0220096Y0079245D01*
X0220096Y0080244D02*
X0222535Y0080244D01*
X0222535Y0081242D02*
X0220096Y0081242D01*
X0220096Y0082241D02*
X0222535Y0082241D01*
X0222535Y0083239D02*
X0220096Y0083239D01*
X0220096Y0084238D02*
X0222535Y0084238D01*
X0222535Y0085236D02*
X0220595Y0085236D01*
X0222592Y0086235D02*
X0223176Y0086235D01*
X0224589Y0087233D02*
X0243272Y0087233D01*
X0244770Y0088232D02*
X0226586Y0088232D01*
X0228891Y0089230D02*
X0246268Y0089230D01*
X0247765Y0090229D02*
X0229890Y0090229D01*
X0227896Y0091346D02*
X0227896Y0116346D01*
X0217896Y0116346D01*
X0162896Y0166346D01*
X0152896Y0166346D01*
X0147896Y0171346D01*
X0147384Y0171346D01*
X0143518Y0166116D02*
X0120302Y0166116D01*
X0121301Y0167114D02*
X0124774Y0167114D01*
X0123776Y0168113D02*
X0122299Y0168113D01*
X0117896Y0171346D02*
X0112896Y0176346D01*
X0112896Y0181346D01*
X0097896Y0196346D01*
X0102896Y0201346D01*
X0117896Y0201346D01*
X0122896Y0196346D01*
X0147896Y0196346D01*
X0157896Y0186346D01*
X0157896Y0181346D01*
X0163257Y0181093D02*
X0172896Y0181093D01*
X0172896Y0180095D02*
X0163257Y0180095D01*
X0163257Y0179096D02*
X0172896Y0179096D01*
X0172896Y0178098D02*
X0163257Y0178098D01*
X0163257Y0177099D02*
X0172896Y0177099D01*
X0172896Y0176101D02*
X0162751Y0176101D01*
X0163257Y0175102D02*
X0172896Y0175102D01*
X0172896Y0174104D02*
X0163257Y0174104D01*
X0163257Y0173105D02*
X0172896Y0173105D01*
X0172896Y0172107D02*
X0163257Y0172107D01*
X0160462Y0164119D02*
X0145330Y0164119D01*
X0140462Y0164119D02*
X0107939Y0164119D01*
X0107939Y0165117D02*
X0151014Y0165117D01*
X0146411Y0157129D02*
X0106556Y0157129D01*
X0106577Y0156131D02*
X0118071Y0156131D01*
X0117535Y0155132D02*
X0106377Y0155132D01*
X0105889Y0154134D02*
X0110477Y0154134D01*
X0109653Y0153135D02*
X0105096Y0153135D01*
X0105096Y0152137D02*
X0109239Y0152137D01*
X0109215Y0151138D02*
X0105096Y0151138D01*
X0105096Y0150140D02*
X0108578Y0150140D01*
X0105485Y0149141D02*
X0105096Y0149141D01*
X0102896Y0146346D02*
X0107896Y0136858D01*
X0107896Y0146346D01*
X0112896Y0151346D01*
X0122384Y0151346D01*
X0122896Y0151346D01*
X0127234Y0152137D02*
X0128758Y0152137D01*
X0128758Y0151846D02*
X0132908Y0151846D01*
X0132908Y0156390D01*
X0130061Y0156390D01*
X0129679Y0156288D01*
X0129337Y0156090D01*
X0129058Y0155811D01*
X0128860Y0155469D01*
X0128758Y0155087D01*
X0128758Y0151846D01*
X0128758Y0153135D02*
X0127234Y0153135D01*
X0127234Y0154134D02*
X0128758Y0154134D01*
X0128770Y0155132D02*
X0127234Y0155132D01*
X0126697Y0156131D02*
X0129407Y0156131D01*
X0132908Y0156131D02*
X0133908Y0156131D01*
X0133908Y0155132D02*
X0132908Y0155132D01*
X0132908Y0154134D02*
X0133908Y0154134D01*
X0133908Y0153135D02*
X0132908Y0153135D01*
X0132908Y0152137D02*
X0133908Y0152137D01*
X0138057Y0152137D02*
X0142735Y0152137D01*
X0142735Y0151846D02*
X0146884Y0151846D01*
X0146884Y0156390D01*
X0144037Y0156390D01*
X0143656Y0156288D01*
X0143314Y0156090D01*
X0143034Y0155811D01*
X0142837Y0155469D01*
X0142735Y0155087D01*
X0142735Y0151846D01*
X0142735Y0153135D02*
X0138057Y0153135D01*
X0138057Y0154134D02*
X0142735Y0154134D01*
X0142747Y0155132D02*
X0138045Y0155132D01*
X0137408Y0156131D02*
X0143384Y0156131D01*
X0141048Y0158128D02*
X0106143Y0158128D01*
X0105322Y0159126D02*
X0139911Y0159126D01*
X0139233Y0162122D02*
X0107841Y0162122D01*
X0107837Y0162106D02*
X0107939Y0162488D01*
X0107939Y0165335D01*
X0103396Y0165335D01*
X0103396Y0161185D01*
X0106637Y0161185D01*
X0107018Y0161287D01*
X0107360Y0161485D01*
X0107640Y0161764D01*
X0107837Y0162106D01*
X0107939Y0163120D02*
X0139646Y0163120D01*
X0146884Y0156131D02*
X0147884Y0156131D01*
X0147884Y0155132D02*
X0146884Y0155132D01*
X0146884Y0154134D02*
X0147884Y0154134D01*
X0147884Y0153135D02*
X0146884Y0153135D01*
X0146884Y0152137D02*
X0147884Y0152137D01*
X0142735Y0150140D02*
X0138057Y0150140D01*
X0138057Y0149141D02*
X0142735Y0149141D01*
X0142735Y0148143D02*
X0138057Y0148143D01*
X0137909Y0147144D02*
X0142883Y0147144D01*
X0143410Y0146145D02*
X0137382Y0146145D01*
X0138041Y0145147D02*
X0142751Y0145147D01*
X0142735Y0144148D02*
X0138057Y0144148D01*
X0138057Y0143150D02*
X0142735Y0143150D01*
X0142735Y0142151D02*
X0138057Y0142151D01*
X0138057Y0140154D02*
X0142735Y0140154D01*
X0142735Y0139156D02*
X0138057Y0139156D01*
X0138057Y0138157D02*
X0142735Y0138157D01*
X0142875Y0137159D02*
X0137918Y0137159D01*
X0137691Y0136160D02*
X0143435Y0136160D01*
X0142755Y0135162D02*
X0138257Y0135162D01*
X0138257Y0134163D02*
X0142735Y0134163D01*
X0142735Y0133165D02*
X0138257Y0133165D01*
X0138257Y0132166D02*
X0142735Y0132166D01*
X0142735Y0130846D02*
X0142735Y0127606D01*
X0142837Y0127224D01*
X0143034Y0126882D01*
X0143314Y0126603D01*
X0143656Y0126405D01*
X0144037Y0126303D01*
X0146884Y0126303D01*
X0146884Y0130846D01*
X0142735Y0130846D01*
X0142735Y0130169D02*
X0138257Y0130169D01*
X0138257Y0131168D02*
X0146884Y0131168D01*
X0146884Y0130169D02*
X0147884Y0130169D01*
X0147884Y0129171D02*
X0146884Y0129171D01*
X0146884Y0128172D02*
X0147884Y0128172D01*
X0147884Y0127174D02*
X0146884Y0127174D01*
X0142866Y0127174D02*
X0140692Y0127174D01*
X0139693Y0128172D02*
X0142735Y0128172D01*
X0142735Y0129171D02*
X0138695Y0129171D01*
X0141690Y0126175D02*
X0154482Y0126175D01*
X0153558Y0127174D02*
X0151903Y0127174D01*
X0152034Y0128172D02*
X0153558Y0128172D01*
X0153558Y0129171D02*
X0152034Y0129171D01*
X0152034Y0130169D02*
X0153558Y0130169D01*
X0157896Y0131346D02*
X0158408Y0131346D01*
X0157896Y0131346D02*
X0167896Y0141346D01*
X0171387Y0140154D02*
X0172114Y0140154D01*
X0172896Y0139156D02*
X0170911Y0139156D01*
X0169816Y0138157D02*
X0172896Y0138157D01*
X0172896Y0137159D02*
X0166820Y0137159D01*
X0165821Y0136160D02*
X0172896Y0136160D01*
X0172896Y0135162D02*
X0164823Y0135162D01*
X0163824Y0134163D02*
X0172896Y0134163D01*
X0172896Y0133165D02*
X0163257Y0133165D01*
X0163257Y0132166D02*
X0172896Y0132166D01*
X0172896Y0131168D02*
X0163257Y0131168D01*
X0163257Y0130169D02*
X0172896Y0130169D01*
X0172896Y0129171D02*
X0163257Y0129171D01*
X0163257Y0128172D02*
X0172896Y0128172D01*
X0172896Y0127174D02*
X0163257Y0127174D01*
X0162334Y0126175D02*
X0189215Y0126175D01*
X0189396Y0125177D02*
X0142689Y0125177D01*
X0143687Y0124178D02*
X0189858Y0124178D01*
X0190922Y0123180D02*
X0144686Y0123180D01*
X0145096Y0122181D02*
X0194783Y0122181D01*
X0196114Y0121183D02*
X0145096Y0121183D01*
X0145096Y0120184D02*
X0150171Y0120184D01*
X0150321Y0120224D02*
X0149939Y0120122D01*
X0149597Y0119925D01*
X0149318Y0119645D01*
X0149120Y0119303D01*
X0149018Y0118922D01*
X0149018Y0116535D01*
X0152707Y0116535D01*
X0152707Y0116157D01*
X0153085Y0116157D01*
X0153085Y0112469D01*
X0155471Y0112469D01*
X0155853Y0112571D01*
X0156195Y0112768D01*
X0156474Y0113047D01*
X0156672Y0113390D01*
X0156774Y0113771D01*
X0156774Y0116157D01*
X0153085Y0116157D01*
X0153085Y0116535D01*
X0156774Y0116535D01*
X0156774Y0118922D01*
X0156672Y0119303D01*
X0156474Y0119645D01*
X0156195Y0119925D01*
X0155853Y0120122D01*
X0155471Y0120224D01*
X0153085Y0120224D01*
X0153085Y0116536D01*
X0152707Y0116536D01*
X0152707Y0120224D01*
X0150321Y0120224D01*
X0149089Y0119186D02*
X0145096Y0119186D01*
X0145096Y0118187D02*
X0149018Y0118187D01*
X0149018Y0117189D02*
X0145096Y0117189D01*
X0145096Y0116190D02*
X0152707Y0116190D01*
X0152707Y0116157D02*
X0149018Y0116157D01*
X0149018Y0113771D01*
X0149120Y0113390D01*
X0149318Y0113047D01*
X0149597Y0112768D01*
X0149939Y0112571D01*
X0150321Y0112469D01*
X0152707Y0112469D01*
X0152707Y0116157D01*
X0153085Y0116190D02*
X0202771Y0116190D01*
X0201440Y0117189D02*
X0156774Y0117189D01*
X0156774Y0118187D02*
X0200108Y0118187D01*
X0198777Y0119186D02*
X0156703Y0119186D01*
X0155622Y0120184D02*
X0197446Y0120184D01*
X0204102Y0115192D02*
X0156774Y0115192D01*
X0156774Y0114193D02*
X0205434Y0114193D01*
X0206765Y0113195D02*
X0156559Y0113195D01*
X0153085Y0113195D02*
X0152707Y0113195D01*
X0152707Y0114193D02*
X0153085Y0114193D01*
X0153085Y0115192D02*
X0152707Y0115192D01*
X0152707Y0117189D02*
X0153085Y0117189D01*
X0153085Y0118187D02*
X0152707Y0118187D01*
X0152707Y0119186D02*
X0153085Y0119186D01*
X0153085Y0120184D02*
X0152707Y0120184D01*
X0149018Y0115192D02*
X0145096Y0115192D01*
X0145096Y0114193D02*
X0149018Y0114193D01*
X0149233Y0113195D02*
X0145096Y0113195D01*
X0145096Y0112196D02*
X0208097Y0112196D01*
X0209428Y0111198D02*
X0145096Y0111198D01*
X0145096Y0110199D02*
X0210696Y0110199D01*
X0210696Y0109201D02*
X0145096Y0109201D01*
X0145096Y0108202D02*
X0210696Y0108202D01*
X0210696Y0107204D02*
X0145096Y0107204D01*
X0145096Y0106205D02*
X0153146Y0106205D01*
X0152535Y0105207D02*
X0145096Y0105207D01*
X0145096Y0104208D02*
X0152535Y0104208D01*
X0152535Y0103209D02*
X0145839Y0103209D01*
X0146230Y0102211D02*
X0152535Y0102211D01*
X0152535Y0101212D02*
X0146230Y0101212D01*
X0146230Y0100214D02*
X0152535Y0100214D01*
X0152535Y0099215D02*
X0146230Y0099215D01*
X0145517Y0098217D02*
X0152535Y0098217D01*
X0157384Y0101346D02*
X0157384Y0091433D01*
X0157298Y0091346D01*
X0162676Y0084238D02*
X0148116Y0084238D01*
X0147896Y0076346D02*
X0142896Y0071346D01*
X0142896Y0041346D01*
X0132424Y0030874D01*
X0125849Y0030874D01*
X0125849Y0026543D02*
X0125652Y0026346D01*
X0107896Y0026346D01*
X0104215Y0026324D02*
X0087624Y0026324D01*
X0087624Y0025326D02*
X0104334Y0025326D01*
X0104748Y0024327D02*
X0087624Y0024327D01*
X0087624Y0022330D02*
X0125561Y0022330D01*
X0125849Y0022213D02*
X0143762Y0022213D01*
X0147896Y0026346D01*
X0150696Y0026324D02*
X0135985Y0026324D01*
X0134986Y0025326D02*
X0150696Y0025326D01*
X0150696Y0024327D02*
X0131092Y0024327D01*
X0130892Y0023329D02*
X0150696Y0023329D01*
X0150696Y0022330D02*
X0126136Y0022330D01*
X0125849Y0022213D02*
X0097345Y0022213D01*
X0089077Y0030480D01*
X0087896Y0031346D01*
X0057896Y0031346D01*
X0056976Y0032315D02*
X0083640Y0032315D01*
X0083640Y0032646D02*
X0083640Y0030965D01*
X0088593Y0030965D01*
X0088593Y0029996D01*
X0083640Y0029996D01*
X0083640Y0028634D01*
X0081990Y0028634D01*
X0081608Y0028532D01*
X0081366Y0028391D01*
X0080923Y0028834D01*
X0075578Y0028834D01*
X0075298Y0028554D01*
X0075018Y0028834D01*
X0069672Y0028834D01*
X0069392Y0028554D01*
X0069112Y0028834D01*
X0063767Y0028834D01*
X0063487Y0028554D01*
X0063207Y0028834D01*
X0057861Y0028834D01*
X0057581Y0028554D01*
X0057301Y0028834D01*
X0051956Y0028834D01*
X0051676Y0028554D01*
X0051395Y0028834D01*
X0046050Y0028834D01*
X0045770Y0028554D01*
X0045490Y0028834D01*
X0043533Y0028834D01*
X0043533Y0029146D01*
X0053807Y0029146D01*
X0077326Y0052665D01*
X0078628Y0052665D01*
X0079981Y0053226D01*
X0081017Y0054261D01*
X0081577Y0055614D01*
X0081577Y0057079D01*
X0081017Y0058432D01*
X0079981Y0059467D01*
X0078628Y0060028D01*
X0077164Y0060028D01*
X0075811Y0059467D01*
X0074775Y0058432D01*
X0074215Y0057079D01*
X0074215Y0055777D01*
X0070096Y0051658D01*
X0070096Y0095435D01*
X0074525Y0099865D01*
X0074775Y0099261D01*
X0075811Y0098226D01*
X0077164Y0097665D01*
X0078628Y0097665D01*
X0079981Y0098226D01*
X0081017Y0099261D01*
X0081577Y0100614D01*
X0081577Y0101916D01*
X0083440Y0103779D01*
X0083440Y0098674D01*
X0083720Y0098394D01*
X0083440Y0098114D01*
X0083440Y0092768D01*
X0083720Y0092488D01*
X0083440Y0092208D01*
X0083440Y0086863D01*
X0083720Y0086583D01*
X0083440Y0086303D01*
X0083440Y0080957D01*
X0083720Y0080677D01*
X0083440Y0080397D01*
X0083440Y0075052D01*
X0083720Y0074772D01*
X0083440Y0074492D01*
X0083440Y0069146D01*
X0083720Y0068866D01*
X0083440Y0068586D01*
X0083440Y0063241D01*
X0083720Y0062961D01*
X0083440Y0062681D01*
X0083440Y0057335D01*
X0083720Y0057055D01*
X0083440Y0056775D01*
X0083440Y0051430D01*
X0083720Y0051150D01*
X0083440Y0050870D01*
X0083440Y0045524D01*
X0083720Y0045244D01*
X0083440Y0044964D01*
X0083440Y0039619D01*
X0083720Y0039339D01*
X0083440Y0039058D01*
X0083440Y0033713D01*
X0083883Y0033271D01*
X0083742Y0033028D01*
X0083640Y0032646D01*
X0083840Y0033314D02*
X0057975Y0033314D01*
X0058973Y0034312D02*
X0083440Y0034312D01*
X0083440Y0035311D02*
X0059972Y0035311D01*
X0060970Y0036309D02*
X0083440Y0036309D01*
X0083440Y0037308D02*
X0061969Y0037308D01*
X0062967Y0038306D02*
X0083440Y0038306D01*
X0083686Y0039305D02*
X0063966Y0039305D01*
X0064964Y0040303D02*
X0083440Y0040303D01*
X0083440Y0041302D02*
X0065963Y0041302D01*
X0066961Y0042300D02*
X0083440Y0042300D01*
X0083440Y0043299D02*
X0067960Y0043299D01*
X0068958Y0044297D02*
X0083440Y0044297D01*
X0083668Y0045296D02*
X0069957Y0045296D01*
X0070955Y0046294D02*
X0083440Y0046294D01*
X0083440Y0047293D02*
X0071954Y0047293D01*
X0072952Y0048291D02*
X0083440Y0048291D01*
X0083440Y0049290D02*
X0073951Y0049290D01*
X0074949Y0050288D02*
X0083440Y0050288D01*
X0083583Y0051287D02*
X0075948Y0051287D01*
X0076946Y0052285D02*
X0083440Y0052285D01*
X0083440Y0053284D02*
X0080039Y0053284D01*
X0081026Y0054282D02*
X0083440Y0054282D01*
X0083440Y0055281D02*
X0081439Y0055281D01*
X0081577Y0056279D02*
X0083440Y0056279D01*
X0083497Y0057278D02*
X0081495Y0057278D01*
X0081081Y0058276D02*
X0083440Y0058276D01*
X0083440Y0059275D02*
X0080173Y0059275D01*
X0083440Y0060274D02*
X0070096Y0060274D01*
X0070096Y0061272D02*
X0083440Y0061272D01*
X0083440Y0062271D02*
X0070096Y0062271D01*
X0070096Y0063269D02*
X0083440Y0063269D01*
X0083440Y0064268D02*
X0070096Y0064268D01*
X0070096Y0065266D02*
X0083440Y0065266D01*
X0083440Y0066265D02*
X0070096Y0066265D01*
X0070096Y0067263D02*
X0083440Y0067263D01*
X0083440Y0068262D02*
X0070096Y0068262D01*
X0070096Y0069260D02*
X0083440Y0069260D01*
X0083440Y0070259D02*
X0070096Y0070259D01*
X0070096Y0071257D02*
X0083440Y0071257D01*
X0083440Y0072256D02*
X0070096Y0072256D01*
X0070096Y0073254D02*
X0083440Y0073254D01*
X0083440Y0074253D02*
X0070096Y0074253D01*
X0070096Y0075251D02*
X0083440Y0075251D01*
X0083440Y0076250D02*
X0070096Y0076250D01*
X0070096Y0077248D02*
X0083440Y0077248D01*
X0083440Y0078247D02*
X0070096Y0078247D01*
X0070096Y0079245D02*
X0083440Y0079245D01*
X0083440Y0080244D02*
X0070096Y0080244D01*
X0070096Y0081242D02*
X0083440Y0081242D01*
X0083440Y0082241D02*
X0070096Y0082241D01*
X0070096Y0083239D02*
X0083440Y0083239D01*
X0083440Y0084238D02*
X0070096Y0084238D01*
X0070096Y0085236D02*
X0083440Y0085236D01*
X0083440Y0086235D02*
X0070096Y0086235D01*
X0070096Y0087233D02*
X0083440Y0087233D01*
X0083440Y0088232D02*
X0070096Y0088232D01*
X0070096Y0089230D02*
X0083440Y0089230D01*
X0083440Y0090229D02*
X0070096Y0090229D01*
X0070096Y0091227D02*
X0083440Y0091227D01*
X0083458Y0092226D02*
X0070096Y0092226D01*
X0070096Y0093224D02*
X0083440Y0093224D01*
X0083440Y0094223D02*
X0070096Y0094223D01*
X0070096Y0095221D02*
X0083440Y0095221D01*
X0083440Y0096220D02*
X0070881Y0096220D01*
X0071879Y0097218D02*
X0083440Y0097218D01*
X0083544Y0098217D02*
X0079960Y0098217D01*
X0080971Y0099215D02*
X0083440Y0099215D01*
X0083440Y0100214D02*
X0081411Y0100214D01*
X0081577Y0101212D02*
X0083440Y0101212D01*
X0083440Y0102211D02*
X0081872Y0102211D01*
X0082870Y0103209D02*
X0083440Y0103209D01*
X0077896Y0101346D02*
X0087896Y0111346D01*
X0092896Y0111346D01*
X0092896Y0161346D01*
X0088896Y0165346D01*
X0084596Y0165346D01*
X0084596Y0168446D02*
X0090796Y0168446D01*
X0092896Y0166346D01*
X0095337Y0169111D02*
X0097853Y0169111D01*
X0097853Y0168113D02*
X0096149Y0168113D01*
X0096562Y0167114D02*
X0097853Y0167114D01*
X0102396Y0167114D02*
X0103396Y0167114D01*
X0103396Y0166335D02*
X0103396Y0170484D01*
X0106637Y0170484D01*
X0107018Y0170382D01*
X0107360Y0170185D01*
X0107640Y0169905D01*
X0107837Y0169563D01*
X0107939Y0169182D01*
X0107939Y0166335D01*
X0103396Y0166335D01*
X0103396Y0166116D02*
X0115490Y0166116D01*
X0114492Y0167114D02*
X0107939Y0167114D01*
X0107939Y0168113D02*
X0113493Y0168113D01*
X0112496Y0169111D02*
X0107939Y0169111D01*
X0107435Y0170110D02*
X0112496Y0170110D01*
X0112496Y0171108D02*
X0089196Y0171108D01*
X0089196Y0172107D02*
X0098550Y0172107D01*
X0098357Y0170110D02*
X0092244Y0170110D01*
X0088996Y0177099D02*
X0097653Y0177099D01*
X0097653Y0178098D02*
X0088996Y0178098D01*
X0089496Y0177946D02*
X0092896Y0181346D01*
X0089196Y0181093D02*
X0098034Y0181093D01*
X0097653Y0180095D02*
X0089196Y0180095D01*
X0088996Y0179096D02*
X0097653Y0179096D01*
X0100784Y0174746D02*
X0102896Y0176858D01*
X0100784Y0174746D02*
X0084596Y0174746D01*
X0084596Y0177946D02*
X0079496Y0177946D01*
X0077896Y0176346D01*
X0072896Y0181346D01*
X0052896Y0181346D01*
X0051196Y0181046D01*
X0052896Y0181346D02*
X0047896Y0181346D01*
X0042896Y0186346D01*
X0042896Y0176346D01*
X0044496Y0174746D01*
X0051196Y0174746D01*
X0051196Y0174747D01*
X0055596Y0174747D01*
X0055596Y0175746D01*
X0059185Y0175746D01*
X0057285Y0173846D01*
X0055596Y0173846D01*
X0055596Y0174746D01*
X0051196Y0174746D01*
X0051196Y0171646D02*
X0058196Y0171646D01*
X0062896Y0176346D01*
X0070796Y0168446D01*
X0084596Y0168446D01*
X0079996Y0171108D02*
X0071246Y0171108D01*
X0070247Y0172107D02*
X0079996Y0172107D01*
X0079996Y0173105D02*
X0069248Y0173105D01*
X0068250Y0174104D02*
X0079996Y0174104D01*
X0079996Y0175102D02*
X0067251Y0175102D01*
X0066253Y0176101D02*
X0079996Y0176101D01*
X0080196Y0177099D02*
X0065254Y0177099D01*
X0064256Y0178098D02*
X0080196Y0178098D01*
X0080196Y0179096D02*
X0063257Y0179096D01*
X0063807Y0178546D02*
X0063807Y0178546D01*
X0062259Y0180095D02*
X0079996Y0180095D01*
X0079996Y0181093D02*
X0055596Y0181093D01*
X0055596Y0182092D02*
X0079996Y0182092D01*
X0079996Y0183090D02*
X0055796Y0183090D01*
X0055796Y0184089D02*
X0079996Y0184089D01*
X0079996Y0185087D02*
X0055796Y0185087D01*
X0055796Y0186086D02*
X0079996Y0186086D01*
X0079996Y0187084D02*
X0055796Y0187084D01*
X0055796Y0188083D02*
X0079996Y0188083D01*
X0081596Y0190080D02*
X0101051Y0190080D01*
X0100053Y0191078D02*
X0081596Y0191078D01*
X0081596Y0192077D02*
X0099054Y0192077D01*
X0098056Y0193076D02*
X0081596Y0193076D01*
X0081596Y0194074D02*
X0097057Y0194074D01*
X0096985Y0194146D02*
X0096985Y0194146D01*
X0096059Y0195073D02*
X0081596Y0195073D01*
X0081596Y0196071D02*
X0095060Y0196071D01*
X0095696Y0195435D02*
X0095696Y0195435D01*
X0094062Y0197070D02*
X0081177Y0197070D01*
X0088071Y0203061D02*
X0068496Y0203061D01*
X0068496Y0204059D02*
X0087072Y0204059D01*
X0086074Y0205058D02*
X0068496Y0205058D01*
X0068496Y0206056D02*
X0085075Y0206056D01*
X0084077Y0207055D02*
X0068496Y0207055D01*
X0068496Y0208053D02*
X0083078Y0208053D01*
X0082080Y0209052D02*
X0068713Y0209052D01*
X0067896Y0211346D02*
X0066296Y0209746D01*
X0066296Y0193046D01*
X0063196Y0193046D02*
X0063196Y0211046D01*
X0062896Y0211346D01*
X0059449Y0210050D02*
X0022396Y0210050D01*
X0022396Y0209052D02*
X0055395Y0209052D01*
X0054619Y0208053D02*
X0022396Y0208053D01*
X0022396Y0207055D02*
X0054215Y0207055D01*
X0054215Y0206056D02*
X0022396Y0206056D01*
X0022396Y0205058D02*
X0054445Y0205058D01*
X0054977Y0204059D02*
X0022396Y0204059D01*
X0022396Y0203061D02*
X0046499Y0203061D01*
X0045696Y0202062D02*
X0022396Y0202062D01*
X0022396Y0201064D02*
X0023004Y0201064D01*
X0022535Y0200065D02*
X0022396Y0200065D01*
X0022396Y0199067D02*
X0022535Y0199067D01*
X0022535Y0198068D02*
X0022396Y0198068D01*
X0022396Y0197070D02*
X0022535Y0197070D01*
X0022535Y0196071D02*
X0022396Y0196071D01*
X0022396Y0195073D02*
X0022535Y0195073D01*
X0022535Y0194074D02*
X0022396Y0194074D01*
X0022396Y0193076D02*
X0022535Y0193076D01*
X0022557Y0192077D02*
X0022396Y0192077D01*
X0022396Y0191078D02*
X0025696Y0191078D01*
X0024344Y0190080D02*
X0022396Y0190080D01*
X0022396Y0189081D02*
X0023716Y0189081D01*
X0023716Y0188083D02*
X0022396Y0188083D01*
X0022396Y0187084D02*
X0023716Y0187084D01*
X0023716Y0186086D02*
X0022396Y0186086D01*
X0022396Y0185087D02*
X0023716Y0185087D01*
X0023716Y0184089D02*
X0022396Y0184089D01*
X0022396Y0183090D02*
X0023716Y0183090D01*
X0023716Y0182092D02*
X0022396Y0182092D01*
X0022396Y0181093D02*
X0023716Y0181093D01*
X0024184Y0180095D02*
X0022396Y0180095D01*
X0022396Y0179096D02*
X0027035Y0179096D01*
X0028033Y0178098D02*
X0022396Y0178098D01*
X0022396Y0177099D02*
X0029032Y0177099D01*
X0030030Y0176101D02*
X0022396Y0176101D01*
X0022896Y0176346D02*
X0022896Y0156858D01*
X0027384Y0156858D01*
X0027384Y0156346D01*
X0026884Y0156131D02*
X0022396Y0156131D01*
X0022735Y0155846D02*
X0022735Y0152606D01*
X0022837Y0152224D01*
X0023034Y0151882D01*
X0023314Y0151603D01*
X0023656Y0151405D01*
X0024037Y0151303D01*
X0026884Y0151303D01*
X0026884Y0155846D01*
X0027884Y0155846D01*
X0027884Y0151303D01*
X0030731Y0151303D01*
X0031113Y0151405D01*
X0031455Y0151603D01*
X0031734Y0151882D01*
X0031932Y0152224D01*
X0032034Y0152606D01*
X0032034Y0155846D01*
X0027884Y0155846D01*
X0027884Y0156846D01*
X0032034Y0156846D01*
X0032034Y0160087D01*
X0031932Y0160469D01*
X0031734Y0160811D01*
X0031455Y0161090D01*
X0031113Y0161288D01*
X0030731Y0161390D01*
X0027884Y0161390D01*
X0027884Y0156846D01*
X0026884Y0156846D01*
X0026884Y0155846D01*
X0022735Y0155846D01*
X0022735Y0155132D02*
X0022396Y0155132D01*
X0022396Y0154134D02*
X0022735Y0154134D01*
X0022735Y0153135D02*
X0022396Y0153135D01*
X0022396Y0152137D02*
X0022887Y0152137D01*
X0022396Y0151138D02*
X0034519Y0151138D01*
X0033558Y0152137D02*
X0031881Y0152137D01*
X0032034Y0153135D02*
X0033558Y0153135D01*
X0033558Y0154134D02*
X0032034Y0154134D01*
X0032034Y0155132D02*
X0033558Y0155132D01*
X0033558Y0156131D02*
X0027884Y0156131D01*
X0027884Y0157129D02*
X0026884Y0157129D01*
X0026884Y0156846D02*
X0026884Y0161390D01*
X0024037Y0161390D01*
X0023656Y0161288D01*
X0023314Y0161090D01*
X0023034Y0160811D01*
X0022837Y0160469D01*
X0022735Y0160087D01*
X0022735Y0156846D01*
X0026884Y0156846D01*
X0026884Y0158128D02*
X0027884Y0158128D01*
X0027884Y0159126D02*
X0026884Y0159126D01*
X0026884Y0160125D02*
X0027884Y0160125D01*
X0027884Y0161123D02*
X0026884Y0161123D01*
X0024712Y0162245D02*
X0023716Y0163241D01*
X0023716Y0172129D01*
X0024712Y0173125D01*
X0031632Y0173125D01*
X0032628Y0172129D01*
X0032628Y0163241D01*
X0031632Y0162245D01*
X0024712Y0162245D01*
X0023836Y0163120D02*
X0022396Y0163120D01*
X0022396Y0162122D02*
X0035696Y0162122D01*
X0034088Y0161123D02*
X0031398Y0161123D01*
X0032024Y0160125D02*
X0033558Y0160125D01*
X0033558Y0159126D02*
X0032034Y0159126D01*
X0032034Y0158128D02*
X0033558Y0158128D01*
X0033558Y0157129D02*
X0032034Y0157129D01*
X0027884Y0155132D02*
X0026884Y0155132D01*
X0026884Y0154134D02*
X0027884Y0154134D01*
X0027884Y0153135D02*
X0026884Y0153135D01*
X0026884Y0152137D02*
X0027884Y0152137D01*
X0022396Y0150140D02*
X0046567Y0150140D01*
X0047293Y0151138D02*
X0042297Y0151138D01*
X0043257Y0152137D02*
X0048018Y0152137D01*
X0048744Y0153135D02*
X0043257Y0153135D01*
X0043257Y0154134D02*
X0049470Y0154134D01*
X0050195Y0155132D02*
X0043257Y0155132D01*
X0043257Y0156131D02*
X0050921Y0156131D01*
X0051647Y0157129D02*
X0043257Y0157129D01*
X0043257Y0158128D02*
X0052373Y0158128D01*
X0053098Y0159126D02*
X0043257Y0159126D01*
X0043257Y0160125D02*
X0053824Y0160125D01*
X0054196Y0161123D02*
X0042728Y0161123D01*
X0041956Y0163120D02*
X0047118Y0163120D01*
X0051196Y0165346D02*
X0038896Y0165346D01*
X0037896Y0166346D01*
X0037896Y0167409D01*
X0037620Y0167685D01*
X0037896Y0166346D01*
X0037896Y0156346D01*
X0038408Y0156346D01*
X0040096Y0162122D02*
X0054196Y0162122D01*
X0056196Y0159646D02*
X0042896Y0141346D01*
X0027896Y0131858D01*
X0022653Y0132166D02*
X0022396Y0132166D01*
X0022396Y0131168D02*
X0022653Y0131168D01*
X0022653Y0130169D02*
X0022396Y0130169D01*
X0022396Y0129171D02*
X0022653Y0129171D01*
X0022653Y0128172D02*
X0022396Y0128172D01*
X0022396Y0127174D02*
X0023483Y0127174D01*
X0022396Y0126175D02*
X0059614Y0126175D01*
X0060612Y0127174D02*
X0032309Y0127174D01*
X0033139Y0128172D02*
X0060940Y0128172D01*
X0059866Y0129171D02*
X0033139Y0129171D01*
X0033139Y0130169D02*
X0059399Y0130169D01*
X0059215Y0131168D02*
X0033139Y0131168D01*
X0033139Y0132166D02*
X0059251Y0132166D01*
X0059665Y0133165D02*
X0054834Y0133165D01*
X0055919Y0134163D02*
X0060507Y0134163D01*
X0060696Y0135162D02*
X0056390Y0135162D01*
X0056577Y0136160D02*
X0060646Y0136160D01*
X0060696Y0137159D02*
X0056820Y0137159D01*
X0057818Y0138157D02*
X0061354Y0138157D01*
X0061869Y0139156D02*
X0058817Y0139156D01*
X0059815Y0140154D02*
X0062383Y0140154D01*
X0062897Y0141153D02*
X0060814Y0141153D01*
X0061812Y0142151D02*
X0063412Y0142151D01*
X0063926Y0143150D02*
X0062811Y0143150D01*
X0063809Y0144148D02*
X0064096Y0144148D01*
X0066296Y0142946D02*
X0062896Y0136346D01*
X0062896Y0131346D01*
X0066835Y0127174D02*
X0080696Y0127174D01*
X0080696Y0128172D02*
X0069852Y0128172D01*
X0069981Y0128226D02*
X0071017Y0129261D01*
X0071577Y0130614D01*
X0071577Y0132079D01*
X0071017Y0133432D01*
X0069981Y0134467D01*
X0068628Y0135028D01*
X0067164Y0135028D01*
X0065811Y0134467D01*
X0065396Y0134052D01*
X0065096Y0134352D01*
X0065096Y0135813D01*
X0068095Y0141634D01*
X0068496Y0142035D01*
X0068496Y0142413D01*
X0068669Y0142749D01*
X0068496Y0143290D01*
X0068496Y0147635D01*
X0069215Y0146916D01*
X0069215Y0145614D01*
X0069775Y0144261D01*
X0070811Y0143226D01*
X0072164Y0142665D01*
X0073628Y0142665D01*
X0074981Y0143226D01*
X0075396Y0143641D01*
X0075811Y0143226D01*
X0077164Y0142665D01*
X0078628Y0142665D01*
X0079981Y0143226D01*
X0080696Y0143941D01*
X0080696Y0117524D01*
X0069136Y0109817D01*
X0068628Y0110028D01*
X0067164Y0110028D01*
X0065811Y0109467D01*
X0064775Y0108432D01*
X0064215Y0107079D01*
X0064215Y0105614D01*
X0064775Y0104261D01*
X0065811Y0103226D01*
X0067164Y0102665D01*
X0068628Y0102665D01*
X0069981Y0103226D01*
X0071017Y0104261D01*
X0071577Y0105614D01*
X0071577Y0106156D01*
X0080630Y0112192D01*
X0066985Y0098546D01*
X0065696Y0097258D01*
X0065696Y0053752D01*
X0064981Y0054467D01*
X0063628Y0055028D01*
X0062164Y0055028D01*
X0060811Y0054467D01*
X0059775Y0053432D01*
X0059215Y0052079D01*
X0059215Y0050777D01*
X0047024Y0038586D01*
X0043533Y0038586D01*
X0043533Y0039058D01*
X0043253Y0039339D01*
X0043533Y0039619D01*
X0043533Y0044964D01*
X0043253Y0045244D01*
X0043533Y0045524D01*
X0043533Y0050870D01*
X0043253Y0051150D01*
X0043533Y0051430D01*
X0043533Y0056775D01*
X0043253Y0057055D01*
X0043533Y0057335D01*
X0043533Y0062681D01*
X0043253Y0062961D01*
X0043533Y0063241D01*
X0043533Y0068586D01*
X0043253Y0068866D01*
X0043533Y0069146D01*
X0043533Y0074492D01*
X0043253Y0074772D01*
X0043533Y0075052D01*
X0043533Y0080397D01*
X0043253Y0080677D01*
X0043533Y0080957D01*
X0043533Y0086303D01*
X0043253Y0086583D01*
X0043533Y0086863D01*
X0043533Y0092208D01*
X0043253Y0092488D01*
X0043448Y0092683D01*
X0055696Y0080435D01*
X0055696Y0064352D01*
X0054775Y0063432D01*
X0054215Y0062079D01*
X0054215Y0060614D01*
X0054775Y0059261D01*
X0055811Y0058226D01*
X0057164Y0057665D01*
X0058628Y0057665D01*
X0059981Y0058226D01*
X0061017Y0059261D01*
X0061577Y0060614D01*
X0061577Y0062079D01*
X0061017Y0063432D01*
X0060096Y0064352D01*
X0060096Y0082258D01*
X0045096Y0097258D01*
X0043807Y0098546D01*
X0043406Y0098546D01*
X0043533Y0098674D01*
X0043533Y0103872D01*
X0067326Y0127665D01*
X0068628Y0127665D01*
X0069981Y0128226D01*
X0070926Y0129171D02*
X0080696Y0129171D01*
X0080696Y0130169D02*
X0071393Y0130169D01*
X0071577Y0131168D02*
X0080696Y0131168D01*
X0080696Y0132166D02*
X0071541Y0132166D01*
X0071127Y0133165D02*
X0080696Y0133165D01*
X0080696Y0134163D02*
X0070285Y0134163D01*
X0065507Y0134163D02*
X0065285Y0134163D01*
X0065096Y0135162D02*
X0080696Y0135162D01*
X0080696Y0136160D02*
X0065275Y0136160D01*
X0065789Y0137159D02*
X0080696Y0137159D01*
X0080696Y0138157D02*
X0066304Y0138157D01*
X0066818Y0139156D02*
X0080696Y0139156D01*
X0080696Y0140154D02*
X0067332Y0140154D01*
X0067847Y0141153D02*
X0080696Y0141153D01*
X0080696Y0142151D02*
X0068496Y0142151D01*
X0068541Y0143150D02*
X0070994Y0143150D01*
X0069888Y0144148D02*
X0068496Y0144148D01*
X0068496Y0145147D02*
X0069409Y0145147D01*
X0069215Y0146145D02*
X0068496Y0146145D01*
X0068496Y0147144D02*
X0068987Y0147144D01*
X0069496Y0149746D02*
X0072896Y0146346D01*
X0074798Y0143150D02*
X0075994Y0143150D01*
X0077896Y0146346D02*
X0072596Y0151646D01*
X0072596Y0159646D01*
X0069496Y0159646D02*
X0069496Y0149746D01*
X0063196Y0146646D02*
X0052896Y0136346D01*
X0049215Y0136160D02*
X0038813Y0136160D01*
X0040391Y0137159D02*
X0049248Y0137159D01*
X0049662Y0138157D02*
X0041970Y0138157D01*
X0043548Y0139156D02*
X0050500Y0139156D01*
X0053593Y0140154D02*
X0044883Y0140154D01*
X0045475Y0141153D02*
X0054591Y0141153D01*
X0055590Y0142151D02*
X0046201Y0142151D01*
X0046926Y0143150D02*
X0050994Y0143150D01*
X0049888Y0144148D02*
X0047652Y0144148D01*
X0048378Y0145147D02*
X0049409Y0145147D01*
X0049215Y0146145D02*
X0049104Y0146145D01*
X0052896Y0146346D02*
X0059996Y0153446D01*
X0059996Y0159646D01*
X0056896Y0159646D02*
X0056196Y0159646D01*
X0063196Y0159646D02*
X0063196Y0146646D01*
X0060996Y0148143D02*
X0057803Y0148143D01*
X0058802Y0149141D02*
X0060996Y0149141D01*
X0060996Y0150140D02*
X0059800Y0150140D01*
X0060799Y0151138D02*
X0060996Y0151138D01*
X0060582Y0147144D02*
X0056805Y0147144D01*
X0056577Y0146145D02*
X0059584Y0146145D01*
X0058585Y0145147D02*
X0056384Y0145147D01*
X0055904Y0144148D02*
X0057587Y0144148D01*
X0056588Y0143150D02*
X0054798Y0143150D01*
X0045841Y0149141D02*
X0022396Y0149141D01*
X0022396Y0148143D02*
X0045116Y0148143D01*
X0044390Y0147144D02*
X0022396Y0147144D01*
X0022396Y0146145D02*
X0043664Y0146145D01*
X0042939Y0145147D02*
X0022396Y0145147D01*
X0022396Y0144148D02*
X0042213Y0144148D01*
X0041487Y0143150D02*
X0022396Y0143150D01*
X0022396Y0142151D02*
X0040053Y0142151D01*
X0038475Y0141153D02*
X0022396Y0141153D01*
X0022396Y0140154D02*
X0036896Y0140154D01*
X0035318Y0139156D02*
X0022396Y0139156D01*
X0022396Y0138157D02*
X0033739Y0138157D01*
X0032160Y0137159D02*
X0022396Y0137159D01*
X0022396Y0136160D02*
X0023101Y0136160D01*
X0022653Y0135162D02*
X0022396Y0135162D01*
X0022396Y0134163D02*
X0022653Y0134163D01*
X0022653Y0133165D02*
X0022396Y0133165D01*
X0022396Y0125177D02*
X0023141Y0125177D01*
X0022653Y0124178D02*
X0022396Y0124178D01*
X0022396Y0123180D02*
X0022653Y0123180D01*
X0022653Y0122181D02*
X0022396Y0122181D01*
X0022396Y0121183D02*
X0022653Y0121183D01*
X0022653Y0120184D02*
X0022396Y0120184D01*
X0022396Y0119186D02*
X0022653Y0119186D01*
X0022653Y0118187D02*
X0022396Y0118187D01*
X0022396Y0117189D02*
X0022653Y0117189D01*
X0022396Y0116190D02*
X0023443Y0116190D01*
X0022396Y0115192D02*
X0048630Y0115192D01*
X0049628Y0116190D02*
X0032349Y0116190D01*
X0033139Y0117189D02*
X0050627Y0117189D01*
X0050904Y0118187D02*
X0033139Y0118187D01*
X0027896Y0120835D02*
X0027896Y0121346D01*
X0052896Y0121346D01*
X0050522Y0124178D02*
X0033139Y0124178D01*
X0032651Y0125177D02*
X0058615Y0125177D01*
X0057617Y0124178D02*
X0055270Y0124178D01*
X0056121Y0123180D02*
X0056618Y0123180D01*
X0060844Y0121183D02*
X0080696Y0121183D01*
X0080696Y0122181D02*
X0061842Y0122181D01*
X0062841Y0123180D02*
X0080696Y0123180D01*
X0080696Y0124178D02*
X0063839Y0124178D01*
X0064838Y0125177D02*
X0080696Y0125177D01*
X0080696Y0126175D02*
X0065836Y0126175D01*
X0067896Y0131346D02*
X0037896Y0101346D01*
X0032896Y0101346D01*
X0027896Y0106346D01*
X0024215Y0106205D02*
X0022396Y0106205D01*
X0022396Y0105207D02*
X0024384Y0105207D01*
X0024829Y0104208D02*
X0022396Y0104208D01*
X0022396Y0103209D02*
X0024683Y0103209D01*
X0024270Y0102211D02*
X0022396Y0102211D01*
X0022396Y0101212D02*
X0024215Y0101212D01*
X0024381Y0100214D02*
X0022396Y0100214D01*
X0022396Y0099215D02*
X0024821Y0099215D01*
X0025696Y0098217D02*
X0022396Y0098217D01*
X0022396Y0097218D02*
X0025696Y0097218D01*
X0025696Y0096220D02*
X0022396Y0096220D01*
X0022396Y0095221D02*
X0025910Y0095221D01*
X0026908Y0094223D02*
X0022396Y0094223D01*
X0022396Y0093224D02*
X0032259Y0093224D01*
X0032277Y0092226D02*
X0022396Y0092226D01*
X0022396Y0091227D02*
X0032259Y0091227D01*
X0032259Y0090229D02*
X0022396Y0090229D01*
X0022396Y0089230D02*
X0032259Y0089230D01*
X0032259Y0088232D02*
X0022396Y0088232D01*
X0022396Y0087233D02*
X0032259Y0087233D01*
X0032259Y0086235D02*
X0022396Y0086235D01*
X0022396Y0085236D02*
X0032259Y0085236D01*
X0032259Y0084238D02*
X0022396Y0084238D01*
X0022396Y0083239D02*
X0032259Y0083239D01*
X0032259Y0082241D02*
X0022396Y0082241D01*
X0022396Y0081242D02*
X0032259Y0081242D01*
X0032259Y0080244D02*
X0022396Y0080244D01*
X0022396Y0079245D02*
X0032259Y0079245D01*
X0032259Y0078247D02*
X0022396Y0078247D01*
X0022396Y0077248D02*
X0032259Y0077248D01*
X0032259Y0076250D02*
X0022396Y0076250D01*
X0022396Y0075251D02*
X0032259Y0075251D01*
X0032259Y0074253D02*
X0022396Y0074253D01*
X0022396Y0073254D02*
X0032259Y0073254D01*
X0032259Y0072256D02*
X0022396Y0072256D01*
X0022396Y0071257D02*
X0032259Y0071257D01*
X0032259Y0070259D02*
X0022396Y0070259D01*
X0022396Y0069260D02*
X0032259Y0069260D01*
X0032259Y0068262D02*
X0022396Y0068262D01*
X0022396Y0067263D02*
X0032259Y0067263D01*
X0032259Y0066265D02*
X0022396Y0066265D01*
X0022396Y0065266D02*
X0032259Y0065266D01*
X0032259Y0064268D02*
X0022396Y0064268D01*
X0022396Y0063269D02*
X0032259Y0063269D01*
X0032259Y0062271D02*
X0022396Y0062271D01*
X0022396Y0061272D02*
X0032259Y0061272D01*
X0032259Y0060274D02*
X0022396Y0060274D01*
X0022396Y0059275D02*
X0032259Y0059275D01*
X0032259Y0058276D02*
X0022396Y0058276D01*
X0022396Y0057278D02*
X0032316Y0057278D01*
X0032259Y0056279D02*
X0022396Y0056279D01*
X0022396Y0055281D02*
X0032259Y0055281D01*
X0032259Y0054282D02*
X0022396Y0054282D01*
X0022396Y0053284D02*
X0032259Y0053284D01*
X0032259Y0052285D02*
X0022396Y0052285D01*
X0022396Y0051287D02*
X0032402Y0051287D01*
X0032259Y0050288D02*
X0022396Y0050288D01*
X0022396Y0049290D02*
X0032259Y0049290D01*
X0032259Y0048291D02*
X0022396Y0048291D01*
X0022396Y0047293D02*
X0032259Y0047293D01*
X0032259Y0046294D02*
X0022396Y0046294D01*
X0022396Y0045296D02*
X0032487Y0045296D01*
X0032259Y0044297D02*
X0022396Y0044297D01*
X0022396Y0043299D02*
X0032259Y0043299D01*
X0032259Y0042300D02*
X0022396Y0042300D01*
X0022396Y0041302D02*
X0032259Y0041302D01*
X0032259Y0040303D02*
X0022396Y0040303D01*
X0022396Y0039305D02*
X0032505Y0039305D01*
X0032259Y0038306D02*
X0022396Y0038306D01*
X0022396Y0037308D02*
X0032259Y0037308D01*
X0032259Y0036309D02*
X0022396Y0036309D01*
X0022396Y0035311D02*
X0032259Y0035311D01*
X0032259Y0034312D02*
X0022396Y0034312D01*
X0022396Y0033314D02*
X0032420Y0033314D01*
X0032259Y0032315D02*
X0022396Y0032315D01*
X0022396Y0031317D02*
X0032259Y0031317D01*
X0032259Y0030318D02*
X0022396Y0030318D01*
X0022396Y0029320D02*
X0032259Y0029320D01*
X0032259Y0028321D02*
X0022396Y0028321D01*
X0022396Y0027323D02*
X0032744Y0027323D01*
X0037896Y0030480D02*
X0037896Y0031346D01*
X0052896Y0031346D01*
X0077896Y0056346D01*
X0074215Y0056279D02*
X0070096Y0056279D01*
X0070096Y0055281D02*
X0073719Y0055281D01*
X0072721Y0054282D02*
X0070096Y0054282D01*
X0070096Y0053284D02*
X0071722Y0053284D01*
X0070724Y0052285D02*
X0070096Y0052285D01*
X0067896Y0051346D02*
X0052896Y0036346D01*
X0047935Y0036386D02*
X0062896Y0051346D01*
X0059215Y0051287D02*
X0043390Y0051287D01*
X0043533Y0052285D02*
X0059301Y0052285D01*
X0059714Y0053284D02*
X0043533Y0053284D01*
X0043533Y0054282D02*
X0060626Y0054282D01*
X0060032Y0058276D02*
X0065696Y0058276D01*
X0065696Y0057278D02*
X0043476Y0057278D01*
X0043533Y0058276D02*
X0055760Y0058276D01*
X0054770Y0059275D02*
X0043533Y0059275D01*
X0043533Y0060274D02*
X0054356Y0060274D01*
X0054215Y0061272D02*
X0043533Y0061272D01*
X0043533Y0062271D02*
X0054294Y0062271D01*
X0054708Y0063269D02*
X0043533Y0063269D01*
X0043533Y0064268D02*
X0055611Y0064268D01*
X0055696Y0065266D02*
X0043533Y0065266D01*
X0043533Y0066265D02*
X0055696Y0066265D01*
X0055696Y0067263D02*
X0043533Y0067263D01*
X0043533Y0068262D02*
X0055696Y0068262D01*
X0055696Y0069260D02*
X0043533Y0069260D01*
X0043533Y0070259D02*
X0055696Y0070259D01*
X0055696Y0071257D02*
X0043533Y0071257D01*
X0043533Y0072256D02*
X0055696Y0072256D01*
X0055696Y0073254D02*
X0043533Y0073254D01*
X0043533Y0074253D02*
X0055696Y0074253D01*
X0055696Y0075251D02*
X0043533Y0075251D01*
X0043533Y0076250D02*
X0055696Y0076250D01*
X0055696Y0077248D02*
X0043533Y0077248D01*
X0043533Y0078247D02*
X0055696Y0078247D01*
X0055696Y0079245D02*
X0043533Y0079245D01*
X0043533Y0080244D02*
X0055696Y0080244D01*
X0054889Y0081242D02*
X0043533Y0081242D01*
X0043533Y0082241D02*
X0053890Y0082241D01*
X0052892Y0083239D02*
X0043533Y0083239D01*
X0043533Y0084238D02*
X0051893Y0084238D01*
X0050895Y0085236D02*
X0043533Y0085236D01*
X0043533Y0086235D02*
X0049896Y0086235D01*
X0048898Y0087233D02*
X0043533Y0087233D01*
X0043533Y0088232D02*
X0047899Y0088232D01*
X0046901Y0089230D02*
X0043533Y0089230D01*
X0043533Y0090229D02*
X0045902Y0090229D01*
X0044904Y0091227D02*
X0043533Y0091227D01*
X0043515Y0092226D02*
X0043905Y0092226D01*
X0042896Y0096346D02*
X0038802Y0096346D01*
X0037896Y0095441D01*
X0028802Y0095441D01*
X0027896Y0096346D01*
X0027896Y0101346D01*
X0032147Y0105207D02*
X0038645Y0105207D01*
X0039643Y0106205D02*
X0031577Y0106205D01*
X0031525Y0107204D02*
X0040642Y0107204D01*
X0041640Y0108202D02*
X0031112Y0108202D01*
X0030248Y0109201D02*
X0042639Y0109201D01*
X0043637Y0110199D02*
X0022396Y0110199D01*
X0022396Y0109201D02*
X0025544Y0109201D01*
X0024680Y0108202D02*
X0022396Y0108202D01*
X0022396Y0107204D02*
X0024267Y0107204D01*
X0022396Y0111198D02*
X0044636Y0111198D01*
X0045634Y0112196D02*
X0022396Y0112196D01*
X0022396Y0113195D02*
X0046633Y0113195D01*
X0047631Y0114193D02*
X0022396Y0114193D01*
X0043869Y0104208D02*
X0064829Y0104208D01*
X0064384Y0105207D02*
X0044867Y0105207D01*
X0045866Y0106205D02*
X0064215Y0106205D01*
X0064267Y0107204D02*
X0046864Y0107204D01*
X0047863Y0108202D02*
X0064680Y0108202D01*
X0065544Y0109201D02*
X0048861Y0109201D01*
X0049860Y0110199D02*
X0069709Y0110199D01*
X0071207Y0111198D02*
X0050858Y0111198D01*
X0051857Y0112196D02*
X0072704Y0112196D01*
X0074202Y0113195D02*
X0052855Y0113195D01*
X0053854Y0114193D02*
X0075700Y0114193D01*
X0077198Y0115192D02*
X0054852Y0115192D01*
X0055851Y0116190D02*
X0078696Y0116190D01*
X0080193Y0117189D02*
X0056850Y0117189D01*
X0057848Y0118187D02*
X0080696Y0118187D01*
X0080696Y0119186D02*
X0058847Y0119186D01*
X0059845Y0120184D02*
X0080696Y0120184D01*
X0082896Y0116346D02*
X0067896Y0106346D01*
X0071408Y0105207D02*
X0073645Y0105207D01*
X0074643Y0106205D02*
X0071650Y0106205D01*
X0073148Y0107204D02*
X0075642Y0107204D01*
X0074646Y0108202D02*
X0076640Y0108202D01*
X0076143Y0109201D02*
X0077639Y0109201D01*
X0077641Y0110199D02*
X0078637Y0110199D01*
X0079139Y0111198D02*
X0079636Y0111198D01*
X0082896Y0116346D02*
X0082896Y0151346D01*
X0075796Y0153446D01*
X0075796Y0159646D01*
X0078896Y0159646D02*
X0086196Y0159646D01*
X0087896Y0156346D01*
X0087896Y0116346D01*
X0067896Y0096346D01*
X0067896Y0051346D01*
X0065696Y0054282D02*
X0065166Y0054282D01*
X0065696Y0055281D02*
X0043533Y0055281D01*
X0043533Y0056279D02*
X0065696Y0056279D01*
X0065696Y0059275D02*
X0061022Y0059275D01*
X0061436Y0060274D02*
X0065696Y0060274D01*
X0065696Y0061272D02*
X0061577Y0061272D01*
X0061498Y0062271D02*
X0065696Y0062271D01*
X0065696Y0063269D02*
X0061084Y0063269D01*
X0060181Y0064268D02*
X0065696Y0064268D01*
X0065696Y0065266D02*
X0060096Y0065266D01*
X0060096Y0066265D02*
X0065696Y0066265D01*
X0065696Y0067263D02*
X0060096Y0067263D01*
X0060096Y0068262D02*
X0065696Y0068262D01*
X0065696Y0069260D02*
X0060096Y0069260D01*
X0060096Y0070259D02*
X0065696Y0070259D01*
X0065696Y0071257D02*
X0060096Y0071257D01*
X0060096Y0072256D02*
X0065696Y0072256D01*
X0065696Y0073254D02*
X0060096Y0073254D01*
X0060096Y0074253D02*
X0065696Y0074253D01*
X0065696Y0075251D02*
X0060096Y0075251D01*
X0060096Y0076250D02*
X0065696Y0076250D01*
X0065696Y0077248D02*
X0060096Y0077248D01*
X0060096Y0078247D02*
X0065696Y0078247D01*
X0065696Y0079245D02*
X0060096Y0079245D01*
X0060096Y0080244D02*
X0065696Y0080244D01*
X0065696Y0081242D02*
X0060096Y0081242D01*
X0060096Y0082241D02*
X0065696Y0082241D01*
X0065696Y0083239D02*
X0059115Y0083239D01*
X0058116Y0084238D02*
X0065696Y0084238D01*
X0065696Y0085236D02*
X0057117Y0085236D01*
X0056119Y0086235D02*
X0065696Y0086235D01*
X0065696Y0087233D02*
X0055120Y0087233D01*
X0054122Y0088232D02*
X0065696Y0088232D01*
X0065696Y0089230D02*
X0053123Y0089230D01*
X0052125Y0090229D02*
X0065696Y0090229D01*
X0065696Y0091227D02*
X0051126Y0091227D01*
X0050128Y0092226D02*
X0065696Y0092226D01*
X0065696Y0093224D02*
X0049129Y0093224D01*
X0048131Y0094223D02*
X0065696Y0094223D01*
X0065696Y0095221D02*
X0047132Y0095221D01*
X0046134Y0096220D02*
X0065696Y0096220D01*
X0065696Y0097218D02*
X0045135Y0097218D01*
X0044137Y0098217D02*
X0066655Y0098217D01*
X0067654Y0099215D02*
X0043533Y0099215D01*
X0043533Y0100214D02*
X0068652Y0100214D01*
X0069651Y0101212D02*
X0043533Y0101212D01*
X0043533Y0102211D02*
X0070649Y0102211D01*
X0069942Y0103209D02*
X0071648Y0103209D01*
X0070963Y0104208D02*
X0072646Y0104208D01*
X0073876Y0099215D02*
X0074821Y0099215D01*
X0075832Y0098217D02*
X0072878Y0098217D01*
X0065850Y0103209D02*
X0043533Y0103209D01*
X0042896Y0096346D02*
X0057896Y0081346D01*
X0057896Y0061346D01*
X0070096Y0059275D02*
X0075619Y0059275D01*
X0074711Y0058276D02*
X0070096Y0058276D01*
X0070096Y0057278D02*
X0074298Y0057278D01*
X0058727Y0050288D02*
X0043533Y0050288D01*
X0043533Y0049290D02*
X0057728Y0049290D01*
X0056730Y0048291D02*
X0043533Y0048291D01*
X0043533Y0047293D02*
X0055731Y0047293D01*
X0054733Y0046294D02*
X0043533Y0046294D01*
X0043305Y0045296D02*
X0053734Y0045296D01*
X0052736Y0044297D02*
X0043533Y0044297D01*
X0043533Y0043299D02*
X0051737Y0043299D01*
X0050739Y0042300D02*
X0043533Y0042300D01*
X0043533Y0041302D02*
X0049740Y0041302D01*
X0048742Y0040303D02*
X0043533Y0040303D01*
X0043287Y0039305D02*
X0047743Y0039305D01*
X0047935Y0036386D02*
X0037896Y0036386D01*
X0039149Y0026324D02*
X0022396Y0026324D01*
X0022396Y0025326D02*
X0039149Y0025326D01*
X0039149Y0024327D02*
X0022396Y0024327D01*
X0022396Y0023329D02*
X0039149Y0023329D01*
X0039149Y0022330D02*
X0022396Y0022330D01*
X0022396Y0021332D02*
X0039149Y0021332D01*
X0039149Y0020333D02*
X0022396Y0020333D01*
X0022396Y0019335D02*
X0039157Y0019335D01*
X0053981Y0029320D02*
X0083640Y0029320D01*
X0083640Y0031317D02*
X0055978Y0031317D01*
X0054979Y0030318D02*
X0088593Y0030318D01*
X0089561Y0030318D02*
X0120606Y0030318D01*
X0120606Y0029320D02*
X0110129Y0029320D01*
X0110723Y0033314D02*
X0094315Y0033314D01*
X0094514Y0032315D02*
X0120606Y0032315D01*
X0120606Y0031317D02*
X0094514Y0031317D01*
X0094514Y0029320D02*
X0105663Y0029320D01*
X0104730Y0028321D02*
X0094514Y0028321D01*
X0093946Y0027323D02*
X0104316Y0027323D01*
X0105708Y0023329D02*
X0084640Y0023329D01*
X0084156Y0023591D02*
X0082896Y0021346D01*
X0082896Y0016346D01*
X0083672Y0019335D02*
X0084640Y0019335D01*
X0084640Y0020333D02*
X0083672Y0020333D01*
X0083672Y0021332D02*
X0084640Y0021332D01*
X0084640Y0022330D02*
X0083672Y0022330D01*
X0084156Y0023591D02*
X0091912Y0031346D01*
X0102896Y0031346D01*
X0107896Y0036346D01*
X0107896Y0051346D01*
X0107596Y0051287D02*
X0094571Y0051287D01*
X0094714Y0052285D02*
X0098376Y0052285D01*
X0098615Y0052046D02*
X0102177Y0052046D01*
X0104696Y0054565D01*
X0104696Y0055035D01*
X0105096Y0055435D01*
X0105096Y0058065D01*
X0106115Y0057046D01*
X0109677Y0057046D01*
X0112196Y0059565D01*
X0112196Y0063128D01*
X0109677Y0065646D01*
X0106115Y0065646D01*
X0105096Y0064628D01*
X0105096Y0068341D01*
X0106017Y0069261D01*
X0106577Y0070614D01*
X0106577Y0072079D01*
X0106017Y0073432D01*
X0104981Y0074467D01*
X0103628Y0075028D01*
X0102164Y0075028D01*
X0100811Y0074467D01*
X0099775Y0073432D01*
X0099215Y0072079D01*
X0099215Y0070614D01*
X0099775Y0069261D01*
X0100696Y0068341D01*
X0100696Y0060646D01*
X0098615Y0060646D01*
X0096096Y0058128D01*
X0096096Y0054565D01*
X0098615Y0052046D01*
X0097377Y0053284D02*
X0094714Y0053284D01*
X0094714Y0054282D02*
X0096379Y0054282D01*
X0096096Y0055281D02*
X0094714Y0055281D01*
X0094714Y0056279D02*
X0096096Y0056279D01*
X0096096Y0057278D02*
X0094657Y0057278D01*
X0094714Y0058276D02*
X0096245Y0058276D01*
X0097244Y0059275D02*
X0094714Y0059275D01*
X0094714Y0060274D02*
X0098242Y0060274D01*
X0100696Y0061272D02*
X0094714Y0061272D01*
X0094714Y0062271D02*
X0100696Y0062271D01*
X0100696Y0063269D02*
X0094714Y0063269D01*
X0094714Y0064268D02*
X0100696Y0064268D01*
X0100696Y0065266D02*
X0094714Y0065266D01*
X0094714Y0066265D02*
X0100696Y0066265D01*
X0100696Y0067263D02*
X0094714Y0067263D01*
X0094714Y0068262D02*
X0100696Y0068262D01*
X0099777Y0069260D02*
X0094714Y0069260D01*
X0094714Y0070259D02*
X0099362Y0070259D01*
X0099215Y0071257D02*
X0094714Y0071257D01*
X0094714Y0072256D02*
X0099288Y0072256D01*
X0099702Y0073254D02*
X0094714Y0073254D01*
X0094714Y0074253D02*
X0100596Y0074253D01*
X0102896Y0076346D02*
X0107896Y0081346D01*
X0112896Y0076346D01*
X0117896Y0076346D01*
X0125849Y0077331D01*
X0125561Y0077248D02*
X0094714Y0077248D01*
X0094714Y0076250D02*
X0120806Y0076250D01*
X0120606Y0075251D02*
X0094714Y0075251D01*
X0094714Y0078247D02*
X0120806Y0078247D01*
X0120806Y0077618D02*
X0120806Y0079103D01*
X0120908Y0079484D01*
X0121105Y0079827D01*
X0121384Y0080106D01*
X0121727Y0080303D01*
X0122108Y0080405D01*
X0125561Y0080405D01*
X0125561Y0077618D01*
X0120806Y0077618D01*
X0120844Y0079245D02*
X0094714Y0079245D01*
X0094714Y0080244D02*
X0121623Y0080244D01*
X0125561Y0080244D02*
X0126136Y0080244D01*
X0126136Y0079245D02*
X0125561Y0079245D01*
X0125561Y0078247D02*
X0126136Y0078247D01*
X0130074Y0080244D02*
X0130696Y0080244D01*
X0130696Y0081242D02*
X0094714Y0081242D01*
X0094714Y0082241D02*
X0130696Y0082241D01*
X0130696Y0083239D02*
X0094714Y0083239D01*
X0094714Y0084238D02*
X0126893Y0084238D01*
X0120606Y0074253D02*
X0105196Y0074253D01*
X0106090Y0073254D02*
X0120606Y0073254D01*
X0120606Y0072256D02*
X0106504Y0072256D01*
X0106577Y0071257D02*
X0120606Y0071257D01*
X0120606Y0070259D02*
X0106430Y0070259D01*
X0106016Y0069260D02*
X0120606Y0069260D01*
X0120606Y0068262D02*
X0105096Y0068262D01*
X0105096Y0067263D02*
X0120606Y0067263D01*
X0120606Y0066265D02*
X0105096Y0066265D01*
X0105096Y0065266D02*
X0105735Y0065266D01*
X0110058Y0065266D02*
X0120606Y0065266D01*
X0120606Y0064268D02*
X0111056Y0064268D01*
X0112055Y0063269D02*
X0120606Y0063269D01*
X0120606Y0062271D02*
X0112196Y0062271D01*
X0112196Y0061272D02*
X0120606Y0061272D01*
X0120606Y0060274D02*
X0112196Y0060274D01*
X0111906Y0059275D02*
X0120606Y0059275D01*
X0120606Y0058276D02*
X0110907Y0058276D01*
X0109909Y0057278D02*
X0121056Y0057278D01*
X0121417Y0051287D02*
X0108196Y0051287D01*
X0108196Y0051046D02*
X0108196Y0051646D01*
X0111996Y0051646D01*
X0111996Y0053045D01*
X0109594Y0055446D01*
X0108196Y0055446D01*
X0108196Y0051647D01*
X0107596Y0051647D01*
X0107596Y0055446D01*
X0106198Y0055446D01*
X0103796Y0053045D01*
X0103796Y0051646D01*
X0107596Y0051646D01*
X0107596Y0051046D01*
X0108196Y0051046D01*
X0108196Y0047246D01*
X0109594Y0047246D01*
X0111996Y0049648D01*
X0111996Y0051046D01*
X0108196Y0051046D01*
X0107596Y0051046D02*
X0107596Y0047246D01*
X0106198Y0047246D01*
X0103796Y0049648D01*
X0103796Y0051046D01*
X0107596Y0051046D01*
X0107596Y0050288D02*
X0108196Y0050288D01*
X0108196Y0049290D02*
X0107596Y0049290D01*
X0107596Y0048291D02*
X0108196Y0048291D01*
X0108196Y0047293D02*
X0107596Y0047293D01*
X0106151Y0047293D02*
X0094714Y0047293D01*
X0094714Y0048291D02*
X0105153Y0048291D01*
X0104154Y0049290D02*
X0094714Y0049290D01*
X0094714Y0050288D02*
X0103796Y0050288D01*
X0103796Y0052285D02*
X0102416Y0052285D01*
X0103415Y0053284D02*
X0104035Y0053284D01*
X0104413Y0054282D02*
X0105034Y0054282D01*
X0104942Y0055281D02*
X0106032Y0055281D01*
X0105096Y0056279D02*
X0130696Y0056279D01*
X0130696Y0055281D02*
X0109760Y0055281D01*
X0110758Y0054282D02*
X0130696Y0054282D01*
X0130696Y0053284D02*
X0111757Y0053284D01*
X0111996Y0052285D02*
X0130696Y0052285D01*
X0130641Y0057278D02*
X0130696Y0057278D01*
X0120606Y0050288D02*
X0111996Y0050288D01*
X0111638Y0049290D02*
X0120606Y0049290D01*
X0120606Y0048291D02*
X0110639Y0048291D01*
X0109641Y0047293D02*
X0120606Y0047293D01*
X0120606Y0046294D02*
X0094714Y0046294D01*
X0094486Y0045296D02*
X0120606Y0045296D01*
X0120606Y0044297D02*
X0120151Y0044297D01*
X0117896Y0041346D02*
X0119707Y0039535D01*
X0125849Y0039535D01*
X0125849Y0035205D02*
X0122896Y0036346D01*
X0112896Y0036346D01*
X0109215Y0036309D02*
X0094714Y0036309D01*
X0094714Y0035311D02*
X0109341Y0035311D01*
X0109754Y0034312D02*
X0094714Y0034312D01*
X0094714Y0037308D02*
X0109310Y0037308D01*
X0109723Y0038306D02*
X0094714Y0038306D01*
X0094468Y0039305D02*
X0110649Y0039305D01*
X0114344Y0040303D02*
X0094714Y0040303D01*
X0094714Y0041302D02*
X0114215Y0041302D01*
X0114307Y0042300D02*
X0094714Y0042300D01*
X0094714Y0043299D02*
X0114720Y0043299D01*
X0115641Y0044297D02*
X0094714Y0044297D01*
X0107596Y0052285D02*
X0108196Y0052285D01*
X0108196Y0053284D02*
X0107596Y0053284D01*
X0107596Y0054282D02*
X0108196Y0054282D01*
X0108196Y0055281D02*
X0107596Y0055281D01*
X0105883Y0057278D02*
X0105096Y0057278D01*
X0102896Y0056346D02*
X0100396Y0056346D01*
X0102896Y0056346D02*
X0102896Y0071346D01*
X0109896Y0090229D02*
X0109896Y0090229D01*
X0109896Y0091227D02*
X0109896Y0091227D01*
X0113888Y0113195D02*
X0095096Y0113195D01*
X0095096Y0114193D02*
X0113818Y0114193D01*
X0113818Y0115192D02*
X0095096Y0115192D01*
X0095096Y0116190D02*
X0113818Y0116190D01*
X0113818Y0117189D02*
X0095096Y0117189D01*
X0095096Y0118187D02*
X0113818Y0118187D01*
X0113818Y0119186D02*
X0095096Y0119186D01*
X0095096Y0120184D02*
X0114574Y0120184D01*
X0115696Y0121183D02*
X0095096Y0121183D01*
X0095096Y0122181D02*
X0102935Y0122181D01*
X0102955Y0122106D02*
X0103152Y0121764D01*
X0103432Y0121485D01*
X0103774Y0121287D01*
X0104155Y0121185D01*
X0107396Y0121185D01*
X0107396Y0125335D01*
X0102853Y0125335D01*
X0102853Y0122488D01*
X0102955Y0122106D01*
X0102853Y0123180D02*
X0095096Y0123180D01*
X0095096Y0124178D02*
X0102853Y0124178D01*
X0102853Y0125177D02*
X0095096Y0125177D01*
X0095096Y0126175D02*
X0107396Y0126175D01*
X0107396Y0126335D02*
X0107396Y0125335D01*
X0108396Y0125335D01*
X0108396Y0126335D01*
X0107396Y0126335D01*
X0107396Y0130484D01*
X0104155Y0130484D01*
X0103774Y0130382D01*
X0103432Y0130185D01*
X0103152Y0129905D01*
X0102955Y0129563D01*
X0102853Y0129182D01*
X0102853Y0126335D01*
X0107396Y0126335D01*
X0107396Y0127174D02*
X0108396Y0127174D01*
X0108396Y0126335D02*
X0108396Y0130484D01*
X0111637Y0130484D01*
X0112018Y0130382D01*
X0112360Y0130185D01*
X0112640Y0129905D01*
X0112837Y0129563D01*
X0112939Y0129182D01*
X0112939Y0126335D01*
X0108396Y0126335D01*
X0108396Y0126175D02*
X0115696Y0126175D01*
X0115696Y0125177D02*
X0112939Y0125177D01*
X0112939Y0125335D02*
X0108396Y0125335D01*
X0108396Y0121185D01*
X0111637Y0121185D01*
X0112018Y0121287D01*
X0112360Y0121485D01*
X0112640Y0121764D01*
X0112837Y0122106D01*
X0112939Y0122488D01*
X0112939Y0125335D01*
X0112939Y0124178D02*
X0115696Y0124178D01*
X0115696Y0123180D02*
X0112939Y0123180D01*
X0112857Y0122181D02*
X0115696Y0122181D01*
X0117896Y0126858D02*
X0117896Y0116346D01*
X0108396Y0122181D02*
X0107396Y0122181D01*
X0107396Y0123180D02*
X0108396Y0123180D01*
X0108396Y0124178D02*
X0107396Y0124178D01*
X0107396Y0125177D02*
X0108396Y0125177D01*
X0108396Y0128172D02*
X0107396Y0128172D01*
X0107396Y0129171D02*
X0108396Y0129171D01*
X0108396Y0130169D02*
X0107396Y0130169D01*
X0103416Y0130169D02*
X0095096Y0130169D01*
X0095096Y0129171D02*
X0102853Y0129171D01*
X0102853Y0128172D02*
X0095096Y0128172D01*
X0095096Y0127174D02*
X0102853Y0127174D01*
X0112376Y0130169D02*
X0117535Y0130169D01*
X0117097Y0129171D02*
X0112939Y0129171D01*
X0112939Y0128172D02*
X0116099Y0128172D01*
X0115696Y0127174D02*
X0112939Y0127174D01*
X0112301Y0132166D02*
X0117535Y0132166D01*
X0117535Y0133165D02*
X0113139Y0133165D01*
X0113139Y0134163D02*
X0117535Y0134163D01*
X0117535Y0135162D02*
X0113139Y0135162D01*
X0113139Y0136160D02*
X0118101Y0136160D01*
X0117535Y0137159D02*
X0113139Y0137159D01*
X0113139Y0138157D02*
X0117535Y0138157D01*
X0117535Y0139156D02*
X0113139Y0139156D01*
X0113139Y0140154D02*
X0117535Y0140154D01*
X0117535Y0141153D02*
X0112698Y0141153D01*
X0110994Y0143150D02*
X0110096Y0143150D01*
X0110096Y0142151D02*
X0117535Y0142151D01*
X0117535Y0143150D02*
X0114798Y0143150D01*
X0112896Y0146346D02*
X0117896Y0146346D01*
X0122896Y0141346D01*
X0122384Y0141346D01*
X0127234Y0140154D02*
X0128758Y0140154D01*
X0128758Y0139156D02*
X0127234Y0139156D01*
X0127234Y0138157D02*
X0128758Y0138157D01*
X0128898Y0137159D02*
X0127234Y0137159D01*
X0126667Y0136160D02*
X0129125Y0136160D01*
X0128558Y0135162D02*
X0127234Y0135162D01*
X0127234Y0134163D02*
X0128558Y0134163D01*
X0128558Y0133165D02*
X0127234Y0133165D01*
X0127234Y0132166D02*
X0128558Y0132166D01*
X0128558Y0131168D02*
X0127234Y0131168D01*
X0127234Y0130169D02*
X0128558Y0130169D01*
X0128558Y0129171D02*
X0127234Y0129171D01*
X0127234Y0128172D02*
X0128558Y0128172D01*
X0128558Y0127174D02*
X0127234Y0127174D01*
X0126310Y0126175D02*
X0129482Y0126175D01*
X0133408Y0131346D02*
X0142896Y0121858D01*
X0142896Y0100874D01*
X0161623Y0106205D02*
X0164536Y0106205D01*
X0163790Y0105207D02*
X0162234Y0105207D01*
X0162234Y0104208D02*
X0163758Y0104208D01*
X0163758Y0103209D02*
X0162234Y0103209D01*
X0162234Y0102211D02*
X0163758Y0102211D01*
X0168908Y0101212D02*
X0183526Y0101212D01*
X0182769Y0100214D02*
X0173057Y0100214D01*
X0173057Y0099215D02*
X0182735Y0099215D01*
X0182735Y0098217D02*
X0173057Y0098217D01*
X0172952Y0097218D02*
X0182735Y0097218D01*
X0182896Y0096346D02*
X0173408Y0096346D01*
X0173344Y0095221D02*
X0182735Y0095221D01*
X0182735Y0094223D02*
X0173344Y0094223D01*
X0173344Y0093224D02*
X0182735Y0093224D01*
X0182836Y0092226D02*
X0173344Y0092226D01*
X0173344Y0091227D02*
X0194430Y0091227D01*
X0187884Y0092226D02*
X0186884Y0092226D01*
X0186884Y0093224D02*
X0187884Y0093224D01*
X0187884Y0094223D02*
X0186884Y0094223D01*
X0186884Y0095221D02*
X0187884Y0095221D01*
X0187384Y0096346D02*
X0173093Y0082055D01*
X0173093Y0077331D01*
X0176912Y0077331D01*
X0177896Y0076346D01*
X0179896Y0072346D01*
X0176219Y0068669D01*
X0173093Y0068669D01*
X0168050Y0068262D02*
X0150096Y0068262D01*
X0150096Y0069260D02*
X0168050Y0069260D01*
X0168050Y0070259D02*
X0150096Y0070259D01*
X0150918Y0071257D02*
X0162957Y0071257D01*
X0162350Y0072256D02*
X0151917Y0072256D01*
X0152915Y0073254D02*
X0160782Y0073254D01*
X0159784Y0074253D02*
X0153914Y0074253D01*
X0154912Y0075251D02*
X0159365Y0075251D01*
X0159215Y0076250D02*
X0155911Y0076250D01*
X0156909Y0077248D02*
X0159285Y0077248D01*
X0159699Y0078247D02*
X0157908Y0078247D01*
X0157896Y0081346D02*
X0162896Y0081346D01*
X0167896Y0086346D01*
X0167896Y0090748D01*
X0168494Y0091346D01*
X0169897Y0085236D02*
X0182535Y0085236D01*
X0182535Y0084238D02*
X0168899Y0084238D01*
X0167900Y0083239D02*
X0182535Y0083239D01*
X0182535Y0082241D02*
X0166902Y0082241D01*
X0165903Y0081242D02*
X0182535Y0081242D01*
X0182535Y0080244D02*
X0177318Y0080244D01*
X0177215Y0080303D02*
X0176834Y0080405D01*
X0173380Y0080405D01*
X0173380Y0077618D01*
X0178136Y0077618D01*
X0178136Y0079103D01*
X0178034Y0079484D01*
X0177837Y0079827D01*
X0177557Y0080106D01*
X0177215Y0080303D01*
X0178098Y0079245D02*
X0182535Y0079245D01*
X0182535Y0078247D02*
X0178136Y0078247D01*
X0178136Y0076250D02*
X0183098Y0076250D01*
X0182535Y0077248D02*
X0173380Y0077248D01*
X0172805Y0077248D02*
X0166507Y0077248D01*
X0166577Y0076250D02*
X0168050Y0076250D01*
X0167850Y0075251D02*
X0166427Y0075251D01*
X0168050Y0077618D02*
X0172805Y0077618D01*
X0172805Y0080405D01*
X0169352Y0080405D01*
X0168971Y0080303D01*
X0168629Y0080106D01*
X0168349Y0079827D01*
X0168152Y0079484D01*
X0168050Y0079103D01*
X0168050Y0077618D01*
X0168050Y0078247D02*
X0166093Y0078247D01*
X0165203Y0079245D02*
X0168088Y0079245D01*
X0168868Y0080244D02*
X0164905Y0080244D01*
X0162896Y0076346D02*
X0164550Y0073000D01*
X0173093Y0073000D01*
X0178336Y0073254D02*
X0182448Y0073254D01*
X0182448Y0072256D02*
X0178336Y0072256D01*
X0178336Y0071257D02*
X0182448Y0071257D01*
X0182448Y0070259D02*
X0178136Y0070259D01*
X0178136Y0069260D02*
X0182448Y0069260D01*
X0182448Y0068262D02*
X0178136Y0068262D01*
X0178136Y0067263D02*
X0182448Y0067263D01*
X0182896Y0066346D02*
X0182896Y0056346D01*
X0174746Y0048197D01*
X0173093Y0048197D01*
X0164746Y0048197D01*
X0162896Y0046346D01*
X0160641Y0044297D02*
X0150151Y0044297D01*
X0150096Y0045296D02*
X0167850Y0045296D01*
X0167850Y0044297D02*
X0165151Y0044297D01*
X0166072Y0043299D02*
X0167850Y0043299D01*
X0167850Y0042300D02*
X0166485Y0042300D01*
X0166577Y0041302D02*
X0167850Y0041302D01*
X0167850Y0040303D02*
X0166448Y0040303D01*
X0166035Y0039305D02*
X0167850Y0039305D01*
X0167850Y0038306D02*
X0165096Y0038306D01*
X0165096Y0037308D02*
X0167850Y0037308D01*
X0167850Y0036309D02*
X0165096Y0036309D01*
X0164972Y0035311D02*
X0167850Y0035311D01*
X0167850Y0034312D02*
X0163973Y0034312D01*
X0162975Y0033314D02*
X0167850Y0033314D01*
X0167850Y0032315D02*
X0161976Y0032315D01*
X0161577Y0031317D02*
X0167850Y0031317D01*
X0167850Y0030318D02*
X0161455Y0030318D01*
X0161041Y0029320D02*
X0167850Y0029320D01*
X0167850Y0028321D02*
X0160077Y0028321D01*
X0157896Y0031346D02*
X0162896Y0036346D01*
X0162896Y0041346D01*
X0159215Y0041302D02*
X0151577Y0041302D01*
X0151485Y0042300D02*
X0159307Y0042300D01*
X0159720Y0043299D02*
X0151072Y0043299D01*
X0150096Y0046294D02*
X0167999Y0046294D01*
X0168050Y0047293D02*
X0150096Y0047293D01*
X0150096Y0048291D02*
X0172805Y0048291D01*
X0172805Y0048484D02*
X0168050Y0048484D01*
X0168050Y0049969D01*
X0168152Y0050351D01*
X0168349Y0050693D01*
X0168629Y0050972D01*
X0168971Y0051169D01*
X0169352Y0051272D01*
X0172805Y0051272D01*
X0172805Y0048484D01*
X0173380Y0048484D02*
X0173380Y0051272D01*
X0176834Y0051272D01*
X0177215Y0051169D01*
X0177557Y0050972D01*
X0177837Y0050693D01*
X0178034Y0050351D01*
X0178136Y0049969D01*
X0178136Y0048484D01*
X0173380Y0048484D01*
X0173380Y0048291D02*
X0181409Y0048291D01*
X0181908Y0049290D02*
X0178136Y0049290D01*
X0178051Y0050288D02*
X0182407Y0050288D01*
X0182907Y0051287D02*
X0150096Y0051287D01*
X0150096Y0052285D02*
X0183406Y0052285D01*
X0183905Y0053284D02*
X0150096Y0053284D01*
X0150096Y0054282D02*
X0184404Y0054282D01*
X0184353Y0055281D02*
X0150096Y0055281D01*
X0150096Y0056279D02*
X0184215Y0056279D01*
X0184298Y0057278D02*
X0177885Y0057278D01*
X0178336Y0058276D02*
X0184711Y0058276D01*
X0185619Y0059275D02*
X0178336Y0059275D01*
X0173093Y0060008D02*
X0173093Y0064339D01*
X0167850Y0064268D02*
X0150096Y0064268D01*
X0150096Y0065266D02*
X0167850Y0065266D01*
X0167850Y0066265D02*
X0150096Y0066265D01*
X0150096Y0067263D02*
X0168050Y0067263D01*
X0167850Y0063269D02*
X0150096Y0063269D01*
X0150096Y0062271D02*
X0167850Y0062271D01*
X0167850Y0061272D02*
X0150096Y0061272D01*
X0150096Y0060274D02*
X0167850Y0060274D01*
X0167850Y0059275D02*
X0150096Y0059275D01*
X0150096Y0058276D02*
X0167850Y0058276D01*
X0168301Y0057278D02*
X0150096Y0057278D01*
X0150096Y0050288D02*
X0168135Y0050288D01*
X0168050Y0049290D02*
X0150096Y0049290D01*
X0147896Y0041346D02*
X0133093Y0026543D01*
X0125849Y0026543D01*
X0120806Y0023329D02*
X0110084Y0023329D01*
X0120806Y0021332D02*
X0087624Y0021332D01*
X0087624Y0020333D02*
X0120834Y0020333D01*
X0121563Y0019335D02*
X0087445Y0019335D01*
X0088593Y0027323D02*
X0089561Y0027323D01*
X0089561Y0028321D02*
X0088593Y0028321D01*
X0088593Y0029320D02*
X0089561Y0029320D01*
X0115069Y0033314D02*
X0120606Y0033314D01*
X0125561Y0021332D02*
X0126136Y0021332D01*
X0126136Y0020333D02*
X0125561Y0020333D01*
X0125561Y0019335D02*
X0126136Y0019335D01*
X0130135Y0019335D02*
X0151797Y0019335D01*
X0150798Y0020333D02*
X0130863Y0020333D01*
X0130892Y0021332D02*
X0150696Y0021332D01*
X0152795Y0018336D02*
X0022396Y0018336D01*
X0022396Y0017338D02*
X0153794Y0017338D01*
X0154792Y0016339D02*
X0022396Y0016339D01*
X0136984Y0027323D02*
X0150696Y0027323D01*
X0150696Y0028321D02*
X0137982Y0028321D01*
X0138981Y0029320D02*
X0150696Y0029320D01*
X0150696Y0030318D02*
X0139979Y0030318D01*
X0140978Y0031317D02*
X0150696Y0031317D01*
X0150696Y0032315D02*
X0141976Y0032315D01*
X0142975Y0033314D02*
X0150696Y0033314D01*
X0150696Y0034312D02*
X0143973Y0034312D01*
X0144972Y0035311D02*
X0150696Y0035311D01*
X0149822Y0036309D02*
X0145970Y0036309D01*
X0146969Y0037308D02*
X0148823Y0037308D01*
X0152050Y0040303D02*
X0159344Y0040303D01*
X0159757Y0039305D02*
X0153049Y0039305D01*
X0154048Y0038306D02*
X0160696Y0038306D01*
X0160696Y0037308D02*
X0155046Y0037308D01*
X0155096Y0036309D02*
X0159748Y0036309D01*
X0158749Y0035311D02*
X0155096Y0035311D01*
X0155096Y0034312D02*
X0155656Y0034312D01*
X0155715Y0028321D02*
X0155096Y0028321D01*
X0155096Y0027323D02*
X0167850Y0027323D01*
X0167850Y0026324D02*
X0155096Y0026324D01*
X0155096Y0025326D02*
X0167850Y0025326D01*
X0167850Y0024327D02*
X0155096Y0024327D01*
X0155096Y0023329D02*
X0167850Y0023329D01*
X0167850Y0022330D02*
X0155096Y0022330D01*
X0156022Y0021332D02*
X0167850Y0021332D01*
X0167850Y0020333D02*
X0157021Y0020333D01*
X0158019Y0019335D02*
X0168449Y0019335D01*
X0177737Y0019335D02*
X0182495Y0019335D01*
X0182495Y0020333D02*
X0178336Y0020333D01*
X0178336Y0021332D02*
X0182495Y0021332D01*
X0182495Y0022330D02*
X0178336Y0022330D01*
X0178336Y0023329D02*
X0182495Y0023329D01*
X0182495Y0024327D02*
X0178336Y0024327D01*
X0178336Y0025326D02*
X0182495Y0025326D01*
X0183068Y0026324D02*
X0178336Y0026324D01*
X0177424Y0030874D02*
X0173093Y0030874D01*
X0177424Y0030874D02*
X0182896Y0036346D01*
X0182896Y0046346D01*
X0187896Y0056346D01*
X0190173Y0059275D02*
X0200696Y0059275D01*
X0200696Y0058276D02*
X0191081Y0058276D01*
X0191495Y0057278D02*
X0200696Y0057278D01*
X0197384Y0051346D02*
X0187246Y0041209D01*
X0187246Y0040205D01*
X0188222Y0045296D02*
X0185096Y0045296D01*
X0185330Y0046294D02*
X0189221Y0046294D01*
X0190219Y0047293D02*
X0185829Y0047293D01*
X0186328Y0048291D02*
X0191218Y0048291D01*
X0192216Y0049290D02*
X0186827Y0049290D01*
X0187327Y0050288D02*
X0192535Y0050288D01*
X0192535Y0051287D02*
X0187826Y0051287D01*
X0188325Y0052285D02*
X0192535Y0052285D01*
X0192535Y0053284D02*
X0190039Y0053284D01*
X0191026Y0054282D02*
X0192535Y0054282D01*
X0192535Y0055281D02*
X0191439Y0055281D01*
X0191577Y0056279D02*
X0193220Y0056279D01*
X0183277Y0066265D02*
X0178336Y0066265D01*
X0182896Y0066346D02*
X0179896Y0072346D01*
X0178336Y0074253D02*
X0182448Y0074253D01*
X0182448Y0075251D02*
X0178336Y0075251D01*
X0173380Y0078247D02*
X0172805Y0078247D01*
X0172805Y0079245D02*
X0173380Y0079245D01*
X0173380Y0080244D02*
X0172805Y0080244D01*
X0172486Y0086235D02*
X0183176Y0086235D01*
X0187384Y0081346D02*
X0187298Y0071346D01*
X0198494Y0071346D02*
X0207896Y0071346D01*
X0207896Y0081346D01*
X0217896Y0091346D01*
X0217896Y0106346D01*
X0210696Y0104208D02*
X0210240Y0104208D01*
X0209960Y0098217D02*
X0210696Y0098217D01*
X0231593Y0086235D02*
X0234199Y0086235D01*
X0233558Y0085236D02*
X0232234Y0085236D01*
X0232234Y0084238D02*
X0233558Y0084238D01*
X0233558Y0083239D02*
X0232234Y0083239D01*
X0232234Y0082241D02*
X0233558Y0082241D01*
X0227384Y0081346D02*
X0227384Y0076433D01*
X0227298Y0071346D01*
X0232147Y0069260D02*
X0233845Y0069260D01*
X0233845Y0068262D02*
X0232147Y0068262D01*
X0232147Y0067263D02*
X0233935Y0067263D01*
X0231319Y0066265D02*
X0243671Y0066265D01*
X0243258Y0067263D02*
X0243054Y0067263D01*
X0243144Y0068262D02*
X0243196Y0068262D01*
X0243196Y0069260D02*
X0243144Y0069260D01*
X0243144Y0070259D02*
X0243196Y0070259D01*
X0238994Y0070259D02*
X0237995Y0070259D01*
X0237995Y0069260D02*
X0238994Y0069260D01*
X0238994Y0068262D02*
X0237995Y0068262D01*
X0237995Y0067263D02*
X0238994Y0067263D01*
X0250330Y0064268D02*
X0254611Y0064268D01*
X0253906Y0065266D02*
X0251462Y0065266D01*
X0252121Y0066265D02*
X0253516Y0066265D01*
X0253396Y0067263D02*
X0252535Y0067263D01*
X0252596Y0068262D02*
X0253396Y0068262D01*
X0253396Y0069260D02*
X0252596Y0069260D01*
X0259806Y0063269D02*
X0270696Y0063269D01*
X0270696Y0064268D02*
X0270330Y0064268D01*
X0265462Y0064268D02*
X0261181Y0064268D01*
X0261887Y0065266D02*
X0264330Y0065266D01*
X0263671Y0066265D02*
X0262276Y0066265D01*
X0262396Y0067263D02*
X0263258Y0067263D01*
X0263196Y0068262D02*
X0262396Y0068262D01*
X0262396Y0069260D02*
X0263196Y0069260D01*
X0275096Y0063269D02*
X0275458Y0063269D01*
X0275096Y0062271D02*
X0279294Y0062271D01*
X0279215Y0061272D02*
X0276082Y0061272D01*
X0277080Y0060274D02*
X0279356Y0060274D01*
X0279770Y0059275D02*
X0278079Y0059275D01*
X0279077Y0058276D02*
X0280760Y0058276D01*
X0280076Y0057278D02*
X0287097Y0057278D01*
X0287097Y0058276D02*
X0285032Y0058276D01*
X0286022Y0059275D02*
X0287097Y0059275D01*
X0287097Y0060274D02*
X0286436Y0060274D01*
X0286577Y0061272D02*
X0287097Y0061272D01*
X0287097Y0062271D02*
X0286931Y0062271D01*
X0287097Y0056279D02*
X0280096Y0056279D01*
X0280096Y0055281D02*
X0287097Y0055281D01*
X0287097Y0054282D02*
X0280096Y0054282D01*
X0280096Y0053284D02*
X0287097Y0053284D01*
X0287097Y0052285D02*
X0280096Y0052285D01*
X0280096Y0051287D02*
X0287097Y0051287D01*
X0287097Y0050288D02*
X0279949Y0050288D01*
X0278951Y0049290D02*
X0287097Y0049290D01*
X0287097Y0048291D02*
X0277952Y0048291D01*
X0276954Y0047293D02*
X0287097Y0047293D01*
X0287097Y0046294D02*
X0275955Y0046294D01*
X0275746Y0045296D02*
X0287097Y0045296D01*
X0287097Y0044297D02*
X0277467Y0044297D01*
X0278297Y0043299D02*
X0287097Y0043299D01*
X0287097Y0042300D02*
X0278297Y0042300D01*
X0278297Y0041302D02*
X0287097Y0041302D01*
X0287097Y0040303D02*
X0278297Y0040303D01*
X0278297Y0039305D02*
X0287097Y0039305D01*
X0287097Y0038306D02*
X0278297Y0038306D01*
X0278297Y0037308D02*
X0287097Y0037308D01*
X0287097Y0036309D02*
X0277665Y0036309D01*
X0269624Y0044297D02*
X0246168Y0044297D01*
X0248339Y0046294D02*
X0235955Y0046294D01*
X0235096Y0045296D02*
X0271346Y0045296D01*
X0258758Y0052285D02*
X0257234Y0052285D01*
X0257234Y0053284D02*
X0258758Y0053284D01*
X0258758Y0054282D02*
X0257234Y0054282D01*
X0257234Y0055281D02*
X0258810Y0055281D01*
X0259665Y0056279D02*
X0256548Y0056279D01*
X0247535Y0048291D02*
X0237952Y0048291D01*
X0236954Y0047293D02*
X0247535Y0047293D01*
X0238325Y0044297D02*
X0235096Y0044297D01*
X0235096Y0043299D02*
X0237495Y0043299D01*
X0230731Y0047293D02*
X0212974Y0047293D01*
X0190723Y0033314D02*
X0182975Y0033314D01*
X0183973Y0034312D02*
X0189754Y0034312D01*
X0189341Y0035311D02*
X0184972Y0035311D01*
X0180696Y0037308D02*
X0178336Y0037308D01*
X0178336Y0038306D02*
X0180696Y0038306D01*
X0180696Y0039305D02*
X0178336Y0039305D01*
X0178336Y0040303D02*
X0180696Y0040303D01*
X0180696Y0041302D02*
X0178336Y0041302D01*
X0178336Y0042300D02*
X0180696Y0042300D01*
X0180696Y0043299D02*
X0178336Y0043299D01*
X0178336Y0044297D02*
X0180696Y0044297D01*
X0180696Y0045296D02*
X0178336Y0045296D01*
X0178187Y0046294D02*
X0180594Y0046294D01*
X0180731Y0047293D02*
X0178136Y0047293D01*
X0173380Y0049290D02*
X0172805Y0049290D01*
X0172805Y0050288D02*
X0173380Y0050288D01*
X0178336Y0036309D02*
X0179748Y0036309D01*
X0178749Y0035311D02*
X0178336Y0035311D01*
X0191425Y0026324D02*
X0214367Y0026324D01*
X0213794Y0025326D02*
X0191998Y0025326D01*
X0191998Y0024327D02*
X0205671Y0024327D01*
X0204733Y0023329D02*
X0191998Y0023329D01*
X0191998Y0022330D02*
X0204319Y0022330D01*
X0204215Y0021332D02*
X0191998Y0021332D01*
X0191998Y0020333D02*
X0203771Y0020333D01*
X0202773Y0019335D02*
X0191998Y0019335D01*
X0266000Y0016339D02*
X0287097Y0016339D01*
X0285696Y0076250D02*
X0281640Y0076250D01*
X0280641Y0077248D02*
X0285696Y0077248D01*
X0285696Y0086235D02*
X0249706Y0086235D01*
X0251204Y0087233D02*
X0285696Y0087233D01*
X0285696Y0088232D02*
X0279987Y0088232D01*
X0280986Y0089230D02*
X0285696Y0089230D01*
X0285696Y0090229D02*
X0281418Y0090229D01*
X0281577Y0091227D02*
X0284904Y0091227D01*
X0283905Y0092226D02*
X0281516Y0092226D01*
X0281103Y0093224D02*
X0282907Y0093224D01*
X0232896Y0096346D02*
X0232896Y0187961D01*
X0172896Y0188083D02*
X0159271Y0188083D01*
X0160096Y0187084D02*
X0172896Y0187084D01*
X0172896Y0186086D02*
X0162765Y0186086D01*
X0163257Y0185087D02*
X0172896Y0185087D01*
X0172896Y0184089D02*
X0163257Y0184089D01*
X0163257Y0183090D02*
X0172896Y0183090D01*
X0172896Y0182092D02*
X0163257Y0182092D01*
X0158272Y0189081D02*
X0172896Y0189081D01*
X0172896Y0190080D02*
X0157274Y0190080D01*
X0156275Y0191078D02*
X0172896Y0191078D01*
X0172896Y0192077D02*
X0155277Y0192077D01*
X0154278Y0193076D02*
X0172896Y0193076D01*
X0172896Y0194074D02*
X0153280Y0194074D01*
X0152281Y0195073D02*
X0172896Y0195073D01*
X0172896Y0196071D02*
X0151283Y0196071D01*
X0150284Y0197070D02*
X0172896Y0197070D01*
X0172896Y0198068D02*
X0149286Y0198068D01*
X0149508Y0204646D02*
X0146783Y0204646D01*
X0146524Y0204906D01*
X0146265Y0204646D01*
X0141994Y0204646D01*
X0140338Y0204646D01*
X0139166Y0205818D01*
X0139166Y0207475D01*
X0141676Y0209984D01*
X0140338Y0209984D01*
X0139166Y0211156D01*
X0139166Y0212813D01*
X0140234Y0213880D01*
X0140234Y0213880D01*
X0141405Y0215052D01*
X0145197Y0215052D01*
X0145954Y0214295D01*
X0146265Y0213984D01*
X0146265Y0213984D01*
X0146679Y0213570D01*
X0147436Y0212813D01*
X0147436Y0210088D01*
X0147062Y0209714D01*
X0148834Y0209714D01*
X0148834Y0212813D01*
X0149902Y0213880D01*
X0151073Y0215052D01*
X0154865Y0215052D01*
X0155601Y0214316D01*
X0155658Y0214259D01*
X0156451Y0215052D01*
X0158108Y0215052D01*
X0159280Y0213880D01*
X0159280Y0209610D01*
X0159415Y0209475D01*
X0159550Y0209610D01*
X0159550Y0213880D01*
X0160722Y0215052D01*
X0162379Y0215052D01*
X0163550Y0213880D01*
X0163550Y0207953D01*
X0160243Y0204646D01*
X0158586Y0204646D01*
X0157415Y0205818D01*
X0156726Y0206507D01*
X0156347Y0206128D01*
X0155933Y0205714D01*
X0155933Y0205714D01*
X0155623Y0205404D01*
X0154865Y0204646D01*
X0151073Y0204646D01*
X0150290Y0205429D01*
X0149508Y0204646D01*
X0149919Y0205058D02*
X0150662Y0205058D01*
X0155277Y0205058D02*
X0158175Y0205058D01*
X0157177Y0206056D02*
X0156275Y0206056D01*
X0160655Y0205058D02*
X0172896Y0205058D01*
X0172896Y0206056D02*
X0161653Y0206056D01*
X0162652Y0207055D02*
X0172896Y0207055D01*
X0172896Y0208053D02*
X0163550Y0208053D01*
X0163550Y0209052D02*
X0172896Y0209052D01*
X0172896Y0210050D02*
X0163550Y0210050D01*
X0163550Y0211049D02*
X0172896Y0211049D01*
X0172896Y0212047D02*
X0163550Y0212047D01*
X0163550Y0213046D02*
X0172896Y0213046D01*
X0172896Y0214044D02*
X0163386Y0214044D01*
X0162388Y0215043D02*
X0172896Y0215043D01*
X0172896Y0216041D02*
X0022396Y0216041D01*
X0022396Y0215043D02*
X0097358Y0215043D01*
X0097368Y0215052D02*
X0096196Y0213880D01*
X0096196Y0205818D01*
X0097368Y0204646D01*
X0099024Y0204646D01*
X0100196Y0205818D01*
X0100196Y0207849D01*
X0101160Y0207849D01*
X0102331Y0209021D01*
X0102331Y0210678D01*
X0101957Y0211052D01*
X0102642Y0211052D01*
X0102642Y0206886D01*
X0103709Y0205818D01*
X0104881Y0204646D01*
X0108673Y0204646D01*
X0109408Y0205382D01*
X0109740Y0205714D01*
X0109740Y0205714D01*
X0109999Y0205973D01*
X0110155Y0205818D01*
X0111326Y0204646D01*
X0115118Y0204646D01*
X0115854Y0205382D01*
X0116186Y0205714D01*
X0116622Y0206150D01*
X0117357Y0206886D01*
X0117357Y0211052D01*
X0117668Y0211052D01*
X0117668Y0205818D01*
X0118839Y0204646D01*
X0120496Y0204646D01*
X0121668Y0205818D01*
X0121668Y0211052D01*
X0122631Y0211052D01*
X0122890Y0211311D01*
X0123046Y0211156D01*
X0123046Y0208542D01*
X0121978Y0207475D01*
X0121978Y0205818D01*
X0123150Y0204646D01*
X0126942Y0204646D01*
X0127194Y0204899D01*
X0127447Y0204646D01*
X0133374Y0204646D01*
X0134545Y0205818D01*
X0134545Y0207475D01*
X0133374Y0208646D01*
X0132036Y0208646D01*
X0132410Y0209021D01*
X0132410Y0210678D01*
X0132036Y0211052D01*
X0133374Y0211052D01*
X0134545Y0212223D01*
X0134545Y0213880D01*
X0133374Y0215052D01*
X0127447Y0215052D01*
X0127194Y0214799D01*
X0126942Y0215052D01*
X0123150Y0215052D01*
X0122890Y0214793D01*
X0122631Y0215052D01*
X0116704Y0215052D01*
X0115911Y0214259D01*
X0115789Y0214381D01*
X0115118Y0215052D01*
X0111326Y0215052D01*
X0110259Y0213984D01*
X0109999Y0213725D01*
X0109740Y0213984D01*
X0109343Y0214381D01*
X0108673Y0215052D01*
X0104881Y0215052D01*
X0104088Y0214259D01*
X0103295Y0215052D01*
X0097368Y0215052D01*
X0096360Y0214044D02*
X0065404Y0214044D01*
X0066177Y0213046D02*
X0066484Y0213046D01*
X0067896Y0211346D02*
X0082896Y0211346D01*
X0097896Y0196346D01*
X0097289Y0200065D02*
X0098503Y0200065D01*
X0099502Y0201064D02*
X0096290Y0201064D01*
X0095292Y0202062D02*
X0100500Y0202062D01*
X0101499Y0203061D02*
X0094293Y0203061D01*
X0093295Y0204059D02*
X0172896Y0204059D01*
X0172896Y0203061D02*
X0119293Y0203061D01*
X0120292Y0202062D02*
X0172896Y0202062D01*
X0172896Y0201064D02*
X0121290Y0201064D01*
X0122289Y0200065D02*
X0172896Y0200065D01*
X0172896Y0199067D02*
X0123287Y0199067D01*
X0117896Y0196346D02*
X0107896Y0196346D01*
X0107896Y0191346D02*
X0117896Y0181346D01*
X0122896Y0176346D02*
X0127896Y0181346D01*
X0127896Y0191346D02*
X0137384Y0191346D01*
X0117896Y0191346D02*
X0117896Y0196346D01*
X0118428Y0205058D02*
X0115529Y0205058D01*
X0116186Y0205714D02*
X0116186Y0205714D01*
X0116528Y0206056D02*
X0117668Y0206056D01*
X0117668Y0207055D02*
X0117357Y0207055D01*
X0117357Y0208053D02*
X0117668Y0208053D01*
X0117668Y0209052D02*
X0117357Y0209052D01*
X0117357Y0210050D02*
X0117668Y0210050D01*
X0117668Y0211049D02*
X0117357Y0211049D01*
X0116695Y0215043D02*
X0115127Y0215043D01*
X0111317Y0215043D02*
X0108682Y0215043D01*
X0109680Y0214044D02*
X0110319Y0214044D01*
X0109740Y0213984D02*
X0109740Y0213984D01*
X0104872Y0215043D02*
X0103304Y0215043D01*
X0102642Y0211049D02*
X0101960Y0211049D01*
X0102331Y0210050D02*
X0102642Y0210050D01*
X0102642Y0209052D02*
X0102331Y0209052D01*
X0102642Y0208053D02*
X0101364Y0208053D01*
X0100196Y0207055D02*
X0102642Y0207055D01*
X0103471Y0206056D02*
X0100196Y0206056D01*
X0099436Y0205058D02*
X0104470Y0205058D01*
X0109084Y0205058D02*
X0110915Y0205058D01*
X0120907Y0205058D02*
X0122738Y0205058D01*
X0121978Y0206056D02*
X0121668Y0206056D01*
X0121668Y0207055D02*
X0121978Y0207055D01*
X0121668Y0208053D02*
X0122556Y0208053D01*
X0123046Y0209052D02*
X0121668Y0209052D01*
X0121668Y0210050D02*
X0123046Y0210050D01*
X0123046Y0211049D02*
X0121668Y0211049D01*
X0122640Y0215043D02*
X0123140Y0215043D01*
X0126951Y0215043D02*
X0127437Y0215043D01*
X0133383Y0215043D02*
X0141396Y0215043D01*
X0140398Y0214044D02*
X0134381Y0214044D01*
X0134545Y0213046D02*
X0139399Y0213046D01*
X0139166Y0212047D02*
X0134369Y0212047D01*
X0132039Y0211049D02*
X0139273Y0211049D01*
X0140272Y0210050D02*
X0132410Y0210050D01*
X0132410Y0209052D02*
X0140743Y0209052D01*
X0139744Y0208053D02*
X0133967Y0208053D01*
X0134545Y0207055D02*
X0139166Y0207055D01*
X0139166Y0206056D02*
X0134545Y0206056D01*
X0133785Y0205058D02*
X0139926Y0205058D01*
X0147398Y0210050D02*
X0148834Y0210050D01*
X0148834Y0211049D02*
X0147436Y0211049D01*
X0147436Y0212047D02*
X0148834Y0212047D01*
X0149067Y0213046D02*
X0147203Y0213046D01*
X0146205Y0214044D02*
X0150066Y0214044D01*
X0151064Y0215043D02*
X0145206Y0215043D01*
X0154875Y0215043D02*
X0156442Y0215043D01*
X0158117Y0215043D02*
X0160713Y0215043D01*
X0159714Y0214044D02*
X0159116Y0214044D01*
X0159280Y0213046D02*
X0159550Y0213046D01*
X0159550Y0212047D02*
X0159280Y0212047D01*
X0159280Y0211049D02*
X0159550Y0211049D01*
X0159550Y0210050D02*
X0159280Y0210050D01*
X0110696Y0180095D02*
X0108139Y0180095D01*
X0108139Y0179096D02*
X0110440Y0179096D01*
X0109637Y0178098D02*
X0108139Y0178098D01*
X0108139Y0177099D02*
X0109224Y0177099D01*
X0109215Y0176101D02*
X0108139Y0176101D01*
X0108139Y0175102D02*
X0109427Y0175102D01*
X0109933Y0174104D02*
X0108139Y0174104D01*
X0108139Y0173105D02*
X0111102Y0173105D01*
X0112496Y0172107D02*
X0107242Y0172107D01*
X0103396Y0170110D02*
X0102396Y0170110D01*
X0102396Y0169111D02*
X0103396Y0169111D01*
X0103396Y0168113D02*
X0102396Y0168113D01*
X0102896Y0165835D02*
X0108408Y0165835D01*
X0112896Y0161346D01*
X0117896Y0161346D01*
X0117535Y0154134D02*
X0115315Y0154134D01*
X0103396Y0162122D02*
X0102396Y0162122D01*
X0102396Y0163120D02*
X0103396Y0163120D01*
X0103396Y0164119D02*
X0102396Y0164119D01*
X0102396Y0165117D02*
X0103396Y0165117D01*
X0102896Y0156346D02*
X0102896Y0146346D01*
X0080696Y0143150D02*
X0079798Y0143150D01*
X0066296Y0142946D02*
X0066296Y0159646D01*
X0051196Y0168446D02*
X0045796Y0168446D01*
X0037896Y0176346D01*
X0032896Y0176346D01*
X0028172Y0181071D01*
X0028172Y0185008D01*
X0027896Y0186346D01*
X0027896Y0196346D01*
X0027384Y0196346D01*
X0032234Y0196071D02*
X0037908Y0196071D01*
X0037908Y0195846D02*
X0033758Y0195846D01*
X0033758Y0192606D01*
X0033860Y0192224D01*
X0034058Y0191882D01*
X0034337Y0191603D01*
X0034679Y0191405D01*
X0035061Y0191303D01*
X0037908Y0191303D01*
X0037908Y0195846D01*
X0038908Y0195846D01*
X0038908Y0191303D01*
X0041755Y0191303D01*
X0042136Y0191405D01*
X0042478Y0191603D01*
X0042758Y0191882D01*
X0042955Y0192224D01*
X0043057Y0192606D01*
X0043057Y0195846D01*
X0038908Y0195846D01*
X0038908Y0196846D01*
X0043057Y0196846D01*
X0043057Y0200087D01*
X0042955Y0200469D01*
X0042758Y0200811D01*
X0042478Y0201090D01*
X0042136Y0201288D01*
X0041755Y0201390D01*
X0038908Y0201390D01*
X0038908Y0196846D01*
X0037908Y0196846D01*
X0037908Y0195846D01*
X0037896Y0196346D02*
X0038408Y0196346D01*
X0038408Y0200835D01*
X0032896Y0206346D01*
X0034679Y0201288D02*
X0034337Y0201090D01*
X0034058Y0200811D01*
X0033860Y0200469D01*
X0033758Y0200087D01*
X0033758Y0196846D01*
X0037908Y0196846D01*
X0037908Y0201390D01*
X0035061Y0201390D01*
X0034679Y0201288D01*
X0034311Y0201064D02*
X0031764Y0201064D01*
X0032234Y0200065D02*
X0033758Y0200065D01*
X0033758Y0199067D02*
X0032234Y0199067D01*
X0032234Y0198068D02*
X0033758Y0198068D01*
X0033758Y0197070D02*
X0032234Y0197070D01*
X0032234Y0195073D02*
X0033758Y0195073D01*
X0033758Y0194074D02*
X0032234Y0194074D01*
X0032234Y0193076D02*
X0033758Y0193076D01*
X0033945Y0192077D02*
X0032212Y0192077D01*
X0032000Y0190080D02*
X0033792Y0190080D01*
X0034160Y0190448D02*
X0033165Y0189452D01*
X0033165Y0180564D01*
X0034160Y0179568D01*
X0041081Y0179568D01*
X0042076Y0180564D01*
X0042076Y0189452D01*
X0041081Y0190448D01*
X0034160Y0190448D01*
X0033165Y0189081D02*
X0032628Y0189081D01*
X0032628Y0188083D02*
X0033165Y0188083D01*
X0033165Y0187084D02*
X0032628Y0187084D01*
X0032628Y0186086D02*
X0033165Y0186086D01*
X0033165Y0185087D02*
X0032628Y0185087D01*
X0032628Y0184089D02*
X0033165Y0184089D01*
X0033165Y0183090D02*
X0032628Y0183090D01*
X0032628Y0182092D02*
X0033165Y0182092D01*
X0033165Y0181093D02*
X0032628Y0181093D01*
X0032259Y0180095D02*
X0033633Y0180095D01*
X0033257Y0179096D02*
X0046596Y0179096D01*
X0046596Y0178098D02*
X0039256Y0178098D01*
X0040254Y0177099D02*
X0046596Y0177099D01*
X0046738Y0176101D02*
X0041253Y0176101D01*
X0042251Y0175102D02*
X0046796Y0175102D01*
X0046796Y0174104D02*
X0043250Y0174104D01*
X0044248Y0173105D02*
X0046596Y0173105D01*
X0046596Y0172107D02*
X0045247Y0172107D01*
X0046246Y0171108D02*
X0046596Y0171108D01*
X0051196Y0177946D02*
X0061296Y0177946D01*
X0062896Y0176346D01*
X0058541Y0175102D02*
X0055596Y0175102D01*
X0055596Y0174104D02*
X0057542Y0174104D01*
X0046796Y0180095D02*
X0041608Y0180095D01*
X0042076Y0181093D02*
X0046796Y0181093D01*
X0046796Y0182092D02*
X0042076Y0182092D01*
X0042076Y0183090D02*
X0046596Y0183090D01*
X0046596Y0184089D02*
X0042076Y0184089D01*
X0042076Y0185087D02*
X0046596Y0185087D01*
X0046596Y0186086D02*
X0042076Y0186086D01*
X0042896Y0186346D02*
X0042896Y0191346D01*
X0037896Y0196346D01*
X0037908Y0197070D02*
X0038908Y0197070D01*
X0038908Y0198068D02*
X0037908Y0198068D01*
X0037908Y0199067D02*
X0038908Y0199067D01*
X0038908Y0200065D02*
X0037908Y0200065D01*
X0037908Y0201064D02*
X0038908Y0201064D01*
X0042505Y0201064D02*
X0045696Y0201064D01*
X0045696Y0200065D02*
X0043057Y0200065D01*
X0043057Y0199067D02*
X0045696Y0199067D01*
X0045696Y0198068D02*
X0043057Y0198068D01*
X0043057Y0197070D02*
X0045696Y0197070D01*
X0045696Y0196071D02*
X0038908Y0196071D01*
X0038908Y0195073D02*
X0037908Y0195073D01*
X0037908Y0194074D02*
X0038908Y0194074D01*
X0038908Y0193076D02*
X0037908Y0193076D01*
X0037908Y0192077D02*
X0038908Y0192077D01*
X0041449Y0190080D02*
X0044436Y0190080D01*
X0044215Y0191078D02*
X0030096Y0191078D01*
X0042076Y0189081D02*
X0044955Y0189081D01*
X0046156Y0188083D02*
X0042076Y0188083D01*
X0042076Y0187084D02*
X0046596Y0187084D01*
X0047896Y0191346D02*
X0047896Y0201346D01*
X0052896Y0201346D01*
X0056896Y0197346D01*
X0056896Y0193046D01*
X0059996Y0193046D02*
X0059996Y0204246D01*
X0057896Y0206346D01*
X0056210Y0203061D02*
X0054293Y0203061D01*
X0055292Y0202062D02*
X0057796Y0202062D01*
X0057796Y0201064D02*
X0056290Y0201064D01*
X0057289Y0200065D02*
X0057796Y0200065D01*
X0052896Y0196346D02*
X0051196Y0193046D01*
X0051196Y0187346D01*
X0044215Y0192077D02*
X0042870Y0192077D01*
X0043057Y0193076D02*
X0044628Y0193076D01*
X0045418Y0194074D02*
X0043057Y0194074D01*
X0043057Y0195073D02*
X0045696Y0195073D01*
X0059215Y0211049D02*
X0022396Y0211049D01*
X0022396Y0212047D02*
X0059215Y0212047D01*
X0059616Y0213046D02*
X0022396Y0213046D01*
X0022396Y0214044D02*
X0060388Y0214044D01*
X0068496Y0202062D02*
X0089069Y0202062D01*
X0090068Y0201064D02*
X0068496Y0201064D01*
X0068496Y0200065D02*
X0091066Y0200065D01*
X0092065Y0199067D02*
X0068496Y0199067D01*
X0068496Y0198068D02*
X0093063Y0198068D01*
X0092296Y0205058D02*
X0096956Y0205058D01*
X0096196Y0206056D02*
X0091298Y0206056D01*
X0090299Y0207055D02*
X0096196Y0207055D01*
X0096196Y0208053D02*
X0089301Y0208053D01*
X0088302Y0209052D02*
X0096196Y0209052D01*
X0096196Y0210050D02*
X0087304Y0210050D01*
X0086305Y0211049D02*
X0096196Y0211049D01*
X0096196Y0212047D02*
X0085307Y0212047D01*
X0084308Y0213046D02*
X0096196Y0213046D01*
X0102050Y0189081D02*
X0089165Y0189081D01*
X0089196Y0188083D02*
X0103048Y0188083D01*
X0104047Y0187084D02*
X0089196Y0187084D01*
X0089196Y0186086D02*
X0105045Y0186086D01*
X0106044Y0185087D02*
X0089196Y0185087D01*
X0089196Y0184089D02*
X0107042Y0184089D01*
X0108041Y0183090D02*
X0089196Y0183090D01*
X0089196Y0182092D02*
X0109039Y0182092D01*
X0110038Y0181093D02*
X0107758Y0181093D01*
X0089496Y0177946D02*
X0084596Y0177946D01*
X0127396Y0170110D02*
X0128396Y0170110D01*
X0128396Y0169111D02*
X0127396Y0169111D01*
X0127396Y0168113D02*
X0128396Y0168113D01*
X0128396Y0167114D02*
X0127396Y0167114D01*
X0050958Y0133165D02*
X0034077Y0133165D01*
X0035656Y0134163D02*
X0049873Y0134163D01*
X0049402Y0135162D02*
X0037234Y0135162D01*
X0022735Y0157129D02*
X0022396Y0157129D01*
X0022396Y0158128D02*
X0022735Y0158128D01*
X0022735Y0159126D02*
X0022396Y0159126D01*
X0022396Y0160125D02*
X0022745Y0160125D01*
X0022396Y0161123D02*
X0023371Y0161123D01*
X0023716Y0164119D02*
X0022396Y0164119D01*
X0022396Y0165117D02*
X0023716Y0165117D01*
X0023716Y0166116D02*
X0022396Y0166116D01*
X0022396Y0167114D02*
X0023716Y0167114D01*
X0023716Y0168113D02*
X0022396Y0168113D01*
X0022396Y0169111D02*
X0023716Y0169111D01*
X0023716Y0170110D02*
X0022396Y0170110D01*
X0022396Y0171108D02*
X0023716Y0171108D01*
X0023716Y0172107D02*
X0022396Y0172107D01*
X0022396Y0173105D02*
X0024692Y0173105D01*
X0022396Y0174104D02*
X0037027Y0174104D01*
X0034141Y0173105D02*
X0031652Y0173105D01*
X0032628Y0172107D02*
X0033165Y0172107D01*
X0033165Y0171108D02*
X0032628Y0171108D01*
X0032628Y0170110D02*
X0033165Y0170110D01*
X0033165Y0169111D02*
X0032628Y0169111D01*
X0032628Y0168113D02*
X0033165Y0168113D01*
X0033165Y0167114D02*
X0032628Y0167114D01*
X0032628Y0166116D02*
X0033165Y0166116D01*
X0033165Y0165117D02*
X0032628Y0165117D01*
X0032628Y0164119D02*
X0033165Y0164119D01*
X0033285Y0163120D02*
X0032507Y0163120D01*
X0031029Y0175102D02*
X0022396Y0175102D01*
X0186884Y0101212D02*
X0187884Y0101212D01*
X0187884Y0100214D02*
X0186884Y0100214D01*
X0186884Y0099215D02*
X0187884Y0099215D01*
X0187884Y0098217D02*
X0186884Y0098217D01*
X0212896Y0126346D02*
X0227896Y0131346D01*
D31*
X0227896Y0131346D03*
X0212896Y0126346D03*
X0202896Y0111346D03*
X0192896Y0106346D03*
X0177896Y0106346D03*
X0162896Y0116346D03*
X0137896Y0116346D03*
X0167896Y0141346D03*
X0192896Y0126346D03*
X0217896Y0106346D03*
X0207896Y0101346D03*
X0232896Y0096346D03*
X0242896Y0091346D03*
X0257896Y0081346D03*
X0272896Y0081346D03*
X0272896Y0086346D03*
X0277896Y0091346D03*
X0282896Y0061346D03*
X0262896Y0036346D03*
X0277896Y0031346D03*
X0232896Y0056346D03*
X0227896Y0061346D03*
X0217896Y0051346D03*
X0207896Y0061346D03*
X0187896Y0056346D03*
X0182896Y0056346D03*
X0162896Y0061346D03*
X0162896Y0046346D03*
X0162896Y0041346D03*
X0157896Y0031346D03*
X0147896Y0026346D03*
X0142896Y0026346D03*
X0147896Y0041346D03*
X0117896Y0041346D03*
X0112896Y0036346D03*
X0107896Y0026346D03*
X0092896Y0021346D03*
X0057896Y0031346D03*
X0052896Y0036346D03*
X0062896Y0051346D03*
X0057896Y0061346D03*
X0072896Y0066346D03*
X0077896Y0056346D03*
X0102896Y0071346D03*
X0102896Y0076346D03*
X0077896Y0101346D03*
X0067896Y0106346D03*
X0057896Y0111346D03*
X0052896Y0101346D03*
X0057896Y0091346D03*
X0027896Y0086346D03*
X0027896Y0101346D03*
X0027896Y0106346D03*
X0042896Y0116346D03*
X0052896Y0121346D03*
X0042896Y0126346D03*
X0052896Y0136346D03*
X0052896Y0146346D03*
X0062896Y0131346D03*
X0067896Y0131346D03*
X0072896Y0146346D03*
X0077896Y0146346D03*
X0082896Y0151346D03*
X0087896Y0156346D03*
X0092896Y0161346D03*
X0092896Y0166346D03*
X0102896Y0156346D03*
X0112896Y0151346D03*
X0112896Y0146346D03*
X0107896Y0146346D03*
X0112896Y0161346D03*
X0112896Y0176346D03*
X0122896Y0176346D03*
X0137896Y0176346D03*
X0137896Y0171346D03*
X0142896Y0161346D03*
X0133408Y0155835D03*
X0162896Y0161346D03*
X0142896Y0201346D03*
X0132896Y0201346D03*
X0107896Y0196346D03*
X0107896Y0191346D03*
X0092896Y0181346D03*
X0077896Y0186346D03*
X0087896Y0196346D03*
X0072896Y0206346D03*
X0062896Y0211346D03*
X0057896Y0206346D03*
X0052896Y0196346D03*
X0047896Y0191346D03*
X0062896Y0186346D03*
X0032896Y0206346D03*
X0027896Y0211346D03*
X0042896Y0211346D03*
X0022896Y0176346D03*
X0092896Y0211346D03*
X0237896Y0106346D03*
X0162896Y0076346D03*
X0147896Y0076346D03*
X0197896Y0041346D03*
X0192896Y0036346D03*
X0197896Y0026346D03*
X0207896Y0021346D03*
X0207896Y0031346D03*
X0172896Y0016346D03*
M02*
