G75*
%MOIN*%
%OFA0B0*%
%FSLAX25Y25*%
%IPPOS*%
%LPD*%
%AMOC8*
5,1,8,0,0,1.08239X$1,22.5*
%
%ADD10R,0.11811X0.06299*%
%ADD11R,0.21654X0.03937*%
%ADD12R,0.07400X0.07400*%
%ADD13OC8,0.07400*%
%ADD14R,0.01575X0.05709*%
%ADD15R,0.07087X0.05906*%
%ADD16R,0.09843X0.05906*%
%ADD17OC8,0.05200*%
%ADD18R,0.02362X0.06102*%
%ADD19R,0.04724X0.07087*%
%ADD20R,0.04756X0.04756*%
%ADD21R,0.05512X0.07087*%
%ADD22R,0.07480X0.05512*%
%ADD23R,0.05906X0.03150*%
%ADD24R,0.04724X0.02165*%
%ADD25C,0.06000*%
%ADD26C,0.03962*%
%ADD27C,0.01000*%
D10*
X0273959Y0102961D03*
X0273959Y0129732D03*
D11*
X0265022Y0120283D03*
X0265022Y0112409D03*
D12*
X0117896Y0191346D03*
D13*
X0127896Y0191346D03*
X0127896Y0181346D03*
X0117896Y0181346D03*
X0117896Y0171346D03*
X0127896Y0171346D03*
D14*
X0227778Y0032075D03*
X0230337Y0032075D03*
X0232896Y0032075D03*
X0235455Y0032075D03*
X0238014Y0032075D03*
D15*
X0247404Y0021346D03*
X0218388Y0021346D03*
D16*
X0232896Y0021346D03*
D17*
X0107896Y0051346D03*
X0100396Y0056346D03*
X0107896Y0061346D03*
D18*
X0163211Y0026346D03*
X0167148Y0026346D03*
X0171085Y0026346D03*
X0175022Y0026346D03*
X0178959Y0026346D03*
X0182896Y0026346D03*
D19*
X0188014Y0017587D03*
X0158093Y0017587D03*
D20*
X0152896Y0116346D03*
X0117896Y0116346D03*
D21*
X0081321Y0046858D03*
X0081321Y0024417D03*
D22*
X0029550Y0018118D03*
X0025613Y0069890D03*
D23*
X0040770Y0051543D03*
X0042345Y0047213D03*
X0040770Y0042882D03*
X0039983Y0038551D03*
X0040770Y0034220D03*
X0039983Y0029890D03*
X0040770Y0025559D03*
X0040770Y0021228D03*
D24*
X0177778Y0112606D03*
X0177778Y0120087D03*
X0188015Y0120087D03*
X0188015Y0116346D03*
X0188015Y0112606D03*
X0217778Y0112606D03*
X0217778Y0116346D03*
X0217778Y0120087D03*
X0228015Y0120087D03*
X0228015Y0112606D03*
D25*
X0247896Y0074346D02*
X0247896Y0068346D01*
X0257896Y0067346D02*
X0257896Y0073346D01*
X0267896Y0074346D02*
X0267896Y0068346D01*
X0277896Y0067346D02*
X0277896Y0073346D01*
D26*
X0272896Y0081346D03*
X0272896Y0086346D03*
X0277896Y0091346D03*
X0257896Y0081346D03*
X0242896Y0091346D03*
X0232896Y0096346D03*
X0237896Y0106346D03*
X0217896Y0106346D03*
X0207896Y0101346D03*
X0202896Y0111346D03*
X0192896Y0106346D03*
X0177896Y0106346D03*
X0162896Y0116346D03*
X0137896Y0116346D03*
X0167896Y0141346D03*
X0192896Y0126346D03*
X0212896Y0126346D03*
X0227896Y0131346D03*
X0162896Y0161346D03*
X0142896Y0161346D03*
X0133408Y0155835D03*
X0137896Y0171346D03*
X0137896Y0176346D03*
X0122896Y0176346D03*
X0112896Y0176346D03*
X0107896Y0191346D03*
X0107896Y0196346D03*
X0092896Y0211346D03*
X0087896Y0196346D03*
X0077896Y0186346D03*
X0062896Y0186346D03*
X0052896Y0196346D03*
X0047896Y0191346D03*
X0057896Y0206346D03*
X0062896Y0211346D03*
X0072896Y0206346D03*
X0042896Y0211346D03*
X0032896Y0206346D03*
X0027896Y0211346D03*
X0022896Y0176346D03*
X0052896Y0146346D03*
X0052896Y0136346D03*
X0062896Y0131346D03*
X0067896Y0131346D03*
X0052896Y0121346D03*
X0042896Y0116346D03*
X0042896Y0126346D03*
X0057896Y0111346D03*
X0052896Y0101346D03*
X0057896Y0091346D03*
X0067896Y0106346D03*
X0077896Y0101346D03*
X0102896Y0076346D03*
X0102896Y0071346D03*
X0077896Y0056346D03*
X0072896Y0066346D03*
X0057896Y0061346D03*
X0062896Y0051346D03*
X0052896Y0036346D03*
X0057896Y0031346D03*
X0092896Y0021346D03*
X0107896Y0026346D03*
X0112896Y0036346D03*
X0117896Y0041346D03*
X0142896Y0026346D03*
X0147896Y0026346D03*
X0157896Y0031346D03*
X0162896Y0041346D03*
X0162896Y0046346D03*
X0147896Y0041346D03*
X0162896Y0061346D03*
X0162896Y0076346D03*
X0147896Y0076346D03*
X0182896Y0056346D03*
X0187896Y0056346D03*
X0197896Y0041346D03*
X0192896Y0036346D03*
X0197896Y0026346D03*
X0207896Y0021346D03*
X0207896Y0031346D03*
X0217896Y0051346D03*
X0207896Y0061346D03*
X0227896Y0061346D03*
X0232896Y0056346D03*
X0262896Y0036346D03*
X0277896Y0031346D03*
X0282896Y0061346D03*
X0172896Y0016346D03*
X0027896Y0086346D03*
X0027896Y0101346D03*
X0027896Y0106346D03*
X0072896Y0146346D03*
X0077896Y0146346D03*
X0082896Y0151346D03*
X0087896Y0156346D03*
X0092896Y0161346D03*
X0092896Y0166346D03*
X0102896Y0156346D03*
X0112896Y0151346D03*
X0112896Y0146346D03*
X0107896Y0146346D03*
X0112896Y0161346D03*
X0092896Y0181346D03*
X0132896Y0201346D03*
X0142896Y0201346D03*
D27*
X0022396Y0065634D02*
X0022396Y0015846D01*
X0024309Y0015846D01*
X0024309Y0017618D01*
X0029050Y0017618D01*
X0029050Y0018618D01*
X0029050Y0022374D01*
X0025612Y0022374D01*
X0025230Y0022272D01*
X0024888Y0022074D01*
X0024609Y0021795D01*
X0024412Y0021453D01*
X0024309Y0021071D01*
X0024309Y0018618D01*
X0029050Y0018618D01*
X0030050Y0018618D01*
X0034790Y0018618D01*
X0034790Y0021071D01*
X0034688Y0021453D01*
X0034490Y0021795D01*
X0034211Y0022074D01*
X0033869Y0022272D01*
X0033487Y0022374D01*
X0030050Y0022374D01*
X0030050Y0018618D01*
X0030050Y0017618D01*
X0034790Y0017618D01*
X0034790Y0015846D01*
X0075479Y0015846D01*
X0056254Y0039877D01*
X0055696Y0040435D01*
X0055696Y0040575D01*
X0055609Y0040684D01*
X0055696Y0041468D01*
X0055696Y0058341D01*
X0055096Y0058941D01*
X0055096Y0040435D01*
X0054378Y0039717D01*
X0054981Y0039467D01*
X0056017Y0038432D01*
X0056577Y0037079D01*
X0056577Y0035614D01*
X0056017Y0034261D01*
X0055096Y0033341D01*
X0055096Y0030435D01*
X0050096Y0025435D01*
X0048807Y0024146D01*
X0045423Y0024146D01*
X0045423Y0018949D01*
X0044427Y0017954D01*
X0037113Y0017954D01*
X0036117Y0018949D01*
X0036117Y0027110D01*
X0036109Y0027115D01*
X0035830Y0027394D01*
X0035632Y0027736D01*
X0035530Y0028117D01*
X0035530Y0029602D01*
X0039695Y0029602D01*
X0039695Y0030177D01*
X0035530Y0030177D01*
X0035530Y0031662D01*
X0035632Y0032044D01*
X0035830Y0032386D01*
X0036109Y0032665D01*
X0036117Y0032670D01*
X0036117Y0035485D01*
X0035330Y0036272D01*
X0035330Y0040830D01*
X0036117Y0041618D01*
X0036117Y0045161D01*
X0037113Y0046157D01*
X0037692Y0046157D01*
X0037692Y0048269D01*
X0037113Y0048269D01*
X0036117Y0049264D01*
X0036117Y0053822D01*
X0037113Y0054818D01*
X0044427Y0054818D01*
X0045423Y0053822D01*
X0045423Y0050487D01*
X0045696Y0050487D01*
X0045696Y0067258D01*
X0065696Y0087258D01*
X0065696Y0103341D01*
X0064775Y0104261D01*
X0064215Y0105614D01*
X0064215Y0107079D01*
X0064775Y0108432D01*
X0065811Y0109467D01*
X0067164Y0110028D01*
X0068628Y0110028D01*
X0069981Y0109467D01*
X0071017Y0108432D01*
X0071577Y0107079D01*
X0071577Y0105614D01*
X0071017Y0104261D01*
X0070096Y0103341D01*
X0070096Y0085435D01*
X0068807Y0084146D01*
X0054588Y0069927D01*
X0075696Y0082592D01*
X0075696Y0098341D01*
X0074775Y0099261D01*
X0074215Y0100614D01*
X0074215Y0102079D01*
X0074775Y0103432D01*
X0075811Y0104467D01*
X0076414Y0104717D01*
X0061985Y0119146D01*
X0055902Y0119146D01*
X0054981Y0118226D01*
X0053628Y0117665D01*
X0052164Y0117665D01*
X0050811Y0118226D01*
X0049775Y0119261D01*
X0049215Y0120614D01*
X0049215Y0122079D01*
X0049775Y0123432D01*
X0050811Y0124467D01*
X0052164Y0125028D01*
X0053628Y0125028D01*
X0054981Y0124467D01*
X0055902Y0123546D01*
X0062585Y0123546D01*
X0053466Y0132665D01*
X0052164Y0132665D01*
X0050811Y0133226D01*
X0049775Y0134261D01*
X0049215Y0135614D01*
X0049215Y0137079D01*
X0049775Y0138432D01*
X0050811Y0139467D01*
X0051414Y0139717D01*
X0040696Y0150435D01*
X0040696Y0187258D01*
X0041985Y0188546D01*
X0044215Y0190777D01*
X0044215Y0192079D01*
X0044775Y0193432D01*
X0045811Y0194467D01*
X0047164Y0195028D01*
X0048628Y0195028D01*
X0049630Y0194613D01*
X0049215Y0195614D01*
X0049215Y0197079D01*
X0049775Y0198432D01*
X0050811Y0199467D01*
X0052164Y0200028D01*
X0053466Y0200028D01*
X0056414Y0202976D01*
X0056228Y0203053D01*
X0040096Y0194987D01*
X0040096Y0145435D01*
X0038807Y0144146D01*
X0035096Y0140435D01*
X0035096Y0105435D01*
X0033807Y0104146D01*
X0031577Y0101916D01*
X0031577Y0100614D01*
X0031017Y0099261D01*
X0029981Y0098226D01*
X0028628Y0097665D01*
X0027164Y0097665D01*
X0025811Y0098226D01*
X0024775Y0099261D01*
X0024215Y0100614D01*
X0024215Y0102079D01*
X0024775Y0103432D01*
X0025190Y0103846D01*
X0024775Y0104261D01*
X0024215Y0105614D01*
X0024215Y0107079D01*
X0024775Y0108432D01*
X0025696Y0109352D01*
X0025696Y0142258D01*
X0030696Y0147258D01*
X0030696Y0197258D01*
X0041088Y0207650D01*
X0041336Y0208145D01*
X0041708Y0208269D01*
X0041985Y0208546D01*
X0042539Y0208546D01*
X0056708Y0213269D01*
X0056985Y0213546D01*
X0057539Y0213546D01*
X0058065Y0213722D01*
X0058415Y0213546D01*
X0059890Y0213546D01*
X0060811Y0214467D01*
X0062164Y0215028D01*
X0063628Y0215028D01*
X0064981Y0214467D01*
X0066017Y0213432D01*
X0066267Y0212828D01*
X0070245Y0216807D01*
X0022396Y0216807D01*
X0022396Y0074146D01*
X0025113Y0074146D01*
X0025113Y0070390D01*
X0026113Y0070390D01*
X0030853Y0070390D01*
X0030853Y0072843D01*
X0030751Y0073225D01*
X0030553Y0073567D01*
X0030274Y0073846D01*
X0029932Y0074043D01*
X0029550Y0074146D01*
X0026113Y0074146D01*
X0026113Y0070390D01*
X0026113Y0069390D01*
X0030853Y0069390D01*
X0030853Y0066936D01*
X0030751Y0066555D01*
X0030553Y0066213D01*
X0030274Y0065934D01*
X0029932Y0065736D01*
X0029550Y0065634D01*
X0026113Y0065634D01*
X0026113Y0069390D01*
X0025113Y0069390D01*
X0025113Y0065634D01*
X0022396Y0065634D01*
X0022396Y0065266D02*
X0045696Y0065266D01*
X0045696Y0064268D02*
X0022396Y0064268D01*
X0022396Y0063269D02*
X0045696Y0063269D01*
X0045696Y0062271D02*
X0022396Y0062271D01*
X0022396Y0061272D02*
X0045696Y0061272D01*
X0045696Y0060274D02*
X0022396Y0060274D01*
X0022396Y0059275D02*
X0045696Y0059275D01*
X0045696Y0058276D02*
X0022396Y0058276D01*
X0022396Y0057278D02*
X0045696Y0057278D01*
X0045696Y0056279D02*
X0022396Y0056279D01*
X0022396Y0055281D02*
X0045696Y0055281D01*
X0045696Y0054282D02*
X0044963Y0054282D01*
X0045423Y0053284D02*
X0045696Y0053284D01*
X0045696Y0052285D02*
X0045423Y0052285D01*
X0045423Y0051287D02*
X0045696Y0051287D01*
X0037692Y0047293D02*
X0022396Y0047293D01*
X0022396Y0048291D02*
X0037090Y0048291D01*
X0036117Y0049290D02*
X0022396Y0049290D01*
X0022396Y0050288D02*
X0036117Y0050288D01*
X0036117Y0051287D02*
X0022396Y0051287D01*
X0022396Y0052285D02*
X0036117Y0052285D01*
X0036117Y0053284D02*
X0022396Y0053284D01*
X0022396Y0054282D02*
X0036577Y0054282D01*
X0037692Y0046294D02*
X0022396Y0046294D01*
X0022396Y0045296D02*
X0036252Y0045296D01*
X0036117Y0044297D02*
X0022396Y0044297D01*
X0022396Y0043299D02*
X0036117Y0043299D01*
X0036117Y0042300D02*
X0022396Y0042300D01*
X0022396Y0041302D02*
X0035802Y0041302D01*
X0035330Y0040303D02*
X0022396Y0040303D01*
X0022396Y0039305D02*
X0035330Y0039305D01*
X0035330Y0038306D02*
X0022396Y0038306D01*
X0022396Y0037308D02*
X0035330Y0037308D01*
X0035330Y0036309D02*
X0022396Y0036309D01*
X0022396Y0035311D02*
X0036117Y0035311D01*
X0036117Y0034312D02*
X0022396Y0034312D01*
X0022396Y0033314D02*
X0036117Y0033314D01*
X0035789Y0032315D02*
X0022396Y0032315D01*
X0022396Y0031317D02*
X0035530Y0031317D01*
X0035530Y0030318D02*
X0022396Y0030318D01*
X0022396Y0029320D02*
X0035530Y0029320D01*
X0035530Y0028321D02*
X0022396Y0028321D01*
X0022396Y0027323D02*
X0035901Y0027323D01*
X0036117Y0026324D02*
X0022396Y0026324D01*
X0022896Y0026346D02*
X0026439Y0029890D01*
X0039983Y0029890D01*
X0040270Y0030177D02*
X0044435Y0030177D01*
X0044435Y0030954D01*
X0045423Y0031941D01*
X0045423Y0032020D01*
X0046681Y0032020D01*
X0049525Y0034865D01*
X0049775Y0034261D01*
X0050696Y0033341D01*
X0050696Y0032258D01*
X0046985Y0028546D01*
X0044714Y0028546D01*
X0044435Y0028825D01*
X0044435Y0029602D01*
X0040270Y0029602D01*
X0040270Y0030177D01*
X0040770Y0034220D02*
X0045770Y0034220D01*
X0052896Y0041346D01*
X0052896Y0066346D01*
X0077896Y0081346D01*
X0077896Y0101346D01*
X0081267Y0099865D02*
X0104785Y0076346D01*
X0103466Y0075028D01*
X0102164Y0075028D01*
X0100811Y0074467D01*
X0099775Y0073432D01*
X0099215Y0072079D01*
X0099215Y0070614D01*
X0099775Y0069261D01*
X0100490Y0068546D01*
X0086985Y0068546D01*
X0085696Y0067258D01*
X0078466Y0060028D01*
X0077164Y0060028D01*
X0075811Y0059467D01*
X0074775Y0058432D01*
X0074215Y0057079D01*
X0074215Y0055614D01*
X0074775Y0054261D01*
X0075811Y0053226D01*
X0077164Y0052665D01*
X0078628Y0052665D01*
X0079981Y0053226D01*
X0081017Y0054261D01*
X0081577Y0055614D01*
X0081577Y0056916D01*
X0088807Y0064146D01*
X0101985Y0064146D01*
X0103596Y0062535D01*
X0103596Y0059565D01*
X0106115Y0057046D01*
X0109677Y0057046D01*
X0110696Y0058065D01*
X0110696Y0054345D01*
X0109594Y0055446D01*
X0108196Y0055446D01*
X0108196Y0051647D01*
X0107596Y0051647D01*
X0107596Y0055446D01*
X0106198Y0055446D01*
X0103796Y0053045D01*
X0103796Y0051646D01*
X0107596Y0051646D01*
X0107596Y0051046D01*
X0108196Y0051046D01*
X0108196Y0047246D01*
X0109594Y0047246D01*
X0110696Y0048348D01*
X0110696Y0039352D01*
X0109775Y0038432D01*
X0109215Y0037079D01*
X0109215Y0035614D01*
X0109775Y0034261D01*
X0110811Y0033226D01*
X0112164Y0032665D01*
X0113628Y0032665D01*
X0114981Y0033226D01*
X0116017Y0034261D01*
X0116577Y0035614D01*
X0116577Y0037079D01*
X0116162Y0038080D01*
X0117164Y0037665D01*
X0118628Y0037665D01*
X0119981Y0038226D01*
X0121017Y0039261D01*
X0121577Y0040614D01*
X0121577Y0042079D01*
X0121017Y0043432D01*
X0120096Y0044352D01*
X0120096Y0076035D01*
X0160696Y0035435D01*
X0160696Y0033752D01*
X0159981Y0034467D01*
X0158628Y0035028D01*
X0157164Y0035028D01*
X0155811Y0034467D01*
X0154775Y0033432D01*
X0154215Y0032079D01*
X0154215Y0030777D01*
X0141985Y0018546D01*
X0078953Y0018546D01*
X0078451Y0019174D01*
X0084781Y0019174D01*
X0085777Y0020170D01*
X0085777Y0028665D01*
X0084781Y0029661D01*
X0077861Y0029661D01*
X0076865Y0028665D01*
X0076865Y0021157D01*
X0060096Y0042118D01*
X0060096Y0048941D01*
X0060696Y0048341D01*
X0060696Y0045435D01*
X0070696Y0035435D01*
X0071985Y0034146D01*
X0100696Y0034146D01*
X0100696Y0030435D01*
X0104215Y0026916D01*
X0104215Y0025614D01*
X0104775Y0024261D01*
X0105811Y0023226D01*
X0107164Y0022665D01*
X0108628Y0022665D01*
X0109981Y0023226D01*
X0111017Y0024261D01*
X0111577Y0025614D01*
X0111577Y0027079D01*
X0111017Y0028432D01*
X0109981Y0029467D01*
X0108628Y0030028D01*
X0107326Y0030028D01*
X0105096Y0032258D01*
X0105096Y0037258D01*
X0103807Y0038546D01*
X0073807Y0038546D01*
X0065096Y0047258D01*
X0065096Y0048341D01*
X0066017Y0049261D01*
X0066577Y0050614D01*
X0066577Y0052079D01*
X0066017Y0053432D01*
X0064981Y0054467D01*
X0063628Y0055028D01*
X0062164Y0055028D01*
X0060811Y0054467D01*
X0060096Y0053752D01*
X0060096Y0058341D01*
X0061017Y0059261D01*
X0061577Y0060614D01*
X0061577Y0062079D01*
X0061017Y0063432D01*
X0059981Y0064467D01*
X0058628Y0065028D01*
X0057164Y0065028D01*
X0055811Y0064467D01*
X0055096Y0063752D01*
X0055096Y0065101D01*
X0078505Y0079146D01*
X0078807Y0079146D01*
X0079260Y0079599D01*
X0079809Y0079929D01*
X0079883Y0080222D01*
X0080096Y0080435D01*
X0080096Y0081076D01*
X0080251Y0081697D01*
X0080096Y0081956D01*
X0080096Y0098341D01*
X0081017Y0099261D01*
X0081267Y0099865D01*
X0080971Y0099215D02*
X0081916Y0099215D01*
X0082914Y0098217D02*
X0080096Y0098217D01*
X0080096Y0097218D02*
X0083913Y0097218D01*
X0084911Y0096220D02*
X0080096Y0096220D01*
X0080096Y0095221D02*
X0085910Y0095221D01*
X0086908Y0094223D02*
X0080096Y0094223D01*
X0080096Y0093224D02*
X0087907Y0093224D01*
X0088905Y0092226D02*
X0080096Y0092226D01*
X0080096Y0091227D02*
X0089904Y0091227D01*
X0090902Y0090229D02*
X0080096Y0090229D01*
X0080096Y0089230D02*
X0091901Y0089230D01*
X0092899Y0088232D02*
X0080096Y0088232D01*
X0080096Y0087233D02*
X0093898Y0087233D01*
X0094896Y0086235D02*
X0080096Y0086235D01*
X0080096Y0085236D02*
X0095895Y0085236D01*
X0096893Y0084238D02*
X0080096Y0084238D01*
X0080096Y0083239D02*
X0097892Y0083239D01*
X0098890Y0082241D02*
X0080096Y0082241D01*
X0080138Y0081242D02*
X0099889Y0081242D01*
X0100888Y0080244D02*
X0079905Y0080244D01*
X0078906Y0079245D02*
X0101886Y0079245D01*
X0102885Y0078247D02*
X0077006Y0078247D01*
X0075342Y0077248D02*
X0103883Y0077248D01*
X0104688Y0076250D02*
X0073677Y0076250D01*
X0072013Y0075251D02*
X0103690Y0075251D01*
X0102896Y0076346D02*
X0097896Y0071346D01*
X0087896Y0071346D01*
X0072896Y0056346D01*
X0072896Y0046346D01*
X0077896Y0041346D01*
X0097896Y0041346D01*
X0107896Y0051346D01*
X0107596Y0051287D02*
X0085596Y0051287D01*
X0085777Y0051106D02*
X0084781Y0052102D01*
X0077861Y0052102D01*
X0076865Y0051106D01*
X0076865Y0042611D01*
X0077861Y0041615D01*
X0084781Y0041615D01*
X0085777Y0042611D01*
X0085777Y0051106D01*
X0085777Y0050288D02*
X0103796Y0050288D01*
X0103796Y0049648D02*
X0106198Y0047246D01*
X0107596Y0047246D01*
X0107596Y0051046D01*
X0103796Y0051046D01*
X0103796Y0049648D01*
X0104154Y0049290D02*
X0085777Y0049290D01*
X0085777Y0048291D02*
X0105153Y0048291D01*
X0106151Y0047293D02*
X0085777Y0047293D01*
X0085777Y0046294D02*
X0110696Y0046294D01*
X0110696Y0045296D02*
X0085777Y0045296D01*
X0085777Y0044297D02*
X0110696Y0044297D01*
X0110696Y0043299D02*
X0085777Y0043299D01*
X0085467Y0042300D02*
X0110696Y0042300D01*
X0110696Y0041302D02*
X0071052Y0041302D01*
X0070053Y0042300D02*
X0077176Y0042300D01*
X0076865Y0043299D02*
X0069055Y0043299D01*
X0068056Y0044297D02*
X0076865Y0044297D01*
X0076865Y0045296D02*
X0067058Y0045296D01*
X0066059Y0046294D02*
X0076865Y0046294D01*
X0076865Y0047293D02*
X0065096Y0047293D01*
X0065096Y0048291D02*
X0076865Y0048291D01*
X0076865Y0049290D02*
X0066029Y0049290D01*
X0066442Y0050288D02*
X0076865Y0050288D01*
X0077047Y0051287D02*
X0066577Y0051287D01*
X0066492Y0052285D02*
X0098376Y0052285D01*
X0098615Y0052046D02*
X0102177Y0052046D01*
X0104696Y0054565D01*
X0104696Y0058128D01*
X0102177Y0060646D01*
X0098615Y0060646D01*
X0096096Y0058128D01*
X0096096Y0054565D01*
X0098615Y0052046D01*
X0097377Y0053284D02*
X0080039Y0053284D01*
X0081026Y0054282D02*
X0096379Y0054282D01*
X0096096Y0055281D02*
X0081439Y0055281D01*
X0081577Y0056279D02*
X0096096Y0056279D01*
X0096096Y0057278D02*
X0081939Y0057278D01*
X0082937Y0058276D02*
X0096245Y0058276D01*
X0097244Y0059275D02*
X0083936Y0059275D01*
X0084934Y0060274D02*
X0098242Y0060274D01*
X0102550Y0060274D02*
X0103596Y0060274D01*
X0103596Y0061272D02*
X0085933Y0061272D01*
X0086931Y0062271D02*
X0103596Y0062271D01*
X0102862Y0063269D02*
X0087930Y0063269D01*
X0087896Y0066346D02*
X0102896Y0066346D01*
X0107896Y0061346D01*
X0104885Y0058276D02*
X0104547Y0058276D01*
X0104696Y0057278D02*
X0105883Y0057278D01*
X0104696Y0056279D02*
X0110696Y0056279D01*
X0110696Y0055281D02*
X0109760Y0055281D01*
X0108196Y0055281D02*
X0107596Y0055281D01*
X0107596Y0054282D02*
X0108196Y0054282D01*
X0108196Y0053284D02*
X0107596Y0053284D01*
X0107596Y0052285D02*
X0108196Y0052285D01*
X0108196Y0050288D02*
X0107596Y0050288D01*
X0107596Y0049290D02*
X0108196Y0049290D01*
X0108196Y0048291D02*
X0107596Y0048291D01*
X0107596Y0047293D02*
X0108196Y0047293D01*
X0109641Y0047293D02*
X0110696Y0047293D01*
X0110696Y0048291D02*
X0110639Y0048291D01*
X0103796Y0052285D02*
X0102416Y0052285D01*
X0103415Y0053284D02*
X0104035Y0053284D01*
X0104413Y0054282D02*
X0105034Y0054282D01*
X0104696Y0055281D02*
X0106032Y0055281D01*
X0109909Y0057278D02*
X0110696Y0057278D01*
X0103886Y0059275D02*
X0103549Y0059275D01*
X0099777Y0069260D02*
X0062028Y0069260D01*
X0060364Y0068262D02*
X0086700Y0068262D01*
X0085701Y0067263D02*
X0058700Y0067263D01*
X0057036Y0066265D02*
X0084703Y0066265D01*
X0083704Y0065266D02*
X0055371Y0065266D01*
X0055611Y0064268D02*
X0055096Y0064268D01*
X0057896Y0061346D02*
X0057896Y0041346D01*
X0077896Y0016346D01*
X0142896Y0016346D01*
X0157896Y0031346D01*
X0154215Y0031317D02*
X0106037Y0031317D01*
X0105096Y0032315D02*
X0154313Y0032315D01*
X0154727Y0033314D02*
X0115069Y0033314D01*
X0116038Y0034312D02*
X0155656Y0034312D01*
X0158823Y0037308D02*
X0116482Y0037308D01*
X0116577Y0036309D02*
X0159822Y0036309D01*
X0160696Y0035311D02*
X0116451Y0035311D01*
X0112896Y0036346D02*
X0112896Y0076346D01*
X0052896Y0136346D01*
X0049215Y0136160D02*
X0035096Y0136160D01*
X0035096Y0135162D02*
X0049402Y0135162D01*
X0049873Y0134163D02*
X0035096Y0134163D01*
X0035096Y0133165D02*
X0050958Y0133165D01*
X0053965Y0132166D02*
X0035096Y0132166D01*
X0035096Y0131168D02*
X0054963Y0131168D01*
X0055962Y0130169D02*
X0035096Y0130169D01*
X0035096Y0129171D02*
X0056960Y0129171D01*
X0057959Y0128172D02*
X0035096Y0128172D01*
X0035096Y0127174D02*
X0058957Y0127174D01*
X0059956Y0126175D02*
X0035096Y0126175D01*
X0035096Y0125177D02*
X0060954Y0125177D01*
X0061953Y0124178D02*
X0055270Y0124178D01*
X0052896Y0121346D02*
X0062896Y0121346D01*
X0107896Y0076346D01*
X0102896Y0071346D01*
X0099215Y0071257D02*
X0065357Y0071257D01*
X0067021Y0072256D02*
X0099288Y0072256D01*
X0099702Y0073254D02*
X0068685Y0073254D01*
X0070349Y0074253D02*
X0100596Y0074253D01*
X0099362Y0070259D02*
X0063692Y0070259D01*
X0060133Y0073254D02*
X0057915Y0073254D01*
X0058469Y0072256D02*
X0056917Y0072256D01*
X0056805Y0071257D02*
X0055918Y0071257D01*
X0055140Y0070259D02*
X0054919Y0070259D01*
X0051692Y0073254D02*
X0030733Y0073254D01*
X0030853Y0072256D02*
X0050694Y0072256D01*
X0049695Y0071257D02*
X0030853Y0071257D01*
X0030853Y0069260D02*
X0047698Y0069260D01*
X0046700Y0068262D02*
X0030853Y0068262D01*
X0030853Y0067263D02*
X0045701Y0067263D01*
X0045696Y0066265D02*
X0030583Y0066265D01*
X0026113Y0066265D02*
X0025113Y0066265D01*
X0025113Y0067263D02*
X0026113Y0067263D01*
X0026113Y0068262D02*
X0025113Y0068262D01*
X0025113Y0069260D02*
X0026113Y0069260D01*
X0025613Y0069890D02*
X0022896Y0071346D01*
X0022896Y0026346D01*
X0022896Y0021346D01*
X0027896Y0016346D01*
X0052896Y0016346D01*
X0057896Y0031346D01*
X0055096Y0031317D02*
X0063103Y0031317D01*
X0063901Y0030318D02*
X0054979Y0030318D01*
X0053981Y0029320D02*
X0064700Y0029320D01*
X0065499Y0028321D02*
X0052982Y0028321D01*
X0051984Y0027323D02*
X0066298Y0027323D01*
X0067097Y0026324D02*
X0050985Y0026324D01*
X0049986Y0025326D02*
X0067895Y0025326D01*
X0068694Y0024327D02*
X0048988Y0024327D01*
X0047896Y0026346D02*
X0042896Y0026346D01*
X0040770Y0025559D01*
X0036117Y0025326D02*
X0022396Y0025326D01*
X0022396Y0024327D02*
X0036117Y0024327D01*
X0036117Y0023329D02*
X0022396Y0023329D01*
X0022396Y0022330D02*
X0025448Y0022330D01*
X0024379Y0021332D02*
X0022396Y0021332D01*
X0022396Y0020333D02*
X0024309Y0020333D01*
X0024309Y0019335D02*
X0022396Y0019335D01*
X0022396Y0018336D02*
X0029050Y0018336D01*
X0029550Y0018118D02*
X0027896Y0016346D01*
X0029550Y0018118D02*
X0032896Y0016346D01*
X0034790Y0016339D02*
X0075085Y0016339D01*
X0074286Y0017338D02*
X0034790Y0017338D01*
X0034790Y0019335D02*
X0036117Y0019335D01*
X0036117Y0020333D02*
X0034790Y0020333D01*
X0034720Y0021332D02*
X0036117Y0021332D01*
X0036117Y0022330D02*
X0033651Y0022330D01*
X0030050Y0022330D02*
X0029050Y0022330D01*
X0029050Y0021332D02*
X0030050Y0021332D01*
X0030050Y0020333D02*
X0029050Y0020333D01*
X0029050Y0019335D02*
X0030050Y0019335D01*
X0030050Y0018336D02*
X0036731Y0018336D01*
X0044809Y0018336D02*
X0073487Y0018336D01*
X0072688Y0019335D02*
X0045423Y0019335D01*
X0045423Y0020333D02*
X0071889Y0020333D01*
X0071091Y0021332D02*
X0045423Y0021332D01*
X0045423Y0022330D02*
X0070292Y0022330D01*
X0069493Y0023329D02*
X0045423Y0023329D01*
X0047896Y0026346D02*
X0052896Y0031346D01*
X0052896Y0036346D01*
X0055144Y0039305D02*
X0056712Y0039305D01*
X0056069Y0038306D02*
X0057511Y0038306D01*
X0058310Y0037308D02*
X0056482Y0037308D01*
X0056577Y0036309D02*
X0059108Y0036309D01*
X0059907Y0035311D02*
X0056451Y0035311D01*
X0056038Y0034312D02*
X0060706Y0034312D01*
X0061505Y0033314D02*
X0055096Y0033314D01*
X0055096Y0032315D02*
X0062304Y0032315D01*
X0065542Y0035311D02*
X0070821Y0035311D01*
X0071819Y0034312D02*
X0066341Y0034312D01*
X0067140Y0033314D02*
X0100696Y0033314D01*
X0100696Y0032315D02*
X0067938Y0032315D01*
X0068737Y0031317D02*
X0100696Y0031317D01*
X0100813Y0030318D02*
X0069536Y0030318D01*
X0070335Y0029320D02*
X0077520Y0029320D01*
X0076865Y0028321D02*
X0071134Y0028321D01*
X0071932Y0027323D02*
X0076865Y0027323D01*
X0076865Y0026324D02*
X0072731Y0026324D01*
X0073530Y0025326D02*
X0076865Y0025326D01*
X0076865Y0024327D02*
X0074329Y0024327D01*
X0075128Y0023329D02*
X0076865Y0023329D01*
X0076865Y0022330D02*
X0075927Y0022330D01*
X0076725Y0021332D02*
X0076865Y0021332D01*
X0084942Y0019335D02*
X0142773Y0019335D01*
X0143771Y0020333D02*
X0085777Y0020333D01*
X0085777Y0021332D02*
X0144770Y0021332D01*
X0145768Y0022330D02*
X0085777Y0022330D01*
X0085777Y0023329D02*
X0105708Y0023329D01*
X0104748Y0024327D02*
X0085777Y0024327D01*
X0085777Y0025326D02*
X0104334Y0025326D01*
X0104215Y0026324D02*
X0085777Y0026324D01*
X0085777Y0027323D02*
X0103809Y0027323D01*
X0102810Y0028321D02*
X0085777Y0028321D01*
X0085122Y0029320D02*
X0101812Y0029320D01*
X0102896Y0031346D02*
X0107896Y0026346D01*
X0111577Y0026324D02*
X0149762Y0026324D01*
X0148764Y0025326D02*
X0111458Y0025326D01*
X0111044Y0024327D02*
X0147765Y0024327D01*
X0146767Y0023329D02*
X0110084Y0023329D01*
X0111476Y0027323D02*
X0150761Y0027323D01*
X0151759Y0028321D02*
X0111063Y0028321D01*
X0110129Y0029320D02*
X0152758Y0029320D01*
X0153757Y0030318D02*
X0107036Y0030318D01*
X0105096Y0033314D02*
X0110723Y0033314D01*
X0109754Y0034312D02*
X0105096Y0034312D01*
X0105096Y0035311D02*
X0109341Y0035311D01*
X0109215Y0036309D02*
X0105096Y0036309D01*
X0105046Y0037308D02*
X0109310Y0037308D01*
X0109723Y0038306D02*
X0104048Y0038306D01*
X0102896Y0036346D02*
X0102896Y0031346D01*
X0102896Y0036346D02*
X0072896Y0036346D01*
X0062896Y0046346D01*
X0062896Y0051346D01*
X0060626Y0054282D02*
X0060096Y0054282D01*
X0060096Y0055281D02*
X0074353Y0055281D01*
X0074215Y0056279D02*
X0060096Y0056279D01*
X0060096Y0057278D02*
X0074298Y0057278D01*
X0074711Y0058276D02*
X0060096Y0058276D01*
X0061022Y0059275D02*
X0075619Y0059275D01*
X0078712Y0060274D02*
X0061436Y0060274D01*
X0061577Y0061272D02*
X0079710Y0061272D01*
X0080709Y0062271D02*
X0061498Y0062271D01*
X0061084Y0063269D02*
X0081707Y0063269D01*
X0082706Y0064268D02*
X0060181Y0064268D01*
X0055696Y0058276D02*
X0055096Y0058276D01*
X0055096Y0057278D02*
X0055696Y0057278D01*
X0055696Y0056279D02*
X0055096Y0056279D01*
X0055096Y0055281D02*
X0055696Y0055281D01*
X0055696Y0054282D02*
X0055096Y0054282D01*
X0055096Y0053284D02*
X0055696Y0053284D01*
X0055696Y0052285D02*
X0055096Y0052285D01*
X0055096Y0051287D02*
X0055696Y0051287D01*
X0055696Y0050288D02*
X0055096Y0050288D01*
X0055096Y0049290D02*
X0055696Y0049290D01*
X0055696Y0048291D02*
X0055096Y0048291D01*
X0055096Y0047293D02*
X0055696Y0047293D01*
X0055696Y0046294D02*
X0055096Y0046294D01*
X0055096Y0045296D02*
X0055696Y0045296D01*
X0055696Y0044297D02*
X0055096Y0044297D01*
X0055096Y0043299D02*
X0055696Y0043299D01*
X0055696Y0042300D02*
X0055096Y0042300D01*
X0055096Y0041302D02*
X0055678Y0041302D01*
X0055828Y0040303D02*
X0054964Y0040303D01*
X0060096Y0042300D02*
X0063831Y0042300D01*
X0064829Y0041302D02*
X0060749Y0041302D01*
X0061548Y0040303D02*
X0065828Y0040303D01*
X0066826Y0039305D02*
X0062347Y0039305D01*
X0063146Y0038306D02*
X0067825Y0038306D01*
X0068823Y0037308D02*
X0063944Y0037308D01*
X0064743Y0036309D02*
X0069822Y0036309D01*
X0073049Y0039305D02*
X0110649Y0039305D01*
X0110696Y0040303D02*
X0072050Y0040303D01*
X0062832Y0043299D02*
X0060096Y0043299D01*
X0060096Y0044297D02*
X0061834Y0044297D01*
X0060835Y0045296D02*
X0060096Y0045296D01*
X0060096Y0046294D02*
X0060696Y0046294D01*
X0060696Y0047293D02*
X0060096Y0047293D01*
X0060096Y0048291D02*
X0060696Y0048291D01*
X0066078Y0053284D02*
X0075753Y0053284D01*
X0074767Y0054282D02*
X0065166Y0054282D01*
X0077896Y0056346D02*
X0087896Y0066346D01*
X0070118Y0079245D02*
X0063906Y0079245D01*
X0062908Y0078247D02*
X0068454Y0078247D01*
X0066790Y0077248D02*
X0061909Y0077248D01*
X0060911Y0076250D02*
X0065125Y0076250D01*
X0063461Y0075251D02*
X0059912Y0075251D01*
X0058914Y0074253D02*
X0061797Y0074253D01*
X0057684Y0079245D02*
X0022396Y0079245D01*
X0022396Y0078247D02*
X0056685Y0078247D01*
X0055687Y0077248D02*
X0022396Y0077248D01*
X0022396Y0076250D02*
X0054688Y0076250D01*
X0053690Y0075251D02*
X0022396Y0075251D01*
X0022396Y0074253D02*
X0052691Y0074253D01*
X0048697Y0070259D02*
X0026113Y0070259D01*
X0026113Y0071257D02*
X0025113Y0071257D01*
X0025113Y0072256D02*
X0026113Y0072256D01*
X0026113Y0073254D02*
X0025113Y0073254D01*
X0022396Y0080244D02*
X0058682Y0080244D01*
X0059681Y0081242D02*
X0022396Y0081242D01*
X0022396Y0082241D02*
X0060679Y0082241D01*
X0061678Y0083239D02*
X0022396Y0083239D01*
X0022396Y0084238D02*
X0062676Y0084238D01*
X0063675Y0085236D02*
X0022396Y0085236D01*
X0022396Y0086235D02*
X0064673Y0086235D01*
X0065672Y0087233D02*
X0022396Y0087233D01*
X0022396Y0088232D02*
X0065696Y0088232D01*
X0065696Y0089230D02*
X0022396Y0089230D01*
X0022396Y0090229D02*
X0065696Y0090229D01*
X0065696Y0091227D02*
X0022396Y0091227D01*
X0022396Y0092226D02*
X0065696Y0092226D01*
X0065696Y0093224D02*
X0022396Y0093224D01*
X0022396Y0094223D02*
X0065696Y0094223D01*
X0065696Y0095221D02*
X0022396Y0095221D01*
X0022396Y0096220D02*
X0065696Y0096220D01*
X0065696Y0097218D02*
X0022396Y0097218D01*
X0022396Y0098217D02*
X0025832Y0098217D01*
X0024821Y0099215D02*
X0022396Y0099215D01*
X0022396Y0100214D02*
X0024381Y0100214D01*
X0024215Y0101212D02*
X0022396Y0101212D01*
X0022396Y0102211D02*
X0024270Y0102211D01*
X0024683Y0103209D02*
X0022396Y0103209D01*
X0022396Y0104208D02*
X0024829Y0104208D01*
X0024384Y0105207D02*
X0022396Y0105207D01*
X0022396Y0106205D02*
X0024215Y0106205D01*
X0024267Y0107204D02*
X0022396Y0107204D01*
X0022396Y0108202D02*
X0024680Y0108202D01*
X0025544Y0109201D02*
X0022396Y0109201D01*
X0022396Y0110199D02*
X0025696Y0110199D01*
X0025696Y0111198D02*
X0022396Y0111198D01*
X0022396Y0112196D02*
X0025696Y0112196D01*
X0025696Y0113195D02*
X0022396Y0113195D01*
X0022396Y0114193D02*
X0025696Y0114193D01*
X0025696Y0115192D02*
X0022396Y0115192D01*
X0022396Y0116190D02*
X0025696Y0116190D01*
X0025696Y0117189D02*
X0022396Y0117189D01*
X0022396Y0118187D02*
X0025696Y0118187D01*
X0025696Y0119186D02*
X0022396Y0119186D01*
X0022396Y0120184D02*
X0025696Y0120184D01*
X0025696Y0121183D02*
X0022396Y0121183D01*
X0022396Y0122181D02*
X0025696Y0122181D01*
X0025696Y0123180D02*
X0022396Y0123180D01*
X0022396Y0124178D02*
X0025696Y0124178D01*
X0025696Y0125177D02*
X0022396Y0125177D01*
X0022396Y0126175D02*
X0025696Y0126175D01*
X0025696Y0127174D02*
X0022396Y0127174D01*
X0022396Y0128172D02*
X0025696Y0128172D01*
X0025696Y0129171D02*
X0022396Y0129171D01*
X0022396Y0130169D02*
X0025696Y0130169D01*
X0025696Y0131168D02*
X0022396Y0131168D01*
X0022396Y0132166D02*
X0025696Y0132166D01*
X0025696Y0133165D02*
X0022396Y0133165D01*
X0022396Y0134163D02*
X0025696Y0134163D01*
X0025696Y0135162D02*
X0022396Y0135162D01*
X0022396Y0136160D02*
X0025696Y0136160D01*
X0025696Y0137159D02*
X0022396Y0137159D01*
X0022396Y0138157D02*
X0025696Y0138157D01*
X0025696Y0139156D02*
X0022396Y0139156D01*
X0022396Y0140154D02*
X0025696Y0140154D01*
X0025696Y0141153D02*
X0022396Y0141153D01*
X0022396Y0142151D02*
X0025696Y0142151D01*
X0026588Y0143150D02*
X0022396Y0143150D01*
X0022396Y0144148D02*
X0027587Y0144148D01*
X0028585Y0145147D02*
X0022396Y0145147D01*
X0022396Y0146145D02*
X0029584Y0146145D01*
X0030582Y0147144D02*
X0022396Y0147144D01*
X0022396Y0148143D02*
X0030696Y0148143D01*
X0030696Y0149141D02*
X0022396Y0149141D01*
X0022396Y0150140D02*
X0030696Y0150140D01*
X0030696Y0151138D02*
X0022396Y0151138D01*
X0022396Y0152137D02*
X0030696Y0152137D01*
X0030696Y0153135D02*
X0022396Y0153135D01*
X0022396Y0154134D02*
X0030696Y0154134D01*
X0030696Y0155132D02*
X0022396Y0155132D01*
X0022396Y0156131D02*
X0030696Y0156131D01*
X0030696Y0157129D02*
X0022396Y0157129D01*
X0022396Y0158128D02*
X0030696Y0158128D01*
X0030696Y0159126D02*
X0022396Y0159126D01*
X0022396Y0160125D02*
X0030696Y0160125D01*
X0030696Y0161123D02*
X0022396Y0161123D01*
X0022396Y0162122D02*
X0030696Y0162122D01*
X0030696Y0163120D02*
X0022396Y0163120D01*
X0022396Y0164119D02*
X0030696Y0164119D01*
X0030696Y0165117D02*
X0022396Y0165117D01*
X0022396Y0166116D02*
X0030696Y0166116D01*
X0030696Y0167114D02*
X0022396Y0167114D01*
X0022396Y0168113D02*
X0030696Y0168113D01*
X0030696Y0169111D02*
X0022396Y0169111D01*
X0022396Y0170110D02*
X0030696Y0170110D01*
X0030696Y0171108D02*
X0022396Y0171108D01*
X0022396Y0172107D02*
X0030696Y0172107D01*
X0030696Y0173105D02*
X0022396Y0173105D01*
X0022396Y0174104D02*
X0030696Y0174104D01*
X0030696Y0175102D02*
X0022396Y0175102D01*
X0022396Y0176101D02*
X0030696Y0176101D01*
X0030696Y0177099D02*
X0022396Y0177099D01*
X0022896Y0176346D02*
X0027896Y0181346D01*
X0027896Y0201346D01*
X0032896Y0206346D01*
X0036499Y0203061D02*
X0022396Y0203061D01*
X0022396Y0204059D02*
X0037497Y0204059D01*
X0038496Y0205058D02*
X0022396Y0205058D01*
X0022396Y0206056D02*
X0039495Y0206056D01*
X0040493Y0207055D02*
X0022396Y0207055D01*
X0022396Y0208053D02*
X0041290Y0208053D01*
X0042896Y0206346D02*
X0057896Y0211346D01*
X0062896Y0211346D01*
X0066177Y0213046D02*
X0066484Y0213046D01*
X0067483Y0214044D02*
X0065404Y0214044D01*
X0068481Y0215043D02*
X0022396Y0215043D01*
X0022396Y0216041D02*
X0069480Y0216041D01*
X0072896Y0216346D02*
X0142896Y0216346D01*
X0152896Y0201346D01*
X0167896Y0186346D01*
X0167896Y0166346D01*
X0192896Y0141346D01*
X0212896Y0141346D01*
X0272896Y0081346D01*
X0274378Y0077976D02*
X0274981Y0078226D01*
X0276017Y0079261D01*
X0276577Y0080614D01*
X0276577Y0082079D01*
X0276017Y0083432D01*
X0274981Y0084467D01*
X0273628Y0085028D01*
X0272326Y0085028D01*
X0248207Y0109146D01*
X0248807Y0109146D01*
X0252695Y0113034D01*
X0252695Y0112894D01*
X0264538Y0112894D01*
X0264538Y0115878D01*
X0255539Y0115878D01*
X0256276Y0116615D01*
X0276553Y0116615D01*
X0277549Y0117611D01*
X0277549Y0122956D01*
X0276553Y0123952D01*
X0253491Y0123952D01*
X0252495Y0122956D01*
X0252495Y0119057D01*
X0247896Y0114458D01*
X0236007Y0126346D01*
X0266354Y0126346D01*
X0266354Y0125879D01*
X0267349Y0124883D01*
X0280569Y0124883D01*
X0281565Y0125879D01*
X0281565Y0126346D01*
X0287097Y0126346D01*
X0287097Y0015846D01*
X0192076Y0015846D01*
X0192076Y0021834D01*
X0191081Y0022830D01*
X0185777Y0022830D01*
X0185777Y0030102D01*
X0184781Y0031098D01*
X0181159Y0031098D01*
X0181159Y0031498D01*
X0183807Y0034146D01*
X0189890Y0034146D01*
X0190811Y0033226D01*
X0192164Y0032665D01*
X0193628Y0032665D01*
X0194981Y0033226D01*
X0196017Y0034261D01*
X0196577Y0035614D01*
X0196577Y0037079D01*
X0196162Y0038080D01*
X0197164Y0037665D01*
X0198628Y0037665D01*
X0199981Y0038226D01*
X0201017Y0039261D01*
X0201577Y0040614D01*
X0201577Y0042079D01*
X0201017Y0043432D01*
X0199981Y0044467D01*
X0198628Y0045028D01*
X0198515Y0045028D01*
X0195096Y0051866D01*
X0195096Y0052258D01*
X0194704Y0052650D01*
X0194456Y0053145D01*
X0194084Y0053269D01*
X0193807Y0053546D01*
X0193253Y0053546D01*
X0192727Y0053722D01*
X0192377Y0053546D01*
X0190302Y0053546D01*
X0190902Y0054146D01*
X0215490Y0054146D01*
X0214775Y0053432D01*
X0214215Y0052079D01*
X0214215Y0050614D01*
X0214775Y0049261D01*
X0215811Y0048226D01*
X0217164Y0047665D01*
X0218628Y0047665D01*
X0219981Y0048226D01*
X0221017Y0049261D01*
X0221577Y0050614D01*
X0221577Y0052079D01*
X0221017Y0053432D01*
X0219981Y0054467D01*
X0219378Y0054717D01*
X0220096Y0055435D01*
X0220096Y0060435D01*
X0223807Y0064146D01*
X0226985Y0064146D01*
X0230696Y0060435D01*
X0231985Y0059146D01*
X0277585Y0059146D01*
X0276985Y0058546D01*
X0241985Y0058546D01*
X0240696Y0057258D01*
X0235814Y0052376D01*
X0235814Y0036629D01*
X0228845Y0036629D01*
X0228645Y0036429D01*
X0227778Y0036429D01*
X0227778Y0035711D01*
X0227778Y0035711D01*
X0227778Y0036429D01*
X0226793Y0036429D01*
X0226412Y0036327D01*
X0226159Y0036181D01*
X0224188Y0036181D01*
X0221919Y0035241D01*
X0220182Y0033505D01*
X0219243Y0031236D01*
X0219243Y0028780D01*
X0220182Y0026511D01*
X0220694Y0025999D01*
X0214141Y0025999D01*
X0213145Y0025003D01*
X0213145Y0017690D01*
X0214141Y0016694D01*
X0222636Y0016694D01*
X0223631Y0017690D01*
X0223631Y0024065D01*
X0224188Y0023835D01*
X0226275Y0023835D01*
X0226275Y0017690D01*
X0227271Y0016694D01*
X0238521Y0016694D01*
X0239517Y0017690D01*
X0239517Y0023835D01*
X0241604Y0023835D01*
X0242161Y0024065D01*
X0242161Y0017690D01*
X0243156Y0016694D01*
X0251651Y0016694D01*
X0252647Y0017690D01*
X0252647Y0025003D01*
X0251651Y0025999D01*
X0245098Y0025999D01*
X0245610Y0026511D01*
X0246550Y0028780D01*
X0246550Y0031236D01*
X0245610Y0033505D01*
X0243873Y0035241D01*
X0241604Y0036181D01*
X0240214Y0036181D01*
X0240214Y0050553D01*
X0243807Y0054146D01*
X0278807Y0054146D01*
X0282326Y0057665D01*
X0283628Y0057665D01*
X0284981Y0058226D01*
X0286017Y0059261D01*
X0286577Y0060614D01*
X0286577Y0062079D01*
X0286017Y0063432D01*
X0284981Y0064467D01*
X0284378Y0064717D01*
X0285096Y0065435D01*
X0285096Y0087258D01*
X0281577Y0090777D01*
X0281577Y0092079D01*
X0281017Y0093432D01*
X0279981Y0094467D01*
X0278628Y0095028D01*
X0277164Y0095028D01*
X0275811Y0094467D01*
X0274775Y0093432D01*
X0274215Y0092079D01*
X0274215Y0090614D01*
X0274775Y0089261D01*
X0275811Y0088226D01*
X0277164Y0087665D01*
X0278466Y0087665D01*
X0280696Y0085435D01*
X0280696Y0077193D01*
X0280558Y0077331D01*
X0278831Y0078046D01*
X0276961Y0078046D01*
X0275234Y0077331D01*
X0275128Y0077225D01*
X0274378Y0077976D01*
X0275002Y0078247D02*
X0280696Y0078247D01*
X0280696Y0079245D02*
X0276001Y0079245D01*
X0276424Y0080244D02*
X0280696Y0080244D01*
X0280696Y0081242D02*
X0276577Y0081242D01*
X0276510Y0082241D02*
X0280696Y0082241D01*
X0280696Y0083239D02*
X0276096Y0083239D01*
X0275211Y0084238D02*
X0280696Y0084238D01*
X0280696Y0085236D02*
X0272117Y0085236D01*
X0272896Y0086346D02*
X0252896Y0106346D01*
X0257896Y0111346D01*
X0262896Y0111346D01*
X0265022Y0112409D01*
X0264538Y0112196D02*
X0251857Y0112196D01*
X0252695Y0111925D02*
X0252695Y0110243D01*
X0252798Y0109862D01*
X0252995Y0109520D01*
X0253274Y0109241D01*
X0253616Y0109043D01*
X0253998Y0108941D01*
X0264538Y0108941D01*
X0264538Y0111925D01*
X0265506Y0111925D01*
X0265506Y0108941D01*
X0276046Y0108941D01*
X0276428Y0109043D01*
X0276770Y0109241D01*
X0277049Y0109520D01*
X0277247Y0109862D01*
X0277349Y0110243D01*
X0277349Y0111925D01*
X0265506Y0111925D01*
X0265506Y0112894D01*
X0264538Y0112894D01*
X0264538Y0111925D01*
X0252695Y0111925D01*
X0252695Y0111198D02*
X0250858Y0111198D01*
X0249860Y0110199D02*
X0252707Y0110199D01*
X0253344Y0109201D02*
X0248861Y0109201D01*
X0249152Y0108202D02*
X0287097Y0108202D01*
X0287097Y0107204D02*
X0281175Y0107204D01*
X0281565Y0106814D02*
X0280569Y0107810D01*
X0267349Y0107810D01*
X0266354Y0106814D01*
X0266354Y0099107D01*
X0267349Y0098111D01*
X0280569Y0098111D01*
X0281565Y0099107D01*
X0281565Y0106814D01*
X0281565Y0106205D02*
X0287097Y0106205D01*
X0287097Y0105207D02*
X0281565Y0105207D01*
X0281565Y0104208D02*
X0287097Y0104208D01*
X0287097Y0103209D02*
X0281565Y0103209D01*
X0281565Y0102211D02*
X0287097Y0102211D01*
X0287097Y0101212D02*
X0281565Y0101212D01*
X0281565Y0100214D02*
X0287097Y0100214D01*
X0287097Y0099215D02*
X0281565Y0099215D01*
X0280675Y0098217D02*
X0287097Y0098217D01*
X0287097Y0097218D02*
X0260135Y0097218D01*
X0261134Y0096220D02*
X0287097Y0096220D01*
X0287097Y0095221D02*
X0262132Y0095221D01*
X0263131Y0094223D02*
X0275567Y0094223D01*
X0274690Y0093224D02*
X0264129Y0093224D01*
X0265128Y0092226D02*
X0274276Y0092226D01*
X0274215Y0091227D02*
X0266126Y0091227D01*
X0267125Y0090229D02*
X0274375Y0090229D01*
X0274806Y0089230D02*
X0268123Y0089230D01*
X0269122Y0088232D02*
X0275805Y0088232D01*
X0278898Y0087233D02*
X0270120Y0087233D01*
X0271119Y0086235D02*
X0279896Y0086235D01*
X0282896Y0086346D02*
X0277896Y0091346D01*
X0281577Y0091227D02*
X0287097Y0091227D01*
X0287097Y0090229D02*
X0282125Y0090229D01*
X0283123Y0089230D02*
X0287097Y0089230D01*
X0287097Y0088232D02*
X0284122Y0088232D01*
X0285096Y0087233D02*
X0287097Y0087233D01*
X0287097Y0086235D02*
X0285096Y0086235D01*
X0285096Y0085236D02*
X0287097Y0085236D01*
X0287097Y0084238D02*
X0285096Y0084238D01*
X0285096Y0083239D02*
X0287097Y0083239D01*
X0287097Y0082241D02*
X0285096Y0082241D01*
X0285096Y0081242D02*
X0287097Y0081242D01*
X0287097Y0080244D02*
X0285096Y0080244D01*
X0285096Y0079245D02*
X0287097Y0079245D01*
X0287097Y0078247D02*
X0285096Y0078247D01*
X0285096Y0077248D02*
X0287097Y0077248D01*
X0287097Y0076250D02*
X0285096Y0076250D01*
X0285096Y0075251D02*
X0287097Y0075251D01*
X0287097Y0074253D02*
X0285096Y0074253D01*
X0285096Y0073254D02*
X0287097Y0073254D01*
X0287097Y0072256D02*
X0285096Y0072256D01*
X0285096Y0071257D02*
X0287097Y0071257D01*
X0287097Y0070259D02*
X0285096Y0070259D01*
X0285096Y0069260D02*
X0287097Y0069260D01*
X0287097Y0068262D02*
X0285096Y0068262D01*
X0285096Y0067263D02*
X0287097Y0067263D01*
X0287097Y0066265D02*
X0285096Y0066265D01*
X0284927Y0065266D02*
X0287097Y0065266D01*
X0287097Y0064268D02*
X0285181Y0064268D01*
X0286084Y0063269D02*
X0287097Y0063269D01*
X0287097Y0062271D02*
X0286498Y0062271D01*
X0286577Y0061272D02*
X0287097Y0061272D01*
X0287097Y0060274D02*
X0286436Y0060274D01*
X0286022Y0059275D02*
X0287097Y0059275D01*
X0287097Y0058276D02*
X0285032Y0058276D01*
X0287097Y0057278D02*
X0281939Y0057278D01*
X0280940Y0056279D02*
X0287097Y0056279D01*
X0287097Y0055281D02*
X0279942Y0055281D01*
X0278943Y0054282D02*
X0287097Y0054282D01*
X0287097Y0053284D02*
X0242945Y0053284D01*
X0241946Y0052285D02*
X0287097Y0052285D01*
X0287097Y0051287D02*
X0240948Y0051287D01*
X0240214Y0050288D02*
X0287097Y0050288D01*
X0287097Y0049290D02*
X0240214Y0049290D01*
X0240214Y0048291D02*
X0287097Y0048291D01*
X0287097Y0047293D02*
X0240214Y0047293D01*
X0240214Y0046294D02*
X0287097Y0046294D01*
X0287097Y0045296D02*
X0240214Y0045296D01*
X0240214Y0044297D02*
X0287097Y0044297D01*
X0287097Y0043299D02*
X0240214Y0043299D01*
X0240214Y0042300D02*
X0287097Y0042300D01*
X0287097Y0041302D02*
X0240214Y0041302D01*
X0240214Y0040303D02*
X0287097Y0040303D01*
X0287097Y0039305D02*
X0240214Y0039305D01*
X0240214Y0038306D02*
X0287097Y0038306D01*
X0287097Y0037308D02*
X0240214Y0037308D01*
X0240214Y0036309D02*
X0287097Y0036309D01*
X0287097Y0035311D02*
X0243706Y0035311D01*
X0244802Y0034312D02*
X0287097Y0034312D01*
X0287097Y0033314D02*
X0245689Y0033314D01*
X0246103Y0032315D02*
X0287097Y0032315D01*
X0287097Y0031317D02*
X0246516Y0031317D01*
X0246550Y0030318D02*
X0287097Y0030318D01*
X0287097Y0029320D02*
X0246550Y0029320D01*
X0246360Y0028321D02*
X0287097Y0028321D01*
X0287097Y0027323D02*
X0245946Y0027323D01*
X0245423Y0026324D02*
X0287097Y0026324D01*
X0287097Y0025326D02*
X0252325Y0025326D01*
X0252647Y0024327D02*
X0287097Y0024327D01*
X0287097Y0023329D02*
X0252647Y0023329D01*
X0252647Y0022330D02*
X0287097Y0022330D01*
X0287097Y0021332D02*
X0252647Y0021332D01*
X0252647Y0020333D02*
X0287097Y0020333D01*
X0287097Y0019335D02*
X0252647Y0019335D01*
X0252647Y0018336D02*
X0287097Y0018336D01*
X0287097Y0017338D02*
X0252295Y0017338D01*
X0242513Y0017338D02*
X0239165Y0017338D01*
X0239517Y0018336D02*
X0242161Y0018336D01*
X0242161Y0019335D02*
X0239517Y0019335D01*
X0239517Y0020333D02*
X0242161Y0020333D01*
X0242161Y0021332D02*
X0239517Y0021332D01*
X0239517Y0022330D02*
X0242161Y0022330D01*
X0242161Y0023329D02*
X0239517Y0023329D01*
X0238014Y0032075D02*
X0238014Y0051465D01*
X0242896Y0056346D01*
X0277896Y0056346D01*
X0282896Y0061346D01*
X0277896Y0061346D02*
X0282896Y0066346D01*
X0282896Y0086346D01*
X0281516Y0092226D02*
X0287097Y0092226D01*
X0287097Y0093224D02*
X0281103Y0093224D01*
X0280225Y0094223D02*
X0287097Y0094223D01*
X0287097Y0109201D02*
X0276700Y0109201D01*
X0277337Y0110199D02*
X0287097Y0110199D01*
X0287097Y0111198D02*
X0277349Y0111198D01*
X0277349Y0112894D02*
X0277349Y0114575D01*
X0277247Y0114957D01*
X0277049Y0115299D01*
X0276770Y0115578D01*
X0276428Y0115776D01*
X0276046Y0115878D01*
X0265506Y0115878D01*
X0265506Y0112894D01*
X0277349Y0112894D01*
X0277349Y0113195D02*
X0287097Y0113195D01*
X0287097Y0114193D02*
X0277349Y0114193D01*
X0277111Y0115192D02*
X0287097Y0115192D01*
X0287097Y0116190D02*
X0255851Y0116190D01*
X0252495Y0119186D02*
X0243168Y0119186D01*
X0242170Y0120184D02*
X0252495Y0120184D01*
X0252495Y0121183D02*
X0241171Y0121183D01*
X0240173Y0122181D02*
X0252495Y0122181D01*
X0252719Y0123180D02*
X0239174Y0123180D01*
X0238176Y0124178D02*
X0287097Y0124178D01*
X0287097Y0123180D02*
X0277325Y0123180D01*
X0277549Y0122181D02*
X0287097Y0122181D01*
X0287097Y0121183D02*
X0277549Y0121183D01*
X0277549Y0120184D02*
X0287097Y0120184D01*
X0287097Y0119186D02*
X0277549Y0119186D01*
X0277549Y0118187D02*
X0287097Y0118187D01*
X0287097Y0117189D02*
X0277127Y0117189D01*
X0287097Y0112196D02*
X0265506Y0112196D01*
X0265506Y0111198D02*
X0264538Y0111198D01*
X0264538Y0110199D02*
X0265506Y0110199D01*
X0265506Y0109201D02*
X0264538Y0109201D01*
X0266743Y0107204D02*
X0250150Y0107204D01*
X0251149Y0106205D02*
X0266354Y0106205D01*
X0266354Y0105207D02*
X0252147Y0105207D01*
X0253146Y0104208D02*
X0266354Y0104208D01*
X0266354Y0103209D02*
X0254144Y0103209D01*
X0255143Y0102211D02*
X0266354Y0102211D01*
X0266354Y0101212D02*
X0256141Y0101212D01*
X0257140Y0100214D02*
X0266354Y0100214D01*
X0266354Y0099215D02*
X0258138Y0099215D01*
X0259137Y0098217D02*
X0267243Y0098217D01*
X0253898Y0087233D02*
X0231894Y0087233D01*
X0230896Y0086235D02*
X0254896Y0086235D01*
X0255895Y0085236D02*
X0229897Y0085236D01*
X0228899Y0084238D02*
X0256893Y0084238D01*
X0257892Y0083239D02*
X0227900Y0083239D01*
X0226902Y0082241D02*
X0258890Y0082241D01*
X0257896Y0081346D02*
X0257896Y0070346D01*
X0257396Y0070259D02*
X0252596Y0070259D01*
X0253396Y0069846D02*
X0253396Y0066992D01*
X0253507Y0066293D01*
X0253726Y0065619D01*
X0254047Y0064988D01*
X0254464Y0064415D01*
X0254965Y0063914D01*
X0255470Y0063546D01*
X0233807Y0063546D01*
X0230096Y0067258D01*
X0228807Y0068546D01*
X0221985Y0068546D01*
X0220696Y0067258D01*
X0215696Y0062258D01*
X0215696Y0058546D01*
X0190902Y0058546D01*
X0189981Y0059467D01*
X0188628Y0060028D01*
X0187164Y0060028D01*
X0185811Y0059467D01*
X0184775Y0058432D01*
X0184215Y0057079D01*
X0184215Y0055614D01*
X0184775Y0054261D01*
X0185490Y0053546D01*
X0158807Y0053546D01*
X0153207Y0059146D01*
X0153807Y0059146D01*
X0158807Y0064146D01*
X0213807Y0064146D01*
X0218807Y0069146D01*
X0243196Y0069146D01*
X0243196Y0067412D01*
X0243912Y0065684D01*
X0245234Y0064362D01*
X0246961Y0063646D01*
X0248831Y0063646D01*
X0250558Y0064362D01*
X0251881Y0065684D01*
X0252596Y0067412D01*
X0252596Y0075281D01*
X0251881Y0077009D01*
X0250558Y0078331D01*
X0248831Y0079046D01*
X0246961Y0079046D01*
X0245234Y0078331D01*
X0243912Y0077009D01*
X0243196Y0075281D01*
X0243196Y0073546D01*
X0218207Y0073546D01*
X0238807Y0094146D01*
X0246985Y0094146D01*
X0264017Y0077114D01*
X0263912Y0077009D01*
X0263196Y0075281D01*
X0263196Y0067412D01*
X0263912Y0065684D01*
X0265234Y0064362D01*
X0266961Y0063646D01*
X0268831Y0063646D01*
X0270558Y0064362D01*
X0271881Y0065684D01*
X0272596Y0067412D01*
X0272596Y0073535D01*
X0273196Y0072935D01*
X0273196Y0066412D01*
X0273912Y0064684D01*
X0275049Y0063546D01*
X0260322Y0063546D01*
X0260828Y0063914D01*
X0261328Y0064415D01*
X0261745Y0064988D01*
X0262066Y0065619D01*
X0262285Y0066293D01*
X0262396Y0066992D01*
X0262396Y0069846D01*
X0258396Y0069846D01*
X0258396Y0070846D01*
X0262396Y0070846D01*
X0262396Y0073701D01*
X0262285Y0074400D01*
X0262066Y0075074D01*
X0261745Y0075705D01*
X0261328Y0076278D01*
X0260828Y0076779D01*
X0260255Y0077195D01*
X0259623Y0077517D01*
X0258950Y0077736D01*
X0258396Y0077823D01*
X0258396Y0070847D01*
X0257396Y0070847D01*
X0257396Y0077823D01*
X0256842Y0077736D01*
X0256169Y0077517D01*
X0255538Y0077195D01*
X0254965Y0076779D01*
X0254464Y0076278D01*
X0254047Y0075705D01*
X0253726Y0075074D01*
X0253507Y0074400D01*
X0253396Y0073701D01*
X0253396Y0070846D01*
X0257396Y0070846D01*
X0257396Y0069846D01*
X0253396Y0069846D01*
X0253396Y0069260D02*
X0252596Y0069260D01*
X0252596Y0068262D02*
X0253396Y0068262D01*
X0253396Y0067263D02*
X0252535Y0067263D01*
X0252121Y0066265D02*
X0253516Y0066265D01*
X0253906Y0065266D02*
X0251462Y0065266D01*
X0250330Y0064268D02*
X0254611Y0064268D01*
X0261181Y0064268D02*
X0265462Y0064268D01*
X0264330Y0065266D02*
X0261887Y0065266D01*
X0262276Y0066265D02*
X0263671Y0066265D01*
X0263258Y0067263D02*
X0262396Y0067263D01*
X0262396Y0068262D02*
X0263196Y0068262D01*
X0263196Y0069260D02*
X0262396Y0069260D01*
X0263196Y0070259D02*
X0258396Y0070259D01*
X0258396Y0071257D02*
X0257396Y0071257D01*
X0257396Y0072256D02*
X0258396Y0072256D01*
X0258396Y0073254D02*
X0257396Y0073254D01*
X0257396Y0074253D02*
X0258396Y0074253D01*
X0258396Y0075251D02*
X0257396Y0075251D01*
X0257396Y0076250D02*
X0258396Y0076250D01*
X0258396Y0077248D02*
X0257396Y0077248D01*
X0255642Y0077248D02*
X0251641Y0077248D01*
X0252195Y0076250D02*
X0254443Y0076250D01*
X0253816Y0075251D02*
X0252596Y0075251D01*
X0252596Y0074253D02*
X0253484Y0074253D01*
X0253396Y0073254D02*
X0252596Y0073254D01*
X0252596Y0072256D02*
X0253396Y0072256D01*
X0253396Y0071257D02*
X0252596Y0071257D01*
X0247896Y0071346D02*
X0217896Y0071346D01*
X0212896Y0066346D01*
X0157896Y0066346D01*
X0152896Y0061346D01*
X0147896Y0066346D01*
X0142896Y0066346D01*
X0122896Y0086346D01*
X0122896Y0091346D01*
X0067896Y0146346D01*
X0052896Y0146346D01*
X0049525Y0147828D02*
X0045096Y0152258D01*
X0045096Y0185435D01*
X0047326Y0187665D01*
X0048628Y0187665D01*
X0049981Y0188226D01*
X0051017Y0189261D01*
X0051577Y0190614D01*
X0051577Y0192079D01*
X0051162Y0193080D01*
X0052164Y0192665D01*
X0053628Y0192665D01*
X0054981Y0193226D01*
X0056017Y0194261D01*
X0056577Y0195614D01*
X0056577Y0196916D01*
X0073807Y0214146D01*
X0141719Y0214146D01*
X0150696Y0200680D01*
X0150696Y0200435D01*
X0151186Y0199945D01*
X0151571Y0199368D01*
X0151811Y0199320D01*
X0165696Y0185435D01*
X0165696Y0165435D01*
X0166985Y0164146D01*
X0172896Y0158235D01*
X0172896Y0154458D01*
X0166577Y0160777D01*
X0166577Y0162079D01*
X0166017Y0163432D01*
X0164981Y0164467D01*
X0163628Y0165028D01*
X0162164Y0165028D01*
X0160811Y0164467D01*
X0159775Y0163432D01*
X0159215Y0162079D01*
X0159215Y0160614D01*
X0159775Y0159261D01*
X0160811Y0158226D01*
X0162164Y0157665D01*
X0163466Y0157665D01*
X0172896Y0148235D01*
X0172896Y0126346D01*
X0185815Y0126346D01*
X0185815Y0123546D01*
X0181985Y0123546D01*
X0181076Y0122637D01*
X0180844Y0122869D01*
X0174711Y0122869D01*
X0174598Y0122756D01*
X0170096Y0127258D01*
X0170096Y0138341D01*
X0171017Y0139261D01*
X0171577Y0140614D01*
X0171577Y0142079D01*
X0171017Y0143432D01*
X0169981Y0144467D01*
X0168628Y0145028D01*
X0167638Y0145028D01*
X0141526Y0175492D01*
X0141577Y0175614D01*
X0141577Y0177079D01*
X0141017Y0178432D01*
X0139981Y0179467D01*
X0138628Y0180028D01*
X0137164Y0180028D01*
X0135811Y0179467D01*
X0134775Y0178432D01*
X0134215Y0177079D01*
X0134215Y0175614D01*
X0134775Y0174261D01*
X0135190Y0173846D01*
X0134775Y0173432D01*
X0134215Y0172079D01*
X0134215Y0170777D01*
X0133096Y0169658D01*
X0133096Y0170846D01*
X0128396Y0170846D01*
X0128396Y0171846D01*
X0133096Y0171846D01*
X0133096Y0173500D01*
X0130391Y0176205D01*
X0133296Y0179110D01*
X0133296Y0183583D01*
X0130533Y0186346D01*
X0133296Y0189110D01*
X0133296Y0193583D01*
X0130133Y0196746D01*
X0125659Y0196746D01*
X0123296Y0194383D01*
X0123296Y0195751D01*
X0122300Y0196746D01*
X0113492Y0196746D01*
X0112496Y0195751D01*
X0112496Y0186942D01*
X0113492Y0185946D01*
X0114859Y0185946D01*
X0112496Y0183583D01*
X0112496Y0180028D01*
X0112164Y0180028D01*
X0110811Y0179467D01*
X0109775Y0178432D01*
X0109215Y0177079D01*
X0109215Y0175614D01*
X0109775Y0174261D01*
X0110811Y0173226D01*
X0112164Y0172665D01*
X0112496Y0172665D01*
X0112496Y0169110D01*
X0115659Y0165946D01*
X0119385Y0165946D01*
X0106985Y0153546D01*
X0105302Y0153546D01*
X0106017Y0154261D01*
X0106577Y0155614D01*
X0106577Y0157079D01*
X0106017Y0158432D01*
X0104981Y0159467D01*
X0103628Y0160028D01*
X0102326Y0160028D01*
X0096577Y0165777D01*
X0096577Y0167079D01*
X0096017Y0168432D01*
X0094981Y0169467D01*
X0093628Y0170028D01*
X0092164Y0170028D01*
X0090811Y0169467D01*
X0089775Y0168432D01*
X0089525Y0167828D01*
X0085096Y0172258D01*
X0085096Y0175435D01*
X0098807Y0189146D01*
X0104890Y0189146D01*
X0105811Y0188226D01*
X0107164Y0187665D01*
X0108628Y0187665D01*
X0109981Y0188226D01*
X0111017Y0189261D01*
X0111577Y0190614D01*
X0111577Y0192079D01*
X0111017Y0193432D01*
X0110602Y0193846D01*
X0111017Y0194261D01*
X0111577Y0195614D01*
X0111577Y0197079D01*
X0111017Y0198432D01*
X0109981Y0199467D01*
X0108628Y0200028D01*
X0107164Y0200028D01*
X0105811Y0199467D01*
X0104890Y0198546D01*
X0096985Y0198546D01*
X0076985Y0178546D01*
X0075696Y0177258D01*
X0075696Y0163735D01*
X0076985Y0162446D01*
X0081712Y0162446D01*
X0084295Y0158534D01*
X0084585Y0157971D01*
X0084215Y0157079D01*
X0084215Y0155614D01*
X0084630Y0154613D01*
X0083628Y0155028D01*
X0082164Y0155028D01*
X0080811Y0154467D01*
X0079775Y0153432D01*
X0079215Y0152079D01*
X0079215Y0150614D01*
X0079630Y0149613D01*
X0078628Y0150028D01*
X0077164Y0150028D01*
X0075811Y0149467D01*
X0075396Y0149052D01*
X0074981Y0149467D01*
X0073628Y0150028D01*
X0072164Y0150028D01*
X0070811Y0149467D01*
X0069775Y0148432D01*
X0069525Y0147828D01*
X0068807Y0148546D01*
X0055902Y0148546D01*
X0054981Y0149467D01*
X0053628Y0150028D01*
X0052164Y0150028D01*
X0050811Y0149467D01*
X0049775Y0148432D01*
X0049525Y0147828D01*
X0049656Y0148143D02*
X0049211Y0148143D01*
X0048213Y0149141D02*
X0050485Y0149141D01*
X0047214Y0150140D02*
X0079412Y0150140D01*
X0079215Y0151138D02*
X0046216Y0151138D01*
X0045217Y0152137D02*
X0079239Y0152137D01*
X0079653Y0153135D02*
X0045096Y0153135D01*
X0045096Y0154134D02*
X0080477Y0154134D01*
X0084415Y0155132D02*
X0045096Y0155132D01*
X0045096Y0156131D02*
X0084215Y0156131D01*
X0084236Y0157129D02*
X0045096Y0157129D01*
X0045096Y0158128D02*
X0084504Y0158128D01*
X0083904Y0159126D02*
X0045096Y0159126D01*
X0045096Y0160125D02*
X0083245Y0160125D01*
X0082585Y0161123D02*
X0045096Y0161123D01*
X0045096Y0162122D02*
X0081926Y0162122D01*
X0082896Y0164646D02*
X0077896Y0164646D01*
X0077896Y0176346D01*
X0097896Y0196346D01*
X0107896Y0196346D01*
X0111353Y0195073D02*
X0112496Y0195073D01*
X0112496Y0194074D02*
X0110830Y0194074D01*
X0111164Y0193076D02*
X0112496Y0193076D01*
X0112496Y0192077D02*
X0111577Y0192077D01*
X0111577Y0191078D02*
X0112496Y0191078D01*
X0112496Y0190080D02*
X0111356Y0190080D01*
X0110837Y0189081D02*
X0112496Y0189081D01*
X0112496Y0188083D02*
X0109636Y0188083D01*
X0112496Y0187084D02*
X0096745Y0187084D01*
X0095747Y0186086D02*
X0113352Y0186086D01*
X0114000Y0185087D02*
X0094748Y0185087D01*
X0093750Y0184089D02*
X0113002Y0184089D01*
X0112496Y0183090D02*
X0092751Y0183090D01*
X0091753Y0182092D02*
X0112496Y0182092D01*
X0112496Y0181093D02*
X0090754Y0181093D01*
X0089756Y0180095D02*
X0112496Y0180095D01*
X0110440Y0179096D02*
X0088757Y0179096D01*
X0087759Y0178098D02*
X0109637Y0178098D01*
X0109224Y0177099D02*
X0086760Y0177099D01*
X0085762Y0176101D02*
X0109215Y0176101D01*
X0109427Y0175102D02*
X0085096Y0175102D01*
X0085096Y0174104D02*
X0109933Y0174104D01*
X0111102Y0173105D02*
X0085096Y0173105D01*
X0085247Y0172107D02*
X0112496Y0172107D01*
X0112496Y0171108D02*
X0086246Y0171108D01*
X0087244Y0170110D02*
X0112496Y0170110D01*
X0112496Y0169111D02*
X0095337Y0169111D01*
X0096149Y0168113D02*
X0113493Y0168113D01*
X0114492Y0167114D02*
X0096562Y0167114D01*
X0096577Y0166116D02*
X0115490Y0166116D01*
X0117557Y0164119D02*
X0098235Y0164119D01*
X0097237Y0165117D02*
X0118556Y0165117D01*
X0116559Y0163120D02*
X0099234Y0163120D01*
X0100232Y0162122D02*
X0115560Y0162122D01*
X0114562Y0161123D02*
X0101231Y0161123D01*
X0102229Y0160125D02*
X0113563Y0160125D01*
X0112896Y0161346D02*
X0092896Y0181346D01*
X0085523Y0187084D02*
X0046745Y0187084D01*
X0045747Y0186086D02*
X0084524Y0186086D01*
X0083526Y0185087D02*
X0045096Y0185087D01*
X0045096Y0184089D02*
X0082527Y0184089D01*
X0081529Y0183090D02*
X0045096Y0183090D01*
X0045096Y0182092D02*
X0080530Y0182092D01*
X0079532Y0181093D02*
X0045096Y0181093D01*
X0045096Y0180095D02*
X0078533Y0180095D01*
X0077535Y0179096D02*
X0045096Y0179096D01*
X0045096Y0178098D02*
X0076536Y0178098D01*
X0075696Y0177099D02*
X0045096Y0177099D01*
X0045096Y0176101D02*
X0075696Y0176101D01*
X0075696Y0175102D02*
X0045096Y0175102D01*
X0045096Y0174104D02*
X0075696Y0174104D01*
X0075696Y0173105D02*
X0045096Y0173105D01*
X0045096Y0172107D02*
X0075696Y0172107D01*
X0075696Y0171108D02*
X0045096Y0171108D01*
X0045096Y0170110D02*
X0075696Y0170110D01*
X0075696Y0169111D02*
X0045096Y0169111D01*
X0045096Y0168113D02*
X0075696Y0168113D01*
X0075696Y0167114D02*
X0045096Y0167114D01*
X0045096Y0166116D02*
X0075696Y0166116D01*
X0075696Y0165117D02*
X0045096Y0165117D01*
X0045096Y0164119D02*
X0075696Y0164119D01*
X0076311Y0163120D02*
X0045096Y0163120D01*
X0040696Y0163120D02*
X0040096Y0163120D01*
X0040096Y0162122D02*
X0040696Y0162122D01*
X0040696Y0161123D02*
X0040096Y0161123D01*
X0040096Y0160125D02*
X0040696Y0160125D01*
X0040696Y0159126D02*
X0040096Y0159126D01*
X0040096Y0158128D02*
X0040696Y0158128D01*
X0040696Y0157129D02*
X0040096Y0157129D01*
X0040096Y0156131D02*
X0040696Y0156131D01*
X0040696Y0155132D02*
X0040096Y0155132D01*
X0040096Y0154134D02*
X0040696Y0154134D01*
X0040696Y0153135D02*
X0040096Y0153135D01*
X0040096Y0152137D02*
X0040696Y0152137D01*
X0040696Y0151138D02*
X0040096Y0151138D01*
X0040096Y0150140D02*
X0040992Y0150140D01*
X0040096Y0149141D02*
X0041990Y0149141D01*
X0042989Y0148143D02*
X0040096Y0148143D01*
X0040096Y0147144D02*
X0043987Y0147144D01*
X0044986Y0146145D02*
X0040096Y0146145D01*
X0039808Y0145147D02*
X0045984Y0145147D01*
X0046983Y0144148D02*
X0038809Y0144148D01*
X0037811Y0143150D02*
X0047981Y0143150D01*
X0048980Y0142151D02*
X0036812Y0142151D01*
X0035814Y0141153D02*
X0049978Y0141153D01*
X0050977Y0140154D02*
X0035096Y0140154D01*
X0035096Y0139156D02*
X0050500Y0139156D01*
X0049662Y0138157D02*
X0035096Y0138157D01*
X0035096Y0137159D02*
X0049248Y0137159D01*
X0057896Y0136346D02*
X0067896Y0136346D01*
X0142896Y0061346D01*
X0147896Y0061346D01*
X0157896Y0051346D01*
X0192896Y0051346D01*
X0197896Y0041346D01*
X0194215Y0041302D02*
X0166577Y0041302D01*
X0166577Y0040777D02*
X0166577Y0042079D01*
X0166017Y0043432D01*
X0164981Y0044467D01*
X0163628Y0045028D01*
X0162164Y0045028D01*
X0160811Y0044467D01*
X0159775Y0043432D01*
X0159525Y0042828D01*
X0143207Y0059146D01*
X0146985Y0059146D01*
X0155696Y0050435D01*
X0156985Y0049146D01*
X0191536Y0049146D01*
X0194602Y0043014D01*
X0194215Y0042079D01*
X0194215Y0040614D01*
X0194630Y0039613D01*
X0193628Y0040028D01*
X0192164Y0040028D01*
X0190811Y0039467D01*
X0189890Y0038546D01*
X0181985Y0038546D01*
X0180696Y0037258D01*
X0176759Y0033321D01*
X0176759Y0030802D01*
X0176401Y0030898D01*
X0175113Y0030898D01*
X0175113Y0026437D01*
X0174931Y0026437D01*
X0174931Y0030898D01*
X0173643Y0030898D01*
X0173270Y0030798D01*
X0172970Y0031098D01*
X0169348Y0031098D01*
X0169348Y0038006D01*
X0166577Y0040777D01*
X0167050Y0040303D02*
X0194344Y0040303D01*
X0194307Y0042300D02*
X0166485Y0042300D01*
X0166072Y0043299D02*
X0194460Y0043299D01*
X0193961Y0044297D02*
X0165151Y0044297D01*
X0162896Y0046346D02*
X0167896Y0041346D01*
X0172896Y0041346D01*
X0175022Y0039220D01*
X0175022Y0026346D01*
X0174931Y0026256D02*
X0175113Y0026256D01*
X0175113Y0021795D01*
X0176401Y0021795D01*
X0176774Y0021895D01*
X0177074Y0021595D01*
X0180844Y0021595D01*
X0180928Y0021679D01*
X0181011Y0021595D01*
X0183952Y0021595D01*
X0183952Y0015846D01*
X0176577Y0015846D01*
X0176577Y0017079D01*
X0176017Y0018432D01*
X0174981Y0019467D01*
X0173628Y0020028D01*
X0173285Y0020028D01*
X0173285Y0021891D01*
X0173643Y0021795D01*
X0174931Y0021795D01*
X0174931Y0026256D01*
X0174931Y0025326D02*
X0175113Y0025326D01*
X0175113Y0024327D02*
X0174931Y0024327D01*
X0174931Y0023329D02*
X0175113Y0023329D01*
X0175113Y0022330D02*
X0174931Y0022330D01*
X0173285Y0021332D02*
X0183952Y0021332D01*
X0183952Y0020333D02*
X0173285Y0020333D01*
X0175114Y0019335D02*
X0183952Y0019335D01*
X0183952Y0018336D02*
X0176056Y0018336D01*
X0176470Y0017338D02*
X0183952Y0017338D01*
X0183952Y0016339D02*
X0176577Y0016339D01*
X0172896Y0016346D02*
X0171085Y0018157D01*
X0171085Y0026346D01*
X0174931Y0027323D02*
X0175113Y0027323D01*
X0175113Y0028321D02*
X0174931Y0028321D01*
X0174931Y0029320D02*
X0175113Y0029320D01*
X0175113Y0030318D02*
X0174931Y0030318D01*
X0176759Y0031317D02*
X0169348Y0031317D01*
X0169348Y0032315D02*
X0176759Y0032315D01*
X0176759Y0033314D02*
X0169348Y0033314D01*
X0169348Y0034312D02*
X0177751Y0034312D01*
X0178749Y0035311D02*
X0169348Y0035311D01*
X0169348Y0036309D02*
X0179748Y0036309D01*
X0180746Y0037308D02*
X0169348Y0037308D01*
X0169048Y0038306D02*
X0181745Y0038306D01*
X0182896Y0036346D02*
X0192896Y0036346D01*
X0196577Y0036309D02*
X0226381Y0036309D01*
X0227778Y0036309D02*
X0227778Y0036309D01*
X0227778Y0032075D02*
X0227778Y0061228D01*
X0227896Y0061346D01*
X0228861Y0062271D02*
X0221931Y0062271D01*
X0222930Y0063269D02*
X0227862Y0063269D01*
X0229859Y0061272D02*
X0220933Y0061272D01*
X0220096Y0060274D02*
X0230858Y0060274D01*
X0230696Y0060435D02*
X0230696Y0060435D01*
X0231856Y0059275D02*
X0220096Y0059275D01*
X0220096Y0058276D02*
X0241715Y0058276D01*
X0240716Y0057278D02*
X0220096Y0057278D01*
X0220096Y0056279D02*
X0239718Y0056279D01*
X0238719Y0055281D02*
X0219942Y0055281D01*
X0220166Y0054282D02*
X0237721Y0054282D01*
X0236722Y0053284D02*
X0221078Y0053284D01*
X0221492Y0052285D02*
X0235814Y0052285D01*
X0235814Y0051287D02*
X0221577Y0051287D01*
X0221442Y0050288D02*
X0235814Y0050288D01*
X0235814Y0049290D02*
X0221029Y0049290D01*
X0220047Y0048291D02*
X0235814Y0048291D01*
X0235814Y0047293D02*
X0197383Y0047293D01*
X0197882Y0046294D02*
X0235814Y0046294D01*
X0235814Y0045296D02*
X0198381Y0045296D01*
X0200151Y0044297D02*
X0235814Y0044297D01*
X0235814Y0043299D02*
X0201072Y0043299D01*
X0201485Y0042300D02*
X0235814Y0042300D01*
X0235814Y0041302D02*
X0201577Y0041302D01*
X0201448Y0040303D02*
X0235814Y0040303D01*
X0235814Y0039305D02*
X0201035Y0039305D01*
X0200062Y0038306D02*
X0235814Y0038306D01*
X0235814Y0037308D02*
X0196482Y0037308D01*
X0196451Y0035311D02*
X0222087Y0035311D01*
X0220990Y0034312D02*
X0196038Y0034312D01*
X0195069Y0033314D02*
X0220103Y0033314D01*
X0219690Y0032315D02*
X0181976Y0032315D01*
X0181159Y0031317D02*
X0219276Y0031317D01*
X0219243Y0030318D02*
X0185561Y0030318D01*
X0185777Y0029320D02*
X0219243Y0029320D01*
X0219433Y0028321D02*
X0185777Y0028321D01*
X0185777Y0027323D02*
X0219846Y0027323D01*
X0220369Y0026324D02*
X0185777Y0026324D01*
X0185777Y0025326D02*
X0213467Y0025326D01*
X0213145Y0024327D02*
X0210121Y0024327D01*
X0209981Y0024467D02*
X0208628Y0025028D01*
X0207164Y0025028D01*
X0205811Y0024467D01*
X0204775Y0023432D01*
X0204215Y0022079D01*
X0204215Y0020614D01*
X0204775Y0019261D01*
X0205811Y0018226D01*
X0207164Y0017665D01*
X0208628Y0017665D01*
X0209981Y0018226D01*
X0211017Y0019261D01*
X0211577Y0020614D01*
X0211577Y0022079D01*
X0211017Y0023432D01*
X0209981Y0024467D01*
X0211059Y0023329D02*
X0213145Y0023329D01*
X0213145Y0022330D02*
X0211473Y0022330D01*
X0211577Y0021332D02*
X0213145Y0021332D01*
X0213145Y0020333D02*
X0211461Y0020333D01*
X0211047Y0019335D02*
X0213145Y0019335D01*
X0213145Y0018336D02*
X0210092Y0018336D01*
X0213497Y0017338D02*
X0192076Y0017338D01*
X0192076Y0018336D02*
X0205701Y0018336D01*
X0204745Y0019335D02*
X0192076Y0019335D01*
X0192076Y0020333D02*
X0204331Y0020333D01*
X0204215Y0021332D02*
X0192076Y0021332D01*
X0191580Y0022330D02*
X0204319Y0022330D01*
X0204733Y0023329D02*
X0185777Y0023329D01*
X0185777Y0024327D02*
X0205671Y0024327D01*
X0192076Y0016339D02*
X0287097Y0016339D01*
X0277896Y0061346D02*
X0232896Y0061346D01*
X0227896Y0066346D01*
X0222896Y0066346D01*
X0217896Y0061346D01*
X0217896Y0056346D01*
X0187896Y0056346D01*
X0184215Y0056279D02*
X0156074Y0056279D01*
X0157073Y0055281D02*
X0184353Y0055281D01*
X0184767Y0054282D02*
X0158071Y0054282D01*
X0155076Y0057278D02*
X0184298Y0057278D01*
X0184711Y0058276D02*
X0154077Y0058276D01*
X0153936Y0059275D02*
X0185619Y0059275D01*
X0187896Y0061346D02*
X0182896Y0056346D01*
X0187896Y0061346D02*
X0207896Y0061346D01*
X0213928Y0064268D02*
X0217706Y0064268D01*
X0218704Y0065266D02*
X0214927Y0065266D01*
X0215925Y0066265D02*
X0219703Y0066265D01*
X0220701Y0067263D02*
X0216924Y0067263D01*
X0217922Y0068262D02*
X0221700Y0068262D01*
X0216707Y0063269D02*
X0157930Y0063269D01*
X0156931Y0062271D02*
X0215709Y0062271D01*
X0215696Y0061272D02*
X0155933Y0061272D01*
X0154934Y0060274D02*
X0215696Y0060274D01*
X0215696Y0059275D02*
X0190173Y0059275D01*
X0194070Y0053284D02*
X0214714Y0053284D01*
X0214301Y0052285D02*
X0195068Y0052285D01*
X0195385Y0051287D02*
X0214215Y0051287D01*
X0214350Y0050288D02*
X0195885Y0050288D01*
X0196384Y0049290D02*
X0214764Y0049290D01*
X0215745Y0048291D02*
X0196883Y0048291D01*
X0192962Y0046294D02*
X0156059Y0046294D01*
X0155061Y0047293D02*
X0192463Y0047293D01*
X0191964Y0048291D02*
X0154062Y0048291D01*
X0153064Y0049290D02*
X0156841Y0049290D01*
X0155843Y0050288D02*
X0152065Y0050288D01*
X0151067Y0051287D02*
X0154844Y0051287D01*
X0153846Y0052285D02*
X0150068Y0052285D01*
X0149070Y0053284D02*
X0152847Y0053284D01*
X0151849Y0054282D02*
X0148071Y0054282D01*
X0147073Y0055281D02*
X0150850Y0055281D01*
X0149852Y0056279D02*
X0146074Y0056279D01*
X0145076Y0057278D02*
X0148853Y0057278D01*
X0147855Y0058276D02*
X0144077Y0058276D01*
X0139852Y0056279D02*
X0120096Y0056279D01*
X0120096Y0055281D02*
X0140850Y0055281D01*
X0141849Y0054282D02*
X0120096Y0054282D01*
X0120096Y0053284D02*
X0142847Y0053284D01*
X0143846Y0052285D02*
X0120096Y0052285D01*
X0120096Y0051287D02*
X0144844Y0051287D01*
X0145843Y0050288D02*
X0120096Y0050288D01*
X0120096Y0049290D02*
X0146841Y0049290D01*
X0147840Y0048291D02*
X0120096Y0048291D01*
X0120096Y0047293D02*
X0148838Y0047293D01*
X0149837Y0046294D02*
X0120096Y0046294D01*
X0120096Y0045296D02*
X0150835Y0045296D01*
X0149981Y0044467D02*
X0148628Y0045028D01*
X0147164Y0045028D01*
X0145811Y0044467D01*
X0144775Y0043432D01*
X0144215Y0042079D01*
X0144215Y0040614D01*
X0144775Y0039261D01*
X0145811Y0038226D01*
X0147164Y0037665D01*
X0148628Y0037665D01*
X0149981Y0038226D01*
X0151017Y0039261D01*
X0151577Y0040614D01*
X0151577Y0042079D01*
X0151017Y0043432D01*
X0149981Y0044467D01*
X0150151Y0044297D02*
X0151834Y0044297D01*
X0151072Y0043299D02*
X0152832Y0043299D01*
X0153831Y0042300D02*
X0151485Y0042300D01*
X0151577Y0041302D02*
X0154829Y0041302D01*
X0155828Y0040303D02*
X0151448Y0040303D01*
X0151035Y0039305D02*
X0156826Y0039305D01*
X0157825Y0038306D02*
X0150062Y0038306D01*
X0147896Y0036346D02*
X0137896Y0046346D01*
X0127896Y0046346D01*
X0122896Y0041346D01*
X0122896Y0035283D01*
X0120062Y0038306D02*
X0145730Y0038306D01*
X0144757Y0039305D02*
X0121035Y0039305D01*
X0121448Y0040303D02*
X0144344Y0040303D01*
X0144215Y0041302D02*
X0121577Y0041302D01*
X0121485Y0042300D02*
X0144307Y0042300D01*
X0144720Y0043299D02*
X0121072Y0043299D01*
X0120151Y0044297D02*
X0145641Y0044297D01*
X0147896Y0036346D02*
X0147896Y0026346D01*
X0160136Y0034312D02*
X0160696Y0034312D01*
X0162896Y0036346D02*
X0162896Y0026346D01*
X0163211Y0026346D01*
X0167148Y0026346D02*
X0167148Y0037094D01*
X0162896Y0041346D01*
X0160641Y0044297D02*
X0158056Y0044297D01*
X0157058Y0045296D02*
X0193462Y0045296D01*
X0190649Y0039305D02*
X0168049Y0039305D01*
X0162896Y0036346D02*
X0067896Y0131346D01*
X0062896Y0131346D02*
X0117896Y0076346D01*
X0117896Y0041346D01*
X0120096Y0057278D02*
X0138853Y0057278D01*
X0137855Y0058276D02*
X0120096Y0058276D01*
X0120096Y0059275D02*
X0136856Y0059275D01*
X0135858Y0060274D02*
X0120096Y0060274D01*
X0120096Y0061272D02*
X0134859Y0061272D01*
X0133861Y0062271D02*
X0120096Y0062271D01*
X0120096Y0063269D02*
X0132862Y0063269D01*
X0131864Y0064268D02*
X0120096Y0064268D01*
X0120096Y0065266D02*
X0130865Y0065266D01*
X0129867Y0066265D02*
X0120096Y0066265D01*
X0120096Y0067263D02*
X0128868Y0067263D01*
X0127870Y0068262D02*
X0120096Y0068262D01*
X0120096Y0069260D02*
X0126871Y0069260D01*
X0125873Y0070259D02*
X0120096Y0070259D01*
X0120096Y0071257D02*
X0124874Y0071257D01*
X0123876Y0072256D02*
X0120096Y0072256D01*
X0120096Y0073254D02*
X0122877Y0073254D01*
X0121879Y0074253D02*
X0120096Y0074253D01*
X0120096Y0075251D02*
X0120880Y0075251D01*
X0147896Y0076346D02*
X0147896Y0091346D01*
X0122896Y0116346D01*
X0117896Y0116346D01*
X0131179Y0126175D02*
X0165696Y0126175D01*
X0165696Y0125435D02*
X0166985Y0124146D01*
X0173245Y0117887D01*
X0174129Y0117887D01*
X0174711Y0117304D01*
X0180696Y0117304D01*
X0180696Y0115435D01*
X0180742Y0115389D01*
X0174711Y0115389D01*
X0173715Y0114393D01*
X0173715Y0110819D01*
X0174711Y0109824D01*
X0180844Y0109824D01*
X0181840Y0110819D01*
X0181840Y0114291D01*
X0181985Y0114146D01*
X0183952Y0112179D01*
X0183952Y0110819D01*
X0184948Y0109824D01*
X0191081Y0109824D01*
X0192077Y0110819D01*
X0192077Y0114393D01*
X0191777Y0114693D01*
X0191877Y0115066D01*
X0191877Y0116305D01*
X0188056Y0116305D01*
X0188056Y0116388D01*
X0191877Y0116388D01*
X0191877Y0117627D01*
X0191807Y0117887D01*
X0213985Y0117887D01*
X0213915Y0117627D01*
X0213915Y0116388D01*
X0217736Y0116388D01*
X0217736Y0116305D01*
X0213915Y0116305D01*
X0213915Y0115066D01*
X0214015Y0114693D01*
X0213715Y0114393D01*
X0213715Y0110819D01*
X0214711Y0109824D01*
X0215578Y0109824D01*
X0215578Y0109234D01*
X0214775Y0108432D01*
X0214215Y0107079D01*
X0214215Y0105614D01*
X0214775Y0104261D01*
X0215490Y0103546D01*
X0210902Y0103546D01*
X0209981Y0104467D01*
X0208628Y0105028D01*
X0207164Y0105028D01*
X0205811Y0104467D01*
X0204775Y0103432D01*
X0204215Y0102079D01*
X0204215Y0100614D01*
X0204775Y0099261D01*
X0205811Y0098226D01*
X0207164Y0097665D01*
X0208628Y0097665D01*
X0209981Y0098226D01*
X0210902Y0099146D01*
X0223807Y0099146D01*
X0225096Y0100435D01*
X0230215Y0105554D01*
X0230215Y0109824D01*
X0231081Y0109824D01*
X0232077Y0110819D01*
X0232077Y0114054D01*
X0235696Y0110435D01*
X0235696Y0109352D01*
X0234775Y0108432D01*
X0234215Y0107079D01*
X0234215Y0105614D01*
X0234775Y0104261D01*
X0235490Y0103546D01*
X0231985Y0103546D01*
X0230696Y0102258D01*
X0211985Y0083546D01*
X0168807Y0083546D01*
X0139378Y0112976D01*
X0139981Y0113226D01*
X0141017Y0114261D01*
X0141577Y0115614D01*
X0141577Y0117079D01*
X0141017Y0118432D01*
X0139981Y0119467D01*
X0138628Y0120028D01*
X0137326Y0120028D01*
X0114378Y0142976D01*
X0114981Y0143226D01*
X0116017Y0144261D01*
X0116577Y0145614D01*
X0116577Y0146916D01*
X0128807Y0159146D01*
X0139890Y0159146D01*
X0140811Y0158226D01*
X0142164Y0157665D01*
X0143628Y0157665D01*
X0144981Y0158226D01*
X0146017Y0159261D01*
X0146577Y0160614D01*
X0146577Y0162079D01*
X0146017Y0163432D01*
X0144981Y0164467D01*
X0143628Y0165028D01*
X0142164Y0165028D01*
X0140811Y0164467D01*
X0139890Y0163546D01*
X0128207Y0163546D01*
X0128807Y0164146D01*
X0133807Y0164146D01*
X0137326Y0167665D01*
X0138628Y0167665D01*
X0139981Y0168226D01*
X0141017Y0169261D01*
X0141035Y0169304D01*
X0164266Y0142201D01*
X0164215Y0142079D01*
X0164215Y0140614D01*
X0164775Y0139261D01*
X0165696Y0138341D01*
X0165696Y0125435D01*
X0165954Y0125177D02*
X0132177Y0125177D01*
X0133176Y0124178D02*
X0166953Y0124178D01*
X0167952Y0123180D02*
X0134174Y0123180D01*
X0135173Y0122181D02*
X0168950Y0122181D01*
X0169949Y0121183D02*
X0136171Y0121183D01*
X0137170Y0120184D02*
X0150171Y0120184D01*
X0150321Y0120224D02*
X0149939Y0120122D01*
X0149597Y0119925D01*
X0149318Y0119645D01*
X0149120Y0119303D01*
X0149018Y0118922D01*
X0149018Y0116535D01*
X0152707Y0116535D01*
X0152707Y0116157D01*
X0153085Y0116157D01*
X0153085Y0112469D01*
X0155471Y0112469D01*
X0155853Y0112571D01*
X0156195Y0112768D01*
X0156474Y0113047D01*
X0156672Y0113390D01*
X0156774Y0113771D01*
X0156774Y0116157D01*
X0153085Y0116157D01*
X0153085Y0116535D01*
X0156774Y0116535D01*
X0156774Y0118922D01*
X0156672Y0119303D01*
X0156474Y0119645D01*
X0156195Y0119925D01*
X0155853Y0120122D01*
X0155471Y0120224D01*
X0153085Y0120224D01*
X0153085Y0116536D01*
X0152707Y0116536D01*
X0152707Y0120224D01*
X0150321Y0120224D01*
X0149089Y0119186D02*
X0140263Y0119186D01*
X0141118Y0118187D02*
X0149018Y0118187D01*
X0149018Y0117189D02*
X0141532Y0117189D01*
X0141577Y0116190D02*
X0152707Y0116190D01*
X0152707Y0116157D02*
X0149018Y0116157D01*
X0149018Y0113771D01*
X0149120Y0113390D01*
X0149318Y0113047D01*
X0149597Y0112768D01*
X0149939Y0112571D01*
X0150321Y0112469D01*
X0152707Y0112469D01*
X0152707Y0116157D01*
X0153085Y0116190D02*
X0180696Y0116190D01*
X0180696Y0117189D02*
X0156774Y0117189D01*
X0156774Y0118187D02*
X0172944Y0118187D01*
X0171946Y0119186D02*
X0156703Y0119186D01*
X0155622Y0120184D02*
X0170947Y0120184D01*
X0174156Y0120087D02*
X0167896Y0126346D01*
X0167896Y0141346D01*
X0137896Y0176346D01*
X0134427Y0175102D02*
X0131494Y0175102D01*
X0132493Y0174104D02*
X0134933Y0174104D01*
X0134640Y0173105D02*
X0133096Y0173105D01*
X0133096Y0172107D02*
X0134227Y0172107D01*
X0134215Y0171108D02*
X0128396Y0171108D01*
X0127896Y0166346D02*
X0132896Y0166346D01*
X0137896Y0171346D01*
X0139708Y0168113D02*
X0142056Y0168113D01*
X0141200Y0169111D02*
X0140867Y0169111D01*
X0142912Y0167114D02*
X0136775Y0167114D01*
X0135777Y0166116D02*
X0143768Y0166116D01*
X0144624Y0165117D02*
X0134778Y0165117D01*
X0133548Y0170110D02*
X0133096Y0170110D01*
X0127896Y0166346D02*
X0112896Y0151346D01*
X0116805Y0147144D02*
X0160029Y0147144D01*
X0159173Y0148143D02*
X0117803Y0148143D01*
X0118802Y0149141D02*
X0158317Y0149141D01*
X0157462Y0150140D02*
X0119800Y0150140D01*
X0120799Y0151138D02*
X0156606Y0151138D01*
X0155750Y0152137D02*
X0121797Y0152137D01*
X0122796Y0153135D02*
X0154894Y0153135D01*
X0154038Y0154134D02*
X0123794Y0154134D01*
X0124793Y0155132D02*
X0153182Y0155132D01*
X0152326Y0156131D02*
X0125791Y0156131D01*
X0126790Y0157129D02*
X0151470Y0157129D01*
X0150615Y0158128D02*
X0144744Y0158128D01*
X0145882Y0159126D02*
X0149759Y0159126D01*
X0148903Y0160125D02*
X0146374Y0160125D01*
X0146577Y0161123D02*
X0148047Y0161123D01*
X0147191Y0162122D02*
X0146559Y0162122D01*
X0146335Y0163120D02*
X0146146Y0163120D01*
X0145479Y0164119D02*
X0145330Y0164119D01*
X0142896Y0161346D02*
X0127896Y0161346D01*
X0112896Y0146346D01*
X0116577Y0146145D02*
X0160885Y0146145D01*
X0161741Y0145147D02*
X0116384Y0145147D01*
X0115904Y0144148D02*
X0162597Y0144148D01*
X0163453Y0143150D02*
X0114798Y0143150D01*
X0115202Y0142151D02*
X0164245Y0142151D01*
X0164215Y0141153D02*
X0116201Y0141153D01*
X0117199Y0140154D02*
X0164405Y0140154D01*
X0164881Y0139156D02*
X0118198Y0139156D01*
X0119196Y0138157D02*
X0165696Y0138157D01*
X0165696Y0137159D02*
X0120195Y0137159D01*
X0121193Y0136160D02*
X0165696Y0136160D01*
X0165696Y0135162D02*
X0122192Y0135162D01*
X0123190Y0134163D02*
X0165696Y0134163D01*
X0165696Y0133165D02*
X0124189Y0133165D01*
X0125187Y0132166D02*
X0165696Y0132166D01*
X0165696Y0131168D02*
X0126186Y0131168D01*
X0127184Y0130169D02*
X0165696Y0130169D01*
X0165696Y0129171D02*
X0128183Y0129171D01*
X0129181Y0128172D02*
X0165696Y0128172D01*
X0165696Y0127174D02*
X0130180Y0127174D01*
X0137896Y0116346D02*
X0107896Y0146346D01*
X0102896Y0146346D02*
X0167896Y0081346D01*
X0212896Y0081346D01*
X0232896Y0101346D01*
X0247896Y0101346D01*
X0277896Y0071346D01*
X0277896Y0070346D01*
X0273196Y0070259D02*
X0272596Y0070259D01*
X0272596Y0071257D02*
X0273196Y0071257D01*
X0273196Y0072256D02*
X0272596Y0072256D01*
X0272596Y0073254D02*
X0272877Y0073254D01*
X0272596Y0069260D02*
X0273196Y0069260D01*
X0273196Y0068262D02*
X0272596Y0068262D01*
X0272535Y0067263D02*
X0273196Y0067263D01*
X0273257Y0066265D02*
X0272121Y0066265D01*
X0271462Y0065266D02*
X0273671Y0065266D01*
X0274328Y0064268D02*
X0270330Y0064268D01*
X0263196Y0071257D02*
X0262396Y0071257D01*
X0262396Y0072256D02*
X0263196Y0072256D01*
X0263196Y0073254D02*
X0262396Y0073254D01*
X0262309Y0074253D02*
X0263196Y0074253D01*
X0263196Y0075251D02*
X0261976Y0075251D01*
X0261349Y0076250D02*
X0263597Y0076250D01*
X0263883Y0077248D02*
X0260151Y0077248D01*
X0261886Y0079245D02*
X0223906Y0079245D01*
X0222908Y0078247D02*
X0245150Y0078247D01*
X0244151Y0077248D02*
X0221909Y0077248D01*
X0220911Y0076250D02*
X0243597Y0076250D01*
X0243196Y0075251D02*
X0219912Y0075251D01*
X0218914Y0074253D02*
X0243196Y0074253D01*
X0243196Y0068262D02*
X0229092Y0068262D01*
X0230091Y0067263D02*
X0243258Y0067263D01*
X0243671Y0066265D02*
X0231089Y0066265D01*
X0230096Y0067258D02*
X0230096Y0067258D01*
X0232088Y0065266D02*
X0244330Y0065266D01*
X0245462Y0064268D02*
X0233086Y0064268D01*
X0212896Y0071346D02*
X0237896Y0096346D01*
X0247896Y0096346D01*
X0267896Y0076346D01*
X0267896Y0071346D01*
X0275106Y0077248D02*
X0275151Y0077248D01*
X0280641Y0077248D02*
X0280696Y0077248D01*
X0262885Y0078247D02*
X0250643Y0078247D01*
X0259889Y0081242D02*
X0225903Y0081242D01*
X0224905Y0080244D02*
X0260887Y0080244D01*
X0252899Y0088232D02*
X0232893Y0088232D01*
X0233891Y0089230D02*
X0251901Y0089230D01*
X0250902Y0090229D02*
X0234890Y0090229D01*
X0235888Y0091227D02*
X0249904Y0091227D01*
X0248905Y0092226D02*
X0236887Y0092226D01*
X0237885Y0093224D02*
X0247907Y0093224D01*
X0232896Y0096346D02*
X0212896Y0076346D01*
X0162896Y0076346D01*
X0157896Y0071346D02*
X0212896Y0071346D01*
X0212676Y0084238D02*
X0168116Y0084238D01*
X0167117Y0085236D02*
X0213675Y0085236D01*
X0214673Y0086235D02*
X0166119Y0086235D01*
X0165120Y0087233D02*
X0215672Y0087233D01*
X0216670Y0088232D02*
X0164122Y0088232D01*
X0163123Y0089230D02*
X0217669Y0089230D01*
X0218667Y0090229D02*
X0162125Y0090229D01*
X0161126Y0091227D02*
X0219666Y0091227D01*
X0220664Y0092226D02*
X0160128Y0092226D01*
X0159129Y0093224D02*
X0221663Y0093224D01*
X0222661Y0094223D02*
X0158131Y0094223D01*
X0157132Y0095221D02*
X0223660Y0095221D01*
X0224658Y0096220D02*
X0156134Y0096220D01*
X0155135Y0097218D02*
X0225657Y0097218D01*
X0226655Y0098217D02*
X0209960Y0098217D01*
X0207896Y0101346D02*
X0222896Y0101346D01*
X0228015Y0106465D01*
X0228015Y0112606D01*
X0225815Y0109824D02*
X0225815Y0107376D01*
X0221985Y0103546D01*
X0220302Y0103546D01*
X0221017Y0104261D01*
X0221577Y0105614D01*
X0221577Y0107079D01*
X0221017Y0108432D01*
X0219981Y0109467D01*
X0219978Y0109469D01*
X0219978Y0109824D01*
X0220844Y0109824D01*
X0221840Y0110819D01*
X0221840Y0114393D01*
X0221540Y0114693D01*
X0221640Y0115066D01*
X0221640Y0116305D01*
X0217819Y0116305D01*
X0217819Y0116388D01*
X0221640Y0116388D01*
X0221640Y0117627D01*
X0221540Y0118000D01*
X0221840Y0118300D01*
X0221840Y0121873D01*
X0220844Y0122869D01*
X0220046Y0122869D01*
X0220084Y0124436D01*
X0223952Y0121529D01*
X0223952Y0118300D01*
X0224948Y0117304D01*
X0228827Y0117304D01*
X0230742Y0115389D01*
X0224948Y0115389D01*
X0223952Y0114393D01*
X0223952Y0110819D01*
X0224948Y0109824D01*
X0225815Y0109824D01*
X0225815Y0109201D02*
X0220248Y0109201D01*
X0221112Y0108202D02*
X0225815Y0108202D01*
X0225642Y0107204D02*
X0221525Y0107204D01*
X0221577Y0106205D02*
X0224643Y0106205D01*
X0223645Y0105207D02*
X0221408Y0105207D01*
X0220963Y0104208D02*
X0222646Y0104208D01*
X0225873Y0101212D02*
X0229651Y0101212D01*
X0228652Y0100214D02*
X0224875Y0100214D01*
X0223876Y0099215D02*
X0227654Y0099215D01*
X0226872Y0102211D02*
X0230649Y0102211D01*
X0231648Y0103209D02*
X0227870Y0103209D01*
X0228869Y0104208D02*
X0234829Y0104208D01*
X0234384Y0105207D02*
X0229867Y0105207D01*
X0230215Y0106205D02*
X0234215Y0106205D01*
X0234267Y0107204D02*
X0230215Y0107204D01*
X0230215Y0108202D02*
X0234680Y0108202D01*
X0235544Y0109201D02*
X0230215Y0109201D01*
X0231456Y0110199D02*
X0235696Y0110199D01*
X0234934Y0111198D02*
X0232077Y0111198D01*
X0232077Y0112196D02*
X0233935Y0112196D01*
X0232937Y0113195D02*
X0232077Y0113195D01*
X0229941Y0116190D02*
X0221640Y0116190D01*
X0221640Y0115192D02*
X0224751Y0115192D01*
X0223952Y0114193D02*
X0221840Y0114193D01*
X0221840Y0113195D02*
X0223952Y0113195D01*
X0223952Y0112196D02*
X0221840Y0112196D01*
X0221840Y0111198D02*
X0223952Y0111198D01*
X0224573Y0110199D02*
X0221219Y0110199D01*
X0217778Y0112606D02*
X0217778Y0106465D01*
X0217896Y0106346D01*
X0214829Y0104208D02*
X0210240Y0104208D01*
X0214384Y0105207D02*
X0147147Y0105207D01*
X0146149Y0106205D02*
X0214215Y0106205D01*
X0214267Y0107204D02*
X0145150Y0107204D01*
X0144152Y0108202D02*
X0214680Y0108202D01*
X0215544Y0109201D02*
X0143153Y0109201D01*
X0142155Y0110199D02*
X0174336Y0110199D01*
X0173715Y0111198D02*
X0141156Y0111198D01*
X0140158Y0112196D02*
X0173715Y0112196D01*
X0173715Y0113195D02*
X0156559Y0113195D01*
X0156774Y0114193D02*
X0173715Y0114193D01*
X0174514Y0115192D02*
X0156774Y0115192D01*
X0153085Y0115192D02*
X0152707Y0115192D01*
X0152707Y0114193D02*
X0153085Y0114193D01*
X0153085Y0113195D02*
X0152707Y0113195D01*
X0149233Y0113195D02*
X0139906Y0113195D01*
X0140949Y0114193D02*
X0149018Y0114193D01*
X0149018Y0115192D02*
X0141402Y0115192D01*
X0152707Y0117189D02*
X0153085Y0117189D01*
X0153085Y0118187D02*
X0152707Y0118187D01*
X0152707Y0119186D02*
X0153085Y0119186D01*
X0153085Y0120184D02*
X0152707Y0120184D01*
X0170180Y0127174D02*
X0172896Y0127174D01*
X0172896Y0128172D02*
X0170096Y0128172D01*
X0170096Y0129171D02*
X0172896Y0129171D01*
X0172896Y0130169D02*
X0170096Y0130169D01*
X0170096Y0131168D02*
X0172896Y0131168D01*
X0172896Y0132166D02*
X0170096Y0132166D01*
X0170096Y0133165D02*
X0172896Y0133165D01*
X0172896Y0134163D02*
X0170096Y0134163D01*
X0170096Y0135162D02*
X0172896Y0135162D01*
X0172896Y0136160D02*
X0170096Y0136160D01*
X0170096Y0137159D02*
X0172896Y0137159D01*
X0172896Y0138157D02*
X0170096Y0138157D01*
X0170911Y0139156D02*
X0172896Y0139156D01*
X0172896Y0140154D02*
X0171387Y0140154D01*
X0171577Y0141153D02*
X0172896Y0141153D01*
X0172896Y0142151D02*
X0171547Y0142151D01*
X0171133Y0143150D02*
X0172896Y0143150D01*
X0172896Y0144148D02*
X0170300Y0144148D01*
X0172896Y0145147D02*
X0167536Y0145147D01*
X0166680Y0146145D02*
X0172896Y0146145D01*
X0172896Y0147144D02*
X0165824Y0147144D01*
X0164968Y0148143D02*
X0172896Y0148143D01*
X0171990Y0149141D02*
X0164113Y0149141D01*
X0163257Y0150140D02*
X0170992Y0150140D01*
X0169993Y0151138D02*
X0162401Y0151138D01*
X0161545Y0152137D02*
X0168995Y0152137D01*
X0167996Y0153135D02*
X0160689Y0153135D01*
X0159833Y0154134D02*
X0166998Y0154134D01*
X0165999Y0155132D02*
X0158977Y0155132D01*
X0158122Y0156131D02*
X0165001Y0156131D01*
X0164002Y0157129D02*
X0157266Y0157129D01*
X0156410Y0158128D02*
X0161048Y0158128D01*
X0159911Y0159126D02*
X0155554Y0159126D01*
X0154698Y0160125D02*
X0159418Y0160125D01*
X0159215Y0161123D02*
X0153842Y0161123D01*
X0152986Y0162122D02*
X0159233Y0162122D01*
X0159646Y0163120D02*
X0152130Y0163120D01*
X0151275Y0164119D02*
X0160462Y0164119D01*
X0162896Y0161346D02*
X0188015Y0136228D01*
X0188015Y0120087D01*
X0186755Y0121346D01*
X0182896Y0121346D01*
X0182896Y0116346D01*
X0186636Y0112606D01*
X0188015Y0112606D01*
X0183935Y0112196D02*
X0181840Y0112196D01*
X0181840Y0111198D02*
X0183952Y0111198D01*
X0184573Y0110199D02*
X0181219Y0110199D01*
X0181840Y0113195D02*
X0182937Y0113195D01*
X0181938Y0114193D02*
X0181840Y0114193D01*
X0188015Y0116346D02*
X0192896Y0116346D01*
X0197896Y0111346D01*
X0197896Y0106346D01*
X0192896Y0106346D01*
X0191456Y0110199D02*
X0214336Y0110199D01*
X0213715Y0111198D02*
X0192077Y0111198D01*
X0192077Y0112196D02*
X0213715Y0112196D01*
X0213715Y0113195D02*
X0192077Y0113195D01*
X0192077Y0114193D02*
X0213715Y0114193D01*
X0213915Y0115192D02*
X0191877Y0115192D01*
X0191877Y0116190D02*
X0213915Y0116190D01*
X0213915Y0117189D02*
X0191877Y0117189D01*
X0188015Y0116346D02*
X0217778Y0116346D01*
X0217778Y0120087D02*
X0217896Y0124968D01*
X0212896Y0126346D01*
X0220078Y0124178D02*
X0220426Y0124178D01*
X0220053Y0123180D02*
X0221755Y0123180D01*
X0221532Y0122181D02*
X0223084Y0122181D01*
X0223952Y0121183D02*
X0221840Y0121183D01*
X0221840Y0120184D02*
X0223952Y0120184D01*
X0223952Y0119186D02*
X0221840Y0119186D01*
X0221727Y0118187D02*
X0224065Y0118187D01*
X0221640Y0117189D02*
X0228943Y0117189D01*
X0229156Y0120087D02*
X0237896Y0111346D01*
X0237896Y0106346D01*
X0247896Y0111346D02*
X0257896Y0121346D01*
X0262896Y0121346D01*
X0265022Y0120283D01*
X0264538Y0115192D02*
X0265506Y0115192D01*
X0265506Y0114193D02*
X0264538Y0114193D01*
X0264538Y0113195D02*
X0265506Y0113195D01*
X0251626Y0118187D02*
X0244167Y0118187D01*
X0245165Y0117189D02*
X0250627Y0117189D01*
X0249628Y0116190D02*
X0246164Y0116190D01*
X0247162Y0115192D02*
X0248630Y0115192D01*
X0247896Y0111346D02*
X0227896Y0131346D01*
X0236179Y0126175D02*
X0266354Y0126175D01*
X0267055Y0125177D02*
X0237177Y0125177D01*
X0229156Y0120087D02*
X0228015Y0120087D01*
X0228015Y0121228D01*
X0207896Y0136346D01*
X0197896Y0136346D01*
X0192896Y0126346D01*
X0185815Y0126175D02*
X0171179Y0126175D01*
X0172177Y0125177D02*
X0185815Y0125177D01*
X0185815Y0124178D02*
X0173176Y0124178D01*
X0174174Y0123180D02*
X0181618Y0123180D01*
X0177778Y0120087D02*
X0174156Y0120087D01*
X0188015Y0120087D02*
X0217778Y0120087D01*
X0205552Y0104208D02*
X0148146Y0104208D01*
X0149144Y0103209D02*
X0204683Y0103209D01*
X0204270Y0102211D02*
X0150143Y0102211D01*
X0151141Y0101212D02*
X0204215Y0101212D01*
X0204381Y0100214D02*
X0152140Y0100214D01*
X0153138Y0099215D02*
X0204821Y0099215D01*
X0205832Y0098217D02*
X0154137Y0098217D01*
X0157896Y0071346D02*
X0152896Y0066346D01*
X0072896Y0146346D01*
X0070485Y0149141D02*
X0055307Y0149141D01*
X0042896Y0151346D02*
X0057896Y0136346D01*
X0069211Y0148143D02*
X0069656Y0148143D01*
X0075307Y0149141D02*
X0075485Y0149141D01*
X0077896Y0146346D02*
X0102896Y0146346D01*
X0107896Y0151346D02*
X0082896Y0151346D01*
X0087896Y0156346D02*
X0086196Y0159646D01*
X0082896Y0164646D01*
X0088243Y0169111D02*
X0090455Y0169111D01*
X0089643Y0168113D02*
X0089241Y0168113D01*
X0092896Y0166346D02*
X0102896Y0156346D01*
X0105322Y0159126D02*
X0112564Y0159126D01*
X0111566Y0158128D02*
X0106143Y0158128D01*
X0106556Y0157129D02*
X0110567Y0157129D01*
X0109569Y0156131D02*
X0106577Y0156131D01*
X0106377Y0155132D02*
X0108570Y0155132D01*
X0107572Y0154134D02*
X0105889Y0154134D01*
X0107896Y0151346D02*
X0122896Y0166346D01*
X0122896Y0176346D01*
X0130496Y0176101D02*
X0134215Y0176101D01*
X0134224Y0177099D02*
X0131286Y0177099D01*
X0132284Y0178098D02*
X0134637Y0178098D01*
X0135440Y0179096D02*
X0133283Y0179096D01*
X0133296Y0180095D02*
X0165696Y0180095D01*
X0165696Y0181093D02*
X0133296Y0181093D01*
X0133296Y0182092D02*
X0165696Y0182092D01*
X0165696Y0183090D02*
X0133296Y0183090D01*
X0132790Y0184089D02*
X0165696Y0184089D01*
X0165696Y0185087D02*
X0131792Y0185087D01*
X0130793Y0186086D02*
X0165045Y0186086D01*
X0164047Y0187084D02*
X0131271Y0187084D01*
X0132269Y0188083D02*
X0163048Y0188083D01*
X0162050Y0189081D02*
X0133268Y0189081D01*
X0133296Y0190080D02*
X0161051Y0190080D01*
X0160053Y0191078D02*
X0133296Y0191078D01*
X0133296Y0192077D02*
X0159054Y0192077D01*
X0158056Y0193076D02*
X0133296Y0193076D01*
X0132805Y0194074D02*
X0157057Y0194074D01*
X0156059Y0195073D02*
X0131807Y0195073D01*
X0130808Y0196071D02*
X0155060Y0196071D01*
X0154062Y0197070D02*
X0111577Y0197070D01*
X0111577Y0196071D02*
X0112816Y0196071D01*
X0111167Y0198068D02*
X0153063Y0198068D01*
X0152065Y0199067D02*
X0110382Y0199067D01*
X0105410Y0199067D02*
X0058727Y0199067D01*
X0057729Y0198068D02*
X0096506Y0198068D01*
X0095508Y0197070D02*
X0056730Y0197070D01*
X0056577Y0196071D02*
X0094509Y0196071D01*
X0093511Y0195073D02*
X0056353Y0195073D01*
X0055830Y0194074D02*
X0092512Y0194074D01*
X0091514Y0193076D02*
X0054619Y0193076D01*
X0051577Y0192077D02*
X0090515Y0192077D01*
X0089517Y0191078D02*
X0051577Y0191078D01*
X0051356Y0190080D02*
X0088518Y0190080D01*
X0087520Y0189081D02*
X0050837Y0189081D01*
X0049636Y0188083D02*
X0086521Y0188083D01*
X0097744Y0188083D02*
X0106156Y0188083D01*
X0104955Y0189081D02*
X0098742Y0189081D01*
X0097896Y0191346D02*
X0082896Y0176346D01*
X0082896Y0171346D01*
X0092896Y0161346D01*
X0127788Y0158128D02*
X0141048Y0158128D01*
X0139911Y0159126D02*
X0128787Y0159126D01*
X0128780Y0164119D02*
X0140462Y0164119D01*
X0146995Y0169111D02*
X0165696Y0169111D01*
X0165696Y0168113D02*
X0147851Y0168113D01*
X0148707Y0167114D02*
X0165696Y0167114D01*
X0165696Y0166116D02*
X0149563Y0166116D01*
X0150419Y0165117D02*
X0166014Y0165117D01*
X0165330Y0164119D02*
X0167013Y0164119D01*
X0166146Y0163120D02*
X0168011Y0163120D01*
X0169010Y0162122D02*
X0166559Y0162122D01*
X0166577Y0161123D02*
X0170008Y0161123D01*
X0171007Y0160125D02*
X0167229Y0160125D01*
X0168228Y0159126D02*
X0172005Y0159126D01*
X0172896Y0158128D02*
X0169226Y0158128D01*
X0170225Y0157129D02*
X0172896Y0157129D01*
X0172896Y0156131D02*
X0171223Y0156131D01*
X0172222Y0155132D02*
X0172896Y0155132D01*
X0165696Y0170110D02*
X0146139Y0170110D01*
X0145284Y0171108D02*
X0165696Y0171108D01*
X0165696Y0172107D02*
X0144428Y0172107D01*
X0143572Y0173105D02*
X0165696Y0173105D01*
X0165696Y0174104D02*
X0142716Y0174104D01*
X0141860Y0175102D02*
X0165696Y0175102D01*
X0165696Y0176101D02*
X0141577Y0176101D01*
X0141569Y0177099D02*
X0165696Y0177099D01*
X0165696Y0178098D02*
X0141155Y0178098D01*
X0140352Y0179096D02*
X0165696Y0179096D01*
X0151066Y0200065D02*
X0059726Y0200065D01*
X0060724Y0201064D02*
X0150441Y0201064D01*
X0149775Y0202062D02*
X0061723Y0202062D01*
X0062721Y0203061D02*
X0149109Y0203061D01*
X0148444Y0204059D02*
X0063720Y0204059D01*
X0064719Y0205058D02*
X0147778Y0205058D01*
X0147112Y0206056D02*
X0065717Y0206056D01*
X0066716Y0207055D02*
X0146447Y0207055D01*
X0145781Y0208053D02*
X0067714Y0208053D01*
X0068713Y0209052D02*
X0145115Y0209052D01*
X0144449Y0210050D02*
X0069711Y0210050D01*
X0070710Y0211049D02*
X0143784Y0211049D01*
X0143118Y0212047D02*
X0071708Y0212047D01*
X0072707Y0213046D02*
X0142452Y0213046D01*
X0141787Y0214044D02*
X0073705Y0214044D01*
X0072896Y0216346D02*
X0052896Y0196346D01*
X0049439Y0195073D02*
X0040268Y0195073D01*
X0040096Y0194074D02*
X0045418Y0194074D01*
X0044628Y0193076D02*
X0040096Y0193076D01*
X0040096Y0192077D02*
X0044215Y0192077D01*
X0044215Y0191078D02*
X0040096Y0191078D01*
X0040096Y0190080D02*
X0043518Y0190080D01*
X0042520Y0189081D02*
X0040096Y0189081D01*
X0040096Y0188083D02*
X0041521Y0188083D01*
X0040696Y0187084D02*
X0040096Y0187084D01*
X0040096Y0186086D02*
X0040696Y0186086D01*
X0040696Y0185087D02*
X0040096Y0185087D01*
X0040096Y0184089D02*
X0040696Y0184089D01*
X0040696Y0183090D02*
X0040096Y0183090D01*
X0040096Y0182092D02*
X0040696Y0182092D01*
X0040696Y0181093D02*
X0040096Y0181093D01*
X0040096Y0180095D02*
X0040696Y0180095D01*
X0040696Y0179096D02*
X0040096Y0179096D01*
X0040096Y0178098D02*
X0040696Y0178098D01*
X0040696Y0177099D02*
X0040096Y0177099D01*
X0040096Y0176101D02*
X0040696Y0176101D01*
X0040696Y0175102D02*
X0040096Y0175102D01*
X0040096Y0174104D02*
X0040696Y0174104D01*
X0040696Y0173105D02*
X0040096Y0173105D01*
X0040096Y0172107D02*
X0040696Y0172107D01*
X0040696Y0171108D02*
X0040096Y0171108D01*
X0040096Y0170110D02*
X0040696Y0170110D01*
X0040696Y0169111D02*
X0040096Y0169111D01*
X0040096Y0168113D02*
X0040696Y0168113D01*
X0040696Y0167114D02*
X0040096Y0167114D01*
X0040096Y0166116D02*
X0040696Y0166116D01*
X0040696Y0165117D02*
X0040096Y0165117D01*
X0040096Y0164119D02*
X0040696Y0164119D01*
X0042896Y0151346D02*
X0042896Y0186346D01*
X0047896Y0191346D01*
X0051164Y0193076D02*
X0051174Y0193076D01*
X0049215Y0196071D02*
X0042265Y0196071D01*
X0044262Y0197070D02*
X0049215Y0197070D01*
X0049625Y0198068D02*
X0046259Y0198068D01*
X0048256Y0199067D02*
X0050410Y0199067D01*
X0050253Y0200065D02*
X0053503Y0200065D01*
X0054502Y0201064D02*
X0052250Y0201064D01*
X0054247Y0202062D02*
X0055500Y0202062D01*
X0057896Y0206346D02*
X0037896Y0196346D01*
X0037896Y0146346D01*
X0032896Y0141346D01*
X0032896Y0106346D01*
X0027896Y0101346D01*
X0031577Y0101212D02*
X0065696Y0101212D01*
X0065696Y0100214D02*
X0031411Y0100214D01*
X0030971Y0099215D02*
X0065696Y0099215D01*
X0065696Y0098217D02*
X0029960Y0098217D01*
X0031872Y0102211D02*
X0065696Y0102211D01*
X0065696Y0103209D02*
X0032870Y0103209D01*
X0033869Y0104208D02*
X0064829Y0104208D01*
X0064384Y0105207D02*
X0034867Y0105207D01*
X0035096Y0106205D02*
X0064215Y0106205D01*
X0064267Y0107204D02*
X0035096Y0107204D01*
X0035096Y0108202D02*
X0064680Y0108202D01*
X0065544Y0109201D02*
X0035096Y0109201D01*
X0035096Y0110199D02*
X0070932Y0110199D01*
X0070248Y0109201D02*
X0071931Y0109201D01*
X0071112Y0108202D02*
X0072929Y0108202D01*
X0073928Y0107204D02*
X0071525Y0107204D01*
X0071577Y0106205D02*
X0074926Y0106205D01*
X0075925Y0105207D02*
X0071408Y0105207D01*
X0070963Y0104208D02*
X0075552Y0104208D01*
X0074683Y0103209D02*
X0070096Y0103209D01*
X0070096Y0102211D02*
X0074270Y0102211D01*
X0074215Y0101212D02*
X0070096Y0101212D01*
X0070096Y0100214D02*
X0074381Y0100214D01*
X0074821Y0099215D02*
X0070096Y0099215D01*
X0070096Y0098217D02*
X0075696Y0098217D01*
X0075696Y0097218D02*
X0070096Y0097218D01*
X0070096Y0096220D02*
X0075696Y0096220D01*
X0075696Y0095221D02*
X0070096Y0095221D01*
X0070096Y0094223D02*
X0075696Y0094223D01*
X0075696Y0093224D02*
X0070096Y0093224D01*
X0070096Y0092226D02*
X0075696Y0092226D01*
X0075696Y0091227D02*
X0070096Y0091227D01*
X0070096Y0090229D02*
X0075696Y0090229D01*
X0075696Y0089230D02*
X0070096Y0089230D01*
X0070096Y0088232D02*
X0075696Y0088232D01*
X0075696Y0087233D02*
X0070096Y0087233D01*
X0070096Y0086235D02*
X0075696Y0086235D01*
X0075696Y0085236D02*
X0069897Y0085236D01*
X0068899Y0084238D02*
X0075696Y0084238D01*
X0075696Y0083239D02*
X0067900Y0083239D01*
X0066902Y0082241D02*
X0075111Y0082241D01*
X0073446Y0081242D02*
X0065903Y0081242D01*
X0064905Y0080244D02*
X0071782Y0080244D01*
X0067896Y0086346D02*
X0067896Y0106346D01*
X0069934Y0111198D02*
X0035096Y0111198D01*
X0035096Y0112196D02*
X0068935Y0112196D01*
X0067937Y0113195D02*
X0035096Y0113195D01*
X0035096Y0114193D02*
X0066938Y0114193D01*
X0065940Y0115192D02*
X0035096Y0115192D01*
X0035096Y0116190D02*
X0064941Y0116190D01*
X0063943Y0117189D02*
X0035096Y0117189D01*
X0035096Y0118187D02*
X0050904Y0118187D01*
X0049851Y0119186D02*
X0035096Y0119186D01*
X0035096Y0120184D02*
X0049393Y0120184D01*
X0049215Y0121183D02*
X0035096Y0121183D01*
X0035096Y0122181D02*
X0049257Y0122181D01*
X0049671Y0123180D02*
X0035096Y0123180D01*
X0035096Y0124178D02*
X0050522Y0124178D01*
X0054888Y0118187D02*
X0062944Y0118187D01*
X0027896Y0106346D02*
X0027896Y0141346D01*
X0032896Y0146346D01*
X0032896Y0196346D01*
X0042896Y0206346D01*
X0044055Y0209052D02*
X0022396Y0209052D01*
X0022396Y0210050D02*
X0047050Y0210050D01*
X0050046Y0211049D02*
X0022396Y0211049D01*
X0022396Y0212047D02*
X0053041Y0212047D01*
X0056037Y0213046D02*
X0022396Y0213046D01*
X0022396Y0214044D02*
X0060388Y0214044D01*
X0035500Y0202062D02*
X0022396Y0202062D01*
X0022396Y0201064D02*
X0034502Y0201064D01*
X0033503Y0200065D02*
X0022396Y0200065D01*
X0022396Y0199067D02*
X0032505Y0199067D01*
X0031506Y0198068D02*
X0022396Y0198068D01*
X0022396Y0197070D02*
X0030696Y0197070D01*
X0030696Y0196071D02*
X0022396Y0196071D01*
X0022396Y0195073D02*
X0030696Y0195073D01*
X0030696Y0194074D02*
X0022396Y0194074D01*
X0022396Y0193076D02*
X0030696Y0193076D01*
X0030696Y0192077D02*
X0022396Y0192077D01*
X0022396Y0191078D02*
X0030696Y0191078D01*
X0030696Y0190080D02*
X0022396Y0190080D01*
X0022396Y0189081D02*
X0030696Y0189081D01*
X0030696Y0188083D02*
X0022396Y0188083D01*
X0022396Y0187084D02*
X0030696Y0187084D01*
X0030696Y0186086D02*
X0022396Y0186086D01*
X0022396Y0185087D02*
X0030696Y0185087D01*
X0030696Y0184089D02*
X0022396Y0184089D01*
X0022396Y0183090D02*
X0030696Y0183090D01*
X0030696Y0182092D02*
X0022396Y0182092D01*
X0022396Y0181093D02*
X0030696Y0181093D01*
X0030696Y0180095D02*
X0022396Y0180095D01*
X0022396Y0179096D02*
X0030696Y0179096D01*
X0030696Y0178098D02*
X0022396Y0178098D01*
X0097896Y0191346D02*
X0107896Y0191346D01*
X0122976Y0196071D02*
X0124984Y0196071D01*
X0123985Y0195073D02*
X0123296Y0195073D01*
X0067896Y0086346D02*
X0047896Y0066346D01*
X0047896Y0041346D01*
X0046361Y0042882D01*
X0040770Y0042882D01*
X0048973Y0034312D02*
X0049754Y0034312D01*
X0050696Y0033314D02*
X0047975Y0033314D01*
X0046976Y0032315D02*
X0050696Y0032315D01*
X0049755Y0031317D02*
X0044798Y0031317D01*
X0044435Y0030318D02*
X0048757Y0030318D01*
X0047758Y0029320D02*
X0044435Y0029320D01*
X0024309Y0017338D02*
X0022396Y0017338D01*
X0022396Y0016339D02*
X0024309Y0016339D01*
X0159055Y0043299D02*
X0159720Y0043299D01*
X0178959Y0032409D02*
X0182896Y0036346D01*
X0182975Y0033314D02*
X0190723Y0033314D01*
X0178959Y0032409D02*
X0178959Y0026346D01*
X0223631Y0023329D02*
X0226275Y0023329D01*
X0226275Y0022330D02*
X0223631Y0022330D01*
X0223631Y0021332D02*
X0226275Y0021332D01*
X0226275Y0020333D02*
X0223631Y0020333D01*
X0223631Y0019335D02*
X0226275Y0019335D01*
X0226275Y0018336D02*
X0223631Y0018336D01*
X0223279Y0017338D02*
X0226627Y0017338D01*
X0280863Y0125177D02*
X0287097Y0125177D01*
X0287097Y0126175D02*
X0281565Y0126175D01*
M02*
