%
M48
M72
T01C0.02362
T02C0.02756
T03C0.03200
T04C0.03346
T05C0.04000
%
T01
X52896Y36346
X57896Y31346
X62896Y51346
X57896Y61346
X72896Y66346
X77896Y56346
X102896Y71346
X102896Y76346
X77896Y101346
X67896Y106346
X57896Y111346
X52896Y101346
X57896Y91346
X27896Y86346
X27896Y101346
X27896Y106346
X42896Y116346
X52896Y121346
X42896Y126346
X52896Y136346
X52896Y146346
X62896Y131346
X67896Y131346
X72896Y146346
X77896Y146346
X82896Y151346
X87896Y156346
X92896Y161346
X92896Y166346
X102896Y156346
X112896Y151346
X112896Y146346
X107896Y146346
X112896Y161346
X112896Y176346
X122896Y176346
X137896Y176346
X137896Y171346
X142896Y161346
X133408Y155835
X162896Y161346
X167896Y141346
X192896Y126346
X202896Y111346
X192896Y106346
X177896Y106346
X162896Y116346
X137896Y116346
X147896Y76346
X162896Y76346
X162896Y61346
X162896Y46346
X162896Y41346
X157896Y31346
X147896Y26346
X142896Y26346
X147896Y41346
X117896Y41346
X112896Y36346
X107896Y26346
X92896Y21346
X172896Y16346
X197896Y26346
X207896Y21346
X207896Y31346
X197896Y41346
X192896Y36346
X187896Y56346
X182896Y56346
X207896Y61346
X217896Y51346
X227896Y61346
X232896Y56346
X262896Y36346
X277896Y31346
X282896Y61346
X272896Y81346
X272896Y86346
X277896Y91346
X257896Y81346
X242896Y91346
X232896Y96346
X237896Y106346
X217896Y106346
X207896Y101346
X212896Y126346
X227896Y131346
X142896Y201346
X132896Y201346
X107896Y196346
X107896Y191346
X92896Y181346
X77896Y186346
X87896Y196346
X72896Y206346
X62896Y211346
X57896Y206346
X52896Y196346
X47896Y191346
X62896Y186346
X32896Y206346
X27896Y211346
X42896Y211346
X22896Y176346
X92896Y211346
T02
X117896Y116346
X152896Y116346
T03
X107896Y61346
X100396Y56346
X107896Y51346
T04
X225416Y30008
X240376Y30008
T05
X257896Y70346
X247896Y71346
X267896Y71346
X277896Y70346
X127896Y171346
X117896Y171346
X117896Y181346
X127896Y181346
X127896Y191346
X117896Y191346
M30
