G75*
%MOIN*%
%OFA0B0*%
%FSLAX25Y25*%
%IPPOS*%
%LPD*%
%AMOC8*
5,1,8,0,0,1.08239X$1,22.5*
%
%ADD10R,0.07887X0.07099*%
%ADD11R,0.07099X0.07887*%
%ADD12R,0.04068X0.03280*%
%ADD13R,0.06800X0.02600*%
%ADD14R,0.08674X0.03753*%
%ADD15R,0.08200X0.08200*%
%ADD16OC8,0.08200*%
%ADD17R,0.07099X0.07898*%
%ADD18C,0.04146*%
%ADD19R,0.06312X0.08280*%
%ADD20R,0.06902X0.05918*%
%ADD21OC8,0.06000*%
%ADD22R,0.07887X0.03950*%
%ADD23R,0.05556X0.05556*%
%ADD24R,0.08674X0.04737*%
%ADD25R,0.04737X0.07887*%
%ADD26R,0.06600X0.02800*%
%ADD27R,0.02800X0.06600*%
%ADD28C,0.06800*%
%ADD29C,0.04762*%
D10*
X0027896Y0120835D03*
X0027896Y0131858D03*
X0102896Y0165835D03*
X0102896Y0176858D03*
X0107896Y0136858D03*
X0107896Y0125835D03*
D11*
X0122384Y0131346D03*
X0133408Y0131346D03*
X0133408Y0141346D03*
X0133408Y0151346D03*
X0122384Y0151346D03*
X0122384Y0141346D03*
X0147384Y0141346D03*
X0158408Y0141346D03*
X0158408Y0151346D03*
X0147384Y0151346D03*
X0147384Y0131346D03*
X0158408Y0131346D03*
X0157384Y0101346D03*
X0168408Y0101346D03*
X0187384Y0096346D03*
X0198408Y0096346D03*
X0198408Y0081346D03*
X0187384Y0081346D03*
X0197384Y0051346D03*
X0208408Y0051346D03*
X0227384Y0081346D03*
X0238408Y0081346D03*
X0252384Y0051346D03*
X0263408Y0051346D03*
X0158408Y0171346D03*
X0147384Y0171346D03*
X0147384Y0181346D03*
X0158408Y0181346D03*
X0038408Y0196346D03*
X0027384Y0196346D03*
X0027384Y0156346D03*
X0038408Y0156346D03*
D12*
X0142896Y0100874D03*
X0142896Y0091819D03*
D13*
X0125896Y0092546D03*
X0125896Y0095046D03*
X0125896Y0097646D03*
X0125896Y0100146D03*
X0109896Y0100146D03*
X0109896Y0097646D03*
X0109896Y0095046D03*
X0109896Y0092546D03*
D14*
X0232896Y0187961D03*
X0232896Y0214732D03*
D15*
X0117896Y0191346D03*
D16*
X0127896Y0191346D03*
X0127896Y0181346D03*
X0117896Y0181346D03*
X0117896Y0171346D03*
X0127896Y0171346D03*
D17*
X0157298Y0091346D03*
X0168494Y0091346D03*
X0187298Y0071346D03*
X0198494Y0071346D03*
X0227298Y0071346D03*
X0238494Y0071346D03*
D18*
X0240376Y0030008D03*
X0225416Y0030008D03*
D19*
X0037620Y0167685D03*
X0028172Y0167685D03*
X0028172Y0185008D03*
X0037620Y0185008D03*
D20*
X0187246Y0040205D03*
X0187246Y0022488D03*
X0218546Y0022488D03*
X0218546Y0040205D03*
X0242246Y0040205D03*
X0242246Y0022488D03*
X0273546Y0022488D03*
X0273546Y0040205D03*
D21*
X0107896Y0051346D03*
X0100396Y0056346D03*
X0107896Y0061346D03*
D22*
X0125849Y0060008D03*
X0125849Y0064339D03*
X0125849Y0068669D03*
X0125849Y0073000D03*
X0125849Y0077331D03*
X0125849Y0048197D03*
X0125849Y0043866D03*
X0125849Y0039535D03*
X0125849Y0035205D03*
X0125849Y0030874D03*
X0125849Y0026543D03*
X0125849Y0022213D03*
X0173093Y0022213D03*
X0173093Y0026543D03*
X0173093Y0030874D03*
X0173093Y0035205D03*
X0173093Y0039535D03*
X0173093Y0043866D03*
X0173093Y0048197D03*
X0173093Y0060008D03*
X0173093Y0064339D03*
X0173093Y0068669D03*
X0173093Y0073000D03*
X0173093Y0077331D03*
D23*
X0152896Y0116346D03*
X0117896Y0116346D03*
D24*
X0037896Y0030480D03*
X0037896Y0036386D03*
X0037896Y0042291D03*
X0037896Y0048197D03*
X0037896Y0054102D03*
X0037896Y0060008D03*
X0037896Y0065913D03*
X0037896Y0071819D03*
X0037896Y0077724D03*
X0037896Y0083630D03*
X0037896Y0089535D03*
X0037896Y0095441D03*
X0037896Y0101346D03*
X0089077Y0101346D03*
X0089077Y0095441D03*
X0089077Y0089535D03*
X0089077Y0083630D03*
X0089077Y0077724D03*
X0089077Y0071819D03*
X0089077Y0065913D03*
X0089077Y0060008D03*
X0089077Y0054102D03*
X0089077Y0048197D03*
X0089077Y0042291D03*
X0089077Y0036386D03*
X0089077Y0030480D03*
D25*
X0084156Y0023591D03*
X0078250Y0023591D03*
X0072345Y0023591D03*
X0066439Y0023591D03*
X0060534Y0023591D03*
X0054628Y0023591D03*
X0048723Y0023591D03*
X0042817Y0023591D03*
D26*
X0051196Y0165346D03*
X0051196Y0168446D03*
X0051196Y0171646D03*
X0051196Y0174746D03*
X0051196Y0177946D03*
X0051196Y0181046D03*
X0051196Y0184246D03*
X0051196Y0187346D03*
X0084596Y0187346D03*
X0084596Y0184246D03*
X0084596Y0181046D03*
X0084596Y0177946D03*
X0084596Y0174746D03*
X0084596Y0171646D03*
X0084596Y0168446D03*
X0084596Y0165346D03*
D27*
X0078896Y0159646D03*
X0075796Y0159646D03*
X0072596Y0159646D03*
X0069496Y0159646D03*
X0066296Y0159646D03*
X0063196Y0159646D03*
X0059996Y0159646D03*
X0056896Y0159646D03*
X0056896Y0193046D03*
X0059996Y0193046D03*
X0063196Y0193046D03*
X0066296Y0193046D03*
X0069496Y0193046D03*
X0072596Y0193046D03*
X0075796Y0193046D03*
X0078896Y0193046D03*
D28*
X0247896Y0074346D02*
X0247896Y0068346D01*
X0257896Y0067346D02*
X0257896Y0073346D01*
X0267896Y0074346D02*
X0267896Y0068346D01*
X0277896Y0067346D02*
X0277896Y0073346D01*
D29*
X0272896Y0081346D03*
X0272896Y0086346D03*
X0277896Y0091346D03*
X0257896Y0081346D03*
X0242896Y0091346D03*
X0232896Y0096346D03*
X0237896Y0106346D03*
X0217896Y0106346D03*
X0207896Y0101346D03*
X0202896Y0111346D03*
X0192896Y0106346D03*
X0177896Y0106346D03*
X0162896Y0116346D03*
X0137896Y0116346D03*
X0167896Y0141346D03*
X0192896Y0126346D03*
X0212896Y0126346D03*
X0227896Y0131346D03*
X0162896Y0161346D03*
X0142896Y0161346D03*
X0133408Y0155835D03*
X0137896Y0171346D03*
X0137896Y0176346D03*
X0122896Y0176346D03*
X0112896Y0176346D03*
X0107896Y0191346D03*
X0107896Y0196346D03*
X0092896Y0211346D03*
X0087896Y0196346D03*
X0077896Y0186346D03*
X0062896Y0186346D03*
X0052896Y0196346D03*
X0047896Y0191346D03*
X0057896Y0206346D03*
X0062896Y0211346D03*
X0072896Y0206346D03*
X0042896Y0211346D03*
X0032896Y0206346D03*
X0027896Y0211346D03*
X0022896Y0176346D03*
X0052896Y0146346D03*
X0052896Y0136346D03*
X0062896Y0131346D03*
X0067896Y0131346D03*
X0052896Y0121346D03*
X0042896Y0116346D03*
X0042896Y0126346D03*
X0057896Y0111346D03*
X0052896Y0101346D03*
X0057896Y0091346D03*
X0067896Y0106346D03*
X0077896Y0101346D03*
X0102896Y0076346D03*
X0102896Y0071346D03*
X0077896Y0056346D03*
X0072896Y0066346D03*
X0057896Y0061346D03*
X0062896Y0051346D03*
X0052896Y0036346D03*
X0057896Y0031346D03*
X0092896Y0021346D03*
X0107896Y0026346D03*
X0112896Y0036346D03*
X0117896Y0041346D03*
X0142896Y0026346D03*
X0147896Y0026346D03*
X0157896Y0031346D03*
X0162896Y0041346D03*
X0162896Y0046346D03*
X0147896Y0041346D03*
X0162896Y0061346D03*
X0162896Y0076346D03*
X0147896Y0076346D03*
X0182896Y0056346D03*
X0187896Y0056346D03*
X0197896Y0041346D03*
X0192896Y0036346D03*
X0197896Y0026346D03*
X0207896Y0021346D03*
X0207896Y0031346D03*
X0217896Y0051346D03*
X0207896Y0061346D03*
X0227896Y0061346D03*
X0232896Y0056346D03*
X0262896Y0036346D03*
X0277896Y0031346D03*
X0282896Y0061346D03*
X0172896Y0016346D03*
X0027896Y0086346D03*
X0027896Y0101346D03*
X0027896Y0106346D03*
X0072896Y0146346D03*
X0077896Y0146346D03*
X0082896Y0151346D03*
X0087896Y0156346D03*
X0092896Y0161346D03*
X0092896Y0166346D03*
X0102896Y0156346D03*
X0112896Y0151346D03*
X0112896Y0146346D03*
X0107896Y0146346D03*
X0112896Y0161346D03*
X0092896Y0181346D03*
X0132896Y0201346D03*
X0142896Y0201346D03*
M02*
