G75*
%MOIN*%
%OFA0B0*%
%FSLAX25Y25*%
%IPPOS*%
%LPD*%
%AMOC8*
5,1,8,0,0,1.08239X$1,22.5*
%
%ADD10C,0.00800*%
%ADD11C,0.01200*%
%ADD12C,0.01600*%
%ADD13C,0.01000*%
%ADD14C,0.01000*%
D10*
X0029353Y0022646D02*
X0029353Y0055717D01*
X0029353Y0055716D02*
X0029348Y0055842D01*
X0029339Y0055967D01*
X0029326Y0056092D01*
X0029309Y0056216D01*
X0029289Y0056340D01*
X0029265Y0056463D01*
X0029237Y0056585D01*
X0029205Y0056706D01*
X0029169Y0056826D01*
X0029130Y0056945D01*
X0029087Y0057063D01*
X0029040Y0057179D01*
X0028990Y0057294D01*
X0028936Y0057408D01*
X0028878Y0057519D01*
X0028818Y0057629D01*
X0028753Y0057736D01*
X0028686Y0057842D01*
X0028615Y0057946D01*
X0028541Y0058047D01*
X0028464Y0058146D01*
X0028384Y0058243D01*
X0028301Y0058337D01*
X0028216Y0058428D01*
X0028127Y0058517D01*
X0028036Y0058602D01*
X0027942Y0058685D01*
X0027845Y0058765D01*
X0027746Y0058842D01*
X0027645Y0058916D01*
X0027541Y0058987D01*
X0027435Y0059054D01*
X0027328Y0059119D01*
X0027218Y0059179D01*
X0027107Y0059237D01*
X0026993Y0059291D01*
X0026878Y0059341D01*
X0026762Y0059388D01*
X0026644Y0059431D01*
X0026525Y0059470D01*
X0026405Y0059506D01*
X0026284Y0059538D01*
X0026162Y0059566D01*
X0026039Y0059590D01*
X0025915Y0059610D01*
X0025791Y0059627D01*
X0025666Y0059640D01*
X0025541Y0059649D01*
X0025415Y0059654D01*
X0025416Y0059654D02*
X0025315Y0059648D01*
X0025215Y0059646D01*
X0025114Y0059648D01*
X0025014Y0059654D01*
X0024914Y0059664D01*
X0024814Y0059678D01*
X0024715Y0059696D01*
X0024617Y0059718D01*
X0024520Y0059743D01*
X0024423Y0059772D01*
X0024328Y0059805D01*
X0024235Y0059842D01*
X0024143Y0059883D01*
X0024052Y0059927D01*
X0023963Y0059974D01*
X0023877Y0060025D01*
X0023792Y0060079D01*
X0023709Y0060137D01*
X0023629Y0060197D01*
X0023552Y0060261D01*
X0023476Y0060328D01*
X0023404Y0060398D01*
X0023334Y0060470D01*
X0023267Y0060546D01*
X0023203Y0060623D01*
X0023143Y0060703D01*
X0023085Y0060786D01*
X0023031Y0060871D01*
X0022980Y0060957D01*
X0022933Y0061046D01*
X0022889Y0061137D01*
X0022848Y0061229D01*
X0022811Y0061322D01*
X0022778Y0061417D01*
X0022749Y0061514D01*
X0022724Y0061611D01*
X0022702Y0061709D01*
X0022684Y0061808D01*
X0022670Y0061908D01*
X0022660Y0062008D01*
X0022654Y0062108D01*
X0022652Y0062209D01*
X0022654Y0062309D01*
X0022660Y0062410D01*
X0022660Y0062409D02*
X0022660Y0065559D01*
X0030928Y0071465D02*
X0082896Y0071465D01*
X0082896Y0052173D01*
X0082896Y0041543D02*
X0082896Y0029732D01*
X0082896Y0019102D02*
X0082896Y0016346D01*
X0035258Y0016346D01*
X0181206Y0111346D02*
X0184587Y0111346D01*
X0180106Y0115290D02*
X0180106Y0117403D01*
X0181206Y0121346D02*
X0184587Y0121346D01*
X0221206Y0121346D02*
X0224587Y0121346D01*
X0225687Y0117403D02*
X0225687Y0115290D01*
X0224587Y0111346D02*
X0221206Y0111346D01*
X0264628Y0108472D02*
X0264628Y0100205D01*
X0265809Y0100205D01*
X0281951Y0100205D02*
X0284707Y0100205D01*
X0284707Y0132882D01*
X0281951Y0132882D01*
X0266203Y0132882D02*
X0264628Y0132882D01*
X0264628Y0124220D01*
D11*
X0248644Y0033157D02*
X0244707Y0033157D01*
X0248616Y0033086D02*
X0248616Y0029220D01*
X0248644Y0029220D01*
X0248644Y0017409D02*
X0248644Y0013472D01*
X0221085Y0033157D02*
X0217148Y0033157D01*
X0217148Y0029220D01*
X0217148Y0017409D02*
X0217148Y0013472D01*
D12*
X0182484Y0031346D02*
X0182486Y0031386D01*
X0182492Y0031426D01*
X0182502Y0031466D01*
X0182515Y0031504D01*
X0182533Y0031540D01*
X0182553Y0031575D01*
X0182578Y0031607D01*
X0182605Y0031637D01*
X0182635Y0031664D01*
X0182667Y0031689D01*
X0182702Y0031709D01*
X0182738Y0031727D01*
X0182776Y0031740D01*
X0182816Y0031750D01*
X0182856Y0031756D01*
X0182896Y0031758D01*
X0182936Y0031756D01*
X0182976Y0031750D01*
X0183016Y0031740D01*
X0183054Y0031727D01*
X0183090Y0031709D01*
X0183125Y0031689D01*
X0183157Y0031664D01*
X0183187Y0031637D01*
X0183214Y0031607D01*
X0183239Y0031575D01*
X0183259Y0031540D01*
X0183277Y0031504D01*
X0183290Y0031466D01*
X0183300Y0031426D01*
X0183306Y0031386D01*
X0183308Y0031346D01*
X0183306Y0031306D01*
X0183300Y0031266D01*
X0183290Y0031226D01*
X0183277Y0031188D01*
X0183259Y0031152D01*
X0183239Y0031117D01*
X0183214Y0031085D01*
X0183187Y0031055D01*
X0183157Y0031028D01*
X0183125Y0031003D01*
X0183090Y0030983D01*
X0183054Y0030965D01*
X0183016Y0030952D01*
X0182976Y0030942D01*
X0182936Y0030936D01*
X0182896Y0030934D01*
X0182856Y0030936D01*
X0182816Y0030942D01*
X0182776Y0030952D01*
X0182738Y0030965D01*
X0182702Y0030983D01*
X0182667Y0031003D01*
X0182635Y0031028D01*
X0182605Y0031055D01*
X0182578Y0031085D01*
X0182553Y0031117D01*
X0182533Y0031152D01*
X0182515Y0031188D01*
X0182502Y0031226D01*
X0182492Y0031266D01*
X0182486Y0031306D01*
X0182484Y0031346D01*
D13*
X0185896Y0028846D02*
X0189896Y0028846D01*
X0189896Y0023346D01*
X0182896Y0014846D02*
X0162896Y0014846D01*
X0155896Y0023346D02*
X0155896Y0028846D01*
X0159896Y0028846D01*
D14*
X0218896Y0110046D03*
X0186896Y0122646D03*
M02*
