%
M48
M72
T01C0.01969
T02C0.02362
T03C0.02756
T04C0.03200
T05C0.03346
T06C0.04000
%
T01
X52896Y85384
X52896Y110384
X32896Y140384
X32896Y150384
X22896Y145384
X12896Y175384
X42896Y190384
X37896Y230384
X42896Y240384
X87896Y220384
X97896Y195384
X107896Y185384
X112896Y190384
X112896Y195384
X87896Y170384
X97896Y150384
X107896Y145384
X102896Y135384
X97896Y135384
X102896Y120384
X97896Y100384
X92896Y95384
X92896Y90384
X107896Y85384
X102896Y70384
X107896Y60384
X132896Y70384
X142896Y80384
X147896Y95384
X157896Y90384
X162896Y95384
X177896Y110384
X182896Y120384
X187896Y115384
X202896Y120384
X207896Y115384
X207896Y135384
X202896Y145384
X187896Y150384
X172896Y160384
X167896Y165384
X162896Y180384
X167896Y185384
X152896Y175384
X137896Y150384
X157896Y130384
X152896Y125384
X137896Y115384
X132896Y95384
X167896Y125384
X197896Y85384
X192896Y80384
X177896Y80384
X197896Y50384
X197896Y40384
X217896Y65384
X227896Y80384
X212896Y90384
X227896Y105384
X247896Y100384
X262896Y90384
X257896Y70384
X282896Y90384
X292896Y70384
X307896Y65384
X252896Y40384
X252896Y125384
X252896Y135384
X267896Y155384
X282896Y175384
X302896Y155384
X297896Y205384
X272896Y230384
X262896Y205384
X242896Y245384
X197896Y215384
X197896Y205384
X182896Y175384
X217896Y175384
X237896Y160384
X222896Y145384
X192896Y245384
X132896Y245384
X127896Y255384
X107896Y245384
X77896Y70384
X157896Y40384
X297896Y245384
T02
X17896Y35384
X22896Y50384
X42896Y50384
X47896Y55384
X42896Y60384
X42896Y70384
X32896Y80384
X27896Y75384
X12896Y85384
X22896Y100384
X27896Y105384
X22896Y120384
X17896Y125384
X47896Y145384
X37896Y160384
X52896Y175384
X62896Y175384
X82896Y170384
X97896Y165384
X102896Y175384
X117896Y175384
X117896Y185384
X127896Y170384
X132896Y185384
X132896Y150384
X122896Y145384
X112896Y150384
X102896Y145384
X92896Y135384
X87896Y120384
X82896Y115384
X92896Y115384
X97896Y105384
X117896Y115384
X82896Y75384
X77896Y80384
X72896Y65384
X67896Y55384
X77896Y35384
X87896Y45384
X87896Y55384
X107896Y45384
X122896Y55384
X122896Y65384
X132896Y45384
X197896Y90384
X212896Y85384
X217896Y90384
X237896Y85384
X302896Y85384
X172896Y170384
X122896Y260384
X92896Y265384
X82896Y260384
X62896Y260384
X57896Y205384
X82896Y205384
X67896Y135384
X62896Y125384
X57896Y115384
X62896Y110384
X67896Y105384
X47896Y100384
X42896Y90384
X47896Y85384
X47896Y40384
X42896Y35384
T03
X195396Y105384
X200396Y105384
X205396Y105384
X210396Y105384
X167896Y240384
X132896Y240384
T04
X102896Y205384
X97896Y212884
X92896Y205384
T05
X280416Y54045
X295376Y54045
T06
X27896Y55384
X27896Y65384
X17896Y65384
X17896Y55384
X17896Y45384
X27896Y45384
M30
