G75*
%MOIN*%
%OFA0B0*%
%FSLAX25Y25*%
%IPPOS*%
%LPD*%
%AMOC8*
5,1,8,0,0,1.08239X$1,22.5*
%
%ADD10OC8,0.05600*%
%ADD11R,0.05156X0.05156*%
%ADD12R,0.07400X0.07400*%
%ADD13OC8,0.07400*%
%ADD14C,0.05156*%
%ADD15C,0.03969*%
%ADD16C,0.01000*%
%ADD17C,0.04362*%
%ADD18C,0.01600*%
%ADD19C,0.01200*%
D10*
X0092896Y0205384D03*
X0097896Y0212884D03*
X0102896Y0205384D03*
D11*
X0132896Y0240384D03*
X0167896Y0240384D03*
D12*
X0017896Y0065384D03*
D13*
X0027896Y0065384D03*
X0027896Y0055384D03*
X0017896Y0055384D03*
X0017896Y0045384D03*
X0027896Y0045384D03*
D14*
X0195396Y0102806D02*
X0195396Y0107962D01*
X0200396Y0107962D02*
X0200396Y0102806D01*
X0205396Y0102806D02*
X0205396Y0107962D01*
X0210396Y0107962D02*
X0210396Y0102806D01*
D15*
X0207896Y0115384D03*
X0202896Y0120384D03*
X0207896Y0135384D03*
X0202896Y0145384D03*
X0187896Y0150384D03*
X0172896Y0160384D03*
X0167896Y0165384D03*
X0162896Y0180384D03*
X0167896Y0185384D03*
X0152896Y0175384D03*
X0137896Y0150384D03*
X0157896Y0130384D03*
X0152896Y0125384D03*
X0137896Y0115384D03*
X0132896Y0095384D03*
X0147896Y0095384D03*
X0157896Y0090384D03*
X0162896Y0095384D03*
X0177896Y0110384D03*
X0182896Y0120384D03*
X0187896Y0115384D03*
X0167896Y0125384D03*
X0197896Y0085384D03*
X0192896Y0080384D03*
X0177896Y0080384D03*
X0197896Y0050384D03*
X0197896Y0040384D03*
X0217896Y0065384D03*
X0227896Y0080384D03*
X0212896Y0090384D03*
X0227896Y0105384D03*
X0247896Y0100384D03*
X0262896Y0090384D03*
X0257896Y0070384D03*
X0282896Y0090384D03*
X0292896Y0070384D03*
X0307896Y0065384D03*
X0252896Y0040384D03*
X0252896Y0125384D03*
X0252896Y0135384D03*
X0267896Y0155384D03*
X0282896Y0175384D03*
X0302896Y0155384D03*
X0297896Y0205384D03*
X0272896Y0230384D03*
X0262896Y0205384D03*
X0242896Y0245384D03*
X0197896Y0215384D03*
X0197896Y0205384D03*
X0182896Y0175384D03*
X0217896Y0175384D03*
X0237896Y0160384D03*
X0222896Y0145384D03*
X0142896Y0080384D03*
X0132896Y0070384D03*
X0107896Y0060384D03*
X0102896Y0070384D03*
X0107896Y0085384D03*
X0092896Y0090384D03*
X0092896Y0095384D03*
X0097896Y0100384D03*
X0102896Y0120384D03*
X0102896Y0135384D03*
X0097896Y0135384D03*
X0107896Y0145384D03*
X0097896Y0150384D03*
X0087896Y0170384D03*
X0107896Y0185384D03*
X0112896Y0190384D03*
X0112896Y0195384D03*
X0097896Y0195384D03*
X0087896Y0220384D03*
X0107896Y0245384D03*
X0127896Y0255384D03*
X0132896Y0245384D03*
X0192896Y0245384D03*
X0297896Y0245384D03*
X0157896Y0040384D03*
X0077896Y0070384D03*
X0052896Y0085384D03*
X0052896Y0110384D03*
X0032896Y0140384D03*
X0032896Y0150384D03*
X0022896Y0145384D03*
X0012896Y0175384D03*
X0042896Y0190384D03*
X0037896Y0230384D03*
X0042896Y0240384D03*
D16*
X0042896Y0230384D01*
X0052896Y0220384D01*
X0052896Y0190384D01*
X0112896Y0190384D01*
X0112896Y0195384D02*
X0097896Y0195384D01*
X0107896Y0185384D02*
X0047896Y0185384D01*
X0047896Y0220384D01*
X0037896Y0230384D01*
X0022896Y0255384D02*
X0012896Y0250384D01*
X0012896Y0175384D01*
X0032896Y0180384D02*
X0042896Y0190384D01*
X0032896Y0180384D02*
X0032896Y0150384D01*
X0037896Y0145384D02*
X0022896Y0145384D01*
X0032896Y0140384D02*
X0032896Y0110384D01*
X0027896Y0105384D02*
X0017896Y0115384D01*
X0017896Y0125384D01*
X0037896Y0145384D02*
X0052896Y0160384D01*
X0082896Y0160384D01*
X0102896Y0175384D01*
X0097896Y0165384D02*
X0147896Y0165384D01*
X0152896Y0170384D01*
X0172896Y0170384D01*
X0167896Y0165384D02*
X0152896Y0165384D01*
X0142896Y0155384D01*
X0052896Y0155384D01*
X0047896Y0150384D01*
X0047896Y0145384D01*
X0047896Y0115384D01*
X0037896Y0105384D01*
X0037896Y0100384D01*
X0052896Y0085384D01*
X0042896Y0090384D02*
X0032896Y0100384D01*
X0047896Y0100384D02*
X0087896Y0100384D01*
X0092896Y0095384D01*
X0132896Y0095384D01*
X0127896Y0100384D02*
X0137896Y0110384D01*
X0177896Y0110384D01*
X0182896Y0105384D02*
X0182896Y0120384D01*
X0187896Y0115384D02*
X0187896Y0150384D01*
X0137896Y0150384D01*
X0132896Y0150384D02*
X0122896Y0145384D01*
X0112896Y0145384D02*
X0107896Y0150384D01*
X0097896Y0150384D01*
X0102896Y0145384D02*
X0092896Y0135384D01*
X0097896Y0135384D02*
X0107896Y0145384D01*
X0112896Y0145384D02*
X0102896Y0135384D01*
X0102896Y0120384D02*
X0122896Y0120384D01*
X0127896Y0125384D01*
X0152896Y0125384D01*
X0152896Y0120384D02*
X0157896Y0125384D01*
X0162896Y0125384D01*
X0162896Y0130384D01*
X0157896Y0135384D01*
X0127896Y0135384D01*
X0112896Y0150384D01*
X0127896Y0170384D02*
X0127896Y0175384D01*
X0132896Y0180384D01*
X0132896Y0185384D01*
X0117896Y0185384D02*
X0117896Y0175384D01*
X0152896Y0175384D02*
X0182896Y0175384D01*
X0217896Y0175384D01*
X0222896Y0170384D01*
X0222896Y0145384D01*
X0207896Y0135384D02*
X0252896Y0135384D01*
X0252896Y0125384D02*
X0232896Y0105384D01*
X0227896Y0105384D01*
X0212896Y0090384D01*
X0217896Y0100384D02*
X0197896Y0095384D01*
X0192896Y0090384D01*
X0157896Y0090384D01*
X0162896Y0095384D02*
X0182896Y0095384D01*
X0187896Y0100384D01*
X0187896Y0110384D01*
X0197896Y0120384D01*
X0202896Y0120384D01*
X0207896Y0120384D02*
X0207896Y0130384D01*
X0202896Y0130384D01*
X0197896Y0135384D01*
X0202896Y0140384D01*
X0202896Y0145384D01*
X0207896Y0120384D02*
X0217896Y0115384D01*
X0217896Y0100384D01*
X0227896Y0080384D02*
X0247896Y0100384D01*
X0262896Y0090384D02*
X0282896Y0090384D01*
X0292896Y0070384D02*
X0257896Y0070384D01*
X0227896Y0080384D02*
X0197896Y0050384D01*
X0202896Y0050384D02*
X0202896Y0045384D01*
X0187896Y0045384D01*
X0157896Y0075384D01*
X0142896Y0080384D01*
X0147896Y0090384D02*
X0147896Y0095384D01*
X0147896Y0090384D02*
X0152896Y0085384D01*
X0197896Y0085384D01*
X0192896Y0080384D02*
X0177896Y0080384D01*
X0177896Y0100384D02*
X0182896Y0105384D01*
X0177896Y0100384D02*
X0142896Y0100384D01*
X0132896Y0090384D01*
X0092896Y0090384D01*
X0097896Y0100384D02*
X0127896Y0100384D01*
X0117896Y0110384D02*
X0062896Y0110384D01*
X0057896Y0115384D02*
X0082896Y0115384D01*
X0077896Y0120384D02*
X0087896Y0120384D01*
X0092896Y0115384D02*
X0117896Y0115384D01*
X0117896Y0110384D02*
X0127896Y0120384D01*
X0152896Y0120384D01*
X0157896Y0130384D02*
X0057896Y0130384D01*
X0067896Y0135384D01*
X0057896Y0130384D02*
X0052896Y0120384D01*
X0052896Y0112589D01*
X0055101Y0110384D01*
X0052896Y0110384D01*
X0062896Y0125384D02*
X0072896Y0125384D01*
X0077896Y0120384D01*
X0067896Y0105384D02*
X0097896Y0105384D01*
X0077896Y0080384D02*
X0032896Y0080384D01*
X0042896Y0070384D02*
X0062896Y0065384D01*
X0067896Y0065384D01*
X0087896Y0045384D01*
X0087896Y0055384D02*
X0112896Y0055384D01*
X0122896Y0065384D01*
X0122896Y0055384D02*
X0132896Y0045384D01*
X0132896Y0070384D02*
X0102896Y0070384D01*
X0092896Y0070384D02*
X0107896Y0060384D01*
X0137896Y0115384D02*
X0167896Y0115384D01*
X0167896Y0125384D01*
X0167896Y0180384D02*
X0162896Y0180384D01*
X0167896Y0180384D02*
X0172896Y0185384D01*
X0187896Y0185384D01*
X0202896Y0200384D01*
X0202896Y0210384D01*
X0197896Y0215384D01*
X0197896Y0205384D02*
X0197896Y0200384D01*
X0187896Y0190384D01*
X0172896Y0190384D01*
X0167896Y0185384D01*
X0132896Y0240384D02*
X0092896Y0240384D01*
X0082896Y0230384D01*
X0087896Y0220384D01*
X0082896Y0205384D02*
X0057896Y0205384D01*
X0052896Y0175384D02*
X0037896Y0160384D01*
X0062896Y0175384D02*
X0077896Y0175384D01*
X0082896Y0170384D01*
X0132896Y0245384D02*
X0192896Y0245384D01*
X0127896Y0255384D02*
X0022896Y0255384D01*
X0062896Y0260384D02*
X0077896Y0260384D01*
X0082896Y0265384D01*
X0092896Y0265384D01*
X0082896Y0260384D02*
X0122896Y0260384D01*
X0012896Y0085384D02*
X0012896Y0050384D01*
X0022896Y0050384D01*
X0017896Y0055384D02*
X0022896Y0060384D01*
X0032896Y0060384D01*
X0037896Y0055384D01*
X0047896Y0055384D01*
X0047896Y0040384D02*
X0042896Y0040384D01*
X0037896Y0035384D01*
X0017896Y0035384D01*
X0202896Y0050384D02*
X0217896Y0065384D01*
D17*
X0017896Y0035384D03*
X0022896Y0050384D03*
X0042896Y0050384D03*
X0047896Y0055384D03*
X0042896Y0060384D03*
X0042896Y0070384D03*
X0032896Y0080384D03*
X0027896Y0075384D03*
X0012896Y0085384D03*
X0022896Y0100384D03*
X0027896Y0105384D03*
X0022896Y0120384D03*
X0017896Y0125384D03*
X0047896Y0145384D03*
X0037896Y0160384D03*
X0052896Y0175384D03*
X0062896Y0175384D03*
X0082896Y0170384D03*
X0097896Y0165384D03*
X0102896Y0175384D03*
X0117896Y0175384D03*
X0117896Y0185384D03*
X0127896Y0170384D03*
X0132896Y0185384D03*
X0132896Y0150384D03*
X0122896Y0145384D03*
X0112896Y0150384D03*
X0102896Y0145384D03*
X0092896Y0135384D03*
X0087896Y0120384D03*
X0082896Y0115384D03*
X0092896Y0115384D03*
X0097896Y0105384D03*
X0117896Y0115384D03*
X0082896Y0075384D03*
X0077896Y0080384D03*
X0072896Y0065384D03*
X0067896Y0055384D03*
X0077896Y0035384D03*
X0087896Y0045384D03*
X0087896Y0055384D03*
X0107896Y0045384D03*
X0122896Y0055384D03*
X0122896Y0065384D03*
X0132896Y0045384D03*
X0197896Y0090384D03*
X0212896Y0085384D03*
X0217896Y0090384D03*
X0237896Y0085384D03*
X0302896Y0085384D03*
X0172896Y0170384D03*
X0122896Y0260384D03*
X0092896Y0265384D03*
X0082896Y0260384D03*
X0062896Y0260384D03*
X0057896Y0205384D03*
X0082896Y0205384D03*
X0067896Y0135384D03*
X0062896Y0125384D03*
X0057896Y0115384D03*
X0062896Y0110384D03*
X0067896Y0105384D03*
X0047896Y0100384D03*
X0042896Y0090384D03*
X0047896Y0085384D03*
X0047896Y0040384D03*
X0042896Y0035384D03*
D18*
X0067896Y0035384D01*
X0072896Y0040384D01*
X0102896Y0040384D01*
X0107896Y0045384D01*
X0111696Y0041573D02*
X0129096Y0041573D01*
X0129848Y0040822D02*
X0131826Y0040003D01*
X0133966Y0040003D01*
X0135944Y0040822D01*
X0137458Y0042336D01*
X0138277Y0044313D01*
X0138277Y0046454D01*
X0137458Y0048432D01*
X0135944Y0049946D01*
X0133966Y0050765D01*
X0132748Y0050765D01*
X0128277Y0055235D01*
X0128277Y0056454D01*
X0127458Y0058432D01*
X0125944Y0059946D01*
X0124886Y0060384D01*
X0125944Y0060822D01*
X0127458Y0062336D01*
X0128277Y0064313D01*
X0128277Y0066454D01*
X0128182Y0066684D01*
X0129264Y0066684D01*
X0129959Y0065989D01*
X0131865Y0065200D01*
X0133927Y0065200D01*
X0135833Y0065989D01*
X0137291Y0067447D01*
X0138080Y0069353D01*
X0138080Y0071415D01*
X0137291Y0073320D01*
X0135833Y0074779D01*
X0133927Y0075568D01*
X0131865Y0075568D01*
X0129959Y0074779D01*
X0129264Y0074084D01*
X0106528Y0074084D01*
X0105833Y0074779D01*
X0103927Y0075568D01*
X0101865Y0075568D01*
X0099959Y0074779D01*
X0098501Y0073320D01*
X0097778Y0071576D01*
X0094336Y0073871D01*
X0092892Y0074156D01*
X0091449Y0073868D01*
X0090226Y0073049D01*
X0089409Y0071824D01*
X0089124Y0070380D01*
X0089412Y0068937D01*
X0090231Y0067713D01*
X0102712Y0059393D01*
X0102712Y0059353D01*
X0102823Y0059084D01*
X0091806Y0059084D01*
X0090944Y0059946D01*
X0088966Y0060765D01*
X0086826Y0060765D01*
X0084848Y0059946D01*
X0083334Y0058432D01*
X0082515Y0056454D01*
X0082515Y0055997D01*
X0071033Y0067480D01*
X0069992Y0068521D01*
X0068632Y0069084D01*
X0063352Y0069084D01*
X0054151Y0071384D01*
X0072712Y0071384D01*
X0072712Y0069353D01*
X0073501Y0067447D01*
X0074959Y0065989D01*
X0076865Y0065200D01*
X0078927Y0065200D01*
X0080833Y0065989D01*
X0082291Y0067447D01*
X0083080Y0069353D01*
X0083080Y0070003D01*
X0083966Y0070003D01*
X0085944Y0070822D01*
X0087458Y0072336D01*
X0088277Y0074313D01*
X0088277Y0076454D01*
X0087458Y0078432D01*
X0085944Y0079946D01*
X0083966Y0080765D01*
X0083277Y0080765D01*
X0083277Y0081454D01*
X0082458Y0083432D01*
X0080944Y0084946D01*
X0078966Y0085765D01*
X0076826Y0085765D01*
X0074848Y0084946D01*
X0073986Y0084084D01*
X0057969Y0084084D01*
X0058080Y0084353D01*
X0058080Y0086415D01*
X0057291Y0088320D01*
X0055833Y0089779D01*
X0053927Y0090568D01*
X0052944Y0090568D01*
X0048510Y0095003D01*
X0048966Y0095003D01*
X0050944Y0095822D01*
X0051806Y0096684D01*
X0086363Y0096684D01*
X0087712Y0095335D01*
X0087712Y0094353D01*
X0088320Y0092884D01*
X0087712Y0091415D01*
X0087712Y0089353D01*
X0088501Y0087447D01*
X0089959Y0085989D01*
X0091865Y0085200D01*
X0093927Y0085200D01*
X0095833Y0085989D01*
X0096528Y0086684D01*
X0133632Y0086684D01*
X0134992Y0087247D01*
X0142712Y0094967D01*
X0142712Y0094353D01*
X0143501Y0092447D01*
X0144196Y0091752D01*
X0144196Y0089648D01*
X0144759Y0088288D01*
X0145800Y0087247D01*
X0150800Y0082247D01*
X0152160Y0081684D01*
X0172823Y0081684D01*
X0172712Y0081415D01*
X0172712Y0079353D01*
X0173501Y0077447D01*
X0174959Y0075989D01*
X0176865Y0075200D01*
X0178927Y0075200D01*
X0180833Y0075989D01*
X0181528Y0076684D01*
X0189264Y0076684D01*
X0189959Y0075989D01*
X0191865Y0075200D01*
X0193927Y0075200D01*
X0195833Y0075989D01*
X0197291Y0077447D01*
X0198080Y0079353D01*
X0198080Y0080200D01*
X0198927Y0080200D01*
X0200833Y0080989D01*
X0202291Y0082447D01*
X0203080Y0084353D01*
X0203080Y0086415D01*
X0202291Y0088320D01*
X0200833Y0089779D01*
X0198927Y0090568D01*
X0198313Y0090568D01*
X0199788Y0092043D01*
X0218352Y0096684D01*
X0218632Y0096684D01*
X0219059Y0096861D01*
X0219507Y0096973D01*
X0219733Y0097140D01*
X0219992Y0097247D01*
X0220319Y0097574D01*
X0220690Y0097849D01*
X0220834Y0098090D01*
X0221033Y0098288D01*
X0221210Y0098715D01*
X0221447Y0099111D01*
X0221489Y0099389D01*
X0221596Y0099648D01*
X0221596Y0100110D01*
X0221664Y0100567D01*
X0221596Y0100839D01*
X0221596Y0115252D01*
X0221639Y0115856D01*
X0221596Y0115984D01*
X0221596Y0116120D01*
X0221365Y0116678D01*
X0221173Y0117252D01*
X0221085Y0117354D01*
X0221033Y0117480D01*
X0220605Y0117907D01*
X0220209Y0118364D01*
X0220088Y0118425D01*
X0219992Y0118521D01*
X0219433Y0118752D01*
X0211596Y0122671D01*
X0211596Y0131120D01*
X0211411Y0131567D01*
X0211528Y0131684D01*
X0249264Y0131684D01*
X0249959Y0130989D01*
X0251865Y0130200D01*
X0253927Y0130200D01*
X0255833Y0130989D01*
X0257291Y0132447D01*
X0258080Y0134353D01*
X0258080Y0136415D01*
X0257291Y0138320D01*
X0255833Y0139779D01*
X0253927Y0140568D01*
X0251865Y0140568D01*
X0249959Y0139779D01*
X0249264Y0139084D01*
X0211528Y0139084D01*
X0210833Y0139779D01*
X0208927Y0140568D01*
X0206865Y0140568D01*
X0206596Y0140457D01*
X0206596Y0141752D01*
X0207291Y0142447D01*
X0208080Y0144353D01*
X0208080Y0146415D01*
X0207291Y0148320D01*
X0205833Y0149779D01*
X0203927Y0150568D01*
X0201865Y0150568D01*
X0199959Y0149779D01*
X0198501Y0148320D01*
X0197712Y0146415D01*
X0197712Y0144353D01*
X0198501Y0142447D01*
X0199114Y0141834D01*
X0194759Y0137480D01*
X0194196Y0136120D01*
X0194196Y0134648D01*
X0194759Y0133288D01*
X0195800Y0132247D01*
X0200800Y0127247D01*
X0202160Y0126684D01*
X0204196Y0126684D01*
X0204196Y0125457D01*
X0203927Y0125568D01*
X0201865Y0125568D01*
X0199959Y0124779D01*
X0199264Y0124084D01*
X0197160Y0124084D01*
X0195800Y0123521D01*
X0191596Y0119316D01*
X0191596Y0146752D01*
X0192291Y0147447D01*
X0193080Y0149353D01*
X0193080Y0151415D01*
X0192291Y0153320D01*
X0190833Y0154779D01*
X0188927Y0155568D01*
X0186865Y0155568D01*
X0184959Y0154779D01*
X0184264Y0154084D01*
X0146829Y0154084D01*
X0154429Y0161684D01*
X0164264Y0161684D01*
X0164959Y0160989D01*
X0166865Y0160200D01*
X0168927Y0160200D01*
X0170833Y0160989D01*
X0172291Y0162447D01*
X0173080Y0164353D01*
X0173080Y0165003D01*
X0173966Y0165003D01*
X0175944Y0165822D01*
X0177458Y0167336D01*
X0178277Y0169313D01*
X0178277Y0171454D01*
X0177458Y0173432D01*
X0175944Y0174946D01*
X0173966Y0175765D01*
X0171826Y0175765D01*
X0169848Y0174946D01*
X0168986Y0174084D01*
X0152160Y0174084D01*
X0150800Y0173521D01*
X0149759Y0172480D01*
X0146363Y0169084D01*
X0133182Y0169084D01*
X0133277Y0169313D01*
X0133277Y0171454D01*
X0132458Y0173432D01*
X0131817Y0174073D01*
X0134992Y0177247D01*
X0136033Y0178288D01*
X0136596Y0179648D01*
X0136596Y0181474D01*
X0137458Y0182336D01*
X0138277Y0184313D01*
X0138277Y0186454D01*
X0137458Y0188432D01*
X0135944Y0189946D01*
X0133966Y0190765D01*
X0131826Y0190765D01*
X0129848Y0189946D01*
X0128334Y0188432D01*
X0127515Y0186454D01*
X0127515Y0184313D01*
X0128334Y0182336D01*
X0128975Y0181695D01*
X0124759Y0177480D01*
X0124196Y0176120D01*
X0124196Y0174294D01*
X0123334Y0173432D01*
X0122515Y0171454D01*
X0122515Y0169313D01*
X0122610Y0169084D01*
X0101806Y0169084D01*
X0101316Y0169574D01*
X0101888Y0170003D01*
X0103966Y0170003D01*
X0105944Y0170822D01*
X0107458Y0172336D01*
X0108277Y0174313D01*
X0108277Y0176454D01*
X0107458Y0178432D01*
X0105944Y0179946D01*
X0103966Y0180765D01*
X0101826Y0180765D01*
X0099848Y0179946D01*
X0098334Y0178432D01*
X0097515Y0176454D01*
X0097515Y0175973D01*
X0088116Y0168923D01*
X0088277Y0169313D01*
X0088277Y0171454D01*
X0087458Y0173432D01*
X0085944Y0174946D01*
X0083966Y0175765D01*
X0082748Y0175765D01*
X0081033Y0177480D01*
X0079992Y0178521D01*
X0078632Y0179084D01*
X0066806Y0179084D01*
X0065944Y0179946D01*
X0063966Y0180765D01*
X0061826Y0180765D01*
X0059848Y0179946D01*
X0058334Y0178432D01*
X0057896Y0177374D01*
X0057458Y0178432D01*
X0055944Y0179946D01*
X0053966Y0180765D01*
X0051826Y0180765D01*
X0049848Y0179946D01*
X0048334Y0178432D01*
X0047515Y0176454D01*
X0047515Y0175235D01*
X0038045Y0165765D01*
X0036826Y0165765D01*
X0036596Y0165670D01*
X0036596Y0178851D01*
X0042944Y0185200D01*
X0043927Y0185200D01*
X0044196Y0185311D01*
X0044196Y0184648D01*
X0044759Y0183288D01*
X0045800Y0182247D01*
X0047160Y0181684D01*
X0104264Y0181684D01*
X0104959Y0180989D01*
X0106865Y0180200D01*
X0108927Y0180200D01*
X0110833Y0180989D01*
X0112291Y0182447D01*
X0112790Y0183651D01*
X0113334Y0182336D01*
X0114196Y0181474D01*
X0114196Y0179294D01*
X0113334Y0178432D01*
X0112515Y0176454D01*
X0112515Y0174313D01*
X0113334Y0172336D01*
X0114848Y0170822D01*
X0116826Y0170003D01*
X0118966Y0170003D01*
X0120944Y0170822D01*
X0122458Y0172336D01*
X0123277Y0174313D01*
X0123277Y0176454D01*
X0122458Y0178432D01*
X0121596Y0179294D01*
X0121596Y0181474D01*
X0122458Y0182336D01*
X0123277Y0184313D01*
X0123277Y0186454D01*
X0122458Y0188432D01*
X0120944Y0189946D01*
X0118966Y0190765D01*
X0118080Y0190765D01*
X0118080Y0191415D01*
X0117472Y0192884D01*
X0118080Y0194353D01*
X0118080Y0196415D01*
X0117291Y0198320D01*
X0115833Y0199779D01*
X0113927Y0200568D01*
X0111865Y0200568D01*
X0109959Y0199779D01*
X0109264Y0199084D01*
X0101528Y0199084D01*
X0101228Y0199384D01*
X0105381Y0199384D01*
X0108896Y0202899D01*
X0108896Y0207869D01*
X0105381Y0211384D01*
X0103896Y0211384D01*
X0103896Y0215369D01*
X0100381Y0218884D01*
X0095411Y0218884D01*
X0091896Y0215369D01*
X0091896Y0210399D01*
X0092311Y0209984D01*
X0090991Y0209984D01*
X0088296Y0207289D01*
X0088296Y0205384D01*
X0092896Y0205384D01*
X0092896Y0205384D01*
X0088296Y0205384D01*
X0088296Y0203478D01*
X0090991Y0200784D01*
X0092896Y0200784D01*
X0092896Y0205384D01*
X0092896Y0205384D01*
X0092896Y0200784D01*
X0094801Y0200784D01*
X0096906Y0202888D01*
X0099438Y0200356D01*
X0098927Y0200568D01*
X0096865Y0200568D01*
X0094959Y0199779D01*
X0093501Y0198320D01*
X0092712Y0196415D01*
X0092712Y0194353D01*
X0092823Y0194084D01*
X0056596Y0194084D01*
X0056596Y0200098D01*
X0056826Y0200003D01*
X0058966Y0200003D01*
X0060944Y0200822D01*
X0061806Y0201684D01*
X0078986Y0201684D01*
X0079848Y0200822D01*
X0081826Y0200003D01*
X0083966Y0200003D01*
X0085944Y0200822D01*
X0087458Y0202336D01*
X0088277Y0204313D01*
X0088277Y0206454D01*
X0087458Y0208432D01*
X0085944Y0209946D01*
X0083966Y0210765D01*
X0081826Y0210765D01*
X0079848Y0209946D01*
X0078986Y0209084D01*
X0061806Y0209084D01*
X0060944Y0209946D01*
X0058966Y0210765D01*
X0056826Y0210765D01*
X0056596Y0210670D01*
X0056596Y0221120D01*
X0056033Y0222480D01*
X0054992Y0223521D01*
X0046596Y0231916D01*
X0046596Y0236752D01*
X0047291Y0237447D01*
X0048080Y0239353D01*
X0048080Y0241415D01*
X0047291Y0243320D01*
X0045833Y0244779D01*
X0043927Y0245568D01*
X0041865Y0245568D01*
X0039959Y0244779D01*
X0038501Y0243320D01*
X0037712Y0241415D01*
X0037712Y0239353D01*
X0038501Y0237447D01*
X0039196Y0236752D01*
X0039196Y0235457D01*
X0038927Y0235568D01*
X0036865Y0235568D01*
X0034959Y0234779D01*
X0033501Y0233320D01*
X0032712Y0231415D01*
X0032712Y0229353D01*
X0033501Y0227447D01*
X0034959Y0225989D01*
X0036865Y0225200D01*
X0037848Y0225200D01*
X0044196Y0218851D01*
X0044196Y0195457D01*
X0043927Y0195568D01*
X0041865Y0195568D01*
X0039959Y0194779D01*
X0038501Y0193320D01*
X0037712Y0191415D01*
X0037712Y0190432D01*
X0029759Y0182480D01*
X0029196Y0181120D01*
X0029196Y0154015D01*
X0028501Y0153320D01*
X0027712Y0151415D01*
X0027712Y0149353D01*
X0027823Y0149084D01*
X0026528Y0149084D01*
X0025833Y0149779D01*
X0023927Y0150568D01*
X0021865Y0150568D01*
X0019959Y0149779D01*
X0018501Y0148320D01*
X0017712Y0146415D01*
X0017712Y0144353D01*
X0018501Y0142447D01*
X0019959Y0140989D01*
X0021865Y0140200D01*
X0023927Y0140200D01*
X0025833Y0140989D01*
X0026528Y0141684D01*
X0027823Y0141684D01*
X0027712Y0141415D01*
X0027712Y0139353D01*
X0028501Y0137447D01*
X0029196Y0136752D01*
X0029196Y0111381D01*
X0029096Y0111140D01*
X0029096Y0110711D01*
X0028966Y0110765D01*
X0027748Y0110765D01*
X0021596Y0116916D01*
X0021596Y0121474D01*
X0022458Y0122336D01*
X0023277Y0124313D01*
X0023277Y0126454D01*
X0022458Y0128432D01*
X0020944Y0129946D01*
X0018966Y0130765D01*
X0016826Y0130765D01*
X0014848Y0129946D01*
X0013334Y0128432D01*
X0012515Y0126454D01*
X0012515Y0124313D01*
X0013334Y0122336D01*
X0014196Y0121474D01*
X0014196Y0114648D01*
X0014759Y0113288D01*
X0015800Y0112247D01*
X0022515Y0105532D01*
X0022515Y0104313D01*
X0023334Y0102336D01*
X0024848Y0100822D01*
X0026826Y0100003D01*
X0028966Y0100003D01*
X0029096Y0100056D01*
X0029096Y0099628D01*
X0029675Y0098231D01*
X0030744Y0097162D01*
X0030985Y0097062D01*
X0037515Y0090532D01*
X0037515Y0089313D01*
X0038334Y0087336D01*
X0039848Y0085822D01*
X0041826Y0085003D01*
X0042515Y0085003D01*
X0042515Y0084313D01*
X0042610Y0084084D01*
X0036806Y0084084D01*
X0035944Y0084946D01*
X0033966Y0085765D01*
X0031826Y0085765D01*
X0029848Y0084946D01*
X0028334Y0083432D01*
X0027515Y0081454D01*
X0027515Y0080765D01*
X0026826Y0080765D01*
X0024848Y0079946D01*
X0023334Y0078432D01*
X0022515Y0076454D01*
X0022515Y0074313D01*
X0023334Y0072336D01*
X0024212Y0071458D01*
X0023980Y0071226D01*
X0023409Y0071797D01*
X0022233Y0072284D01*
X0016596Y0072284D01*
X0016596Y0081474D01*
X0017458Y0082336D01*
X0018277Y0084313D01*
X0018277Y0086454D01*
X0017458Y0088432D01*
X0015944Y0089946D01*
X0013966Y0090765D01*
X0011826Y0090765D01*
X0011096Y0090463D01*
X0011096Y0170518D01*
X0011865Y0170200D01*
X0013927Y0170200D01*
X0015833Y0170989D01*
X0017291Y0172447D01*
X0018080Y0174353D01*
X0018080Y0176415D01*
X0017291Y0178320D01*
X0016596Y0179015D01*
X0016596Y0248097D01*
X0023770Y0251684D01*
X0124264Y0251684D01*
X0124959Y0250989D01*
X0126865Y0250200D01*
X0128927Y0250200D01*
X0130833Y0250989D01*
X0132291Y0252447D01*
X0133080Y0254353D01*
X0133080Y0256415D01*
X0132291Y0258320D01*
X0130833Y0259779D01*
X0129372Y0260384D01*
X0313397Y0260384D01*
X0313397Y0033584D01*
X0071753Y0033584D01*
X0074553Y0036384D01*
X0103692Y0036384D01*
X0105162Y0036993D01*
X0108172Y0040003D01*
X0108966Y0040003D01*
X0110944Y0040822D01*
X0112458Y0042336D01*
X0113277Y0044313D01*
X0113277Y0046454D01*
X0112458Y0048432D01*
X0110944Y0049946D01*
X0108966Y0050765D01*
X0106826Y0050765D01*
X0104848Y0049946D01*
X0103334Y0048432D01*
X0102515Y0046454D01*
X0102515Y0045660D01*
X0101239Y0044384D01*
X0093277Y0044384D01*
X0093277Y0046454D01*
X0092458Y0048432D01*
X0090944Y0049946D01*
X0089886Y0050384D01*
X0090944Y0050822D01*
X0091806Y0051684D01*
X0113632Y0051684D01*
X0114992Y0052247D01*
X0116033Y0053288D01*
X0117515Y0054770D01*
X0117515Y0054313D01*
X0118334Y0052336D01*
X0119848Y0050822D01*
X0121826Y0050003D01*
X0123045Y0050003D01*
X0127515Y0045532D01*
X0127515Y0044313D01*
X0128334Y0042336D01*
X0129848Y0040822D01*
X0127988Y0043172D02*
X0112804Y0043172D01*
X0113277Y0044770D02*
X0127515Y0044770D01*
X0126678Y0046369D02*
X0113277Y0046369D01*
X0112650Y0047967D02*
X0125080Y0047967D01*
X0123481Y0049566D02*
X0111324Y0049566D01*
X0115508Y0052763D02*
X0118157Y0052763D01*
X0117515Y0054361D02*
X0117106Y0054361D01*
X0119505Y0051164D02*
X0091287Y0051164D01*
X0091324Y0049566D02*
X0104468Y0049566D01*
X0103142Y0047967D02*
X0092650Y0047967D01*
X0093277Y0046369D02*
X0102515Y0046369D01*
X0101626Y0044770D02*
X0093277Y0044770D01*
X0104643Y0036778D02*
X0313397Y0036778D01*
X0313397Y0038376D02*
X0106545Y0038376D01*
X0108144Y0039975D02*
X0313397Y0039975D01*
X0313397Y0041573D02*
X0136696Y0041573D01*
X0137804Y0043172D02*
X0313397Y0043172D01*
X0313397Y0044770D02*
X0138277Y0044770D01*
X0138277Y0046369D02*
X0194579Y0046369D01*
X0194959Y0045989D02*
X0196865Y0045200D01*
X0198927Y0045200D01*
X0200833Y0045989D01*
X0202291Y0047447D01*
X0203080Y0049353D01*
X0203080Y0050335D01*
X0227944Y0075200D01*
X0228927Y0075200D01*
X0230833Y0075989D01*
X0232291Y0077447D01*
X0233080Y0079353D01*
X0233080Y0080335D01*
X0234207Y0081463D01*
X0234848Y0080822D01*
X0236826Y0080003D01*
X0238966Y0080003D01*
X0240944Y0080822D01*
X0241706Y0081584D01*
X0299086Y0081584D01*
X0299848Y0080822D01*
X0301826Y0080003D01*
X0303966Y0080003D01*
X0305944Y0080822D01*
X0307458Y0082336D01*
X0308277Y0084313D01*
X0308277Y0086454D01*
X0307458Y0088432D01*
X0305944Y0089946D01*
X0303966Y0090765D01*
X0301826Y0090765D01*
X0299848Y0089946D01*
X0299086Y0089184D01*
X0288010Y0089184D01*
X0288080Y0089353D01*
X0288080Y0091415D01*
X0287291Y0093320D01*
X0285833Y0094779D01*
X0283927Y0095568D01*
X0281865Y0095568D01*
X0279959Y0094779D01*
X0279264Y0094084D01*
X0266528Y0094084D01*
X0265833Y0094779D01*
X0263927Y0095568D01*
X0261865Y0095568D01*
X0259959Y0094779D01*
X0258501Y0093320D01*
X0257712Y0091415D01*
X0257712Y0089353D01*
X0257782Y0089184D01*
X0241929Y0089184D01*
X0247944Y0095200D01*
X0248927Y0095200D01*
X0250833Y0095989D01*
X0252291Y0097447D01*
X0253080Y0099353D01*
X0253080Y0101415D01*
X0252291Y0103320D01*
X0250833Y0104779D01*
X0248927Y0105568D01*
X0246865Y0105568D01*
X0244959Y0104779D01*
X0243501Y0103320D01*
X0242712Y0101415D01*
X0242712Y0100432D01*
X0227848Y0085568D01*
X0226865Y0085568D01*
X0224959Y0084779D01*
X0223501Y0083320D01*
X0222712Y0081415D01*
X0222712Y0080432D01*
X0197848Y0055568D01*
X0196865Y0055568D01*
X0194959Y0054779D01*
X0193501Y0053320D01*
X0192712Y0051415D01*
X0192712Y0049353D01*
X0193501Y0047447D01*
X0194959Y0045989D01*
X0193286Y0047967D02*
X0137650Y0047967D01*
X0136324Y0049566D02*
X0192712Y0049566D01*
X0192712Y0051164D02*
X0132348Y0051164D01*
X0130749Y0052763D02*
X0193270Y0052763D01*
X0194542Y0054361D02*
X0129151Y0054361D01*
X0128277Y0055960D02*
X0198240Y0055960D01*
X0199838Y0057559D02*
X0127820Y0057559D01*
X0126733Y0059157D02*
X0201437Y0059157D01*
X0203035Y0060756D02*
X0125784Y0060756D01*
X0127466Y0062354D02*
X0204634Y0062354D01*
X0206232Y0063953D02*
X0128128Y0063953D01*
X0128277Y0065551D02*
X0131016Y0065551D01*
X0134776Y0065551D02*
X0207831Y0065551D01*
X0209429Y0067150D02*
X0136993Y0067150D01*
X0137830Y0068748D02*
X0211028Y0068748D01*
X0212626Y0070347D02*
X0138080Y0070347D01*
X0137861Y0071945D02*
X0214225Y0071945D01*
X0215823Y0073544D02*
X0137068Y0073544D01*
X0134956Y0075142D02*
X0217422Y0075142D01*
X0219020Y0076741D02*
X0196585Y0076741D01*
X0197661Y0078339D02*
X0220619Y0078339D01*
X0222217Y0079938D02*
X0198080Y0079938D01*
X0201380Y0081536D02*
X0209134Y0081536D01*
X0209848Y0080822D02*
X0211826Y0080003D01*
X0213966Y0080003D01*
X0215944Y0080822D01*
X0217458Y0082336D01*
X0218277Y0084313D01*
X0218277Y0085003D01*
X0218966Y0085003D01*
X0220944Y0085822D01*
X0222458Y0087336D01*
X0223277Y0089313D01*
X0223277Y0091454D01*
X0222458Y0093432D01*
X0220944Y0094946D01*
X0218966Y0095765D01*
X0216826Y0095765D01*
X0214848Y0094946D01*
X0213334Y0093432D01*
X0212515Y0091454D01*
X0212515Y0090765D01*
X0211826Y0090765D01*
X0209848Y0089946D01*
X0208334Y0088432D01*
X0207515Y0086454D01*
X0207515Y0084313D01*
X0208334Y0082336D01*
X0209848Y0080822D01*
X0208003Y0083135D02*
X0202576Y0083135D01*
X0203080Y0084733D02*
X0207515Y0084733D01*
X0207515Y0086332D02*
X0203080Y0086332D01*
X0202453Y0087930D02*
X0208126Y0087930D01*
X0209431Y0089529D02*
X0201083Y0089529D01*
X0198872Y0091127D02*
X0212515Y0091127D01*
X0213042Y0092726D02*
X0202519Y0092726D01*
X0208913Y0094324D02*
X0214226Y0094324D01*
X0215307Y0095923D02*
X0238202Y0095923D01*
X0236604Y0094324D02*
X0221566Y0094324D01*
X0222750Y0092726D02*
X0235005Y0092726D01*
X0233407Y0091127D02*
X0223277Y0091127D01*
X0223277Y0089529D02*
X0231808Y0089529D01*
X0230210Y0087930D02*
X0222704Y0087930D01*
X0221454Y0086332D02*
X0228611Y0086332D01*
X0224914Y0084733D02*
X0218277Y0084733D01*
X0217789Y0083135D02*
X0223424Y0083135D01*
X0222762Y0081536D02*
X0216658Y0081536D01*
X0224690Y0071945D02*
X0252931Y0071945D01*
X0252712Y0071415D02*
X0252712Y0069353D01*
X0253501Y0067447D01*
X0254959Y0065989D01*
X0256865Y0065200D01*
X0258927Y0065200D01*
X0260833Y0065989D01*
X0261528Y0066684D01*
X0289264Y0066684D01*
X0289959Y0065989D01*
X0291865Y0065200D01*
X0293927Y0065200D01*
X0295833Y0065989D01*
X0297291Y0067447D01*
X0298080Y0069353D01*
X0298080Y0071415D01*
X0297291Y0073320D01*
X0295833Y0074779D01*
X0293927Y0075568D01*
X0291865Y0075568D01*
X0289959Y0074779D01*
X0289264Y0074084D01*
X0261528Y0074084D01*
X0260833Y0074779D01*
X0258927Y0075568D01*
X0256865Y0075568D01*
X0254959Y0074779D01*
X0253501Y0073320D01*
X0252712Y0071415D01*
X0252712Y0070347D02*
X0223091Y0070347D01*
X0221493Y0068748D02*
X0252962Y0068748D01*
X0253799Y0067150D02*
X0219894Y0067150D01*
X0218296Y0065551D02*
X0256016Y0065551D01*
X0259776Y0065551D02*
X0291016Y0065551D01*
X0294776Y0065551D02*
X0313397Y0065551D01*
X0313397Y0063953D02*
X0216697Y0063953D01*
X0215099Y0062354D02*
X0313397Y0062354D01*
X0313397Y0060756D02*
X0213500Y0060756D01*
X0211902Y0059157D02*
X0313397Y0059157D01*
X0313397Y0057559D02*
X0298755Y0057559D01*
X0298137Y0058177D02*
X0296346Y0058918D01*
X0294407Y0058918D01*
X0292616Y0058177D01*
X0291245Y0056806D01*
X0290503Y0055015D01*
X0290503Y0053076D01*
X0291245Y0051285D01*
X0292616Y0049914D01*
X0294407Y0049172D01*
X0296346Y0049172D01*
X0298137Y0049914D01*
X0299508Y0051285D01*
X0300250Y0053076D01*
X0300250Y0055015D01*
X0299508Y0056806D01*
X0298137Y0058177D01*
X0299858Y0055960D02*
X0313397Y0055960D01*
X0313397Y0054361D02*
X0300250Y0054361D01*
X0300120Y0052763D02*
X0313397Y0052763D01*
X0313397Y0051164D02*
X0299387Y0051164D01*
X0297297Y0049566D02*
X0313397Y0049566D01*
X0313397Y0047967D02*
X0202507Y0047967D01*
X0203080Y0049566D02*
X0278495Y0049566D01*
X0277655Y0049914D02*
X0279446Y0049172D01*
X0281385Y0049172D01*
X0283176Y0049914D01*
X0284547Y0051285D01*
X0285289Y0053076D01*
X0285289Y0055015D01*
X0284547Y0056806D01*
X0283176Y0058177D01*
X0281385Y0058918D01*
X0279446Y0058918D01*
X0277655Y0058177D01*
X0276284Y0056806D01*
X0275543Y0055015D01*
X0275543Y0053076D01*
X0276284Y0051285D01*
X0277655Y0049914D01*
X0276405Y0051164D02*
X0203909Y0051164D01*
X0205508Y0052763D02*
X0275672Y0052763D01*
X0275543Y0054361D02*
X0207106Y0054361D01*
X0208705Y0055960D02*
X0275934Y0055960D01*
X0277037Y0057559D02*
X0210303Y0057559D01*
X0201213Y0046369D02*
X0313397Y0046369D01*
X0313397Y0035179D02*
X0073348Y0035179D01*
X0068429Y0041573D02*
X0053228Y0041573D01*
X0053277Y0041454D02*
X0052458Y0043432D01*
X0050944Y0044946D01*
X0048966Y0045765D01*
X0046826Y0045765D01*
X0044848Y0044946D01*
X0043986Y0044084D01*
X0042160Y0044084D01*
X0040800Y0043521D01*
X0039759Y0042480D01*
X0036363Y0039084D01*
X0021806Y0039084D01*
X0021580Y0039310D01*
X0023886Y0041616D01*
X0025618Y0039884D01*
X0027696Y0039884D01*
X0027696Y0045184D01*
X0028096Y0045184D01*
X0028096Y0045584D01*
X0033396Y0045584D01*
X0033396Y0047662D01*
X0031664Y0049394D01*
X0034796Y0052526D01*
X0034796Y0053251D01*
X0035800Y0052247D01*
X0037160Y0051684D01*
X0043986Y0051684D01*
X0044848Y0050822D01*
X0046826Y0050003D01*
X0048966Y0050003D01*
X0050944Y0050822D01*
X0052458Y0052336D01*
X0053277Y0054313D01*
X0053277Y0056454D01*
X0052458Y0058432D01*
X0050944Y0059946D01*
X0048966Y0060765D01*
X0046826Y0060765D01*
X0044848Y0059946D01*
X0043986Y0059084D01*
X0039429Y0059084D01*
X0036033Y0062480D01*
X0034992Y0063521D01*
X0034796Y0063602D01*
X0034796Y0068242D01*
X0031654Y0071384D01*
X0037515Y0071384D01*
X0037515Y0069313D01*
X0038334Y0067336D01*
X0039848Y0065822D01*
X0041826Y0065003D01*
X0043966Y0065003D01*
X0045923Y0065813D01*
X0061733Y0061861D01*
X0062160Y0061684D01*
X0062441Y0061684D01*
X0062713Y0061616D01*
X0063170Y0061684D01*
X0066363Y0061684D01*
X0082515Y0045532D01*
X0082515Y0044384D01*
X0072100Y0044384D01*
X0070630Y0043775D01*
X0066239Y0039384D01*
X0053277Y0039384D01*
X0053277Y0041454D01*
X0053277Y0039975D02*
X0066830Y0039975D01*
X0070027Y0043172D02*
X0052566Y0043172D01*
X0051119Y0044770D02*
X0082515Y0044770D01*
X0081678Y0046369D02*
X0033396Y0046369D01*
X0033396Y0045184D02*
X0028096Y0045184D01*
X0028096Y0039884D01*
X0030174Y0039884D01*
X0033396Y0043106D01*
X0033396Y0045184D01*
X0033396Y0044770D02*
X0044673Y0044770D01*
X0040452Y0043172D02*
X0033396Y0043172D01*
X0031864Y0041573D02*
X0038853Y0041573D01*
X0037255Y0039975D02*
X0030265Y0039975D01*
X0028096Y0039975D02*
X0027696Y0039975D01*
X0027696Y0041573D02*
X0028096Y0041573D01*
X0028096Y0043172D02*
X0027696Y0043172D01*
X0027696Y0044770D02*
X0028096Y0044770D01*
X0023928Y0041573D02*
X0023844Y0041573D01*
X0022245Y0039975D02*
X0025527Y0039975D01*
X0033091Y0047967D02*
X0080080Y0047967D01*
X0078481Y0049566D02*
X0031836Y0049566D01*
X0033435Y0051164D02*
X0044505Y0051164D01*
X0044059Y0059157D02*
X0039355Y0059157D01*
X0037757Y0060756D02*
X0046803Y0060756D01*
X0048989Y0060756D02*
X0067292Y0060756D01*
X0068890Y0059157D02*
X0051733Y0059157D01*
X0052820Y0057559D02*
X0070489Y0057559D01*
X0072087Y0055960D02*
X0053277Y0055960D01*
X0053277Y0054361D02*
X0073686Y0054361D01*
X0075284Y0052763D02*
X0052635Y0052763D01*
X0051287Y0051164D02*
X0076883Y0051164D01*
X0080954Y0057559D02*
X0082972Y0057559D01*
X0084059Y0059157D02*
X0079355Y0059157D01*
X0077757Y0060756D02*
X0086803Y0060756D01*
X0088989Y0060756D02*
X0100668Y0060756D01*
X0102793Y0059157D02*
X0091733Y0059157D01*
X0095873Y0063953D02*
X0074560Y0063953D01*
X0076016Y0065551D02*
X0072961Y0065551D01*
X0073799Y0067150D02*
X0071363Y0067150D01*
X0071033Y0067480D02*
X0071033Y0067480D01*
X0069443Y0068748D02*
X0072962Y0068748D01*
X0072712Y0070347D02*
X0058300Y0070347D01*
X0053366Y0063953D02*
X0034796Y0063953D01*
X0034796Y0065551D02*
X0040502Y0065551D01*
X0038520Y0067150D02*
X0034796Y0067150D01*
X0034290Y0068748D02*
X0037749Y0068748D01*
X0037515Y0070347D02*
X0032691Y0070347D01*
X0027896Y0075384D02*
X0082896Y0075384D01*
X0084797Y0070347D02*
X0089130Y0070347D01*
X0089490Y0071945D02*
X0087067Y0071945D01*
X0087958Y0073544D02*
X0090965Y0073544D01*
X0088277Y0075142D02*
X0100837Y0075142D01*
X0098724Y0073544D02*
X0094827Y0073544D01*
X0097224Y0071945D02*
X0097931Y0071945D01*
X0104956Y0075142D02*
X0130837Y0075142D01*
X0135675Y0087930D02*
X0145117Y0087930D01*
X0144245Y0089529D02*
X0137274Y0089529D01*
X0138872Y0091127D02*
X0144196Y0091127D01*
X0143386Y0092726D02*
X0140471Y0092726D01*
X0142069Y0094324D02*
X0142724Y0094324D01*
X0146716Y0086332D02*
X0096176Y0086332D01*
X0089617Y0086332D02*
X0058080Y0086332D01*
X0058080Y0084733D02*
X0074635Y0084733D01*
X0081157Y0084733D02*
X0148314Y0084733D01*
X0149913Y0083135D02*
X0082581Y0083135D01*
X0083243Y0081536D02*
X0172762Y0081536D01*
X0172712Y0079938D02*
X0085952Y0079938D01*
X0087496Y0078339D02*
X0173132Y0078339D01*
X0174208Y0076741D02*
X0088159Y0076741D01*
X0089538Y0068748D02*
X0082830Y0068748D01*
X0081993Y0067150D02*
X0091077Y0067150D01*
X0093475Y0065551D02*
X0079776Y0065551D01*
X0076158Y0062354D02*
X0098270Y0062354D01*
X0088301Y0087930D02*
X0057453Y0087930D01*
X0056083Y0089529D02*
X0087712Y0089529D01*
X0087712Y0091127D02*
X0052385Y0091127D01*
X0050787Y0092726D02*
X0088255Y0092726D01*
X0087724Y0094324D02*
X0049188Y0094324D01*
X0051045Y0095923D02*
X0087124Y0095923D01*
X0059760Y0062354D02*
X0036158Y0062354D01*
X0035284Y0052763D02*
X0034796Y0052763D01*
X0045290Y0065551D02*
X0046972Y0065551D01*
X0042515Y0084733D02*
X0036157Y0084733D01*
X0039338Y0086332D02*
X0018277Y0086332D01*
X0018277Y0084733D02*
X0029635Y0084733D01*
X0028211Y0083135D02*
X0017789Y0083135D01*
X0016658Y0081536D02*
X0027549Y0081536D01*
X0024840Y0079938D02*
X0016596Y0079938D01*
X0016596Y0078339D02*
X0023296Y0078339D01*
X0022634Y0076741D02*
X0016596Y0076741D01*
X0016596Y0075142D02*
X0022515Y0075142D01*
X0022834Y0073544D02*
X0016596Y0073544D01*
X0023050Y0071945D02*
X0023725Y0071945D01*
X0017666Y0087930D02*
X0038088Y0087930D01*
X0037515Y0089529D02*
X0016361Y0089529D01*
X0011096Y0091127D02*
X0036920Y0091127D01*
X0035322Y0092726D02*
X0011096Y0092726D01*
X0011096Y0094324D02*
X0033723Y0094324D01*
X0032125Y0095923D02*
X0011096Y0095923D01*
X0011096Y0097521D02*
X0030385Y0097521D01*
X0029307Y0099120D02*
X0011096Y0099120D01*
X0011096Y0100718D02*
X0025098Y0100718D01*
X0023353Y0102317D02*
X0011096Y0102317D01*
X0011096Y0103915D02*
X0022680Y0103915D01*
X0022515Y0105514D02*
X0011096Y0105514D01*
X0011096Y0107112D02*
X0020935Y0107112D01*
X0019336Y0108711D02*
X0011096Y0108711D01*
X0011096Y0110309D02*
X0017738Y0110309D01*
X0016139Y0111908D02*
X0011096Y0111908D01*
X0011096Y0113506D02*
X0014669Y0113506D01*
X0014196Y0115105D02*
X0011096Y0115105D01*
X0011096Y0116703D02*
X0014196Y0116703D01*
X0014196Y0118302D02*
X0011096Y0118302D01*
X0011096Y0119900D02*
X0014196Y0119900D01*
X0014171Y0121499D02*
X0011096Y0121499D01*
X0011096Y0123097D02*
X0013019Y0123097D01*
X0012515Y0124696D02*
X0011096Y0124696D01*
X0011096Y0126295D02*
X0012515Y0126295D01*
X0013111Y0127893D02*
X0011096Y0127893D01*
X0011096Y0129492D02*
X0014394Y0129492D01*
X0011096Y0131090D02*
X0029196Y0131090D01*
X0029196Y0129492D02*
X0021398Y0129492D01*
X0022681Y0127893D02*
X0029196Y0127893D01*
X0029196Y0126295D02*
X0023277Y0126295D01*
X0023277Y0124696D02*
X0029196Y0124696D01*
X0029196Y0123097D02*
X0022773Y0123097D01*
X0021621Y0121499D02*
X0029196Y0121499D01*
X0029196Y0119900D02*
X0021596Y0119900D01*
X0021596Y0118302D02*
X0029196Y0118302D01*
X0029196Y0116703D02*
X0021809Y0116703D01*
X0023408Y0115105D02*
X0029196Y0115105D01*
X0029196Y0113506D02*
X0025006Y0113506D01*
X0026605Y0111908D02*
X0029196Y0111908D01*
X0029196Y0132689D02*
X0011096Y0132689D01*
X0011096Y0134287D02*
X0029196Y0134287D01*
X0029196Y0135886D02*
X0011096Y0135886D01*
X0011096Y0137484D02*
X0028486Y0137484D01*
X0027824Y0139083D02*
X0011096Y0139083D01*
X0011096Y0140681D02*
X0020702Y0140681D01*
X0018669Y0142280D02*
X0011096Y0142280D01*
X0011096Y0143878D02*
X0017908Y0143878D01*
X0017712Y0145477D02*
X0011096Y0145477D01*
X0011096Y0147075D02*
X0017985Y0147075D01*
X0018854Y0148674D02*
X0011096Y0148674D01*
X0011096Y0150272D02*
X0021151Y0150272D01*
X0024642Y0150272D02*
X0027712Y0150272D01*
X0027901Y0151871D02*
X0011096Y0151871D01*
X0011096Y0153469D02*
X0028650Y0153469D01*
X0029196Y0155068D02*
X0011096Y0155068D01*
X0011096Y0156666D02*
X0029196Y0156666D01*
X0029196Y0158265D02*
X0011096Y0158265D01*
X0011096Y0159863D02*
X0029196Y0159863D01*
X0029196Y0161462D02*
X0011096Y0161462D01*
X0011096Y0163060D02*
X0029196Y0163060D01*
X0029196Y0164659D02*
X0011096Y0164659D01*
X0011096Y0166257D02*
X0029196Y0166257D01*
X0029196Y0167856D02*
X0011096Y0167856D01*
X0011096Y0169454D02*
X0029196Y0169454D01*
X0029196Y0171053D02*
X0015897Y0171053D01*
X0017376Y0172651D02*
X0029196Y0172651D01*
X0029196Y0174250D02*
X0018038Y0174250D01*
X0018080Y0175848D02*
X0029196Y0175848D01*
X0029196Y0177447D02*
X0017653Y0177447D01*
X0016596Y0179045D02*
X0029196Y0179045D01*
X0029196Y0180644D02*
X0016596Y0180644D01*
X0016596Y0182242D02*
X0029661Y0182242D01*
X0031121Y0183841D02*
X0016596Y0183841D01*
X0016596Y0185439D02*
X0032719Y0185439D01*
X0034318Y0187038D02*
X0016596Y0187038D01*
X0016596Y0188636D02*
X0035916Y0188636D01*
X0037515Y0190235D02*
X0016596Y0190235D01*
X0016596Y0191833D02*
X0037885Y0191833D01*
X0038613Y0193432D02*
X0016596Y0193432D01*
X0016596Y0195030D02*
X0040567Y0195030D01*
X0044196Y0196629D02*
X0016596Y0196629D01*
X0016596Y0198228D02*
X0044196Y0198228D01*
X0044196Y0199826D02*
X0016596Y0199826D01*
X0016596Y0201425D02*
X0044196Y0201425D01*
X0044196Y0203023D02*
X0016596Y0203023D01*
X0016596Y0204622D02*
X0044196Y0204622D01*
X0044196Y0206220D02*
X0016596Y0206220D01*
X0016596Y0207819D02*
X0044196Y0207819D01*
X0044196Y0209417D02*
X0016596Y0209417D01*
X0016596Y0211016D02*
X0044196Y0211016D01*
X0044196Y0212614D02*
X0016596Y0212614D01*
X0016596Y0214213D02*
X0044196Y0214213D01*
X0044196Y0215811D02*
X0016596Y0215811D01*
X0016596Y0217410D02*
X0044196Y0217410D01*
X0044039Y0219008D02*
X0016596Y0219008D01*
X0016596Y0220607D02*
X0042441Y0220607D01*
X0040842Y0222205D02*
X0016596Y0222205D01*
X0016596Y0223804D02*
X0039244Y0223804D01*
X0036376Y0225402D02*
X0016596Y0225402D01*
X0016596Y0227001D02*
X0033948Y0227001D01*
X0033024Y0228599D02*
X0016596Y0228599D01*
X0016596Y0230198D02*
X0032712Y0230198D01*
X0032870Y0231796D02*
X0016596Y0231796D01*
X0016596Y0233395D02*
X0033575Y0233395D01*
X0035477Y0234993D02*
X0016596Y0234993D01*
X0016596Y0236592D02*
X0039196Y0236592D01*
X0038193Y0238190D02*
X0016596Y0238190D01*
X0016596Y0239789D02*
X0037712Y0239789D01*
X0037712Y0241387D02*
X0016596Y0241387D01*
X0016596Y0242986D02*
X0038362Y0242986D01*
X0039765Y0244584D02*
X0016596Y0244584D01*
X0016596Y0246183D02*
X0313397Y0246183D01*
X0313397Y0247781D02*
X0016596Y0247781D01*
X0019162Y0249380D02*
X0313397Y0249380D01*
X0313397Y0250978D02*
X0130807Y0250978D01*
X0132345Y0252577D02*
X0313397Y0252577D01*
X0313397Y0254175D02*
X0133007Y0254175D01*
X0133080Y0255774D02*
X0313397Y0255774D01*
X0313397Y0257372D02*
X0132684Y0257372D01*
X0131641Y0258971D02*
X0313397Y0258971D01*
X0313397Y0244584D02*
X0173266Y0244584D01*
X0173187Y0244774D02*
X0172287Y0245675D01*
X0171111Y0246162D01*
X0164682Y0246162D01*
X0163505Y0245675D01*
X0162605Y0244774D01*
X0162118Y0243598D01*
X0162118Y0237169D01*
X0162605Y0235993D01*
X0163505Y0235093D01*
X0164682Y0234606D01*
X0171111Y0234606D01*
X0172287Y0235093D01*
X0173187Y0235993D01*
X0173674Y0237169D01*
X0173674Y0243598D01*
X0173187Y0244774D01*
X0173674Y0242986D02*
X0313397Y0242986D01*
X0313397Y0241387D02*
X0173674Y0241387D01*
X0173674Y0239789D02*
X0313397Y0239789D01*
X0313397Y0238190D02*
X0173674Y0238190D01*
X0173435Y0236592D02*
X0313397Y0236592D01*
X0313397Y0234993D02*
X0172046Y0234993D01*
X0163746Y0234993D02*
X0046596Y0234993D01*
X0046596Y0233395D02*
X0313397Y0233395D01*
X0313397Y0231796D02*
X0046716Y0231796D01*
X0048315Y0230198D02*
X0313397Y0230198D01*
X0313397Y0228599D02*
X0049913Y0228599D01*
X0051512Y0227001D02*
X0313397Y0227001D01*
X0313397Y0225402D02*
X0053110Y0225402D01*
X0054709Y0223804D02*
X0313397Y0223804D01*
X0313397Y0222205D02*
X0056146Y0222205D01*
X0056596Y0220607D02*
X0313397Y0220607D01*
X0313397Y0219008D02*
X0201603Y0219008D01*
X0202291Y0218320D02*
X0200833Y0219779D01*
X0198927Y0220568D01*
X0196865Y0220568D01*
X0194959Y0219779D01*
X0193501Y0218320D01*
X0192712Y0216415D01*
X0192712Y0214353D01*
X0193501Y0212447D01*
X0194959Y0210989D01*
X0196420Y0210384D01*
X0194959Y0209779D01*
X0193501Y0208320D01*
X0192712Y0206415D01*
X0192712Y0204353D01*
X0193501Y0202447D01*
X0194114Y0201834D01*
X0186363Y0194084D01*
X0172160Y0194084D01*
X0170800Y0193521D01*
X0167848Y0190568D01*
X0166865Y0190568D01*
X0164959Y0189779D01*
X0163501Y0188320D01*
X0162712Y0186415D01*
X0162712Y0185568D01*
X0161865Y0185568D01*
X0159959Y0184779D01*
X0158501Y0183320D01*
X0157712Y0181415D01*
X0157712Y0179353D01*
X0158501Y0177447D01*
X0159959Y0175989D01*
X0161865Y0175200D01*
X0163927Y0175200D01*
X0165833Y0175989D01*
X0166528Y0176684D01*
X0168632Y0176684D01*
X0169992Y0177247D01*
X0174429Y0181684D01*
X0188632Y0181684D01*
X0189992Y0182247D01*
X0204992Y0197247D01*
X0206033Y0198288D01*
X0206596Y0199648D01*
X0206596Y0211120D01*
X0206033Y0212480D01*
X0203080Y0215432D01*
X0203080Y0216415D01*
X0202291Y0218320D01*
X0202668Y0217410D02*
X0313397Y0217410D01*
X0313397Y0215811D02*
X0203080Y0215811D01*
X0204300Y0214213D02*
X0313397Y0214213D01*
X0313397Y0212614D02*
X0205898Y0212614D01*
X0206596Y0211016D02*
X0313397Y0211016D01*
X0313397Y0209417D02*
X0206596Y0209417D01*
X0206596Y0207819D02*
X0313397Y0207819D01*
X0313397Y0206220D02*
X0206596Y0206220D01*
X0206596Y0204622D02*
X0313397Y0204622D01*
X0313397Y0203023D02*
X0206596Y0203023D01*
X0206596Y0201425D02*
X0313397Y0201425D01*
X0313397Y0199826D02*
X0206596Y0199826D01*
X0205972Y0198228D02*
X0313397Y0198228D01*
X0313397Y0196629D02*
X0204374Y0196629D01*
X0202775Y0195030D02*
X0313397Y0195030D01*
X0313397Y0193432D02*
X0201177Y0193432D01*
X0199578Y0191833D02*
X0313397Y0191833D01*
X0313397Y0190235D02*
X0197980Y0190235D01*
X0196381Y0188636D02*
X0313397Y0188636D01*
X0313397Y0187038D02*
X0194783Y0187038D01*
X0193184Y0185439D02*
X0313397Y0185439D01*
X0313397Y0183841D02*
X0191586Y0183841D01*
X0189981Y0182242D02*
X0313397Y0182242D01*
X0313397Y0180644D02*
X0173389Y0180644D01*
X0171790Y0179045D02*
X0313397Y0179045D01*
X0313397Y0177447D02*
X0170192Y0177447D01*
X0169152Y0174250D02*
X0131995Y0174250D01*
X0132781Y0172651D02*
X0149931Y0172651D01*
X0148332Y0171053D02*
X0133277Y0171053D01*
X0133277Y0169454D02*
X0146734Y0169454D01*
X0154207Y0161462D02*
X0164486Y0161462D01*
X0171306Y0161462D02*
X0313397Y0161462D01*
X0313397Y0163060D02*
X0172545Y0163060D01*
X0173080Y0164659D02*
X0313397Y0164659D01*
X0313397Y0166257D02*
X0176380Y0166257D01*
X0177673Y0167856D02*
X0313397Y0167856D01*
X0313397Y0169454D02*
X0178277Y0169454D01*
X0178277Y0171053D02*
X0313397Y0171053D01*
X0313397Y0172651D02*
X0177781Y0172651D01*
X0176640Y0174250D02*
X0313397Y0174250D01*
X0313397Y0175848D02*
X0165494Y0175848D01*
X0160299Y0175848D02*
X0133593Y0175848D01*
X0135192Y0177447D02*
X0158501Y0177447D01*
X0157839Y0179045D02*
X0136346Y0179045D01*
X0136596Y0180644D02*
X0157712Y0180644D01*
X0158055Y0182242D02*
X0137365Y0182242D01*
X0138081Y0183841D02*
X0159022Y0183841D01*
X0161554Y0185439D02*
X0138277Y0185439D01*
X0138035Y0187038D02*
X0162970Y0187038D01*
X0163817Y0188636D02*
X0137253Y0188636D01*
X0135246Y0190235D02*
X0166061Y0190235D01*
X0169113Y0191833D02*
X0117907Y0191833D01*
X0117699Y0193432D02*
X0170712Y0193432D01*
X0187310Y0195030D02*
X0118080Y0195030D01*
X0117992Y0196629D02*
X0188909Y0196629D01*
X0190507Y0198228D02*
X0117330Y0198228D01*
X0115719Y0199826D02*
X0192106Y0199826D01*
X0193704Y0201425D02*
X0107422Y0201425D01*
X0108896Y0203023D02*
X0193263Y0203023D01*
X0192712Y0204622D02*
X0108896Y0204622D01*
X0108896Y0206220D02*
X0192712Y0206220D01*
X0193293Y0207819D02*
X0108896Y0207819D01*
X0107348Y0209417D02*
X0194598Y0209417D01*
X0194933Y0211016D02*
X0105750Y0211016D01*
X0103896Y0212614D02*
X0193432Y0212614D01*
X0192770Y0214213D02*
X0103896Y0214213D01*
X0103454Y0215811D02*
X0192712Y0215811D01*
X0193124Y0217410D02*
X0101855Y0217410D01*
X0093937Y0217410D02*
X0056596Y0217410D01*
X0056596Y0219008D02*
X0194189Y0219008D01*
X0162357Y0236592D02*
X0136806Y0236592D01*
X0136914Y0236701D02*
X0137151Y0237111D01*
X0137274Y0237569D01*
X0137274Y0240384D01*
X0137274Y0243199D01*
X0137151Y0243657D01*
X0136914Y0244067D01*
X0136579Y0244402D01*
X0136169Y0244639D01*
X0135711Y0244762D01*
X0132896Y0244762D01*
X0130081Y0244762D01*
X0129623Y0244639D01*
X0129213Y0244402D01*
X0128878Y0244067D01*
X0128641Y0243657D01*
X0128518Y0243199D01*
X0128518Y0240384D01*
X0132896Y0240384D01*
X0132896Y0244762D01*
X0132896Y0240384D01*
X0132896Y0240384D01*
X0132896Y0240384D01*
X0137274Y0240384D01*
X0132896Y0240384D01*
X0132896Y0240384D01*
X0128518Y0240384D01*
X0128518Y0237569D01*
X0128641Y0237111D01*
X0128878Y0236701D01*
X0129213Y0236366D01*
X0129623Y0236129D01*
X0130081Y0236006D01*
X0132896Y0236006D01*
X0132896Y0240384D01*
X0132896Y0240384D01*
X0132896Y0236006D01*
X0135711Y0236006D01*
X0136169Y0236129D01*
X0136579Y0236366D01*
X0136914Y0236701D01*
X0137274Y0238190D02*
X0162118Y0238190D01*
X0162118Y0239789D02*
X0137274Y0239789D01*
X0137274Y0241387D02*
X0162118Y0241387D01*
X0162118Y0242986D02*
X0137274Y0242986D01*
X0136264Y0244584D02*
X0162527Y0244584D01*
X0132896Y0244584D02*
X0132896Y0244584D01*
X0132896Y0242986D02*
X0132896Y0242986D01*
X0132896Y0241387D02*
X0132896Y0241387D01*
X0132896Y0239789D02*
X0132896Y0239789D01*
X0132896Y0238190D02*
X0132896Y0238190D01*
X0132896Y0236592D02*
X0132896Y0236592D01*
X0128987Y0236592D02*
X0046596Y0236592D01*
X0047599Y0238190D02*
X0128518Y0238190D01*
X0128518Y0239789D02*
X0048080Y0239789D01*
X0048080Y0241387D02*
X0128518Y0241387D01*
X0128518Y0242986D02*
X0047430Y0242986D01*
X0046027Y0244584D02*
X0129528Y0244584D01*
X0124985Y0250978D02*
X0022359Y0250978D01*
X0056596Y0215811D02*
X0092338Y0215811D01*
X0091896Y0214213D02*
X0056596Y0214213D01*
X0056596Y0212614D02*
X0091896Y0212614D01*
X0091896Y0211016D02*
X0056596Y0211016D01*
X0061473Y0209417D02*
X0079319Y0209417D01*
X0079245Y0201425D02*
X0061547Y0201425D01*
X0056596Y0199826D02*
X0095073Y0199826D01*
X0095442Y0201425D02*
X0098370Y0201425D01*
X0092896Y0201425D02*
X0092896Y0201425D01*
X0092896Y0203023D02*
X0092896Y0203023D01*
X0092896Y0204622D02*
X0092896Y0204622D01*
X0090350Y0201425D02*
X0086547Y0201425D01*
X0087743Y0203023D02*
X0088751Y0203023D01*
X0088296Y0204622D02*
X0088277Y0204622D01*
X0088277Y0206220D02*
X0088296Y0206220D01*
X0088825Y0207819D02*
X0087712Y0207819D01*
X0086473Y0209417D02*
X0090424Y0209417D01*
X0093463Y0198228D02*
X0056596Y0198228D01*
X0056596Y0196629D02*
X0092800Y0196629D01*
X0092712Y0195030D02*
X0056596Y0195030D01*
X0054259Y0180644D02*
X0061534Y0180644D01*
X0064259Y0180644D02*
X0101534Y0180644D01*
X0104259Y0180644D02*
X0105792Y0180644D01*
X0106845Y0179045D02*
X0113948Y0179045D01*
X0114196Y0180644D02*
X0110000Y0180644D01*
X0112086Y0182242D02*
X0113427Y0182242D01*
X0112926Y0177447D02*
X0107866Y0177447D01*
X0108277Y0175848D02*
X0112515Y0175848D01*
X0112541Y0174250D02*
X0108251Y0174250D01*
X0107589Y0172651D02*
X0113203Y0172651D01*
X0114617Y0171053D02*
X0106175Y0171053D01*
X0101436Y0169454D02*
X0122515Y0169454D01*
X0122515Y0171053D02*
X0121175Y0171053D01*
X0122589Y0172651D02*
X0123011Y0172651D01*
X0123251Y0174250D02*
X0124152Y0174250D01*
X0124196Y0175848D02*
X0123277Y0175848D01*
X0122866Y0177447D02*
X0124746Y0177447D01*
X0126325Y0179045D02*
X0121845Y0179045D01*
X0121596Y0180644D02*
X0127924Y0180644D01*
X0128427Y0182242D02*
X0122365Y0182242D01*
X0123081Y0183841D02*
X0127711Y0183841D01*
X0127515Y0185439D02*
X0123277Y0185439D01*
X0123035Y0187038D02*
X0127757Y0187038D01*
X0128539Y0188636D02*
X0122253Y0188636D01*
X0120246Y0190235D02*
X0130546Y0190235D01*
X0110073Y0199826D02*
X0105824Y0199826D01*
X0098948Y0179045D02*
X0078725Y0179045D01*
X0081066Y0177447D02*
X0097926Y0177447D01*
X0097349Y0175848D02*
X0082664Y0175848D01*
X0086640Y0174250D02*
X0095217Y0174250D01*
X0093086Y0172651D02*
X0087781Y0172651D01*
X0088277Y0171053D02*
X0090955Y0171053D01*
X0088823Y0169454D02*
X0088277Y0169454D01*
X0058948Y0179045D02*
X0056845Y0179045D01*
X0057866Y0177447D02*
X0057926Y0177447D01*
X0051534Y0180644D02*
X0038389Y0180644D01*
X0039987Y0182242D02*
X0045812Y0182242D01*
X0044530Y0183841D02*
X0041586Y0183841D01*
X0036790Y0179045D02*
X0048948Y0179045D01*
X0047926Y0177447D02*
X0036596Y0177447D01*
X0036596Y0175848D02*
X0047515Y0175848D01*
X0046530Y0174250D02*
X0036596Y0174250D01*
X0036596Y0172651D02*
X0044931Y0172651D01*
X0043332Y0171053D02*
X0036596Y0171053D01*
X0036596Y0169454D02*
X0041734Y0169454D01*
X0040135Y0167856D02*
X0036596Y0167856D01*
X0036596Y0166257D02*
X0038537Y0166257D01*
X0027712Y0140681D02*
X0025090Y0140681D01*
X0147813Y0155068D02*
X0185657Y0155068D01*
X0190135Y0155068D02*
X0313397Y0155068D01*
X0313397Y0156666D02*
X0149411Y0156666D01*
X0151010Y0158265D02*
X0313397Y0158265D01*
X0313397Y0159863D02*
X0152608Y0159863D01*
X0191596Y0145477D02*
X0197712Y0145477D01*
X0197908Y0143878D02*
X0191596Y0143878D01*
X0191596Y0142280D02*
X0198669Y0142280D01*
X0197961Y0140681D02*
X0191596Y0140681D01*
X0191596Y0139083D02*
X0196362Y0139083D01*
X0194764Y0137484D02*
X0191596Y0137484D01*
X0191596Y0135886D02*
X0194196Y0135886D01*
X0194345Y0134287D02*
X0191596Y0134287D01*
X0191596Y0132689D02*
X0195359Y0132689D01*
X0196957Y0131090D02*
X0191596Y0131090D01*
X0191596Y0129492D02*
X0198556Y0129492D01*
X0200154Y0127893D02*
X0191596Y0127893D01*
X0191596Y0126295D02*
X0204196Y0126295D01*
X0199877Y0124696D02*
X0191596Y0124696D01*
X0191596Y0123097D02*
X0195377Y0123097D01*
X0193779Y0121499D02*
X0191596Y0121499D01*
X0191596Y0119900D02*
X0192180Y0119900D01*
X0197850Y0115105D02*
X0210180Y0115105D01*
X0209247Y0113740D02*
X0207123Y0112860D01*
X0206477Y0112214D01*
X0206421Y0112232D01*
X0205741Y0112340D01*
X0205396Y0112340D01*
X0205052Y0112340D01*
X0204371Y0112232D01*
X0204315Y0112214D01*
X0203669Y0112860D01*
X0201545Y0113740D01*
X0199247Y0113740D01*
X0197896Y0113180D01*
X0196545Y0113740D01*
X0196485Y0113740D01*
X0199347Y0116602D01*
X0199959Y0115989D01*
X0201865Y0115200D01*
X0203927Y0115200D01*
X0205833Y0115989D01*
X0206693Y0116849D01*
X0214196Y0113097D01*
X0214196Y0112333D01*
X0213669Y0112860D01*
X0211545Y0113740D01*
X0209247Y0113740D01*
X0208684Y0113506D02*
X0202109Y0113506D01*
X0198684Y0113506D02*
X0197109Y0113506D01*
X0205396Y0112340D02*
X0205396Y0110989D01*
X0205396Y0110989D01*
X0205396Y0110989D01*
X0205396Y0112340D01*
X0205396Y0111908D02*
X0205396Y0111908D01*
X0206547Y0116703D02*
X0206983Y0116703D01*
X0212109Y0113506D02*
X0213377Y0113506D01*
X0217136Y0119900D02*
X0313397Y0119900D01*
X0313397Y0118302D02*
X0220263Y0118302D01*
X0221356Y0116703D02*
X0313397Y0116703D01*
X0313397Y0115105D02*
X0221596Y0115105D01*
X0221596Y0113506D02*
X0313397Y0113506D01*
X0313397Y0111908D02*
X0221596Y0111908D01*
X0221596Y0110309D02*
X0313397Y0110309D01*
X0313397Y0108711D02*
X0221596Y0108711D01*
X0221596Y0107112D02*
X0313397Y0107112D01*
X0313397Y0105514D02*
X0249058Y0105514D01*
X0246734Y0105514D02*
X0221596Y0105514D01*
X0221596Y0103915D02*
X0244096Y0103915D01*
X0243085Y0102317D02*
X0221596Y0102317D01*
X0221626Y0100718D02*
X0242712Y0100718D01*
X0241399Y0099120D02*
X0221449Y0099120D01*
X0220266Y0097521D02*
X0239801Y0097521D01*
X0245471Y0092726D02*
X0258255Y0092726D01*
X0257712Y0091127D02*
X0243872Y0091127D01*
X0242274Y0089529D02*
X0257712Y0089529D01*
X0259505Y0094324D02*
X0247069Y0094324D01*
X0250673Y0095923D02*
X0313397Y0095923D01*
X0313397Y0097521D02*
X0252322Y0097521D01*
X0252984Y0099120D02*
X0313397Y0099120D01*
X0313397Y0100718D02*
X0253080Y0100718D01*
X0252707Y0102317D02*
X0313397Y0102317D01*
X0313397Y0103915D02*
X0251696Y0103915D01*
X0266287Y0094324D02*
X0279505Y0094324D01*
X0286287Y0094324D02*
X0313397Y0094324D01*
X0313397Y0092726D02*
X0287537Y0092726D01*
X0288080Y0091127D02*
X0313397Y0091127D01*
X0313397Y0089529D02*
X0306361Y0089529D01*
X0307666Y0087930D02*
X0313397Y0087930D01*
X0313397Y0086332D02*
X0308277Y0086332D01*
X0308277Y0084733D02*
X0313397Y0084733D01*
X0313397Y0083135D02*
X0307789Y0083135D01*
X0306658Y0081536D02*
X0313397Y0081536D01*
X0313397Y0079938D02*
X0233080Y0079938D01*
X0232661Y0078339D02*
X0313397Y0078339D01*
X0313397Y0076741D02*
X0231585Y0076741D01*
X0227887Y0075142D02*
X0255837Y0075142D01*
X0253724Y0073544D02*
X0226288Y0073544D01*
X0241658Y0081536D02*
X0299134Y0081536D01*
X0294956Y0075142D02*
X0313397Y0075142D01*
X0313397Y0073544D02*
X0297068Y0073544D01*
X0297861Y0071945D02*
X0313397Y0071945D01*
X0313397Y0070347D02*
X0298080Y0070347D01*
X0297830Y0068748D02*
X0313397Y0068748D01*
X0313397Y0067150D02*
X0296993Y0067150D01*
X0290837Y0075142D02*
X0259956Y0075142D01*
X0283794Y0057559D02*
X0291998Y0057559D01*
X0290895Y0055960D02*
X0284897Y0055960D01*
X0285289Y0054361D02*
X0290503Y0054361D01*
X0290633Y0052763D02*
X0285159Y0052763D01*
X0284427Y0051164D02*
X0291365Y0051164D01*
X0293456Y0049566D02*
X0282336Y0049566D01*
X0288080Y0089529D02*
X0299431Y0089529D01*
X0313397Y0121499D02*
X0213939Y0121499D01*
X0211596Y0123097D02*
X0313397Y0123097D01*
X0313397Y0124696D02*
X0211596Y0124696D01*
X0211596Y0126295D02*
X0313397Y0126295D01*
X0313397Y0127893D02*
X0211596Y0127893D01*
X0211596Y0129492D02*
X0313397Y0129492D01*
X0313397Y0131090D02*
X0255934Y0131090D01*
X0257391Y0132689D02*
X0313397Y0132689D01*
X0313397Y0134287D02*
X0258053Y0134287D01*
X0258080Y0135886D02*
X0313397Y0135886D01*
X0313397Y0137484D02*
X0257637Y0137484D01*
X0256529Y0139083D02*
X0313397Y0139083D01*
X0313397Y0140681D02*
X0206596Y0140681D01*
X0207123Y0142280D02*
X0313397Y0142280D01*
X0313397Y0143878D02*
X0207884Y0143878D01*
X0208080Y0145477D02*
X0313397Y0145477D01*
X0313397Y0147075D02*
X0207807Y0147075D01*
X0206938Y0148674D02*
X0313397Y0148674D01*
X0313397Y0150272D02*
X0204642Y0150272D01*
X0201151Y0150272D02*
X0193080Y0150272D01*
X0192892Y0151871D02*
X0313397Y0151871D01*
X0313397Y0153469D02*
X0192142Y0153469D01*
X0192799Y0148674D02*
X0198854Y0148674D01*
X0197985Y0147075D02*
X0191919Y0147075D01*
X0211596Y0131090D02*
X0249858Y0131090D01*
D19*
X0217896Y0090384D02*
X0212896Y0085384D01*
X0237896Y0085384D02*
X0302896Y0085384D01*
X0032896Y0100384D02*
X0032896Y0110384D01*
M02*
