G75*
%MOIN*%
%OFA0B0*%
%FSLAX25Y25*%
%IPPOS*%
%LPD*%
%AMOC8*
5,1,8,0,0,1.08239X$1,22.5*
%
%ADD10C,0.00300*%
%ADD11C,0.00800*%
%ADD12C,0.00600*%
%ADD13C,0.00000*%
%ADD14C,0.00500*%
%ADD15C,0.01200*%
%ADD16C,0.01575*%
%ADD17C,0.01000*%
%ADD18C,0.00400*%
%ADD19R,0.00787X0.00787*%
%ADD20R,0.00984X0.00591*%
%ADD21R,0.00591X0.00984*%
%ADD22C,0.01433*%
%ADD23C,0.01600*%
%ADD24C,0.01000*%
D10*
X0018046Y0035534D02*
X0019280Y0035534D01*
X0018663Y0035534D02*
X0018663Y0039237D01*
X0018046Y0039237D02*
X0019280Y0039237D01*
X0020501Y0038620D02*
X0021119Y0039237D01*
X0022353Y0039237D01*
X0022970Y0038620D01*
X0024185Y0039237D02*
X0024185Y0035534D01*
X0024185Y0036768D02*
X0026036Y0036768D01*
X0026653Y0037385D01*
X0026653Y0038620D01*
X0026036Y0039237D01*
X0024185Y0039237D01*
X0022353Y0037385D02*
X0022970Y0036768D01*
X0022970Y0036151D01*
X0022353Y0035534D01*
X0021119Y0035534D01*
X0020501Y0036151D01*
X0021119Y0037385D02*
X0022353Y0037385D01*
X0021119Y0037385D02*
X0020501Y0038003D01*
X0020501Y0038620D01*
X0058046Y0050534D02*
X0058046Y0054237D01*
X0059898Y0054237D01*
X0060515Y0053620D01*
X0060515Y0052385D01*
X0059898Y0051768D01*
X0058046Y0051768D01*
X0061729Y0051768D02*
X0063581Y0051768D01*
X0064198Y0052385D01*
X0064198Y0053620D01*
X0063581Y0054237D01*
X0061729Y0054237D01*
X0061729Y0050534D01*
X0062964Y0051768D02*
X0064198Y0050534D01*
X0065412Y0051151D02*
X0066030Y0050534D01*
X0067264Y0050534D01*
X0067881Y0051151D01*
X0067881Y0053620D01*
X0067264Y0054237D01*
X0066030Y0054237D01*
X0065412Y0053620D01*
X0065412Y0051151D01*
X0069095Y0051151D02*
X0069095Y0053620D01*
X0069713Y0054237D01*
X0070947Y0054237D01*
X0071564Y0053620D01*
X0071564Y0052385D02*
X0070330Y0052385D01*
X0071564Y0052385D02*
X0071564Y0051151D01*
X0070947Y0050534D01*
X0069713Y0050534D01*
X0069095Y0051151D01*
X0072779Y0050534D02*
X0072779Y0054237D01*
X0074630Y0054237D01*
X0075247Y0053620D01*
X0075247Y0052385D01*
X0074630Y0051768D01*
X0072779Y0051768D01*
X0074013Y0051768D02*
X0075247Y0050534D01*
X0118046Y0043620D02*
X0118046Y0043003D01*
X0118663Y0042385D01*
X0119898Y0042385D01*
X0120515Y0041768D01*
X0120515Y0041151D01*
X0119898Y0040534D01*
X0118663Y0040534D01*
X0118046Y0041151D01*
X0118046Y0043620D02*
X0118663Y0044237D01*
X0119898Y0044237D01*
X0120515Y0043620D01*
X0121729Y0044237D02*
X0124198Y0044237D01*
X0122964Y0044237D02*
X0122964Y0040534D01*
X0125412Y0040534D02*
X0125412Y0043003D01*
X0126647Y0044237D01*
X0127881Y0043003D01*
X0127881Y0040534D01*
X0129095Y0040534D02*
X0129095Y0044237D01*
X0130947Y0044237D01*
X0131564Y0043620D01*
X0131564Y0042385D01*
X0130947Y0041768D01*
X0129095Y0041768D01*
X0130330Y0041768D02*
X0131564Y0040534D01*
X0134013Y0040534D02*
X0134013Y0044237D01*
X0132779Y0044237D02*
X0135247Y0044237D01*
X0127881Y0042385D02*
X0125412Y0042385D01*
X0168046Y0042385D02*
X0169898Y0042385D01*
X0170515Y0041768D01*
X0170515Y0041151D01*
X0169898Y0040534D01*
X0168046Y0040534D01*
X0168046Y0044237D01*
X0169898Y0044237D01*
X0170515Y0043620D01*
X0170515Y0043003D01*
X0169898Y0042385D01*
X0171729Y0044237D02*
X0174198Y0044237D01*
X0172964Y0044237D02*
X0172964Y0040534D01*
X0213046Y0034237D02*
X0213046Y0030534D01*
X0214898Y0030534D01*
X0215515Y0031151D01*
X0215515Y0031768D01*
X0214898Y0032385D01*
X0213046Y0032385D01*
X0214898Y0032385D02*
X0215515Y0033003D01*
X0215515Y0033620D01*
X0214898Y0034237D01*
X0213046Y0034237D01*
X0216729Y0033003D02*
X0216729Y0030534D01*
X0216729Y0032385D02*
X0219198Y0032385D01*
X0219198Y0033003D02*
X0219198Y0030534D01*
X0221647Y0030534D02*
X0221647Y0034237D01*
X0222881Y0034237D02*
X0220412Y0034237D01*
X0219198Y0033003D02*
X0217964Y0034237D01*
X0216729Y0033003D01*
X0224095Y0034237D02*
X0226564Y0034237D01*
X0227779Y0034237D02*
X0227779Y0030534D01*
X0230247Y0030534D01*
X0231462Y0030534D02*
X0231462Y0034237D01*
X0233313Y0034237D01*
X0233931Y0033620D01*
X0233931Y0032385D01*
X0233313Y0031768D01*
X0231462Y0031768D01*
X0232696Y0031768D02*
X0233931Y0030534D01*
X0236379Y0030534D02*
X0236379Y0032385D01*
X0237614Y0033620D01*
X0237614Y0034237D01*
X0236379Y0032385D02*
X0235145Y0033620D01*
X0235145Y0034237D01*
X0230247Y0034237D02*
X0227779Y0034237D01*
X0227779Y0032385D02*
X0229013Y0032385D01*
X0225330Y0030534D02*
X0225330Y0034237D01*
X0283046Y0036151D02*
X0283663Y0035534D01*
X0284898Y0035534D01*
X0285515Y0036151D01*
X0285515Y0039237D01*
X0286729Y0038620D02*
X0287346Y0039237D01*
X0288581Y0039237D01*
X0289198Y0038620D01*
X0290412Y0039237D02*
X0290412Y0035534D01*
X0292264Y0035534D01*
X0292881Y0036151D01*
X0292881Y0036768D01*
X0292264Y0037385D01*
X0290412Y0037385D01*
X0289198Y0036768D02*
X0289198Y0036151D01*
X0288581Y0035534D01*
X0287346Y0035534D01*
X0286729Y0036151D01*
X0287346Y0037385D02*
X0288581Y0037385D01*
X0289198Y0036768D01*
X0287346Y0037385D02*
X0286729Y0038003D01*
X0286729Y0038620D01*
X0283046Y0039237D02*
X0283046Y0036151D01*
X0290412Y0039237D02*
X0292264Y0039237D01*
X0292881Y0038620D01*
X0292881Y0038003D01*
X0292264Y0037385D01*
X0197881Y0111151D02*
X0197264Y0110534D01*
X0195412Y0110534D01*
X0195412Y0114237D01*
X0197264Y0114237D01*
X0197881Y0113620D01*
X0197881Y0113003D01*
X0197264Y0112385D01*
X0195412Y0112385D01*
X0194198Y0112385D02*
X0192964Y0112385D01*
X0194198Y0112385D02*
X0194198Y0111151D01*
X0193581Y0110534D01*
X0192346Y0110534D01*
X0191729Y0111151D01*
X0191729Y0113620D01*
X0192346Y0114237D01*
X0193581Y0114237D01*
X0194198Y0113620D01*
X0197264Y0112385D02*
X0197881Y0111768D01*
X0197881Y0111151D01*
X0190515Y0110534D02*
X0189280Y0111768D01*
X0189898Y0111768D02*
X0188046Y0111768D01*
X0188046Y0110534D02*
X0188046Y0114237D01*
X0189898Y0114237D01*
X0190515Y0113620D01*
X0190515Y0112385D01*
X0189898Y0111768D01*
X0189534Y0155534D02*
X0190769Y0155534D01*
X0191386Y0156151D01*
X0191386Y0158620D01*
X0190769Y0159237D01*
X0189534Y0159237D01*
X0188917Y0158620D01*
X0188917Y0156151D01*
X0189534Y0155534D01*
X0187703Y0155534D02*
X0187703Y0159237D01*
X0185234Y0159237D02*
X0185234Y0155534D01*
X0184013Y0155534D02*
X0182779Y0155534D01*
X0183396Y0155534D02*
X0183396Y0159237D01*
X0182779Y0159237D02*
X0184013Y0159237D01*
X0185234Y0159237D02*
X0187703Y0155534D01*
X0181564Y0156151D02*
X0181564Y0159237D01*
X0179095Y0159237D02*
X0179095Y0156151D01*
X0179713Y0155534D01*
X0180947Y0155534D01*
X0181564Y0156151D01*
X0177881Y0156151D02*
X0177881Y0158620D01*
X0177264Y0159237D01*
X0175412Y0159237D01*
X0175412Y0155534D01*
X0177264Y0155534D01*
X0177881Y0156151D01*
X0174198Y0155534D02*
X0172964Y0156768D01*
X0173581Y0156768D02*
X0171729Y0156768D01*
X0171729Y0155534D02*
X0171729Y0159237D01*
X0173581Y0159237D01*
X0174198Y0158620D01*
X0174198Y0157385D01*
X0173581Y0156768D01*
X0170515Y0157385D02*
X0168046Y0157385D01*
X0168046Y0158003D02*
X0169280Y0159237D01*
X0170515Y0158003D01*
X0170515Y0155534D01*
X0168046Y0155534D02*
X0168046Y0158003D01*
X0139882Y0196418D02*
X0136746Y0199554D01*
X0138314Y0199554D02*
X0138314Y0196418D01*
X0136746Y0196418D02*
X0139882Y0199554D01*
X0139882Y0197986D02*
X0136746Y0197986D01*
X0138046Y0230534D02*
X0139898Y0230534D01*
X0140515Y0231151D01*
X0140515Y0231768D01*
X0139898Y0232385D01*
X0138046Y0232385D01*
X0138046Y0230534D02*
X0138046Y0234237D01*
X0139898Y0234237D01*
X0140515Y0233620D01*
X0140515Y0233003D01*
X0139898Y0232385D01*
X0141729Y0232385D02*
X0144198Y0232385D01*
X0144198Y0233003D02*
X0144198Y0230534D01*
X0146647Y0230534D02*
X0146647Y0234237D01*
X0147881Y0234237D02*
X0145412Y0234237D01*
X0144198Y0233003D02*
X0142964Y0234237D01*
X0141729Y0233003D01*
X0141729Y0230534D01*
X0149095Y0234237D02*
X0151564Y0234237D01*
X0152779Y0234237D02*
X0152779Y0230534D01*
X0155247Y0230534D01*
X0156462Y0230534D02*
X0156462Y0234237D01*
X0158313Y0234237D01*
X0158931Y0233620D01*
X0158931Y0232385D01*
X0158313Y0231768D01*
X0156462Y0231768D01*
X0157696Y0231768D02*
X0158931Y0230534D01*
X0161379Y0230534D02*
X0161379Y0232385D01*
X0162614Y0233620D01*
X0162614Y0234237D01*
X0161379Y0232385D02*
X0160145Y0233620D01*
X0160145Y0234237D01*
X0155247Y0234237D02*
X0152779Y0234237D01*
X0152779Y0232385D02*
X0154013Y0232385D01*
X0150330Y0230534D02*
X0150330Y0234237D01*
X0185649Y0217546D02*
X0185649Y0215694D01*
X0186266Y0215077D01*
X0188118Y0215077D01*
X0188118Y0217546D01*
X0189332Y0217546D02*
X0191184Y0217546D01*
X0191801Y0216929D01*
X0191801Y0215694D01*
X0191184Y0215077D01*
X0189332Y0215077D01*
X0189332Y0218780D01*
X0193015Y0218780D02*
X0193632Y0218780D01*
X0193632Y0215077D01*
X0193015Y0215077D02*
X0194250Y0215077D01*
X0195471Y0215694D02*
X0196088Y0215077D01*
X0197322Y0215077D01*
X0197939Y0215694D01*
X0197939Y0216929D01*
X0197322Y0217546D01*
X0196088Y0217546D01*
X0195471Y0216929D01*
X0195471Y0215694D01*
X0199154Y0215077D02*
X0201623Y0217546D01*
X0199154Y0217546D02*
X0201623Y0215077D01*
X0206520Y0215077D02*
X0206520Y0218780D01*
X0208989Y0215077D01*
X0208989Y0218780D01*
X0210203Y0218780D02*
X0210203Y0215077D01*
X0212672Y0215077D01*
X0213886Y0215694D02*
X0214504Y0215077D01*
X0215738Y0215077D01*
X0216355Y0215694D01*
X0216355Y0218163D01*
X0215738Y0218780D01*
X0214504Y0218780D01*
X0213886Y0218163D01*
X0213886Y0215694D01*
X0211438Y0216929D02*
X0210203Y0216929D01*
X0210203Y0218780D02*
X0212672Y0218780D01*
X0217570Y0216929D02*
X0220038Y0216929D01*
X0221253Y0216929D02*
X0222487Y0218163D01*
X0223721Y0218780D01*
X0223104Y0216929D02*
X0221253Y0216929D01*
X0221253Y0215694D01*
X0221870Y0215077D01*
X0223104Y0215077D01*
X0223721Y0215694D01*
X0223721Y0216312D01*
X0223104Y0216929D01*
X0207264Y0245534D02*
X0206030Y0245534D01*
X0205412Y0246151D01*
X0206030Y0247385D02*
X0207264Y0247385D01*
X0207881Y0246768D01*
X0207881Y0246151D01*
X0207264Y0245534D01*
X0206030Y0247385D02*
X0205412Y0248003D01*
X0205412Y0248620D01*
X0206030Y0249237D01*
X0207264Y0249237D01*
X0207881Y0248620D01*
X0204198Y0248620D02*
X0204198Y0247385D01*
X0203581Y0246768D01*
X0201729Y0246768D01*
X0201729Y0245534D02*
X0201729Y0249237D01*
X0203581Y0249237D01*
X0204198Y0248620D01*
X0200515Y0248620D02*
X0199898Y0249237D01*
X0198663Y0249237D01*
X0198046Y0248620D01*
X0198046Y0246151D01*
X0198663Y0245534D01*
X0199898Y0245534D01*
X0200515Y0246151D01*
X0200515Y0247385D01*
X0199280Y0247385D01*
X0064980Y0250534D02*
X0064980Y0254237D01*
X0064980Y0252385D02*
X0062511Y0252385D01*
X0062511Y0250534D02*
X0062511Y0254237D01*
X0061297Y0254237D02*
X0058828Y0254237D01*
X0060062Y0254237D02*
X0060062Y0250534D01*
X0057614Y0251151D02*
X0057614Y0253620D01*
X0056997Y0254237D01*
X0055762Y0254237D01*
X0055145Y0253620D01*
X0055145Y0251151D01*
X0055762Y0250534D01*
X0056997Y0250534D01*
X0057614Y0251151D01*
X0053931Y0251151D02*
X0053931Y0253620D01*
X0053313Y0254237D01*
X0052079Y0254237D01*
X0051462Y0253620D01*
X0051462Y0251151D01*
X0052079Y0250534D01*
X0053313Y0250534D01*
X0053931Y0251151D01*
X0050247Y0254237D02*
X0047779Y0254237D01*
X0046564Y0254237D02*
X0044095Y0254237D01*
X0044095Y0250534D01*
X0046564Y0250534D01*
X0045330Y0252385D02*
X0044095Y0252385D01*
X0042881Y0251151D02*
X0042881Y0254237D01*
X0040412Y0254237D02*
X0040412Y0251151D01*
X0041030Y0250534D01*
X0042264Y0250534D01*
X0042881Y0251151D01*
X0039198Y0250534D02*
X0036729Y0250534D01*
X0036729Y0254237D01*
X0035515Y0253620D02*
X0035515Y0253003D01*
X0034898Y0252385D01*
X0033046Y0252385D01*
X0033046Y0250534D02*
X0034898Y0250534D01*
X0035515Y0251151D01*
X0035515Y0251768D01*
X0034898Y0252385D01*
X0035515Y0253620D02*
X0034898Y0254237D01*
X0033046Y0254237D01*
X0033046Y0250534D01*
X0049013Y0250534D02*
X0049013Y0254237D01*
X0048581Y0144237D02*
X0046729Y0144237D01*
X0046729Y0140534D01*
X0048581Y0140534D01*
X0049198Y0141151D01*
X0049198Y0143620D01*
X0048581Y0144237D01*
X0050412Y0143620D02*
X0051030Y0144237D01*
X0052264Y0144237D01*
X0052881Y0143620D01*
X0054095Y0143003D02*
X0055330Y0144237D01*
X0056564Y0143003D01*
X0056564Y0140534D01*
X0057779Y0140534D02*
X0057779Y0144237D01*
X0059630Y0144237D01*
X0060247Y0143620D01*
X0060247Y0142385D01*
X0059630Y0141768D01*
X0057779Y0141768D01*
X0059013Y0141768D02*
X0060247Y0140534D01*
X0061462Y0140534D02*
X0063313Y0140534D01*
X0063931Y0141151D01*
X0063931Y0143620D01*
X0063313Y0144237D01*
X0061462Y0144237D01*
X0061462Y0140534D01*
X0056564Y0142385D02*
X0054095Y0142385D01*
X0054095Y0143003D02*
X0054095Y0140534D01*
X0052881Y0141151D02*
X0052264Y0140534D01*
X0051030Y0140534D01*
X0050412Y0141151D01*
X0050412Y0143620D01*
X0045515Y0143620D02*
X0044898Y0144237D01*
X0043663Y0144237D01*
X0043046Y0143620D01*
X0043046Y0143003D01*
X0043663Y0142385D01*
X0044898Y0142385D01*
X0045515Y0141768D01*
X0045515Y0141151D01*
X0044898Y0140534D01*
X0043663Y0140534D01*
X0043046Y0141151D01*
D11*
X0035258Y0135384D02*
X0082896Y0135384D01*
X0082896Y0132628D01*
X0082896Y0121998D02*
X0082896Y0110187D01*
X0082896Y0099557D02*
X0082896Y0080266D01*
X0030928Y0080266D01*
X0022660Y0086171D02*
X0022660Y0089321D01*
X0022654Y0089422D01*
X0022652Y0089522D01*
X0022654Y0089623D01*
X0022660Y0089723D01*
X0022670Y0089823D01*
X0022684Y0089923D01*
X0022702Y0090022D01*
X0022724Y0090120D01*
X0022749Y0090217D01*
X0022778Y0090314D01*
X0022811Y0090409D01*
X0022848Y0090502D01*
X0022889Y0090594D01*
X0022933Y0090685D01*
X0022980Y0090774D01*
X0023031Y0090860D01*
X0023085Y0090945D01*
X0023143Y0091028D01*
X0023203Y0091108D01*
X0023267Y0091185D01*
X0023334Y0091261D01*
X0023404Y0091333D01*
X0023476Y0091403D01*
X0023552Y0091470D01*
X0023629Y0091534D01*
X0023709Y0091594D01*
X0023792Y0091652D01*
X0023877Y0091706D01*
X0023963Y0091757D01*
X0024052Y0091804D01*
X0024143Y0091848D01*
X0024235Y0091889D01*
X0024328Y0091926D01*
X0024423Y0091959D01*
X0024520Y0091988D01*
X0024617Y0092013D01*
X0024715Y0092035D01*
X0024814Y0092053D01*
X0024914Y0092067D01*
X0025014Y0092077D01*
X0025114Y0092083D01*
X0025215Y0092085D01*
X0025315Y0092083D01*
X0025416Y0092077D01*
X0025415Y0092076D02*
X0025541Y0092081D01*
X0025666Y0092090D01*
X0025791Y0092103D01*
X0025915Y0092120D01*
X0026039Y0092140D01*
X0026162Y0092164D01*
X0026284Y0092192D01*
X0026405Y0092224D01*
X0026525Y0092260D01*
X0026644Y0092299D01*
X0026762Y0092342D01*
X0026878Y0092389D01*
X0026993Y0092439D01*
X0027107Y0092493D01*
X0027218Y0092551D01*
X0027328Y0092611D01*
X0027435Y0092676D01*
X0027541Y0092743D01*
X0027645Y0092814D01*
X0027746Y0092888D01*
X0027845Y0092965D01*
X0027942Y0093045D01*
X0028036Y0093128D01*
X0028127Y0093213D01*
X0028216Y0093302D01*
X0028301Y0093393D01*
X0028384Y0093487D01*
X0028464Y0093584D01*
X0028541Y0093683D01*
X0028615Y0093784D01*
X0028686Y0093888D01*
X0028753Y0093994D01*
X0028818Y0094101D01*
X0028878Y0094211D01*
X0028936Y0094322D01*
X0028990Y0094436D01*
X0029040Y0094551D01*
X0029087Y0094667D01*
X0029130Y0094785D01*
X0029169Y0094904D01*
X0029205Y0095024D01*
X0029237Y0095145D01*
X0029265Y0095267D01*
X0029289Y0095390D01*
X0029309Y0095514D01*
X0029326Y0095638D01*
X0029339Y0095763D01*
X0029348Y0095888D01*
X0029353Y0096014D01*
X0029353Y0129085D01*
X0111400Y0119518D02*
X0111400Y0111250D01*
X0116715Y0103966D02*
X0119077Y0103966D01*
X0124392Y0111250D02*
X0124392Y0119518D01*
X0119077Y0126801D02*
X0116715Y0126801D01*
X0117069Y0072589D02*
X0138723Y0072589D01*
X0140101Y0064321D02*
X0140101Y0056447D01*
X0138723Y0048179D02*
X0117069Y0048179D01*
X0115691Y0056447D02*
X0115691Y0064321D01*
X0121006Y0060384D02*
X0121008Y0060553D01*
X0121014Y0060722D01*
X0121025Y0060891D01*
X0121039Y0061059D01*
X0121058Y0061227D01*
X0121081Y0061395D01*
X0121107Y0061562D01*
X0121138Y0061728D01*
X0121173Y0061894D01*
X0121212Y0062058D01*
X0121256Y0062222D01*
X0121303Y0062384D01*
X0121354Y0062545D01*
X0121409Y0062705D01*
X0121468Y0062864D01*
X0121530Y0063021D01*
X0121597Y0063176D01*
X0121668Y0063330D01*
X0121742Y0063482D01*
X0121820Y0063632D01*
X0121901Y0063780D01*
X0121986Y0063926D01*
X0122075Y0064070D01*
X0122167Y0064212D01*
X0122263Y0064351D01*
X0122362Y0064488D01*
X0122464Y0064623D01*
X0122570Y0064755D01*
X0122679Y0064884D01*
X0122791Y0065011D01*
X0122906Y0065135D01*
X0123024Y0065256D01*
X0123145Y0065374D01*
X0123269Y0065489D01*
X0123396Y0065601D01*
X0123525Y0065710D01*
X0123657Y0065816D01*
X0123792Y0065918D01*
X0123929Y0066017D01*
X0124068Y0066113D01*
X0124210Y0066205D01*
X0124354Y0066294D01*
X0124500Y0066379D01*
X0124648Y0066460D01*
X0124798Y0066538D01*
X0124950Y0066612D01*
X0125104Y0066683D01*
X0125259Y0066750D01*
X0125416Y0066812D01*
X0125575Y0066871D01*
X0125735Y0066926D01*
X0125896Y0066977D01*
X0126058Y0067024D01*
X0126222Y0067068D01*
X0126386Y0067107D01*
X0126552Y0067142D01*
X0126718Y0067173D01*
X0126885Y0067199D01*
X0127053Y0067222D01*
X0127221Y0067241D01*
X0127389Y0067255D01*
X0127558Y0067266D01*
X0127727Y0067272D01*
X0127896Y0067274D01*
X0128065Y0067272D01*
X0128234Y0067266D01*
X0128403Y0067255D01*
X0128571Y0067241D01*
X0128739Y0067222D01*
X0128907Y0067199D01*
X0129074Y0067173D01*
X0129240Y0067142D01*
X0129406Y0067107D01*
X0129570Y0067068D01*
X0129734Y0067024D01*
X0129896Y0066977D01*
X0130057Y0066926D01*
X0130217Y0066871D01*
X0130376Y0066812D01*
X0130533Y0066750D01*
X0130688Y0066683D01*
X0130842Y0066612D01*
X0130994Y0066538D01*
X0131144Y0066460D01*
X0131292Y0066379D01*
X0131438Y0066294D01*
X0131582Y0066205D01*
X0131724Y0066113D01*
X0131863Y0066017D01*
X0132000Y0065918D01*
X0132135Y0065816D01*
X0132267Y0065710D01*
X0132396Y0065601D01*
X0132523Y0065489D01*
X0132647Y0065374D01*
X0132768Y0065256D01*
X0132886Y0065135D01*
X0133001Y0065011D01*
X0133113Y0064884D01*
X0133222Y0064755D01*
X0133328Y0064623D01*
X0133430Y0064488D01*
X0133529Y0064351D01*
X0133625Y0064212D01*
X0133717Y0064070D01*
X0133806Y0063926D01*
X0133891Y0063780D01*
X0133972Y0063632D01*
X0134050Y0063482D01*
X0134124Y0063330D01*
X0134195Y0063176D01*
X0134262Y0063021D01*
X0134324Y0062864D01*
X0134383Y0062705D01*
X0134438Y0062545D01*
X0134489Y0062384D01*
X0134536Y0062222D01*
X0134580Y0062058D01*
X0134619Y0061894D01*
X0134654Y0061728D01*
X0134685Y0061562D01*
X0134711Y0061395D01*
X0134734Y0061227D01*
X0134753Y0061059D01*
X0134767Y0060891D01*
X0134778Y0060722D01*
X0134784Y0060553D01*
X0134786Y0060384D01*
X0134784Y0060215D01*
X0134778Y0060046D01*
X0134767Y0059877D01*
X0134753Y0059709D01*
X0134734Y0059541D01*
X0134711Y0059373D01*
X0134685Y0059206D01*
X0134654Y0059040D01*
X0134619Y0058874D01*
X0134580Y0058710D01*
X0134536Y0058546D01*
X0134489Y0058384D01*
X0134438Y0058223D01*
X0134383Y0058063D01*
X0134324Y0057904D01*
X0134262Y0057747D01*
X0134195Y0057592D01*
X0134124Y0057438D01*
X0134050Y0057286D01*
X0133972Y0057136D01*
X0133891Y0056988D01*
X0133806Y0056842D01*
X0133717Y0056698D01*
X0133625Y0056556D01*
X0133529Y0056417D01*
X0133430Y0056280D01*
X0133328Y0056145D01*
X0133222Y0056013D01*
X0133113Y0055884D01*
X0133001Y0055757D01*
X0132886Y0055633D01*
X0132768Y0055512D01*
X0132647Y0055394D01*
X0132523Y0055279D01*
X0132396Y0055167D01*
X0132267Y0055058D01*
X0132135Y0054952D01*
X0132000Y0054850D01*
X0131863Y0054751D01*
X0131724Y0054655D01*
X0131582Y0054563D01*
X0131438Y0054474D01*
X0131292Y0054389D01*
X0131144Y0054308D01*
X0130994Y0054230D01*
X0130842Y0054156D01*
X0130688Y0054085D01*
X0130533Y0054018D01*
X0130376Y0053956D01*
X0130217Y0053897D01*
X0130057Y0053842D01*
X0129896Y0053791D01*
X0129734Y0053744D01*
X0129570Y0053700D01*
X0129406Y0053661D01*
X0129240Y0053626D01*
X0129074Y0053595D01*
X0128907Y0053569D01*
X0128739Y0053546D01*
X0128571Y0053527D01*
X0128403Y0053513D01*
X0128234Y0053502D01*
X0128065Y0053496D01*
X0127896Y0053494D01*
X0127727Y0053496D01*
X0127558Y0053502D01*
X0127389Y0053513D01*
X0127221Y0053527D01*
X0127053Y0053546D01*
X0126885Y0053569D01*
X0126718Y0053595D01*
X0126552Y0053626D01*
X0126386Y0053661D01*
X0126222Y0053700D01*
X0126058Y0053744D01*
X0125896Y0053791D01*
X0125735Y0053842D01*
X0125575Y0053897D01*
X0125416Y0053956D01*
X0125259Y0054018D01*
X0125104Y0054085D01*
X0124950Y0054156D01*
X0124798Y0054230D01*
X0124648Y0054308D01*
X0124500Y0054389D01*
X0124354Y0054474D01*
X0124210Y0054563D01*
X0124068Y0054655D01*
X0123929Y0054751D01*
X0123792Y0054850D01*
X0123657Y0054952D01*
X0123525Y0055058D01*
X0123396Y0055167D01*
X0123269Y0055279D01*
X0123145Y0055394D01*
X0123024Y0055512D01*
X0122906Y0055633D01*
X0122791Y0055757D01*
X0122679Y0055884D01*
X0122570Y0056013D01*
X0122464Y0056145D01*
X0122362Y0056280D01*
X0122263Y0056417D01*
X0122167Y0056556D01*
X0122075Y0056698D01*
X0121986Y0056842D01*
X0121901Y0056988D01*
X0121820Y0057136D01*
X0121742Y0057286D01*
X0121668Y0057438D01*
X0121597Y0057592D01*
X0121530Y0057747D01*
X0121468Y0057904D01*
X0121409Y0058063D01*
X0121354Y0058223D01*
X0121303Y0058384D01*
X0121256Y0058546D01*
X0121212Y0058710D01*
X0121173Y0058874D01*
X0121138Y0059040D01*
X0121107Y0059206D01*
X0121081Y0059373D01*
X0121058Y0059541D01*
X0121039Y0059709D01*
X0121025Y0059877D01*
X0121014Y0060046D01*
X0121008Y0060215D01*
X0121006Y0060384D01*
X0160691Y0056447D02*
X0160691Y0064321D01*
X0162069Y0072589D02*
X0183723Y0072589D01*
X0185101Y0064321D02*
X0185101Y0056447D01*
X0183723Y0048179D02*
X0162069Y0048179D01*
X0166006Y0060384D02*
X0166008Y0060553D01*
X0166014Y0060722D01*
X0166025Y0060891D01*
X0166039Y0061059D01*
X0166058Y0061227D01*
X0166081Y0061395D01*
X0166107Y0061562D01*
X0166138Y0061728D01*
X0166173Y0061894D01*
X0166212Y0062058D01*
X0166256Y0062222D01*
X0166303Y0062384D01*
X0166354Y0062545D01*
X0166409Y0062705D01*
X0166468Y0062864D01*
X0166530Y0063021D01*
X0166597Y0063176D01*
X0166668Y0063330D01*
X0166742Y0063482D01*
X0166820Y0063632D01*
X0166901Y0063780D01*
X0166986Y0063926D01*
X0167075Y0064070D01*
X0167167Y0064212D01*
X0167263Y0064351D01*
X0167362Y0064488D01*
X0167464Y0064623D01*
X0167570Y0064755D01*
X0167679Y0064884D01*
X0167791Y0065011D01*
X0167906Y0065135D01*
X0168024Y0065256D01*
X0168145Y0065374D01*
X0168269Y0065489D01*
X0168396Y0065601D01*
X0168525Y0065710D01*
X0168657Y0065816D01*
X0168792Y0065918D01*
X0168929Y0066017D01*
X0169068Y0066113D01*
X0169210Y0066205D01*
X0169354Y0066294D01*
X0169500Y0066379D01*
X0169648Y0066460D01*
X0169798Y0066538D01*
X0169950Y0066612D01*
X0170104Y0066683D01*
X0170259Y0066750D01*
X0170416Y0066812D01*
X0170575Y0066871D01*
X0170735Y0066926D01*
X0170896Y0066977D01*
X0171058Y0067024D01*
X0171222Y0067068D01*
X0171386Y0067107D01*
X0171552Y0067142D01*
X0171718Y0067173D01*
X0171885Y0067199D01*
X0172053Y0067222D01*
X0172221Y0067241D01*
X0172389Y0067255D01*
X0172558Y0067266D01*
X0172727Y0067272D01*
X0172896Y0067274D01*
X0173065Y0067272D01*
X0173234Y0067266D01*
X0173403Y0067255D01*
X0173571Y0067241D01*
X0173739Y0067222D01*
X0173907Y0067199D01*
X0174074Y0067173D01*
X0174240Y0067142D01*
X0174406Y0067107D01*
X0174570Y0067068D01*
X0174734Y0067024D01*
X0174896Y0066977D01*
X0175057Y0066926D01*
X0175217Y0066871D01*
X0175376Y0066812D01*
X0175533Y0066750D01*
X0175688Y0066683D01*
X0175842Y0066612D01*
X0175994Y0066538D01*
X0176144Y0066460D01*
X0176292Y0066379D01*
X0176438Y0066294D01*
X0176582Y0066205D01*
X0176724Y0066113D01*
X0176863Y0066017D01*
X0177000Y0065918D01*
X0177135Y0065816D01*
X0177267Y0065710D01*
X0177396Y0065601D01*
X0177523Y0065489D01*
X0177647Y0065374D01*
X0177768Y0065256D01*
X0177886Y0065135D01*
X0178001Y0065011D01*
X0178113Y0064884D01*
X0178222Y0064755D01*
X0178328Y0064623D01*
X0178430Y0064488D01*
X0178529Y0064351D01*
X0178625Y0064212D01*
X0178717Y0064070D01*
X0178806Y0063926D01*
X0178891Y0063780D01*
X0178972Y0063632D01*
X0179050Y0063482D01*
X0179124Y0063330D01*
X0179195Y0063176D01*
X0179262Y0063021D01*
X0179324Y0062864D01*
X0179383Y0062705D01*
X0179438Y0062545D01*
X0179489Y0062384D01*
X0179536Y0062222D01*
X0179580Y0062058D01*
X0179619Y0061894D01*
X0179654Y0061728D01*
X0179685Y0061562D01*
X0179711Y0061395D01*
X0179734Y0061227D01*
X0179753Y0061059D01*
X0179767Y0060891D01*
X0179778Y0060722D01*
X0179784Y0060553D01*
X0179786Y0060384D01*
X0179784Y0060215D01*
X0179778Y0060046D01*
X0179767Y0059877D01*
X0179753Y0059709D01*
X0179734Y0059541D01*
X0179711Y0059373D01*
X0179685Y0059206D01*
X0179654Y0059040D01*
X0179619Y0058874D01*
X0179580Y0058710D01*
X0179536Y0058546D01*
X0179489Y0058384D01*
X0179438Y0058223D01*
X0179383Y0058063D01*
X0179324Y0057904D01*
X0179262Y0057747D01*
X0179195Y0057592D01*
X0179124Y0057438D01*
X0179050Y0057286D01*
X0178972Y0057136D01*
X0178891Y0056988D01*
X0178806Y0056842D01*
X0178717Y0056698D01*
X0178625Y0056556D01*
X0178529Y0056417D01*
X0178430Y0056280D01*
X0178328Y0056145D01*
X0178222Y0056013D01*
X0178113Y0055884D01*
X0178001Y0055757D01*
X0177886Y0055633D01*
X0177768Y0055512D01*
X0177647Y0055394D01*
X0177523Y0055279D01*
X0177396Y0055167D01*
X0177267Y0055058D01*
X0177135Y0054952D01*
X0177000Y0054850D01*
X0176863Y0054751D01*
X0176724Y0054655D01*
X0176582Y0054563D01*
X0176438Y0054474D01*
X0176292Y0054389D01*
X0176144Y0054308D01*
X0175994Y0054230D01*
X0175842Y0054156D01*
X0175688Y0054085D01*
X0175533Y0054018D01*
X0175376Y0053956D01*
X0175217Y0053897D01*
X0175057Y0053842D01*
X0174896Y0053791D01*
X0174734Y0053744D01*
X0174570Y0053700D01*
X0174406Y0053661D01*
X0174240Y0053626D01*
X0174074Y0053595D01*
X0173907Y0053569D01*
X0173739Y0053546D01*
X0173571Y0053527D01*
X0173403Y0053513D01*
X0173234Y0053502D01*
X0173065Y0053496D01*
X0172896Y0053494D01*
X0172727Y0053496D01*
X0172558Y0053502D01*
X0172389Y0053513D01*
X0172221Y0053527D01*
X0172053Y0053546D01*
X0171885Y0053569D01*
X0171718Y0053595D01*
X0171552Y0053626D01*
X0171386Y0053661D01*
X0171222Y0053700D01*
X0171058Y0053744D01*
X0170896Y0053791D01*
X0170735Y0053842D01*
X0170575Y0053897D01*
X0170416Y0053956D01*
X0170259Y0054018D01*
X0170104Y0054085D01*
X0169950Y0054156D01*
X0169798Y0054230D01*
X0169648Y0054308D01*
X0169500Y0054389D01*
X0169354Y0054474D01*
X0169210Y0054563D01*
X0169068Y0054655D01*
X0168929Y0054751D01*
X0168792Y0054850D01*
X0168657Y0054952D01*
X0168525Y0055058D01*
X0168396Y0055167D01*
X0168269Y0055279D01*
X0168145Y0055394D01*
X0168024Y0055512D01*
X0167906Y0055633D01*
X0167791Y0055757D01*
X0167679Y0055884D01*
X0167570Y0056013D01*
X0167464Y0056145D01*
X0167362Y0056280D01*
X0167263Y0056417D01*
X0167167Y0056556D01*
X0167075Y0056698D01*
X0166986Y0056842D01*
X0166901Y0056988D01*
X0166820Y0057136D01*
X0166742Y0057286D01*
X0166668Y0057438D01*
X0166597Y0057592D01*
X0166530Y0057747D01*
X0166468Y0057904D01*
X0166409Y0058063D01*
X0166354Y0058223D01*
X0166303Y0058384D01*
X0166256Y0058546D01*
X0166212Y0058710D01*
X0166173Y0058874D01*
X0166138Y0059040D01*
X0166107Y0059206D01*
X0166081Y0059373D01*
X0166058Y0059541D01*
X0166039Y0059709D01*
X0166025Y0059877D01*
X0166014Y0060046D01*
X0166008Y0060215D01*
X0166006Y0060384D01*
X0211361Y0058652D02*
X0211361Y0057077D01*
X0211361Y0058652D02*
X0220022Y0058652D01*
X0235770Y0058652D02*
X0244038Y0058652D01*
X0244038Y0057470D01*
X0244038Y0041329D02*
X0244038Y0038573D01*
X0211361Y0038573D01*
X0211361Y0041329D01*
X0226839Y0087593D02*
X0228953Y0087593D01*
X0232896Y0088693D02*
X0232896Y0092074D01*
X0222896Y0092074D02*
X0222896Y0088693D01*
X0285106Y0081441D02*
X0285106Y0079327D01*
X0286206Y0075384D02*
X0289587Y0075384D01*
X0289587Y0085384D02*
X0286206Y0085384D01*
X0145455Y0206841D02*
X0145455Y0212352D01*
X0140337Y0212352D01*
X0140337Y0206841D01*
X0140337Y0212352D02*
X0140337Y0213927D01*
X0145455Y0213927D02*
X0145455Y0212352D01*
D12*
X0146696Y0196284D02*
X0143396Y0196284D01*
X0146696Y0196284D02*
X0149096Y0196284D01*
X0152396Y0196284D01*
X0152396Y0184484D02*
X0143396Y0184484D01*
X0153196Y0160284D02*
X0153196Y0156284D01*
X0147496Y0147884D02*
X0145396Y0145784D01*
X0143896Y0148684D02*
X0143896Y0149384D01*
X0144596Y0149384D01*
X0171196Y0149384D02*
X0171896Y0149384D01*
X0171896Y0148684D01*
X0178896Y0133884D02*
X0182896Y0133884D01*
X0171896Y0122084D02*
X0171896Y0121384D01*
X0171196Y0121384D01*
X0149896Y0114484D02*
X0149896Y0110484D01*
X0144596Y0121384D02*
X0143896Y0121384D01*
X0143896Y0122084D01*
D13*
X0146696Y0196284D02*
X0146698Y0196215D01*
X0146704Y0196147D01*
X0146714Y0196079D01*
X0146727Y0196012D01*
X0146745Y0195946D01*
X0146766Y0195881D01*
X0146791Y0195817D01*
X0146819Y0195755D01*
X0146851Y0195694D01*
X0146886Y0195635D01*
X0146925Y0195579D01*
X0146967Y0195524D01*
X0147012Y0195473D01*
X0147060Y0195423D01*
X0147110Y0195377D01*
X0147163Y0195334D01*
X0147219Y0195293D01*
X0147276Y0195256D01*
X0147336Y0195223D01*
X0147398Y0195192D01*
X0147461Y0195166D01*
X0147525Y0195143D01*
X0147591Y0195123D01*
X0147658Y0195108D01*
X0147725Y0195096D01*
X0147793Y0195088D01*
X0147862Y0195084D01*
X0147930Y0195084D01*
X0147999Y0195088D01*
X0148067Y0195096D01*
X0148134Y0195108D01*
X0148201Y0195123D01*
X0148267Y0195143D01*
X0148331Y0195166D01*
X0148394Y0195192D01*
X0148456Y0195223D01*
X0148516Y0195256D01*
X0148573Y0195293D01*
X0148629Y0195334D01*
X0148682Y0195377D01*
X0148732Y0195423D01*
X0148780Y0195473D01*
X0148825Y0195524D01*
X0148867Y0195579D01*
X0148906Y0195635D01*
X0148941Y0195694D01*
X0148973Y0195755D01*
X0149001Y0195817D01*
X0149026Y0195881D01*
X0149047Y0195946D01*
X0149065Y0196012D01*
X0149078Y0196079D01*
X0149088Y0196147D01*
X0149094Y0196215D01*
X0149096Y0196284D01*
D14*
X0108348Y0204384D02*
X0106769Y0204384D01*
X0106142Y0198884D02*
X0089650Y0198884D01*
X0089023Y0204384D02*
X0087444Y0204384D01*
X0096769Y0204384D02*
X0099023Y0204384D01*
X0089650Y0198884D02*
X0089497Y0199083D01*
X0089349Y0199285D01*
X0089206Y0199490D01*
X0089068Y0199699D01*
X0088935Y0199911D01*
X0088807Y0200126D01*
X0088685Y0200344D01*
X0088567Y0200565D01*
X0088455Y0200789D01*
X0088348Y0201015D01*
X0088247Y0201244D01*
X0088151Y0201475D01*
X0088060Y0201709D01*
X0087975Y0201944D01*
X0087896Y0202182D01*
X0087823Y0202421D01*
X0087755Y0202662D01*
X0087693Y0202904D01*
X0087637Y0203148D01*
X0087586Y0203394D01*
X0087542Y0203640D01*
X0087503Y0203887D01*
X0087471Y0204135D01*
X0087444Y0204384D01*
X0087422Y0204639D01*
X0087407Y0204895D01*
X0087399Y0205151D01*
X0087396Y0205408D01*
X0087400Y0205664D01*
X0087410Y0205920D01*
X0087426Y0206176D01*
X0087448Y0206431D01*
X0087477Y0206686D01*
X0087512Y0206940D01*
X0087553Y0207193D01*
X0087600Y0207445D01*
X0087654Y0207695D01*
X0087713Y0207944D01*
X0087779Y0208192D01*
X0087850Y0208438D01*
X0087928Y0208683D01*
X0088011Y0208925D01*
X0088100Y0209165D01*
X0088196Y0209403D01*
X0088297Y0209639D01*
X0088403Y0209872D01*
X0088516Y0210102D01*
X0088634Y0210330D01*
X0088757Y0210554D01*
X0088886Y0210776D01*
X0089020Y0210994D01*
X0089160Y0211209D01*
X0089305Y0211420D01*
X0089455Y0211628D01*
X0089609Y0211832D01*
X0089769Y0212033D01*
X0089934Y0212229D01*
X0090103Y0212421D01*
X0090278Y0212610D01*
X0090456Y0212793D01*
X0090639Y0212973D01*
X0090827Y0213148D01*
X0091018Y0213318D01*
X0091214Y0213483D01*
X0091414Y0213644D01*
X0091617Y0213800D01*
X0091824Y0213950D01*
X0092035Y0214096D01*
X0092250Y0214237D01*
X0092467Y0214372D01*
X0092688Y0214502D01*
X0092912Y0214626D01*
X0093139Y0214745D01*
X0093369Y0214858D01*
X0093602Y0214966D01*
X0093837Y0215068D01*
X0094075Y0215164D01*
X0094314Y0215254D01*
X0094556Y0215339D01*
X0094800Y0215417D01*
X0100992Y0215417D02*
X0101234Y0215339D01*
X0101474Y0215255D01*
X0101712Y0215166D01*
X0101948Y0215071D01*
X0102182Y0214969D01*
X0102413Y0214863D01*
X0102641Y0214750D01*
X0102867Y0214633D01*
X0103090Y0214510D01*
X0103309Y0214381D01*
X0103526Y0214247D01*
X0103739Y0214108D01*
X0103949Y0213964D01*
X0104155Y0213815D01*
X0104357Y0213661D01*
X0104556Y0213502D01*
X0104751Y0213338D01*
X0104942Y0213169D01*
X0105128Y0212996D01*
X0105311Y0212819D01*
X0105489Y0212637D01*
X0105662Y0212451D01*
X0105831Y0212260D01*
X0105995Y0212066D01*
X0106155Y0211868D01*
X0106310Y0211666D01*
X0106459Y0211460D01*
X0106604Y0211251D01*
X0106744Y0211038D01*
X0106878Y0210822D01*
X0107007Y0210602D01*
X0107131Y0210380D01*
X0107250Y0210155D01*
X0107362Y0209927D01*
X0107470Y0209696D01*
X0107571Y0209463D01*
X0107667Y0209227D01*
X0107758Y0208989D01*
X0107842Y0208749D01*
X0107921Y0208507D01*
X0107994Y0208263D01*
X0108060Y0208017D01*
X0108121Y0207770D01*
X0108176Y0207522D01*
X0108225Y0207272D01*
X0108268Y0207021D01*
X0108304Y0206769D01*
X0108335Y0206517D01*
X0108359Y0206263D01*
X0108377Y0206010D01*
X0108389Y0205755D01*
X0108395Y0205501D01*
X0108395Y0205246D01*
X0108389Y0204992D01*
X0108376Y0204738D01*
X0108357Y0204484D01*
X0108332Y0204231D01*
X0108301Y0203978D01*
X0108264Y0203726D01*
X0108221Y0203476D01*
X0108172Y0203226D01*
X0108116Y0202977D01*
X0108055Y0202730D01*
X0107988Y0202485D01*
X0107915Y0202241D01*
X0107836Y0201999D01*
X0107751Y0201760D01*
X0107660Y0201522D01*
X0107563Y0201286D01*
X0107461Y0201053D01*
X0107353Y0200823D01*
X0107240Y0200595D01*
X0107121Y0200370D01*
X0106997Y0200148D01*
X0106867Y0199929D01*
X0106733Y0199713D01*
X0106593Y0199500D01*
X0106447Y0199291D01*
X0106297Y0199086D01*
X0106142Y0198884D01*
X0074077Y0249321D02*
X0074077Y0282785D01*
X0022896Y0282785D01*
X0022896Y0249321D01*
X0153959Y0309754D02*
X0153959Y0331014D01*
X0161833Y0331014D02*
X0161833Y0309754D01*
X0159077Y0310148D02*
X0159077Y0314085D01*
X0156715Y0314085D01*
X0156715Y0310148D01*
X0159077Y0310148D01*
X0190455Y0244911D02*
X0190455Y0181919D01*
X0228487Y0181919D01*
X0228487Y0244911D01*
X0190455Y0244911D01*
X0212739Y0109321D02*
X0212739Y0101447D01*
X0212639Y0101207D01*
X0212534Y0100969D01*
X0212422Y0100733D01*
X0212305Y0100501D01*
X0212183Y0100272D01*
X0212055Y0100045D01*
X0211921Y0099822D01*
X0211782Y0099602D01*
X0211637Y0099386D01*
X0211487Y0099173D01*
X0211332Y0098964D01*
X0211172Y0098759D01*
X0211007Y0098558D01*
X0210837Y0098361D01*
X0210662Y0098168D01*
X0210483Y0097980D01*
X0210299Y0097796D01*
X0210111Y0097617D01*
X0209918Y0097442D01*
X0209721Y0097272D01*
X0209520Y0097107D01*
X0209314Y0096947D01*
X0209106Y0096792D01*
X0208893Y0096642D01*
X0208676Y0096498D01*
X0208457Y0096358D01*
X0208233Y0096225D01*
X0208007Y0096096D01*
X0207778Y0095974D01*
X0207545Y0095857D01*
X0207310Y0095746D01*
X0207072Y0095640D01*
X0206832Y0095541D01*
X0206589Y0095447D01*
X0206344Y0095359D01*
X0206097Y0095278D01*
X0205848Y0095202D01*
X0205597Y0095133D01*
X0205345Y0095070D01*
X0205091Y0095013D01*
X0204836Y0094962D01*
X0204580Y0094918D01*
X0204322Y0094879D01*
X0204064Y0094848D01*
X0203805Y0094822D01*
X0203546Y0094803D01*
X0203286Y0094790D01*
X0203026Y0094784D01*
X0202765Y0094784D01*
X0202505Y0094790D01*
X0202245Y0094803D01*
X0201986Y0094822D01*
X0201727Y0094848D01*
X0201469Y0094879D01*
X0201212Y0094918D01*
X0200955Y0094962D01*
X0200700Y0095013D01*
X0200446Y0095070D01*
X0200194Y0095133D01*
X0199943Y0095203D01*
X0199694Y0095278D01*
X0199447Y0095360D01*
X0199202Y0095447D01*
X0198959Y0095541D01*
X0198719Y0095641D01*
X0198481Y0095746D01*
X0198246Y0095857D01*
X0198014Y0095974D01*
X0197784Y0096097D01*
X0197558Y0096225D01*
X0197335Y0096359D01*
X0197115Y0096498D01*
X0196898Y0096643D01*
X0196686Y0096793D01*
X0196477Y0096948D01*
X0196272Y0097108D01*
X0196071Y0097273D01*
X0195874Y0097443D01*
X0195681Y0097617D01*
X0195492Y0097797D01*
X0195308Y0097981D01*
X0195129Y0098169D01*
X0194954Y0098362D01*
X0194784Y0098559D01*
X0194619Y0098760D01*
X0194459Y0098965D01*
X0194304Y0099174D01*
X0194154Y0099387D01*
X0194010Y0099603D01*
X0193871Y0099823D01*
X0193737Y0100046D01*
X0193609Y0100273D01*
X0193486Y0100502D01*
X0193369Y0100734D01*
X0193258Y0100970D01*
X0193152Y0101207D01*
X0193053Y0101448D01*
X0192959Y0101691D01*
X0192872Y0101935D01*
X0192790Y0102183D01*
X0192714Y0102431D01*
X0192645Y0102682D01*
X0192582Y0102935D01*
X0192525Y0103188D01*
X0192474Y0103444D01*
X0192430Y0103700D01*
X0192391Y0103957D01*
X0192360Y0104216D01*
X0192334Y0104474D01*
X0192315Y0104734D01*
X0192302Y0104994D01*
X0192296Y0105254D01*
X0192296Y0105514D01*
X0192302Y0105774D01*
X0192315Y0106034D01*
X0192334Y0106294D01*
X0192360Y0106552D01*
X0192391Y0106811D01*
X0192430Y0107068D01*
X0192474Y0107324D01*
X0192525Y0107580D01*
X0192582Y0107833D01*
X0192645Y0108086D01*
X0192714Y0108337D01*
X0192790Y0108585D01*
X0192872Y0108833D01*
X0192959Y0109077D01*
X0193053Y0109320D01*
X0193152Y0109561D01*
X0193258Y0109798D01*
X0193369Y0110034D01*
X0193486Y0110266D01*
X0193609Y0110495D01*
X0193737Y0110722D01*
X0193871Y0110945D01*
X0194010Y0111165D01*
X0194154Y0111381D01*
X0194304Y0111594D01*
X0194459Y0111803D01*
X0194619Y0112008D01*
X0194784Y0112209D01*
X0194954Y0112406D01*
X0195129Y0112599D01*
X0195308Y0112787D01*
X0195492Y0112971D01*
X0195681Y0113151D01*
X0195874Y0113325D01*
X0196071Y0113495D01*
X0196272Y0113660D01*
X0196477Y0113820D01*
X0196686Y0113975D01*
X0196898Y0114125D01*
X0197115Y0114270D01*
X0197335Y0114409D01*
X0197558Y0114543D01*
X0197784Y0114671D01*
X0198014Y0114794D01*
X0198246Y0114911D01*
X0198481Y0115022D01*
X0198719Y0115127D01*
X0198959Y0115227D01*
X0199202Y0115321D01*
X0199447Y0115408D01*
X0199694Y0115490D01*
X0199943Y0115565D01*
X0200194Y0115635D01*
X0200446Y0115698D01*
X0200700Y0115755D01*
X0200955Y0115806D01*
X0201212Y0115850D01*
X0201469Y0115889D01*
X0201727Y0115920D01*
X0201986Y0115946D01*
X0202245Y0115965D01*
X0202505Y0115978D01*
X0202765Y0115984D01*
X0203026Y0115984D01*
X0203286Y0115978D01*
X0203546Y0115965D01*
X0203805Y0115946D01*
X0204064Y0115920D01*
X0204322Y0115889D01*
X0204580Y0115850D01*
X0204836Y0115806D01*
X0205091Y0115755D01*
X0205345Y0115698D01*
X0205597Y0115635D01*
X0205848Y0115566D01*
X0206097Y0115490D01*
X0206344Y0115409D01*
X0206589Y0115321D01*
X0206832Y0115227D01*
X0207072Y0115128D01*
X0207310Y0115022D01*
X0207545Y0114911D01*
X0207778Y0114794D01*
X0208007Y0114672D01*
X0208233Y0114543D01*
X0208457Y0114410D01*
X0208676Y0114270D01*
X0208893Y0114126D01*
X0209106Y0113976D01*
X0209314Y0113821D01*
X0209520Y0113661D01*
X0209721Y0113496D01*
X0209918Y0113326D01*
X0210111Y0113151D01*
X0210299Y0112972D01*
X0210483Y0112788D01*
X0210662Y0112600D01*
X0210837Y0112407D01*
X0211007Y0112210D01*
X0211172Y0112009D01*
X0211332Y0111804D01*
X0211487Y0111595D01*
X0211637Y0111382D01*
X0211782Y0111166D01*
X0211921Y0110946D01*
X0212055Y0110723D01*
X0212183Y0110496D01*
X0212305Y0110267D01*
X0212422Y0110035D01*
X0212534Y0109799D01*
X0212639Y0109561D01*
X0212739Y0109321D01*
D15*
X0272148Y0057195D02*
X0276085Y0057195D01*
X0272176Y0057124D02*
X0272176Y0053258D01*
X0272148Y0053258D01*
X0272148Y0041447D02*
X0272148Y0037510D01*
X0299707Y0057195D02*
X0303644Y0057195D01*
X0303644Y0053258D01*
X0303644Y0041447D02*
X0303644Y0037510D01*
D16*
X0223211Y0186289D02*
X0223213Y0186351D01*
X0223219Y0186414D01*
X0223229Y0186475D01*
X0223243Y0186536D01*
X0223260Y0186596D01*
X0223281Y0186655D01*
X0223307Y0186712D01*
X0223335Y0186767D01*
X0223367Y0186821D01*
X0223403Y0186872D01*
X0223441Y0186922D01*
X0223483Y0186968D01*
X0223527Y0187012D01*
X0223575Y0187053D01*
X0223624Y0187091D01*
X0223676Y0187125D01*
X0223730Y0187156D01*
X0223786Y0187184D01*
X0223844Y0187208D01*
X0223903Y0187229D01*
X0223963Y0187245D01*
X0224024Y0187258D01*
X0224086Y0187267D01*
X0224148Y0187272D01*
X0224211Y0187273D01*
X0224273Y0187270D01*
X0224335Y0187263D01*
X0224397Y0187252D01*
X0224457Y0187237D01*
X0224517Y0187219D01*
X0224575Y0187197D01*
X0224632Y0187171D01*
X0224687Y0187141D01*
X0224740Y0187108D01*
X0224791Y0187072D01*
X0224839Y0187033D01*
X0224885Y0186990D01*
X0224928Y0186945D01*
X0224968Y0186897D01*
X0225005Y0186847D01*
X0225039Y0186794D01*
X0225070Y0186740D01*
X0225096Y0186684D01*
X0225120Y0186626D01*
X0225139Y0186566D01*
X0225155Y0186506D01*
X0225167Y0186444D01*
X0225175Y0186383D01*
X0225179Y0186320D01*
X0225179Y0186258D01*
X0225175Y0186195D01*
X0225167Y0186134D01*
X0225155Y0186072D01*
X0225139Y0186012D01*
X0225120Y0185952D01*
X0225096Y0185894D01*
X0225070Y0185838D01*
X0225039Y0185784D01*
X0225005Y0185731D01*
X0224968Y0185681D01*
X0224928Y0185633D01*
X0224885Y0185588D01*
X0224839Y0185545D01*
X0224791Y0185506D01*
X0224740Y0185470D01*
X0224687Y0185437D01*
X0224632Y0185407D01*
X0224575Y0185381D01*
X0224517Y0185359D01*
X0224457Y0185341D01*
X0224397Y0185326D01*
X0224335Y0185315D01*
X0224273Y0185308D01*
X0224211Y0185305D01*
X0224148Y0185306D01*
X0224086Y0185311D01*
X0224024Y0185320D01*
X0223963Y0185333D01*
X0223903Y0185349D01*
X0223844Y0185370D01*
X0223786Y0185394D01*
X0223730Y0185422D01*
X0223676Y0185453D01*
X0223624Y0185487D01*
X0223575Y0185525D01*
X0223527Y0185566D01*
X0223483Y0185610D01*
X0223441Y0185656D01*
X0223403Y0185706D01*
X0223367Y0185757D01*
X0223335Y0185811D01*
X0223307Y0185866D01*
X0223281Y0185923D01*
X0223260Y0185982D01*
X0223243Y0186042D01*
X0223229Y0186103D01*
X0223219Y0186164D01*
X0223213Y0186227D01*
X0223211Y0186289D01*
D17*
X0234196Y0094384D03*
X0291896Y0074084D03*
D18*
X0249864Y0078219D02*
X0249941Y0078292D01*
X0250016Y0078367D01*
X0250087Y0078445D01*
X0250156Y0078526D01*
X0250222Y0078609D01*
X0250285Y0078694D01*
X0250344Y0078782D01*
X0250401Y0078871D01*
X0250454Y0078963D01*
X0250504Y0079057D01*
X0250550Y0079152D01*
X0250593Y0079249D01*
X0250632Y0079347D01*
X0250668Y0079447D01*
X0250700Y0079548D01*
X0250728Y0079650D01*
X0250753Y0079753D01*
X0250774Y0079857D01*
X0250791Y0079962D01*
X0250805Y0080067D01*
X0250814Y0080172D01*
X0250820Y0080278D01*
X0250822Y0080384D01*
X0250820Y0080490D01*
X0250814Y0080596D01*
X0250805Y0080701D01*
X0250791Y0080806D01*
X0250774Y0080911D01*
X0250753Y0081015D01*
X0250728Y0081118D01*
X0250700Y0081220D01*
X0250668Y0081321D01*
X0250632Y0081421D01*
X0250593Y0081519D01*
X0250550Y0081616D01*
X0250504Y0081711D01*
X0250454Y0081805D01*
X0250401Y0081897D01*
X0250344Y0081986D01*
X0250285Y0082074D01*
X0250222Y0082159D01*
X0250156Y0082242D01*
X0250087Y0082323D01*
X0250016Y0082401D01*
X0249941Y0082476D01*
X0249864Y0082549D01*
X0245928Y0082549D02*
X0245851Y0082476D01*
X0245776Y0082401D01*
X0245705Y0082323D01*
X0245636Y0082242D01*
X0245570Y0082159D01*
X0245507Y0082074D01*
X0245448Y0081986D01*
X0245391Y0081897D01*
X0245338Y0081805D01*
X0245288Y0081711D01*
X0245242Y0081616D01*
X0245199Y0081519D01*
X0245160Y0081421D01*
X0245124Y0081321D01*
X0245092Y0081220D01*
X0245064Y0081118D01*
X0245039Y0081015D01*
X0245018Y0080911D01*
X0245001Y0080806D01*
X0244987Y0080701D01*
X0244978Y0080596D01*
X0244972Y0080490D01*
X0244970Y0080384D01*
X0244972Y0080278D01*
X0244978Y0080172D01*
X0244987Y0080067D01*
X0245001Y0079962D01*
X0245018Y0079857D01*
X0245039Y0079753D01*
X0245064Y0079650D01*
X0245092Y0079548D01*
X0245124Y0079447D01*
X0245160Y0079347D01*
X0245199Y0079249D01*
X0245242Y0079152D01*
X0245288Y0079057D01*
X0245338Y0078963D01*
X0245391Y0078871D01*
X0245448Y0078782D01*
X0245507Y0078694D01*
X0245570Y0078609D01*
X0245636Y0078526D01*
X0245705Y0078445D01*
X0245776Y0078367D01*
X0245851Y0078292D01*
X0245928Y0078219D01*
X0215928Y0123219D02*
X0215851Y0123292D01*
X0215776Y0123367D01*
X0215705Y0123445D01*
X0215636Y0123526D01*
X0215570Y0123609D01*
X0215507Y0123694D01*
X0215448Y0123782D01*
X0215391Y0123871D01*
X0215338Y0123963D01*
X0215288Y0124057D01*
X0215242Y0124152D01*
X0215199Y0124249D01*
X0215160Y0124347D01*
X0215124Y0124447D01*
X0215092Y0124548D01*
X0215064Y0124650D01*
X0215039Y0124753D01*
X0215018Y0124857D01*
X0215001Y0124962D01*
X0214987Y0125067D01*
X0214978Y0125172D01*
X0214972Y0125278D01*
X0214970Y0125384D01*
X0214972Y0125490D01*
X0214978Y0125596D01*
X0214987Y0125701D01*
X0215001Y0125806D01*
X0215018Y0125911D01*
X0215039Y0126015D01*
X0215064Y0126118D01*
X0215092Y0126220D01*
X0215124Y0126321D01*
X0215160Y0126421D01*
X0215199Y0126519D01*
X0215242Y0126616D01*
X0215288Y0126711D01*
X0215338Y0126805D01*
X0215391Y0126897D01*
X0215448Y0126986D01*
X0215507Y0127074D01*
X0215570Y0127159D01*
X0215636Y0127242D01*
X0215705Y0127323D01*
X0215776Y0127401D01*
X0215851Y0127476D01*
X0215928Y0127549D01*
X0219864Y0127549D02*
X0219941Y0127476D01*
X0220016Y0127401D01*
X0220087Y0127323D01*
X0220156Y0127242D01*
X0220222Y0127159D01*
X0220285Y0127074D01*
X0220344Y0126986D01*
X0220401Y0126897D01*
X0220454Y0126805D01*
X0220504Y0126711D01*
X0220550Y0126616D01*
X0220593Y0126519D01*
X0220632Y0126421D01*
X0220668Y0126321D01*
X0220700Y0126220D01*
X0220728Y0126118D01*
X0220753Y0126015D01*
X0220774Y0125911D01*
X0220791Y0125806D01*
X0220805Y0125701D01*
X0220814Y0125596D01*
X0220820Y0125490D01*
X0220822Y0125384D01*
X0220820Y0125278D01*
X0220814Y0125172D01*
X0220805Y0125067D01*
X0220791Y0124962D01*
X0220774Y0124857D01*
X0220753Y0124753D01*
X0220728Y0124650D01*
X0220700Y0124548D01*
X0220668Y0124447D01*
X0220632Y0124347D01*
X0220593Y0124249D01*
X0220550Y0124152D01*
X0220504Y0124057D01*
X0220454Y0123963D01*
X0220401Y0123871D01*
X0220344Y0123782D01*
X0220285Y0123694D01*
X0220222Y0123609D01*
X0220156Y0123526D01*
X0220087Y0123445D01*
X0220016Y0123367D01*
X0219941Y0123292D01*
X0219864Y0123219D01*
X0270731Y0138416D02*
X0270804Y0138339D01*
X0270879Y0138264D01*
X0270957Y0138193D01*
X0271038Y0138124D01*
X0271121Y0138058D01*
X0271206Y0137995D01*
X0271294Y0137936D01*
X0271383Y0137879D01*
X0271475Y0137826D01*
X0271569Y0137776D01*
X0271664Y0137730D01*
X0271761Y0137687D01*
X0271859Y0137648D01*
X0271959Y0137612D01*
X0272060Y0137580D01*
X0272162Y0137552D01*
X0272265Y0137527D01*
X0272369Y0137506D01*
X0272474Y0137489D01*
X0272579Y0137475D01*
X0272684Y0137466D01*
X0272790Y0137460D01*
X0272896Y0137458D01*
X0273002Y0137460D01*
X0273108Y0137466D01*
X0273213Y0137475D01*
X0273318Y0137489D01*
X0273423Y0137506D01*
X0273527Y0137527D01*
X0273630Y0137552D01*
X0273732Y0137580D01*
X0273833Y0137612D01*
X0273933Y0137648D01*
X0274031Y0137687D01*
X0274128Y0137730D01*
X0274223Y0137776D01*
X0274317Y0137826D01*
X0274409Y0137879D01*
X0274498Y0137936D01*
X0274586Y0137995D01*
X0274671Y0138058D01*
X0274754Y0138124D01*
X0274835Y0138193D01*
X0274913Y0138264D01*
X0274988Y0138339D01*
X0275061Y0138416D01*
X0275061Y0142352D02*
X0274988Y0142429D01*
X0274913Y0142504D01*
X0274835Y0142575D01*
X0274754Y0142644D01*
X0274671Y0142710D01*
X0274586Y0142773D01*
X0274498Y0142832D01*
X0274409Y0142889D01*
X0274317Y0142942D01*
X0274223Y0142992D01*
X0274128Y0143038D01*
X0274031Y0143081D01*
X0273933Y0143120D01*
X0273833Y0143156D01*
X0273732Y0143188D01*
X0273630Y0143216D01*
X0273527Y0143241D01*
X0273423Y0143262D01*
X0273318Y0143279D01*
X0273213Y0143293D01*
X0273108Y0143302D01*
X0273002Y0143308D01*
X0272896Y0143310D01*
X0272790Y0143308D01*
X0272684Y0143302D01*
X0272579Y0143293D01*
X0272474Y0143279D01*
X0272369Y0143262D01*
X0272265Y0143241D01*
X0272162Y0143216D01*
X0272060Y0143188D01*
X0271959Y0143156D01*
X0271859Y0143120D01*
X0271761Y0143081D01*
X0271664Y0143038D01*
X0271569Y0142992D01*
X0271475Y0142942D01*
X0271383Y0142889D01*
X0271294Y0142832D01*
X0271206Y0142773D01*
X0271121Y0142710D01*
X0271038Y0142644D01*
X0270957Y0142575D01*
X0270879Y0142504D01*
X0270804Y0142429D01*
X0270731Y0142352D01*
D19*
X0272896Y0140384D03*
X0217896Y0125384D03*
X0247896Y0080384D03*
D20*
X0245632Y0078317D03*
X0220160Y0127451D03*
D21*
X0270829Y0142648D03*
D22*
X0118683Y0107313D03*
D23*
X0062484Y0050384D02*
X0062486Y0050424D01*
X0062492Y0050464D01*
X0062502Y0050504D01*
X0062515Y0050542D01*
X0062533Y0050578D01*
X0062553Y0050613D01*
X0062578Y0050645D01*
X0062605Y0050675D01*
X0062635Y0050702D01*
X0062667Y0050727D01*
X0062702Y0050747D01*
X0062738Y0050765D01*
X0062776Y0050778D01*
X0062816Y0050788D01*
X0062856Y0050794D01*
X0062896Y0050796D01*
X0062936Y0050794D01*
X0062976Y0050788D01*
X0063016Y0050778D01*
X0063054Y0050765D01*
X0063090Y0050747D01*
X0063125Y0050727D01*
X0063157Y0050702D01*
X0063187Y0050675D01*
X0063214Y0050645D01*
X0063239Y0050613D01*
X0063259Y0050578D01*
X0063277Y0050542D01*
X0063290Y0050504D01*
X0063300Y0050464D01*
X0063306Y0050424D01*
X0063308Y0050384D01*
X0063306Y0050344D01*
X0063300Y0050304D01*
X0063290Y0050264D01*
X0063277Y0050226D01*
X0063259Y0050190D01*
X0063239Y0050155D01*
X0063214Y0050123D01*
X0063187Y0050093D01*
X0063157Y0050066D01*
X0063125Y0050041D01*
X0063090Y0050021D01*
X0063054Y0050003D01*
X0063016Y0049990D01*
X0062976Y0049980D01*
X0062936Y0049974D01*
X0062896Y0049972D01*
X0062856Y0049974D01*
X0062816Y0049980D01*
X0062776Y0049990D01*
X0062738Y0050003D01*
X0062702Y0050021D01*
X0062667Y0050041D01*
X0062635Y0050066D01*
X0062605Y0050093D01*
X0062578Y0050123D01*
X0062553Y0050155D01*
X0062533Y0050190D01*
X0062515Y0050226D01*
X0062502Y0050264D01*
X0062492Y0050304D01*
X0062486Y0050344D01*
X0062484Y0050384D01*
D24*
X0059896Y0047884D02*
X0055896Y0047884D01*
X0055896Y0042384D01*
X0062896Y0033884D02*
X0082896Y0033884D01*
X0089896Y0042384D02*
X0089896Y0047884D01*
X0085896Y0047884D01*
M02*
