G75*
%MOIN*%
%OFA0B0*%
%FSLAX25Y25*%
%IPPOS*%
%LPD*%
%AMOC8*
5,1,8,0,0,1.08239X$1,22.5*
%
%ADD10R,0.07099X0.12611*%
%ADD11R,0.04737X0.22454*%
%ADD12R,0.06800X0.02600*%
%ADD13R,0.08674X0.03753*%
%ADD14R,0.02375X0.06509*%
%ADD15C,0.04146*%
%ADD16R,0.07874X0.06693*%
%ADD17R,0.10630X0.06693*%
%ADD18R,0.06902X0.05918*%
%ADD19OC8,0.06400*%
%ADD20R,0.07887X0.03950*%
%ADD21R,0.05956X0.05956*%
%ADD22R,0.06312X0.07887*%
%ADD23R,0.08280X0.06312*%
%ADD24R,0.06706X0.03950*%
%ADD25R,0.08674X0.04737*%
%ADD26R,0.04737X0.07887*%
%ADD27R,0.05524X0.02965*%
%ADD28R,0.02965X0.05524*%
%ADD29R,0.08200X0.08200*%
%ADD30OC8,0.08200*%
%ADD31R,0.07887X0.07099*%
%ADD32R,0.07099X0.07887*%
%ADD33R,0.04068X0.03280*%
%ADD34R,0.07898X0.07099*%
%ADD35R,0.07099X0.07898*%
%ADD36C,0.05956*%
%ADD37R,0.06600X0.02800*%
%ADD38R,0.02800X0.06600*%
%ADD39R,0.06312X0.08280*%
%ADD40R,0.03162X0.06902*%
%ADD41R,0.05524X0.07887*%
%ADD42C,0.05162*%
D10*
X0214510Y0049321D03*
X0241282Y0049321D03*
D11*
X0231833Y0058258D03*
X0223959Y0058258D03*
D12*
X0155896Y0186584D03*
X0155896Y0189084D03*
X0155896Y0191684D03*
X0155896Y0194184D03*
X0139896Y0194184D03*
X0139896Y0191684D03*
X0139896Y0189084D03*
X0139896Y0186584D03*
D13*
X0157896Y0306998D03*
X0157896Y0333770D03*
D14*
X0282778Y0056112D03*
X0285337Y0056112D03*
X0287896Y0056112D03*
X0290455Y0056112D03*
X0293014Y0056112D03*
D15*
X0295376Y0054045D03*
X0280416Y0054045D03*
D16*
X0273392Y0045384D03*
X0302400Y0045384D03*
D17*
X0287896Y0045384D03*
D18*
X0188546Y0051526D03*
X0188546Y0069242D03*
X0157246Y0069242D03*
X0143546Y0069242D03*
X0143546Y0051526D03*
X0157246Y0051526D03*
X0112246Y0051526D03*
X0112246Y0069242D03*
D19*
X0102896Y0205384D03*
X0097896Y0212884D03*
X0092896Y0205384D03*
D20*
X0185849Y0203573D03*
X0185849Y0199242D03*
X0185849Y0194911D03*
X0185849Y0190581D03*
X0185849Y0186250D03*
X0185849Y0207904D03*
X0185849Y0212234D03*
X0185849Y0224045D03*
X0185849Y0228376D03*
X0185849Y0232707D03*
X0185849Y0237037D03*
X0185849Y0241368D03*
X0233093Y0241368D03*
X0233093Y0237037D03*
X0233093Y0232707D03*
X0233093Y0228376D03*
X0233093Y0224045D03*
X0233093Y0212234D03*
X0233093Y0207904D03*
X0233093Y0203573D03*
X0233093Y0199242D03*
X0233093Y0194911D03*
X0233093Y0190581D03*
X0233093Y0186250D03*
D21*
X0167896Y0240384D03*
X0132896Y0240384D03*
D22*
X0081321Y0127313D03*
X0081321Y0104872D03*
D23*
X0029550Y0133612D03*
X0025613Y0081841D03*
D24*
X0040770Y0100187D03*
X0042345Y0104518D03*
X0040770Y0108848D03*
X0039983Y0113179D03*
X0040770Y0117510D03*
X0039983Y0121841D03*
X0040770Y0126171D03*
X0040770Y0130502D03*
D25*
X0022896Y0174518D03*
X0022896Y0180423D03*
X0022896Y0186329D03*
X0022896Y0192234D03*
X0022896Y0198140D03*
X0022896Y0204045D03*
X0022896Y0209951D03*
X0022896Y0215856D03*
X0022896Y0221762D03*
X0022896Y0227667D03*
X0022896Y0233573D03*
X0022896Y0239478D03*
X0022896Y0245384D03*
X0074077Y0245384D03*
X0074077Y0239478D03*
X0074077Y0233573D03*
X0074077Y0227667D03*
X0074077Y0221762D03*
X0074077Y0215856D03*
X0074077Y0209951D03*
X0074077Y0204045D03*
X0074077Y0198140D03*
X0074077Y0192234D03*
X0074077Y0186329D03*
X0074077Y0180423D03*
X0074077Y0174518D03*
D26*
X0069156Y0167628D03*
X0063250Y0167628D03*
X0057345Y0167628D03*
X0051439Y0167628D03*
X0045534Y0167628D03*
X0039628Y0167628D03*
X0033723Y0167628D03*
X0027817Y0167628D03*
D27*
X0282778Y0084124D03*
X0282778Y0076644D03*
X0293015Y0076644D03*
X0293015Y0080384D03*
X0293015Y0084124D03*
D28*
X0231636Y0085265D03*
X0224156Y0085265D03*
X0224156Y0095502D03*
X0227896Y0095502D03*
X0231636Y0095502D03*
D29*
X0017896Y0065384D03*
D30*
X0027896Y0065384D03*
X0027896Y0055384D03*
X0017896Y0055384D03*
X0017896Y0045384D03*
X0027896Y0045384D03*
D31*
X0057896Y0059872D03*
X0057896Y0070896D03*
X0087896Y0184872D03*
X0087896Y0195896D03*
X0192896Y0140896D03*
X0192896Y0129872D03*
X0252896Y0174872D03*
X0252896Y0185896D03*
X0297896Y0120896D03*
X0297896Y0109872D03*
D32*
X0288408Y0100384D03*
X0277384Y0100384D03*
X0268408Y0100384D03*
X0257384Y0100384D03*
X0258408Y0110384D03*
X0247384Y0110384D03*
X0238408Y0125384D03*
X0227384Y0125384D03*
X0193408Y0165384D03*
X0182384Y0165384D03*
X0168408Y0220384D03*
X0157384Y0220384D03*
X0113408Y0225384D03*
X0113408Y0235384D03*
X0102384Y0235384D03*
X0102384Y0225384D03*
X0098408Y0245384D03*
X0087384Y0245384D03*
X0092384Y0255384D03*
X0103408Y0255384D03*
X0088408Y0160384D03*
X0088408Y0150384D03*
X0077384Y0150384D03*
X0068408Y0150384D03*
X0077384Y0160384D03*
X0057384Y0150384D03*
X0112384Y0135384D03*
X0123408Y0135384D03*
X0123408Y0095384D03*
X0112384Y0095384D03*
X0117384Y0080384D03*
X0128408Y0080384D03*
X0157384Y0080384D03*
X0168408Y0080384D03*
X0202384Y0075384D03*
X0213408Y0075384D03*
X0252384Y0060384D03*
X0263408Y0060384D03*
X0287384Y0140384D03*
X0298408Y0140384D03*
D33*
X0142896Y0205856D03*
X0142896Y0214911D03*
D34*
X0217896Y0130982D03*
X0217896Y0119785D03*
X0247896Y0085982D03*
X0247896Y0074785D03*
D35*
X0267298Y0140384D03*
X0278494Y0140384D03*
D36*
X0210396Y0107962D02*
X0210396Y0102806D01*
X0205396Y0102806D02*
X0205396Y0107962D01*
X0200396Y0107962D02*
X0200396Y0102806D01*
X0195396Y0102806D02*
X0195396Y0107962D01*
D37*
X0174596Y0124384D03*
X0174596Y0127484D03*
X0174596Y0130684D03*
X0174596Y0133784D03*
X0174596Y0136984D03*
X0174596Y0140084D03*
X0174596Y0143284D03*
X0174596Y0146384D03*
X0141196Y0146384D03*
X0141196Y0143284D03*
X0141196Y0140084D03*
X0141196Y0136984D03*
X0141196Y0133784D03*
X0141196Y0130684D03*
X0141196Y0127484D03*
X0141196Y0124384D03*
D38*
X0146896Y0118684D03*
X0149996Y0118684D03*
X0153196Y0118684D03*
X0156296Y0118684D03*
X0159496Y0118684D03*
X0162596Y0118684D03*
X0165796Y0118684D03*
X0168896Y0118684D03*
X0168896Y0152084D03*
X0165796Y0152084D03*
X0162596Y0152084D03*
X0159496Y0152084D03*
X0156296Y0152084D03*
X0153196Y0152084D03*
X0149996Y0152084D03*
X0146896Y0152084D03*
D39*
X0122620Y0124045D03*
X0113172Y0124045D03*
X0113172Y0106722D03*
X0122620Y0106722D03*
D40*
X0082581Y0045384D03*
X0078644Y0045384D03*
X0074707Y0045384D03*
X0070770Y0045384D03*
X0066833Y0045384D03*
X0062896Y0045384D03*
D41*
X0057778Y0036624D03*
X0087699Y0036624D03*
D42*
X0017896Y0035384D03*
X0022896Y0050384D03*
X0042896Y0050384D03*
X0047896Y0055384D03*
X0042896Y0060384D03*
X0042896Y0070384D03*
X0032896Y0080384D03*
X0027896Y0075384D03*
X0012896Y0085384D03*
X0022896Y0100384D03*
X0027896Y0105384D03*
X0022896Y0120384D03*
X0017896Y0125384D03*
X0047896Y0145384D03*
X0037896Y0160384D03*
X0052896Y0175384D03*
X0062896Y0175384D03*
X0082896Y0170384D03*
X0097896Y0165384D03*
X0102896Y0175384D03*
X0117896Y0175384D03*
X0117896Y0185384D03*
X0127896Y0170384D03*
X0132896Y0185384D03*
X0132896Y0150384D03*
X0122896Y0145384D03*
X0112896Y0150384D03*
X0102896Y0145384D03*
X0092896Y0135384D03*
X0087896Y0120384D03*
X0082896Y0115384D03*
X0092896Y0115384D03*
X0097896Y0105384D03*
X0117896Y0115384D03*
X0082896Y0075384D03*
X0077896Y0080384D03*
X0072896Y0065384D03*
X0067896Y0055384D03*
X0077896Y0035384D03*
X0087896Y0045384D03*
X0087896Y0055384D03*
X0107896Y0045384D03*
X0122896Y0055384D03*
X0122896Y0065384D03*
X0132896Y0045384D03*
X0197896Y0090384D03*
X0212896Y0085384D03*
X0217896Y0090384D03*
X0237896Y0085384D03*
X0302896Y0085384D03*
X0172896Y0170384D03*
X0122896Y0260384D03*
X0092896Y0265384D03*
X0082896Y0260384D03*
X0062896Y0260384D03*
X0057896Y0205384D03*
X0082896Y0205384D03*
X0067896Y0135384D03*
X0062896Y0125384D03*
X0057896Y0115384D03*
X0062896Y0110384D03*
X0067896Y0105384D03*
X0047896Y0100384D03*
X0042896Y0090384D03*
X0047896Y0085384D03*
X0047896Y0040384D03*
X0042896Y0035384D03*
M02*
